<?xml version="1.0" encoding="UTF-8"?>
<svg width="1000px" height="740px" viewBox="0 0 1000 740" version="1.1" xmlns="http://www.w3.org/2000/svg" xmlns:xlink="http://www.w3.org/1999/xlink">
    <!-- Generator: Sketch 51.2 (57519) - http://www.bohemiancoding.com/sketch -->
    <title>Story1_Background</title>
    <desc>Created with Sketch.</desc>
    <defs>
        <linearGradient x1="100%" y1="32.6024499%" x2="0%" y2="33.6671124%" id="linearGradient-1">
            <stop stop-color="#85CDE7" offset="0%"></stop>
            <stop stop-color="#4AA5D5" offset="27.728932%"></stop>
            <stop stop-color="#4AA5D5" offset="65.9844641%"></stop>
            <stop stop-color="#2092BB" offset="100%"></stop>
        </linearGradient>
        <rect id="path-2" x="0" y="0" width="1000" height="740"></rect>
        <linearGradient x1="100%" y1="18.8694767%" x2="0%" y2="18.8694737%" id="linearGradient-4">
            <stop stop-color="#FEEDCF" offset="0%"></stop>
            <stop stop-color="#F8EAD2" offset="47.6098623%"></stop>
            <stop stop-color="#EEE0C7" offset="54.2496603%"></stop>
            <stop stop-color="#D6CAB3" offset="100%"></stop>
        </linearGradient>
    </defs>
    <g id="Story1_Background" stroke="none" stroke-width="1" fill="none" fill-rule="evenodd">
        <g id="Background">
            <mask id="mask-3" fill="white">
                <use xlink:href="#path-2"></use>
            </mask>
            <use id="BG" fill="url(#linearGradient-1)" fill-rule="nonzero" xlink:href="#path-2"></use>
            <path d="M0,0 L376.607241,0 C387.597751,151.3761 367.723168,268.749052 316.98349,352.118856 C266.243812,435.488661 160.582649,478.248666 0,480.398871 L0,0 Z" id="BG-Copy" fill="#315E59" fill-rule="nonzero" opacity="0.149999991" mask="url(#mask-3)"></path>
            <path d="M0,0 L465.373047,0 C478.954005,176.14371 454.39501,312.720801 391.69606,409.731272 C328.997111,506.741743 198.431757,556.497986 0,559 L0,0 Z" id="BG-Copy-2" fill="#315E59" fill-rule="nonzero" opacity="0.149999991" mask="url(#mask-3)"></path>
            <path d="M0,0 L590.398642,0 C607.628216,223.409465 576.471281,396.635149 496.927837,519.677052 C417.384394,642.718956 251.741782,705.826605 0,709 L0,0 Z" id="BG-Copy-3" fill="#315E59" fill-rule="nonzero" opacity="0.149999991" mask="url(#mask-3)"></path>
            <path d="M0,0 L727.331436,0 C748.557113,253.344442 710.173864,449.780902 612.181689,589.309379 C514.189514,728.837856 310.128951,800.401397 0,804 L0,0 Z" id="BG-Copy-4" fill="#315E59" fill-rule="nonzero" opacity="0.149999991" mask="url(#mask-3)"></path>
            <g id="Group" mask="url(#mask-3)" fill="url(#linearGradient-4)" fill-rule="nonzero">
                <path d="M322.888306,261.46522 C273.406268,299.341921 212.085307,247.705445 127.368727,224.571847 C76.135105,210.581456 29.8249028,208.75585 -1.98951966e-13,209.023505 C9.94340508e-14,147.702036 9.64648139e-14,78.0275349 9.23705556e-14,-4.54747351e-13 C292.343611,-4.47255464e-13 468.858807,-4.47255464e-13 529.545588,-4.54747351e-13 C526.308293,7.14387481 537.863606,108.159827 511.721206,109.183587 C498.416788,104.24726 484.769153,5.86629221 484.769153,-9.09494702e-13 C525.317916,-9.04915574e-13 697.061532,-9.04915574e-13 1000,-9.09494702e-13 C1000,78.975456 1000,149.686396 1000,212.132819 C956.919161,213.2369 910.300833,220.407793 884.978955,235.638599 C825.717995,271.283357 781.317223,319.174482 745.807047,294.786719 C744.665491,293.8409 743.524661,292.90116 742.384577,291.967703 C645.286966,212.467875 588.622565,109.375864 512.748177,109.375864 C512.406241,109.375864 512.063837,109.310713 511.721206,109.183587 C511.588035,109.188802 511.453887,109.191423 511.318753,109.191423 C462.288581,109.191423 394.5015,187.302573 322.888306,261.46522 Z M123.792552,440.0552 C89.0489257,465.801722 51.1027972,490.25226 9.23705556e-14,520 C1.01638865e-13,480.996736 1.05142015e-13,399.188445 1.02880005e-13,274.575127 C38.3431688,281.105527 90.7912503,293.422977 123.131244,309.332723 C172.026761,333.387002 162.161273,403.918122 123.792552,440.0552 Z M859.518627,400.031601 C859.485735,399.993482 859.451696,399.954314 859.416503,399.914091 C840.865468,378.711964 866.730883,305.259536 911.556037,273.961699 C931.718363,259.883952 966.441863,254.125335 1000,252.909674 C1000,381.625538 1000,470.655647 1000,520 C953.933078,489.932756 906.667264,445.467828 859.518627,400.031601 Z" id="Combined-Shape"></path>
            </g>
        </g>
    </g>
</svg>