<?xml version="1.0" encoding="UTF-8"?>
<svg width="260px" height="260px" viewBox="0 0 260 260" version="1.1" xmlns="http://www.w3.org/2000/svg" xmlns:xlink="http://www.w3.org/1999/xlink">
    <!-- Generator: Sketch 51.2 (57519) - http://www.bohemiancoding.com/sketch -->
    <title>Story1_Button3</title>
    <desc>Created with Sketch.</desc>
    <defs>
        <path d="M5.94630335e-08,99.2920587 C5.9463034e-08,86.8973443 -7.43287989e-08,75.1001558 5.94630504e-08,49.1639762 C1.932549e-07,23.2277966 22.0144128,20.0048415 22.0144119,2.84341614 C26.5776917,-0.879350379 33.6576024,-1.01564793 38.2208823,2.84341614 C38.2208813,20.0048415 60.2352942,23.2277966 60.2352942,49.1639762 C60.2352941,75.1001558 60.2352942,87.0409835 60.2352942,99.2920587 C60.2352942,122.088273 52.8024501,123.072477 52.8024501,123.072477 C51.4638,123.813611 49.1214342,124.414418 47.5933737,124.414418 L12.6419206,124.414418 C11.1036772,124.414418 8.70670696,123.923073 7.42020015,123.062494 C7.42020015,123.062494 5.94630335e-08,122.088273 5.94630335e-08,99.2920587 Z" id="path-1"></path>
        <rect id="path-3" x="0.237146827" y="0" width="18.0231589" height="9.76980634" rx="4.88490317"></rect>
        <path d="M2.42761551,17.0766025 C5.27269403,10.1342644 9.54699988,4.44206362 15.2505331,0 L30.3509755,0 C36.389846,4.76331957 40.8353978,10.4555204 43.687631,17.0766025 C44.6760848,19.3711672 45.0155724,24.2696118 45.0155724,34.8914416 C45.0155724,42.4281033 37.7066202,48.4979541 37.7066202,54.5427307 C37.7066202,58.9927179 42.8188305,62.5985543 43.687631,69.6650585 C44.9204154,79.692074 43.687631,114.381965 43.687631,120.034078 C43.687631,121.986501 40.8565808,135.925961 35.9227557,137.793617 C34.606588,138.291841 32.1085904,135.259371 28.7091995,135.259371 C25.7438909,135.259371 24.4074611,139.71028 21.7843249,139.71028 C18.9114424,139.71028 18.2438107,135.792245 15.2505331,135.259371 C12.4920324,134.768292 10.6581101,137.793617 8.68977288,137.793617 C3.62203876,137.793617 -0.156273906,125.486539 0.00497284251,119.333598 C0.661598453,94.2777242 1.25497188,77.7215442 1.78509313,69.6650585 C2.13093897,64.4090872 7.25469903,57.5897394 7.25469903,54.5427307 C7.25469903,49.3540305 0.330829263,45.0392946 0.330829263,33.1265716 C0.330829263,24.4224213 1.5508695,19.2159695 2.42761551,17.0766025 Z" id="path-5"></path>
        <rect id="path-7" x="0.20119076" y="0" width="15.2904977" height="9.87850467" rx="4.93925234"></rect>
        <path d="M1.41176471,73.7345366 L1.41176471,67.2421875 L0.931677019,67.2421875 C0.417126009,67.2421875 1.86960519e-16,66.8250615 -3.33066907e-16,66.3105105 L0,59.8265585 C-6.30143246e-17,59.3120075 0.417126009,58.8948815 0.931677019,58.8948815 L1.41176471,58.8948815 L1.41176471,52.4025323 L0.931677019,52.4025323 C0.417126009,52.4025323 -1.5903028e-16,51.9854063 -2.22044605e-16,51.4708553 L1.11022302e-16,44.9869033 C2.76514529e-16,44.4723523 0.417126009,44.0552263 0.931677019,44.0552263 L1.41176471,44.0552263 L1.41176471,37.5628772 L0.931677019,37.5628772 C0.417126009,37.5628772 -2.70052583e-16,37.1457511 -3.33066907e-16,36.6312001 L0,30.1472481 C-6.30143246e-17,29.6326971 0.417126009,29.2155711 0.931677019,29.2155711 L1.41176471,29.2155711 L1.41176471,20.8401987 C1.41176471,20.3997217 1.53666499,19.9682735 1.7719731,19.5959161 L10.2273257,6.21595352 C10.4626338,5.84359606 10.5875341,5.41214787 10.5875341,4.97167087 L10.5875341,2.32919255 C10.5875341,1.04281502 11.6303491,-2.07785492e-16 12.9167266,-4.4408921e-16 L23.5962189,-4.4408921e-16 C24.8825965,-6.80392927e-16 25.9254115,1.04281502 25.9254115,2.32919255 L25.9254115,4.92676707 C25.9254115,5.39530948 26.0667201,5.85296016 26.3308787,6.23993841 L35.3592386,19.4659993 C35.6233973,19.8529776 35.7647059,20.3106283 35.7647059,20.7791707 L35.7647059,29.2155711 L36.7153818,29.2155711 C37.2299328,29.2155711 37.6470588,29.6326971 37.6470588,30.1472481 L37.6470588,36.6312001 C37.6470588,37.1457511 37.2299328,37.5628772 36.7153818,37.5628772 L35.7647059,37.5628772 L35.7647059,44.0552263 L36.7153818,44.0552263 C37.2299328,44.0552263 37.6470588,44.4723523 37.6470588,44.9869033 L37.6470588,51.4708553 C37.6470588,51.9854063 37.2299328,52.4025323 36.7153818,52.4025323 L35.7647059,52.4025323 L35.7647059,58.8948815 L36.7153818,58.8948815 C37.2299328,58.8948815 37.6470588,59.3120075 37.6470588,59.8265585 L37.6470588,66.3105105 C37.6470588,66.8250615 37.2299328,67.2421875 36.7153818,67.2421875 L35.7647059,67.2421875 L35.7647059,73.7345366 L36.7153818,73.7345366 C37.2299328,73.7345366 37.6470588,74.1516626 37.6470588,74.6662137 L37.6470588,81.1501657 C37.6470588,81.6647167 37.2299328,82.0818427 36.7153818,82.0818427 L35.7647059,82.0818427 L35.7647059,88.101588 C35.7647059,88.5243675 35.6496338,88.9391744 35.4318279,89.3015322 L30.4154125,97.6472064 C29.9942561,98.3478729 29.2365979,98.7764547 28.4190979,98.7764547 L8.42138894,98.7764547 C7.57822177,98.7764547 6.80088724,98.3207731 6.38900775,97.5850515 L1.70857606,89.22461 C1.51395834,88.8769732 1.41176471,88.4852267 1.41176471,88.0868206 L1.41176471,82.0818427 L0.931677019,82.0818427 C0.417126009,82.0818427 -3.81074885e-16,81.6647167 -4.4408921e-16,81.1501657 L-1.11022302e-16,74.6662137 C-1.74036627e-16,74.1516626 0.417126009,73.7345366 0.931677019,73.7345366 L1.41176471,73.7345366 Z" id="path-9"></path>
        <rect id="path-11" x="0.2413273" y="0" width="18.3408748" height="9.73852371" rx="4.86926185"></rect>
    </defs>
    <g id="Story1_Button3" stroke="none" stroke-width="1" fill="none" fill-rule="evenodd">
        <g id="Group-10">
            <rect id="Rectangle-16-Copy" stroke-opacity="0.2" stroke="#000000" stroke-width="5" fill="#048BEC" fill-rule="nonzero" x="2.5" y="2.5" width="255" height="255" rx="8"></rect>
            <g id="Group-3" transform="translate(50.000000, 55.000000)">
                <g id="Rectangle-6-+-Rectangle-1-+-Mask-+-Line" transform="translate(0.000000, 18.875000)">
                    <g id="Rectangle-6-+-Rectangle-1" transform="translate(0.000000, 7.443662)">
                        <g id="Rectangle-1">
                            <mask id="mask-2" fill="white">
                                <use xlink:href="#path-1"></use>
                            </mask>
                            <path stroke="#455A64" stroke-width="1.86335404" d="M53.118522,123.960444 C51.6308042,124.74156 49.2318903,125.346095 47.5933737,125.346095 L12.6419206,125.346095 C10.8241459,125.346095 8.44962132,124.788733 7.06550544,123.941338 C6.72040973,123.856059 6.27239286,123.669364 5.75672387,123.337622 C4.76397448,122.698963 3.79473428,121.678403 2.91110259,120.205049 C0.493267328,116.173588 -0.931676959,109.419967 -0.931676959,99.2920587 C-0.931676959,98.5386917 -0.931676959,98.5386917 -0.93167696,97.786307 C-0.931676969,92.3534487 -0.931676969,92.3534487 -0.931676989,86.5507232 C-0.931677033,71.9581581 -0.931677033,71.9581581 -0.931676959,49.1639762 C-0.931676901,37.9098031 2.5148491,30.8666689 10.3107931,22.0942686 C10.7161536,21.6381361 13.4320101,18.6362861 14.1833141,17.7775044 C19.0433673,12.2221971 21.0827352,8.25603437 21.0827349,2.84341618 L21.0827348,2.40110198 L21.4254653,2.12149925 C26.3905558,-1.92906821 33.9678805,-1.97341906 38.8224945,2.13201968 L39.1525594,2.41114822 L39.1525594,2.84341619 C39.152559,8.25603437 41.1919269,12.2221971 46.0519801,17.7775044 C46.8032841,18.6362861 49.5191407,21.638136 49.9245011,22.0942686 C57.7204452,30.8666689 61.1669712,37.9098031 61.1669712,49.1639762 C61.1669712,71.9900784 61.1669712,71.9900784 61.1669712,86.6145634 C61.1669712,92.7714226 61.1669712,92.7714226 61.1669712,98.4952783 C61.1669712,98.8935955 61.1669712,98.8935955 61.1669712,99.2920587 C61.1669712,109.420095 59.739576,116.175741 57.3176801,120.210356 C56.432695,121.684646 55.462076,122.706222 54.4680398,123.345956 C53.9318385,123.691041 53.4688135,123.879583 53.118522,123.960444 Z"></path>
                            <path d="M77.8323237,36.3950723 C76.8219022,26.4559487 58.0501089,19.7089413 57.6526181,18.3074825 C56.2140828,13.235546 57.6526181,37.7789287 57.6526181,77.6932248 C57.6526181,117.607521 40.5478854,117.607521 31.0040757,117.607521 C10.0725319,117.607521 6.16581869,98.2874604 6.16581869,77.6932248 C6.16581869,60.7115617 6.16581743,81.1481311 6.16581757,55.2119515 C6.1658177,29.2757719 27.9610943,19.7031692 28.1802294,2.84341614 C32.7435092,-0.879350379 -54.5151124,3.62149937 -49.9518324,7.48056343 C-49.9518311,31.8187313 -27.9374205,26.0040284 -27.9374206,51.940208 C-27.9374207,77.8763876 -27.9374206,88.4215287 -27.9374206,100.672604 C-27.9374206,123.468819 -35.679599,127.245613 -35.679599,127.245613 C-36.8474085,128.243013 -36.5394721,129.051565 -34.9932138,129.051565 L68.9733685,129.051572 C68.9733685,129.051572 67.5146892,118.703062 68.9733685,117.607521 C70.3065083,116.606266 80.4786588,62.4260421 77.8323237,36.3950723 Z" id="Mask" fill="#EAF2F9" style="mix-blend-mode: multiply;" mask="url(#mask-2)"></path>
                            <path d="M-0.0389069431,123.031229 C10.1585553,123.031229 21.4007027,116.052796 30.5409333,116.052796 C39.6811638,116.052796 50.2134017,123.031229 61.1207766,123.031229 C72.0281515,123.031229 61.1207766,125.146567 61.1207766,125.146567 L-0.0389069431,125.146567 C-0.0389069431,125.146567 -10.2363691,123.031229 -0.0389069431,123.031229 Z" id="Rectangle-8" fill="#EAF2F9" opacity="0.3" style="mix-blend-mode: multiply;" mask="url(#mask-2)"></path>
                            <path d="M-0.0389069431,125.357373 C10.1585553,125.357373 21.4007027,118.37894 30.5409333,118.37894 C39.6811638,118.37894 50.2134017,125.357373 61.1207766,125.357373 C72.0281515,125.357373 61.1207766,127.472711 61.1207766,127.472711 L-0.0389069431,127.472711 C-0.0389069431,127.472711 -10.2363691,125.357373 -0.0389069431,125.357373 Z" id="Rectangle-8" fill="#5E7888" opacity="0.3" style="mix-blend-mode: multiply;" mask="url(#mask-2)"></path>
                            <rect id="reflect" fill="#FFFFFF" opacity="0.7" mask="url(#mask-2)" x="34.1491431" y="-0.465228873" width="5.69152385" height="132.125" rx="2.84576193"></rect>
                        </g>
                    </g>
                    <g id="Mask-+-Line" transform="translate(20.868921, 0.000000)">
                        <mask id="mask-4" fill="white">
                            <use xlink:href="#path-3"></use>
                        </mask>
                        <rect stroke="#455A64" stroke-width="1.86335404" x="-0.694530191" y="-0.931677019" width="19.8865129" height="11.6331604" rx="5.81658019"></rect>
                        <path d="M0.237146827,7.21104754 L18.2603057,7.21104754" id="Line" stroke="#5E7888" stroke-width="1.39751553" stroke-linecap="square" mask="url(#mask-4)"></path>
                        <path d="M0.237146827,4.4196743 L18.2603057,4.4196743" id="Line" stroke="#98AFC3" stroke-width="0.941176471" stroke-linecap="square" mask="url(#mask-4)"></path>
                        <path d="M0.237146827,3.02398768 L18.2603057,3.02398768" id="Line" stroke="#98AFC3" stroke-width="0.941176471" stroke-linecap="square" mask="url(#mask-4)"></path>
                        <path d="M0.237146827,1.62830106 L18.2603057,1.62830106" id="Line" stroke="#98AFC3" stroke-width="0.941176471" stroke-linecap="square" mask="url(#mask-4)"></path>
                    </g>
                </g>
                <g id="Group-16" transform="translate(67.764706, 0.000000)">
                    <g id="Group-13" transform="translate(0.000000, 11.289720)">
                        <mask id="mask-6" fill="white">
                            <use xlink:href="#path-5"></use>
                        </mask>
                        <path stroke="#455A64" stroke-width="1.86335404" d="M1.56552379,16.7233038 C4.47161712,9.63208223 8.84507997,3.80783152 14.6780585,-0.735047541 L14.9305273,-0.931677019 L30.6741946,-0.931677019 L30.9279697,-0.731505175 C37.0864591,4.12616706 41.6287085,9.942182 44.5432914,16.7080006 C45.5924992,19.1435976 45.9472494,23.9759129 45.9472494,34.8914416 C45.9472494,38.2749802 44.865111,40.9966013 42.1711,45.7368865 C39.3318743,50.7326861 38.6382972,52.2882985 38.6382972,54.5427307 C38.6382972,55.2466324 38.790063,55.9660698 39.0955725,56.7616823 C39.3382225,57.3935951 39.6714835,58.0635831 40.1520937,58.9104672 C40.4144748,59.3728093 41.4127706,61.0533155 41.56529,61.3160877 C43.316562,64.3333124 44.2566227,66.6580512 44.6123454,69.5513683 C45.1222738,73.6989386 45.2555406,82.0535525 45.1158815,93.8952819 C45.0695422,97.8243981 44.9960786,101.936689 44.8930433,106.711718 C44.8476546,108.815195 44.7065136,114.975543 44.7046871,115.057563 C44.6456413,117.709045 44.619308,119.191188 44.619308,120.034078 C44.619308,121.451762 43.7040681,125.755546 42.5389964,129.240999 C40.8580656,134.269708 38.801435,137.700113 36.2525929,138.664955 C35.6233942,138.903132 34.9938176,138.774531 34.2067909,138.397124 C33.9502558,138.274107 33.6861205,138.130041 33.3055539,137.910612 C33.2065907,137.853551 32.8588556,137.651434 32.8406902,137.640908 C32.653244,137.532283 32.5065061,137.448361 32.3616466,137.367386 C30.9412438,136.573398 29.861363,136.191048 28.7091995,136.191048 C27.8207096,136.191048 27.1348433,136.681715 25.801353,138.118594 C25.6204186,138.313876 25.5275871,138.413925 25.4361013,138.511621 C24.0428801,139.999417 23.120626,140.641957 21.7843249,140.641957 C20.2435355,140.641957 19.3111782,139.977167 17.9291754,138.376822 C17.872566,138.311269 17.7929787,138.218652 17.6592041,138.063043 C16.583905,136.814833 15.978412,136.335276 15.0872399,136.176626 C14.1505471,136.009872 13.3700973,136.319168 11.9607759,137.271494 C10.6302477,138.170576 10.3809573,138.323464 9.73451897,138.542977 C9.38391473,138.662033 9.03801479,138.725294 8.68977288,138.725294 C3.4791501,138.725294 -1.13659753,127.330616 -0.926384413,119.309191 C-0.269433084,94.2408877 0.324223122,77.6768177 0.855426532,69.6038859 C0.955917117,68.0766863 1.41657725,66.3943482 2.20606471,64.4292662 C2.59945231,63.4501007 3.05048158,62.4527733 3.67083955,61.1606652 C6.13042171,56.0377424 6.32302201,55.5881488 6.32302201,54.5427307 C6.32302201,54.1023498 6.26370627,53.6539434 6.14526464,53.1825905 C5.93714538,52.3543546 5.55702345,51.4731269 4.92450641,50.2951384 C4.66218381,49.8065935 3.34358589,47.4874873 2.97235155,46.7976857 C0.593951359,42.3783099 -0.600847756,38.4009891 -0.600847756,33.1265716 C-0.600847756,25.6168311 0.308130441,19.7914967 1.56552379,16.7233038 Z"></path>
                        <path d="M52.0871606,59.5415034 C51.0740801,49.4917977 38.0944097,54.1068058 37.630046,55.4981998 C35.5191608,61.8231405 42.328548,63.8260136 42.328548,94.5460147 C42.328548,125.266016 30.8624111,130.619885 21.293486,130.619885 C0.306859208,130.619885 5.68155836,112.198709 5.68155836,91.375343 C5.68155836,74.2047428 6.96002848,71.1131068 12.2347541,59.5415034 C16.8108043,49.5026424 4.26628695,42.1008874 5.68155836,27.2943119 C7.99095529,3.13339142 19.5689859,7.36450357 19.6941547,-2.34728613 C24.2694432,-6.11147195 -9.30171277,7.39121997 -4.72642423,11.2932198 C-4.72642289,35.9021728 -4.72642417,40.8099706 -4.72642423,67.0347147 C-4.72642429,93.2594588 -4.72642423,105.99516 -4.72642423,118.38254 C-4.72642423,141.432385 9.56591168,143.195957 9.56591168,143.195957 C11.0398727,143.61666 13.4767631,143.878106 15.0172704,143.779373 L40.7135155,142.132469 C40.7135155,142.132469 52.7998878,131.727615 54.2624057,130.619885 C55.5990538,129.60749 54.7404597,85.8620924 52.0871606,59.5415034 Z" id="Mask" fill="#EAF2F9" style="mix-blend-mode: multiply;" mask="url(#mask-6)"></path>
                        <path d="M6.36145796,138.330386 C8.90507891,138.330386 10.9919956,133.124611 14.1207217,133.124611 C19.0277566,133.124611 18.8962262,138.330386 21.6169254,138.330386 C23.0206971,138.330386 25.7557235,133.124611 29.0683468,133.124611 C30.3575076,133.124611 33.6900637,135.476816 35.9445622,136.925004 C37.2574579,137.768348 38.8259191,137.602914 37.7824345,138.330386 C36.0134107,139.563671 21.6169254,139.908387 21.6169254,139.908387 L6.36145796,139.908387 C6.36145796,139.908387 3.817837,138.330386 6.36145796,138.330386 Z" id="Rectangle-8" fill="#EAF2F9" opacity="0.3" style="mix-blend-mode: multiply;" mask="url(#mask-6)"></path>
                        <path d="M6.36145796,139.271196 C8.90507891,139.271196 10.9919956,134.065421 14.1207217,134.065421 C19.0277566,134.065421 18.8962262,139.271196 21.6169254,139.271196 C23.0206971,139.271196 25.7557235,134.065421 29.0683468,134.065421 C30.3575076,134.065421 33.6900637,136.417626 35.9445622,137.865814 C37.2574579,138.709158 38.8259191,138.543724 37.7824345,139.271196 C36.0134107,140.504481 21.6169254,140.849197 21.6169254,140.849197 L6.36145796,140.849197 C6.36145796,140.849197 3.817837,139.271196 6.36145796,139.271196 Z" id="Rectangle-8-Copy" fill="#5E7888" opacity="0.3" style="mix-blend-mode: multiply;" mask="url(#mask-6)"></path>
                        <rect id="reflect" fill="#FFFFFF" opacity="0.7" mask="url(#mask-6)" x="29.4835913" y="-2.82242991" width="4.27987616" height="144.884735" rx="2.13993808"></rect>
                    </g>
                    <g id="Mask-+-Line" transform="translate(14.741796, 0.000000)">
                        <mask id="mask-8" fill="white">
                            <use xlink:href="#path-7"></use>
                        </mask>
                        <rect stroke="#455A64" stroke-width="1.86335404" x="-0.730486259" y="-0.931677019" width="17.1538518" height="11.7418587" rx="5.87092936"></rect>
                        <path d="M0.20119076,7.29127726 L15.4916885,7.29127726" id="Line" stroke="#5E7888" stroke-width="1.39751553" stroke-linecap="square" mask="url(#mask-8)"></path>
                        <path d="M0.20119076,4.46884735 L15.4916885,4.46884735" id="Line" stroke="#98AFC3" stroke-width="0.941176471" stroke-linecap="square" mask="url(#mask-8)"></path>
                        <path d="M0.20119076,3.0576324 L15.4916885,3.0576324" id="Line" stroke="#98AFC3" stroke-width="0.941176471" stroke-linecap="square" mask="url(#mask-8)"></path>
                        <path d="M0.20119076,1.64641745 L15.4916885,1.64641745" id="Line" stroke="#98AFC3" stroke-width="0.941176471" stroke-linecap="square" mask="url(#mask-8)"></path>
                    </g>
                </g>
                <g id="Group-22" transform="translate(122.352941, 41.525000)">
                    <g id="Group-19" opacity="0.800000012" transform="translate(0.000000, 8.811045)">
                        <mask id="mask-10" fill="white">
                            <use xlink:href="#path-9"></use>
                        </mask>
                        <path stroke="#455A64" stroke-width="1.86335404" d="M0.480087687,72.8579562 L0.480087687,68.1187679 C-0.330809687,67.9169137 -0.931677019,67.1838821 -0.931677019,66.3105105 L-0.931677019,59.8265585 C-0.931677019,58.9531868 -0.330809687,58.2201553 0.480087687,58.0183011 L0.480087687,53.2791127 C-0.330809687,53.0772585 -0.931677019,52.344227 -0.931677019,51.4708553 L-0.931677019,44.9869033 C-0.931677019,44.1135317 -0.330809687,43.3805001 0.480087687,43.1786459 L0.480087687,38.4394576 C-0.330809687,38.2376034 -0.931677019,37.5045718 -0.931677019,36.6312001 L-0.931677019,30.1472481 C-0.931677019,29.2738765 -0.330809687,28.5408449 0.480087687,28.3389907 L0.480087687,20.8401987 C0.480087687,20.2235309 0.654948084,19.6195035 0.984379437,19.098203 L9.43973205,5.71824046 C9.58091691,5.49482598 9.65585708,5.23595707 9.65585708,4.97167087 L9.65585708,2.32919255 C9.65585708,0.528264015 11.1157981,-0.931677019 12.9167266,-0.931677019 L23.5962189,-0.931677019 C25.3971475,-0.931677019 26.8570885,0.528264015 26.8570885,2.32919255 L26.8570885,4.92676707 C26.8570885,5.20789252 26.9418736,5.48248292 27.1003689,5.71466988 L36.1287287,18.9407308 C36.4985509,19.4825004 36.6963829,20.1232113 36.6963829,20.7791707 L36.6963829,28.2838941 L36.7153818,28.2838941 C37.7444838,28.2838941 38.5787358,29.1181461 38.5787358,30.1472481 L38.5787358,36.6312001 C38.5787358,37.6603022 37.7444838,38.4945542 36.7153818,38.4945542 L36.6963829,38.4945542 L36.6963829,43.1235493 L36.7153818,43.1235493 C37.7444838,43.1235493 38.5787358,43.9578013 38.5787358,44.9869033 L38.5787358,51.4708553 C38.5787358,52.4999573 37.7444838,53.3342093 36.7153818,53.3342093 L36.6963829,53.3342093 L36.6963829,57.9632044 L36.7153818,57.9632044 C37.7444838,57.9632044 38.5787358,58.7974565 38.5787358,59.8265585 L38.5787358,66.3105105 C38.5787358,67.3396125 37.7444838,68.1738645 36.7153818,68.1738645 L36.6963829,68.1738645 L36.6963829,72.8028596 L36.7153818,72.8028596 C37.7444838,72.8028596 38.5787358,73.6371116 38.5787358,74.6662137 L38.5787358,81.1501657 C38.5787358,82.1792677 37.7444838,83.0135197 36.7153818,83.0135197 L36.6963829,83.0135197 L36.6963829,88.101588 C36.6963829,88.6934793 36.535282,89.274209 36.2303537,89.7815098 L31.2139383,98.1271841 C30.6243193,99.1081171 29.5635979,99.7081318 28.4190979,99.7081318 L8.42138894,99.7081318 C7.2409549,99.7081318 6.15268655,99.0701774 5.57605527,98.0401673 L0.895623579,89.6797257 C0.623158769,89.1930342 0.480087687,88.6445891 0.480087687,88.0868206 L0.480087687,82.9584231 C-0.330809687,82.7565689 -0.931677019,82.0235373 -0.931677019,81.1501657 L-0.931677019,74.6662137 C-0.931677019,73.792842 -0.330809687,73.0598104 0.480087687,72.8579562 Z"></path>
                        <path d="M46.5882353,17.3351346 C45.9105186,7.4278358 29.2572172,10.8572791 28.9906095,9.46030777 C28.0257454,4.40461146 36.1356207,18.5891951 36.1356207,58.3756869 C36.1356207,98.1621786 26.4520065,98.1621786 20.0507183,98.1621786 C6.01137269,98.1621786 5.28506495,78.9039803 5.28506495,58.3756869 C5.28506495,41.4483985 5.28506411,61.8195306 5.2850642,35.9663979 C5.28506428,10.1132652 19.9037385,0.571313619 20.0507183,-16.234455 C23.111432,-19.9453013 -35.4152566,-15.4588631 -32.3545429,-11.6121557 C-32.354542,12.6480821 -17.5888887,6.85199769 -17.5888887,32.7051304 C-17.5888888,58.5582631 -17.5888887,69.069639 -17.5888887,81.2814866 C-17.5888887,104.004709 -22.5232137,107.348181 -22.5232137,107.348181 C-23.449294,108.575025 -22.9570735,109.569579 -21.4147417,109.56958 L47.4117665,109.569586 C47.4117665,109.569586 46.4333913,99.2542121 47.4117665,98.1621786 C48.305939,97.1641296 48.3632029,43.282754 46.5882353,17.3351346 Z" id="Mask" fill="#EAF2F9" style="mix-blend-mode: multiply;" mask="url(#mask-10)"></path>
                        <path d="M2.41884243,99.4448174 C7.86123788,99.4448174 13.8611829,95.5302802 18.7393328,95.5302802 C23.6174827,95.5302802 29.2385482,99.4448174 35.0598248,99.4448174 C40.8811014,99.4448174 35.0598248,100.631412 35.0598248,100.631412 L2.41884243,100.631412 C2.41884243,100.631412 -3.02355303,99.4448174 2.41884243,99.4448174 Z" id="Rectangle-8" fill="#EAF2F9" opacity="0.3" style="mix-blend-mode: multiply;" mask="url(#mask-10)"></path>
                        <path d="M2.41884243,100.372296 C7.86123788,100.372296 13.8611829,96.4577586 18.7393328,96.4577586 C23.6174827,96.4577586 29.2385482,100.372296 35.0598248,100.372296 C40.8811014,100.372296 35.0598248,101.55889 35.0598248,101.55889 L2.41884243,101.55889 C2.41884243,101.55889 -3.02355303,100.372296 2.41884243,100.372296 Z" id="Rectangle-8" fill="#5E7888" opacity="0.3" style="mix-blend-mode: multiply;" mask="url(#mask-10)"></path>
                        <rect id="reflect" fill="#FFFFFF" opacity="0.7" mask="url(#mask-10)" x="24.4705882" y="-22.2594828" width="4.70588235" height="131.70194" rx="2.35294118"></rect>
                    </g>
                    <g id="Mask-+-Line" transform="translate(8.941176, 0.000000)">
                        <mask id="mask-12" fill="white">
                            <use xlink:href="#path-11"></use>
                        </mask>
                        <rect stroke="#455A64" stroke-width="1.86335404" x="-0.690349718" y="-0.931677019" width="20.2042288" height="11.6018777" rx="5.80093887"></rect>
                        <path d="M0.2413273,7.18795797 L18.5822021,7.18795797" id="Line" stroke="#5E7888" stroke-width="1.39751553" stroke-linecap="square" mask="url(#mask-12)"></path>
                        <path d="M0.2413273,4.40552263 L18.5822021,4.40552263" id="Line" stroke="#98AFC3" stroke-width="0.941176471" stroke-linecap="square" mask="url(#mask-12)"></path>
                        <path d="M0.2413273,3.01430496 L18.5822021,3.01430496" id="Line" stroke="#98AFC3" stroke-width="0.941176471" stroke-linecap="square" mask="url(#mask-12)"></path>
                        <path d="M0.2413273,1.62308728 L18.5822021,1.62308728" id="Line" stroke="#98AFC3" stroke-width="0.941176471" stroke-linecap="square" mask="url(#mask-12)"></path>
                    </g>
                </g>
            </g>
        </g>
    </g>
</svg>