<?xml version="1.0" encoding="UTF-8"?>
<svg width="260px" height="260px" viewBox="0 0 260 260" version="1.1" xmlns="http://www.w3.org/2000/svg" xmlns:xlink="http://www.w3.org/1999/xlink">
    <!-- Generator: Sketch 51.2 (57519) - http://www.bohemiancoding.com/sketch -->
    <title>Story1_Button1</title>
    <desc>Created with Sketch.</desc>
    <defs>
        <path d="M61.7450618,1.5491531 L89.83843,1.53685318 C89.9081354,1.53682236 89.975101,1.56399508 90.025076,1.61258871 C90.6751402,2.2446844 90.9787998,3.17323537 90.9360546,4.39824161 C90.8936159,5.61446837 90.5906852,6.56325318 90.0272625,7.24459604 L90.0273647,7.24468053 C89.9766496,7.30600995 89.9012864,7.34160844 89.8217046,7.34182606 L63.460495,7.41390962 C61.1760707,7.577294 59.7121015,7.96607684 59.0685873,8.58025813 C58.1033159,9.50153006 56.4501466,11.9143378 56.0499234,12.4493369 C55.4129151,13.300859 10.2820689,80.3962511 7.34765859,84.6696152 C6.34691895,86.1269863 4.60284841,87.5454911 2.55734402,85.9881049 C0.511839621,84.4307186 1.86280386,82.1011994 2.30058114,81.559829 C3.18070826,80.4714337 50.4567445,9.82676826 50.6943491,9.47962008 C51.6639291,8.06303157 54.0819006,4.53436388 54.9615281,3.53630012 C56.0782329,2.26923801 58.3394108,1.60685567 61.7450618,1.5491531 Z" id="path-1"></path>
        <path d="M61.7453872,1.54984989 L89.8113204,1.5374358 C89.8811008,1.53740492 89.9481348,1.56462436 89.9981398,1.6132946 C90.6475707,2.2453901 90.9509343,3.17393803 90.9082306,4.3989384 C90.8658327,5.61516516 90.5631942,6.56394997 90.0003148,7.24529283 L90.0003422,7.2453155 C89.9496464,7.30668074 89.8742737,7.34230574 89.7946765,7.34252361 L63.4591662,7.41460641 C61.1769448,7.57799079 59.7143873,7.96677362 59.0714936,8.58095491 C58.1071531,9.50222685 56.4555779,11.9150346 56.0557407,12.4500337 C55.4193467,13.3015558 10.3320211,80.3969479 7.4004405,84.670312 C6.40066589,86.1276831 4.6582772,87.5461879 2.61474532,85.9888016 C0.571213449,84.4314154 1.92087493,82.1018962 2.35823005,81.5605258 C3.23750845,80.4721305 50.4679554,9.82746505 50.7053309,9.48031687 C51.6739759,8.06372836 54.0896157,4.53506067 54.9683949,3.53699691 C56.0840229,2.2699348 58.3430203,1.60755246 61.7453872,1.54984989 Z" id="path-3"></path>
        <path d="M61.7453872,1.54984989 L88.1442432,1.5381861 C89.6710023,1.53751046 90.9092329,2.77464557 90.9099085,4.30140471 C90.9099229,4.33392328 90.9093635,4.36643957 90.9082306,4.3989384 C90.9082306,4.3989384 90.9082306,4.3989384 90.9082306,4.3989384 C90.8658327,5.61516516 90.5631942,6.56394997 90.0003148,7.24529283 L90.0003422,7.2453155 C89.9496464,7.30668074 89.8742737,7.34230574 89.7946765,7.34252361 L63.4591662,7.41460641 C61.1769448,7.57799079 59.7143873,7.96677362 59.0714936,8.58095491 C58.1071531,9.50222685 56.4555779,11.9150346 56.0557407,12.4500337 C55.4193467,13.3015558 10.3320211,80.3969479 7.4004405,84.670312 C6.40066589,86.1276831 4.6582772,87.5461879 2.61474532,85.9888016 C0.571213449,84.4314154 1.92087493,82.1018962 2.35823005,81.5605258 C3.23750845,80.4721305 50.4679554,9.82746505 50.7053309,9.48031687 C51.6739759,8.06372836 54.0896157,4.53506067 54.9683949,3.53699691 C56.0840229,2.2699348 58.3430203,1.60755246 61.7453872,1.54984989 Z" id="path-5"></path>
    </defs>
    <g id="Story1_Button1" stroke="none" stroke-width="1" fill="none" fill-rule="evenodd">
        <g id="Group-4">
            <rect id="Rectangle-16-Copy" stroke-opacity="0.2" stroke="#000000" stroke-width="5" fill="#FF2F48" fill-rule="nonzero" x="2.5" y="2.5" width="255" height="255" rx="8"></rect>
            <g id="Group-5" transform="translate(34.000000, 47.000000)">
                <g id="Group-13" transform="translate(136.971184, 107.593015) rotate(-4.000000) translate(-136.971184, -107.593015) translate(90.747089, 62.822624)" fill="#7EB3B9" fill-rule="nonzero" stroke="#151F20">
                    <path d="M61.7450618,2.85688464 L89.83843,2.84458471 C89.9081354,2.84455389 89.975101,2.87172661 90.025076,2.92032025 C90.6751402,3.55241594 90.9787998,4.4809669 90.9360546,5.70597315 C90.8936159,6.92219991 90.5906852,7.87098472 90.0272625,8.55232757 L90.0273647,8.55241207 C89.9766496,8.61374148 89.9012864,8.64933998 89.8217046,8.64955759 L63.460495,8.72164115 C61.1760707,8.88502553 59.7121015,9.27380837 59.0685873,9.88798966 C58.1033159,10.8092616 56.4501466,13.2220693 56.0499234,13.7570685 C55.4129151,14.6085905 10.2820689,81.7039827 7.34765859,85.9773468 C6.34691895,87.4347179 4.60284841,88.8532227 2.55734402,87.2958364 C0.511839621,85.7384501 1.86280386,83.4089309 2.30058114,82.8675606 C3.18070826,81.7791652 50.4567445,11.1344998 50.6943491,10.7873516 C51.6639291,9.3707631 54.0819006,5.84209541 54.9615281,4.84403165 C56.0782329,3.57696954 58.3394108,2.9145872 61.7450618,2.85688464 Z" id="Rectangle-10" transform="translate(46.198546, 45.409114) rotate(-2.000000) translate(-46.198546, -45.409114) "></path>
                    <rect id="Rectangle-13" transform="translate(60.083121, 4.972017) rotate(-20.000000) translate(-60.083121, -4.972017) " x="58.9676748" y="0.908652557" width="2.23089264" height="8.12672833" rx="1.11535825"></rect>
                    <rect id="Rectangle-13-Copy" transform="translate(57.199336, 5.938655) rotate(-29.000000) translate(-57.199336, -5.938655) " x="56.08389" y="1.87529125" width="2.23089264" height="8.12672833" rx="1.11535825"></rect>
                    <rect id="Rectangle-13-Copy-2" transform="translate(54.537079, 8.350028) rotate(-54.000000) translate(-54.537079, -8.350028) " x="53.4216324" y="4.28666341" width="2.23089264" height="8.12672833" rx="1.11535825"></rect>
                    <rect id="Rectangle-13-Copy-3" transform="translate(52.866720, 10.787321) rotate(-59.000000) translate(-52.866720, -10.787321) " x="51.7512738" y="6.72395695" width="2.23089264" height="8.12672833" rx="1.11535825"></rect>
                </g>
                <g id="Group-13-Copy" transform="translate(74.274435, 125.079282) rotate(8.000000) translate(-74.274435, -125.079282) translate(26.274435, 80.079282)" fill="#64B400" fill-rule="nonzero" stroke="#151F20">
                    <path d="M63.7450618,2.85688464 L91.83843,2.84458471 C91.9081354,2.84455389 91.975101,2.87172661 92.025076,2.92032025 C92.6751402,3.55241594 92.9787998,4.4809669 92.9360546,5.70597315 C92.8936159,6.92219991 92.5906852,7.87098472 92.0272625,8.55232757 L92.0273647,8.55241207 C91.9766496,8.61374148 91.9012864,8.64933998 91.8217046,8.64955759 L65.460495,8.72164115 C63.1760707,8.88502553 61.7121015,9.27380837 61.0685873,9.88798966 C60.1033159,10.8092616 58.4501466,13.2220693 58.0499234,13.7570685 C57.4129151,14.6085905 12.2820689,81.7039827 9.34765859,85.9773468 C8.34691895,87.4347179 6.60284841,88.8532227 4.55734402,87.2958364 C2.51183962,85.7384501 3.86280386,83.4089309 4.30058114,82.8675606 C5.18070826,81.7791652 52.4567445,11.1344998 52.6943491,10.7873516 C53.6639291,9.3707631 56.0819006,5.84209541 56.9615281,4.84403165 C58.0782329,3.57696954 60.3394108,2.9145872 63.7450618,2.85688464 Z" id="Rectangle-10" transform="translate(48.198546, 45.409114) rotate(-2.000000) translate(-48.198546, -45.409114) "></path>
                    <rect id="Rectangle-13" transform="translate(62.083121, 4.972017) rotate(-20.000000) translate(-62.083121, -4.972017) " x="60.9676748" y="0.908652557" width="2.23089264" height="8.12672833" rx="1.11535825"></rect>
                    <rect id="Rectangle-13-Copy" transform="translate(59.199336, 5.938655) rotate(-29.000000) translate(-59.199336, -5.938655) " x="58.08389" y="1.87529125" width="2.23089264" height="8.12672833" rx="1.11535825"></rect>
                    <rect id="Rectangle-13-Copy-2" transform="translate(56.537079, 8.350028) rotate(-54.000000) translate(-56.537079, -8.350028) " x="55.4216324" y="4.28666341" width="2.23089264" height="8.12672833" rx="1.11535825"></rect>
                    <rect id="Rectangle-13-Copy-3" transform="translate(54.866720, 10.787321) rotate(-59.000000) translate(-54.866720, -10.787321) " x="53.7512738" y="6.72395695" width="2.23089264" height="8.12672833" rx="1.11535825"></rect>
                </g>
                <g id="Group-13-Copy-2" transform="translate(49.499403, 0.000000)" fill="#55ACEE" fill-rule="nonzero" stroke="#151F20">
                    <path d="M61.7450618,2.85688464 L89.83843,2.84458471 C89.9081354,2.84455389 89.975101,2.87172661 90.025076,2.92032025 C90.6751402,3.55241594 90.9787998,4.4809669 90.9360546,5.70597315 C90.8936159,6.92219991 90.5906852,7.87098472 90.0272625,8.55232757 L90.0273647,8.55241207 C89.9766496,8.61374148 89.9012864,8.64933998 89.8217046,8.64955759 L63.460495,8.72164115 C61.1760707,8.88502553 59.7121015,9.27380837 59.0685873,9.88798966 C58.1033159,10.8092616 56.4501466,13.2220693 56.0499234,13.7570685 C55.4129151,14.6085905 10.2820689,81.7039827 7.34765859,85.9773468 C6.34691895,87.4347179 4.60284841,88.8532227 2.55734402,87.2958364 C0.511839621,85.7384501 1.86280386,83.4089309 2.30058114,82.8675606 C3.18070826,81.7791652 50.4567445,11.1344998 50.6943491,10.7873516 C51.6639291,9.3707631 54.0819006,5.84209541 54.9615281,4.84403165 C56.0782329,3.57696954 58.3394108,2.9145872 61.7450618,2.85688464 Z" id="Rectangle-10" transform="translate(46.198546, 45.409114) rotate(-2.000000) translate(-46.198546, -45.409114) "></path>
                    <rect id="Rectangle-13" transform="translate(60.083121, 4.972017) rotate(-20.000000) translate(-60.083121, -4.972017) " x="58.9676748" y="0.908652557" width="2.23089264" height="8.12672833" rx="1.11535825"></rect>
                    <rect id="Rectangle-13-Copy" transform="translate(57.199336, 5.938655) rotate(-29.000000) translate(-57.199336, -5.938655) " x="56.08389" y="1.87529125" width="2.23089264" height="8.12672833" rx="1.11535825"></rect>
                    <rect id="Rectangle-13-Copy-2" transform="translate(54.537079, 8.350028) rotate(-54.000000) translate(-54.537079, -8.350028) " x="53.4216324" y="4.28666341" width="2.23089264" height="8.12672833" rx="1.11535825"></rect>
                    <rect id="Rectangle-13-Copy-3" transform="translate(52.866720, 10.787321) rotate(-59.000000) translate(-52.866720, -10.787321) " x="51.7512738" y="6.72395695" width="2.23089264" height="8.12672833" rx="1.11535825"></rect>
                </g>
                <g id="Group-13-Copy-3" transform="translate(100.221555, 140.687639) rotate(20.000000) translate(-100.221555, -140.687639) translate(53.997460, 95.917248)">
                    <g id="Group-25" transform="translate(0.000000, 1.307732)">
                        <mask id="mask-2" fill="white">
                            <use xlink:href="#path-1"></use>
                        </mask>
                        <use id="Rectangle-10" stroke="#151F20" fill="#55ACEE" fill-rule="nonzero" transform="translate(46.198546, 44.101383) rotate(-2.000000) translate(-46.198546, -44.101383) " xlink:href="#path-1"></use>
                        <path d="M71.3682536,-4.17559443 L83.2735619,12.2106567 L88.2400011,8.60232737 L76.3346928,-7.78392372 L71.3682536,-4.17559443 Z M57.8044264,-4.17559443 L69.7097347,12.2106567 L74.6761739,8.60232737 L62.7708656,-7.78392372 L57.8044264,-4.17559443 Z M38.1905855,21.0171824 L58.3680312,19.2518847 L57.8329946,13.1363884 L37.6555489,14.9016862 L38.1905855,21.0171824 Z M29.8916648,33.7877555 L50.0691105,32.0224578 L49.5340739,25.9069615 L29.3566283,27.6722593 L29.8916648,33.7877555 Z M21.5927442,46.4690239 L41.7701899,44.7037262 L41.2351533,38.5882299 L21.0577076,40.3535277 L21.5927442,46.4690239 Z M13.2938236,59.1502923 L33.4712693,57.3849945 L32.9362327,51.2694983 L12.758787,53.034796 L13.2938236,59.1502923 Z M4.99490297,71.8315607 L25.1723486,70.0662629 L24.637312,63.9507667 L4.45986637,65.7160644 L4.99490297,71.8315607 Z M-3.30401766,84.512829 L16.873428,82.7475313 L16.3383914,76.632035 L-3.83905426,78.3973328 L-3.30401766,84.512829 Z" id="Combined-Shape" stroke="#151F20" fill="#FFFFFF" fill-rule="nonzero" mask="url(#mask-2)"></path>
                    </g>
                    <rect id="Rectangle-13" stroke="#151F20" fill="#55ACEE" fill-rule="nonzero" transform="translate(60.083121, 4.972017) rotate(-20.000000) translate(-60.083121, -4.972017) " x="58.9676748" y="0.908652557" width="2.23089264" height="8.12672833" rx="1.11535825"></rect>
                    <rect id="Rectangle-13-Copy" stroke="#151F20" fill="#55ACEE" fill-rule="nonzero" transform="translate(57.199336, 5.938655) rotate(-29.000000) translate(-57.199336, -5.938655) " x="56.08389" y="1.87529125" width="2.23089264" height="8.12672833" rx="1.11535825"></rect>
                    <rect id="Rectangle-13-Copy-2" stroke="#151F20" fill="#55ACEE" fill-rule="nonzero" transform="translate(54.537079, 8.350028) rotate(-54.000000) translate(-54.537079, -8.350028) " x="53.4216324" y="4.28666341" width="2.23089264" height="8.12672833" rx="1.11535825"></rect>
                    <rect id="Rectangle-13-Copy-3" stroke="#151F20" fill="#55ACEE" fill-rule="nonzero" transform="translate(52.866720, 10.787321) rotate(-59.000000) translate(-52.866720, -10.787321) " x="51.7512738" y="6.72395695" width="2.23089264" height="8.12672833" rx="1.11535825"></rect>
                </g>
                <g id="Group-22" transform="translate(52.242230, 90.608760) rotate(-7.000000) translate(-52.242230, -90.608760) translate(6.018134, 46.224320)">
                    <g id="Group-19" transform="translate(0.000000, 0.535828)">
                        <mask id="mask-4" fill="white">
                            <use xlink:href="#path-3"></use>
                        </mask>
                        <use id="Rectangle-10-Copy" stroke="#1B241A" fill="#8BCC00" fill-rule="nonzero" transform="translate(46.213863, 44.102079) rotate(-2.000000) translate(-46.213863, -44.102079) " xlink:href="#path-3"></use>
                        <rect id="Rectangle-14" fill="#FFFFFF" fill-rule="nonzero" mask="url(#mask-4)" transform="translate(65.567249, 3.266804) rotate(-31.000000) translate(-65.567249, -3.266804) " x="64.6757522" y="-2.09147884" width="1.78299308" height="10.7165648"></rect>
                        <rect id="Rectangle-14-Copy" fill="#FFFFFF" fill-rule="nonzero" mask="url(#mask-4)" transform="translate(71.183677, 3.266804) rotate(-31.000000) translate(-71.183677, -3.266804) " x="70.2921804" y="-2.09147884" width="1.78299308" height="10.7165648"></rect>
                        <rect id="Rectangle-14-Copy-2" fill="#FFFFFF" fill-rule="nonzero" mask="url(#mask-4)" transform="translate(76.710955, 3.266804) rotate(-31.000000) translate(-76.710955, -3.266804) " x="75.8194589" y="-2.09147884" width="1.78299308" height="10.7165648"></rect>
                        <rect id="Rectangle-14-Copy-3" fill="#FFFFFF" fill-rule="nonzero" mask="url(#mask-4)" transform="translate(82.238234, 3.266804) rotate(-31.000000) translate(-82.238234, -3.266804) " x="81.3467375" y="-2.09147884" width="1.78299308" height="10.7165648"></rect>
                        <rect id="Rectangle-14-Copy-4" fill="#FFFFFF" fill-rule="nonzero" mask="url(#mask-4)" transform="translate(50.070300, 14.037922) rotate(-85.000000) translate(-50.070300, -14.037922) " x="49.1788039" y="8.6796398" width="1.78299308" height="10.7165648"></rect>
                        <rect id="Rectangle-14-Copy-5" fill="#FFFFFF" fill-rule="nonzero" mask="url(#mask-4)" transform="translate(47.484960, 18.509111) rotate(-85.000000) translate(-47.484960, -18.509111) " x="46.5934639" y="13.1508288" width="1.78299308" height="10.7165648"></rect>
                        <rect id="Rectangle-14-Copy-6" fill="#FFFFFF" fill-rule="nonzero" mask="url(#mask-4)" transform="translate(44.899620, 22.980300) rotate(-85.000000) translate(-44.899620, -22.980300) " x="44.0081239" y="17.6220178" width="1.78299308" height="10.7165648"></rect>
                        <rect id="Rectangle-14-Copy-7" fill="#FFFFFF" fill-rule="nonzero" mask="url(#mask-4)" transform="translate(42.314281, 27.451489) rotate(-85.000000) translate(-42.314281, -27.451489) " x="41.422784" y="22.0932068" width="1.78299308" height="10.7165648"></rect>
                        <rect id="Rectangle-14-Copy-8" fill="#FFFFFF" fill-rule="nonzero" mask="url(#mask-4)" transform="translate(39.728941, 31.922678) rotate(-85.000000) translate(-39.728941, -31.922678) " x="38.837444" y="26.5643958" width="1.78299308" height="10.7165648"></rect>
                        <rect id="Rectangle-14-Copy-9" fill="#FFFFFF" fill-rule="nonzero" mask="url(#mask-4)" transform="translate(37.143601, 36.393867) rotate(-85.000000) translate(-37.143601, -36.393867) " x="36.252104" y="31.0355848" width="1.78299308" height="10.7165648"></rect>
                        <rect id="Rectangle-14-Copy-10" fill="#FFFFFF" fill-rule="nonzero" mask="url(#mask-4)" transform="translate(34.558261, 40.865056) rotate(-85.000000) translate(-34.558261, -40.865056) " x="33.6667641" y="35.5067738" width="1.78299308" height="10.7165648"></rect>
                        <rect id="Rectangle-14-Copy-11" fill="#FFFFFF" fill-rule="nonzero" mask="url(#mask-4)" transform="translate(31.972921, 45.336245) rotate(-85.000000) translate(-31.972921, -45.336245) " x="31.0814241" y="39.9779627" width="1.78299308" height="10.7165648"></rect>
                        <rect id="Rectangle-14-Copy-12" fill="#FFFFFF" fill-rule="nonzero" mask="url(#mask-4)" transform="translate(28.496084, 49.849110) rotate(-85.000000) translate(-28.496084, -49.849110) " x="27.6045876" y="44.4908273" width="1.78299308" height="10.7165648"></rect>
                        <rect id="Rectangle-14-Copy-13" fill="#FFFFFF" fill-rule="nonzero" mask="url(#mask-4)" transform="translate(25.286697, 54.314345) rotate(-85.000000) translate(-25.286697, -54.314345) " x="24.3952001" y="48.9560626" width="1.78299308" height="10.7165648"></rect>
                        <rect id="Rectangle-14-Copy-14" fill="#FFFFFF" fill-rule="nonzero" mask="url(#mask-4)" transform="translate(23.325404, 58.779580) rotate(-85.000000) translate(-23.325404, -58.779580) " x="22.4339077" y="53.421298" width="1.78299308" height="10.7165648"></rect>
                        <rect id="Rectangle-14-Copy-15" fill="#FFFFFF" fill-rule="nonzero" mask="url(#mask-4)" transform="translate(20.205166, 63.244816) rotate(-85.000000) translate(-20.205166, -63.244816) " x="19.3136698" y="57.8865333" width="1.78299308" height="10.7165648"></rect>
                        <rect id="Rectangle-14-Copy-16" fill="#FFFFFF" fill-rule="nonzero" mask="url(#mask-4)" transform="translate(17.708976, 67.710051) rotate(-85.000000) translate(-17.708976, -67.710051) " x="16.8174795" y="62.3517686" width="1.78299308" height="10.7165648"></rect>
                        <rect id="Rectangle-14-Copy-17" fill="#FFFFFF" fill-rule="nonzero" mask="url(#mask-4)" transform="translate(15.212786, 72.175286) rotate(-85.000000) translate(-15.212786, -72.175286) " x="14.3212892" y="66.817004" width="1.78299308" height="10.7165648"></rect>
                        <rect id="Rectangle-14-Copy-18" fill="#FFFFFF" fill-rule="nonzero" mask="url(#mask-4)" transform="translate(12.627446, 76.634568) rotate(-85.000000) translate(-12.627446, -76.634568) " x="11.7359492" y="71.2762857" width="1.78299308" height="10.7165648"></rect>
                        <rect id="Rectangle-14-Copy-19" fill="#FFFFFF" fill-rule="nonzero" mask="url(#mask-4)" transform="translate(7.813364, 81.105757) rotate(-85.000000) translate(-7.813364, -81.105757) " x="6.92186791" y="75.7474747" width="1.78299308" height="10.7165648"></rect>
                    </g>
                    <g id="Group-16" transform="translate(48.764861, 0.000000)" fill="#8BCC00" fill-rule="nonzero" stroke="#1B241A">
                        <rect id="Rectangle-13-Copy-4" transform="translate(11.320189, 4.200810) rotate(-20.000000) translate(-11.320189, -4.200810) " x="10.2058178" y="0.137446052" width="2.22874135" height="8.12672833" rx="1.11437067"></rect>
                        <rect id="Rectangle-13-Copy-5" transform="translate(8.439185, 5.167449) rotate(-29.000000) translate(-8.439185, -5.167449) " x="7.32481392" y="1.10408474" width="2.22874135" height="8.12672833" rx="1.11437067"></rect>
                        <rect id="Rectangle-13-Copy-6" transform="translate(5.779494, 7.578821) rotate(-54.000000) translate(-5.779494, -7.578821) " x="4.66512358" y="3.5154569" width="2.22874135" height="8.12672833" rx="1.11437067"></rect>
                        <rect id="Rectangle-13-Copy-7" transform="translate(4.110746, 10.016115) rotate(-59.000000) translate(-4.110746, -10.016115) " x="2.99637571" y="5.95275045" width="2.22874135" height="8.12672833" rx="1.11437067"></rect>
                    </g>
                </g>
                <g id="Group-22-Copy" transform="translate(92.333582, 84.411389) rotate(6.000000) translate(-92.333582, -84.411389) translate(45.333582, 39.411389)">
                    <g id="Group-19" transform="translate(0.000000, 0.535828)">
                        <mask id="mask-6" fill="white">
                            <use xlink:href="#path-5"></use>
                        </mask>
                        <use id="Rectangle-10-Copy" stroke="#1B241A" fill="#FF8816" fill-rule="nonzero" transform="translate(46.213863, 44.102079) rotate(-2.000000) translate(-46.213863, -44.102079) " xlink:href="#path-5"></use>
                        <rect id="Rectangle-14" fill="#FFFFFF" fill-rule="nonzero" mask="url(#mask-6)" transform="translate(65.567249, 3.266804) rotate(-31.000000) translate(-65.567249, -3.266804) " x="64.6757522" y="-2.09147884" width="1.78299308" height="10.7165648"></rect>
                        <rect id="Rectangle-14-Copy" fill="#FFFFFF" fill-rule="nonzero" mask="url(#mask-6)" transform="translate(71.183677, 3.266804) rotate(-31.000000) translate(-71.183677, -3.266804) " x="70.2921804" y="-2.09147884" width="1.78299308" height="10.7165648"></rect>
                        <rect id="Rectangle-14-Copy-2" fill="#FFFFFF" fill-rule="nonzero" mask="url(#mask-6)" transform="translate(76.710955, 3.266804) rotate(-31.000000) translate(-76.710955, -3.266804) " x="75.8194589" y="-2.09147884" width="1.78299308" height="10.7165648"></rect>
                        <rect id="Rectangle-14-Copy-3" fill="#FFFFFF" fill-rule="nonzero" mask="url(#mask-6)" transform="translate(82.238234, 3.266804) rotate(-31.000000) translate(-82.238234, -3.266804) " x="81.3467375" y="-2.09147884" width="1.78299308" height="10.7165648"></rect>
                        <rect id="Rectangle-14-Copy-4" fill="#FFFFFF" fill-rule="nonzero" mask="url(#mask-6)" transform="translate(50.070300, 14.037922) rotate(-85.000000) translate(-50.070300, -14.037922) " x="49.1788039" y="8.6796398" width="1.78299308" height="10.7165648"></rect>
                        <rect id="Rectangle-14-Copy-5" fill="#FFFFFF" fill-rule="nonzero" mask="url(#mask-6)" transform="translate(47.484960, 18.509111) rotate(-85.000000) translate(-47.484960, -18.509111) " x="46.5934639" y="13.1508288" width="1.78299308" height="10.7165648"></rect>
                        <rect id="Rectangle-14-Copy-6" fill="#FFFFFF" fill-rule="nonzero" mask="url(#mask-6)" transform="translate(44.899620, 22.980300) rotate(-85.000000) translate(-44.899620, -22.980300) " x="44.0081239" y="17.6220178" width="1.78299308" height="10.7165648"></rect>
                        <rect id="Rectangle-14-Copy-7" fill="#FFFFFF" fill-rule="nonzero" mask="url(#mask-6)" transform="translate(42.314281, 27.451489) rotate(-85.000000) translate(-42.314281, -27.451489) " x="41.422784" y="22.0932068" width="1.78299308" height="10.7165648"></rect>
                        <rect id="Rectangle-14-Copy-8" fill="#FFFFFF" fill-rule="nonzero" mask="url(#mask-6)" transform="translate(39.728941, 31.922678) rotate(-85.000000) translate(-39.728941, -31.922678) " x="38.837444" y="26.5643958" width="1.78299308" height="10.7165648"></rect>
                        <rect id="Rectangle-14-Copy-9" fill="#FFFFFF" fill-rule="nonzero" mask="url(#mask-6)" transform="translate(37.143601, 36.393867) rotate(-85.000000) translate(-37.143601, -36.393867) " x="36.252104" y="31.0355848" width="1.78299308" height="10.7165648"></rect>
                        <rect id="Rectangle-14-Copy-10" fill="#FFFFFF" fill-rule="nonzero" mask="url(#mask-6)" transform="translate(34.558261, 40.865056) rotate(-85.000000) translate(-34.558261, -40.865056) " x="33.6667641" y="35.5067738" width="1.78299308" height="10.7165648"></rect>
                        <rect id="Rectangle-14-Copy-11" fill="#FFFFFF" fill-rule="nonzero" mask="url(#mask-6)" transform="translate(31.972921, 45.336245) rotate(-85.000000) translate(-31.972921, -45.336245) " x="31.0814241" y="39.9779627" width="1.78299308" height="10.7165648"></rect>
                        <rect id="Rectangle-14-Copy-12" fill="#FFFFFF" fill-rule="nonzero" mask="url(#mask-6)" transform="translate(28.496084, 49.849110) rotate(-85.000000) translate(-28.496084, -49.849110) " x="27.6045876" y="44.4908273" width="1.78299308" height="10.7165648"></rect>
                        <rect id="Rectangle-14-Copy-13" fill="#FFFFFF" fill-rule="nonzero" mask="url(#mask-6)" transform="translate(25.286697, 54.314345) rotate(-85.000000) translate(-25.286697, -54.314345) " x="24.3952001" y="48.9560626" width="1.78299308" height="10.7165648"></rect>
                        <rect id="Rectangle-14-Copy-14" fill="#FFFFFF" fill-rule="nonzero" mask="url(#mask-6)" transform="translate(23.325404, 58.779580) rotate(-85.000000) translate(-23.325404, -58.779580) " x="22.4339077" y="53.421298" width="1.78299308" height="10.7165648"></rect>
                        <rect id="Rectangle-14-Copy-15" fill="#FFFFFF" fill-rule="nonzero" mask="url(#mask-6)" transform="translate(20.205166, 63.244816) rotate(-85.000000) translate(-20.205166, -63.244816) " x="19.3136698" y="57.8865333" width="1.78299308" height="10.7165648"></rect>
                        <rect id="Rectangle-14-Copy-16" fill="#FFFFFF" fill-rule="nonzero" mask="url(#mask-6)" transform="translate(17.708976, 67.710051) rotate(-85.000000) translate(-17.708976, -67.710051) " x="16.8174795" y="62.3517686" width="1.78299308" height="10.7165648"></rect>
                        <rect id="Rectangle-14-Copy-17" fill="#FFFFFF" fill-rule="nonzero" mask="url(#mask-6)" transform="translate(15.212786, 72.175286) rotate(-85.000000) translate(-15.212786, -72.175286) " x="14.3212892" y="66.817004" width="1.78299308" height="10.7165648"></rect>
                        <rect id="Rectangle-14-Copy-18" fill="#FFFFFF" fill-rule="nonzero" mask="url(#mask-6)" transform="translate(12.627446, 76.634568) rotate(-85.000000) translate(-12.627446, -76.634568) " x="11.7359492" y="71.2762857" width="1.78299308" height="10.7165648"></rect>
                        <rect id="Rectangle-14-Copy-19" fill="#FFFFFF" fill-rule="nonzero" mask="url(#mask-6)" transform="translate(7.813364, 81.105757) rotate(-85.000000) translate(-7.813364, -81.105757) " x="6.92186791" y="75.7474747" width="1.78299308" height="10.7165648"></rect>
                    </g>
                    <g id="Group-16" transform="translate(48.764861, 0.000000)" fill="#FF8816" fill-rule="nonzero" stroke="#1B241A">
                        <rect id="Rectangle-13-Copy-4" transform="translate(11.320189, 4.200810) rotate(-20.000000) translate(-11.320189, -4.200810) " x="10.2058178" y="0.137446052" width="2.22874135" height="8.12672833" rx="1.11437067"></rect>
                        <rect id="Rectangle-13-Copy-5" transform="translate(8.439185, 5.167449) rotate(-29.000000) translate(-8.439185, -5.167449) " x="7.32481392" y="1.10408474" width="2.22874135" height="8.12672833" rx="1.11437067"></rect>
                        <rect id="Rectangle-13-Copy-6" transform="translate(5.779494, 7.578821) rotate(-54.000000) translate(-5.779494, -7.578821) " x="4.66512358" y="3.5154569" width="2.22874135" height="8.12672833" rx="1.11437067"></rect>
                        <rect id="Rectangle-13-Copy-7" transform="translate(4.110746, 10.016115) rotate(-59.000000) translate(-4.110746, -10.016115) " x="2.99637571" y="5.95275045" width="2.22874135" height="8.12672833" rx="1.11437067"></rect>
                    </g>
                </g>
            </g>
        </g>
    </g>
</svg>