<?xml version="1.0" encoding="UTF-8"?>
<svg width="260px" height="100px" viewBox="0 0 260 100" version="1.1" xmlns="http://www.w3.org/2000/svg" xmlns:xlink="http://www.w3.org/1999/xlink">
    <!-- Generator: Sketch 51.2 (57519) - http://www.bohemiancoding.com/sketch -->
    <title>Story1_Button3</title>
    <desc>Created with Sketch.</desc>
    <defs>
        <path d="M3.15897382e-08,52.6050642 C3.15897385e-08,46.0383281 -3.94871728e-08,39.788162 3.15897472e-08,26.0471397 C1.02666667e-07,12.3061174 11.6951568,10.5985915 11.6951563,1.50644563 C14.1193987,-0.465880996 17.8806013,-0.538091617 20.3048437,1.50644563 C20.3048432,10.5985915 32.0000001,12.3061174 32,26.0471397 C32,39.788162 32,46.1144283 32,52.6050642 C32,64.682529 28.0580187,65.1986725 28.0580187,65.1986725 C27.3431511,65.5942469 26.0957619,65.9149234 25.2839798,65.9149234 L6.7160203,65.9149234 C5.89882851,65.9149234 4.62543807,65.6546081 3.94198133,65.1986725 C3.94198133,65.1986725 3.15897382e-08,64.682529 3.15897382e-08,52.6050642 Z" id="path-1"></path>
        <rect id="path-3" x="0.125984252" y="0" width="9.57480315" height="5.17605634" rx="2.58802817"></rect>
        <path d="M1.28967074,9.04720662 C2.8011187,5.36914673 5.07184369,2.35341119 8.1018457,0 L16.1239557,0 C19.3321057,2.52361302 21.6938051,5.53934856 23.209054,9.04720662 C23.73417,10.26287 23.9145228,12.8580725 23.9145228,18.485532 C23.9145228,22.4784653 20.031642,25.6942803 20.031642,28.896811 C20.031642,31.2544201 22.7475037,33.164797 23.209054,36.9086403 C23.8639707,42.2209663 23.209054,60.5997168 23.209054,63.5942134 C23.209054,64.6286098 21.7050585,72.0137541 19.083964,73.0032408 C18.3847499,73.2672004 17.0576886,71.6605937 15.2517622,71.6605937 C13.676442,71.6605937 12.9664637,74.0186916 11.5729226,74.0186916 C10.0467038,74.0186916 9.69202446,71.9429113 8.1018457,71.6605937 C6.63639222,71.4004196 5.66212097,73.0032408 4.61644184,73.0032408 C1.92420809,73.0032408 -0.0830205126,66.4829345 0.00264182258,63.2230985 C0.351474178,49.9484631 0.666703813,41.1769771 0.948330725,36.9086403 C1.13206133,34.1240197 3.85405886,30.5111202 3.85405886,28.896811 C3.85405886,26.1478307 0.175753046,23.8618779 0.175753046,17.5505015 C0.175753046,12.9390312 0.823899421,10.1806461 1.28967074,9.04720662 Z" id="path-5"></path>
        <rect id="path-7" x="0.106882591" y="0" width="8.12307692" height="5.23364486" rx="2.61682243"></rect>
        <path d="M0.75,39.0646552 L0.75,35.625 L0.494953416,35.625 C0.221598193,35.625 -2.44079396e-16,35.4034018 -2.77555756e-16,35.1300466 L-5.55111512e-17,31.6975396 C-8.89875112e-17,31.4241844 0.221598193,31.2025862 0.494953416,31.2025862 L0.75,31.2025862 L0.75,27.762931 L0.494953416,27.762931 C0.221598193,27.762931 -2.44079396e-16,27.5413328 -2.77555756e-16,27.2679776 L-5.55111512e-17,23.8354707 C-8.89875112e-17,23.5621154 0.221598193,23.3405172 0.494953416,23.3405172 L0.75,23.3405172 L0.75,19.9008621 L0.494953416,19.9008621 C0.221598193,19.9008621 -2.44079396e-16,19.6792639 -2.77555756e-16,19.4059087 L5.55111512e-17,15.9734017 C2.20347913e-17,15.7000465 0.221598193,15.4784483 0.494953416,15.4784483 L0.75,15.4784483 L0.75,11.0429692 C0.75,10.8084466 0.816647813,10.578753 0.942177124,10.3806539 L5.43245037,3.2945088 C5.55797968,3.09640974 5.62462749,2.86671608 5.62462749,2.63219349 L5.62462749,1.23738354 C5.62462749,0.553995481 6.17862297,1.2553635e-16 6.86201103,0 L12.5354913,0 C13.2188794,1.0884047e-15 13.7728748,0.553995481 13.7728748,1.23738354 L13.7728748,2.60830359 C13.7728748,2.85775342 13.8482688,3.10137902 13.9891676,3.3072254 L18.7837072,10.3118145 C18.9246061,10.5176608 19,10.7612864 19,11.0107363 L19,15.4784483 L19.5050466,15.4784483 C19.7784018,15.4784483 20,15.7000465 20,15.9734017 L20,19.4059087 C20,19.6792639 19.7784018,19.9008621 19.5050466,19.9008621 L19,19.9008621 L19,23.3405172 L19.5050466,23.3405172 C19.7784018,23.3405172 20,23.5621154 20,23.8354707 L20,27.2679776 C20,27.5413328 19.7784018,27.762931 19.5050466,27.762931 L19,27.762931 L19,31.2025862 L19.5050466,31.2025862 C19.7784018,31.2025862 20,31.4241844 20,31.6975396 L20,35.1300466 C20,35.4034018 19.7784018,35.625 19.5050466,35.625 L19,35.625 L19,39.0646552 L19.5050466,39.0646552 C19.7784018,39.0646552 20,39.2862534 20,39.5596086 L20,42.9921155 C20,43.2654708 19.7784018,43.487069 19.5050466,43.487069 L19,43.487069 L19,46.6745979 C19,46.8997064 18.9385919,47.1205504 18.8223887,47.3133473 L16.158403,51.7332624 C15.9344894,52.1047656 15.5323955,52.3318966 15.0986307,52.3318966 L4.47289495,52.3318966 C4.02547818,52.3318966 3.6129108,52.0903679 3.39389721,51.7002208 L0.908385793,47.272572 C0.804541048,47.0875847 0.75,46.8790058 0.75,46.6668642 L0.75,43.487069 L0.494953416,43.487069 C0.221598193,43.487069 -2.44079396e-16,43.2654708 -2.77555756e-16,42.9921155 L-5.55111512e-17,39.5596086 C-8.89875112e-17,39.2862534 0.221598193,39.0646552 0.494953416,39.0646552 L0.75,39.0646552 Z" id="path-9"></path>
        <rect id="path-11" x="0.128205128" y="0" width="9.74358974" height="5.15948276" rx="2.57974138"></rect>
    </defs>
    <g id="Story1_Button3" stroke="none" stroke-width="1" fill="none" fill-rule="evenodd">
        <g id="Group-10">
            <rect id="Rectangle-16-Copy" stroke-opacity="0.2" stroke="#000000" stroke-width="5" fill="#048BEC" fill-rule="nonzero" x="2.5" y="2.5" width="255" height="95" rx="8"></rect>
            <g id="Group-3" transform="translate(88.000000, 10.000000)">
                <g id="Rectangle-6-+-Rectangle-1-+-Mask-+-Line" transform="translate(0.000000, 10.000000)">
                    <g id="Rectangle-6-+-Rectangle-1" transform="translate(0.000000, 3.943662)">
                        <g id="Rectangle-1">
                            <mask id="mask-2" fill="white">
                                <use xlink:href="#path-1"></use>
                            </mask>
                            <path stroke="#455A64" stroke-width="0.989906832" d="M28.2207526,65.6731109 C27.4266293,66.0885588 26.1527744,66.4098768 25.2839798,66.4098768 L6.7160203,66.4098768 C5.75286896,66.4098768 4.49538835,66.1160658 3.75942329,65.6690144 C3.13205808,65.535178 2.31533135,64.9638923 1.54683037,63.6859998 C0.26214027,61.5497684 -0.494953385,57.9712566 -0.494953385,52.6050642 C-0.494953385,52.2059294 -0.494953385,52.2059294 -0.494953385,51.807315 C-0.49495339,48.9289795 -0.49495339,48.9289795 -0.4949534,45.8546878 C-0.494953424,38.1235275 -0.494953424,38.1235275 -0.494953385,26.0471397 C-0.494953354,20.0839535 1.33621759,16.3520759 5.47805504,11.7041748 C5.69340747,11.4625099 7.13620294,9.87212948 7.53532706,9.41715279 C10.1169827,6.47422587 11.200203,4.37332354 11.2002029,1.50644566 L11.2002029,1.27106061 L11.3827915,1.12250927 C14.0203118,-1.023337 18.0451056,-1.04683029 20.6239412,1.1280864 L20.7997972,1.27639835 L20.7997972,1.50644566 C20.799797,4.37332354 21.8830173,6.47422587 24.464673,9.41715279 C24.8637971,9.87212948 26.3065926,11.4625099 26.521945,11.7041748 C30.6637825,16.3520759 32.4949535,20.0839534 32.4949534,26.0471397 C32.4949534,38.1404384 32.4949534,38.1404384 32.4949534,45.8885098 C32.4949534,49.1504223 32.4949534,49.1504223 32.4949534,52.1829289 C32.4949534,52.3939579 32.4949534,52.3939579 32.4949534,52.6050642 C32.4949534,57.9712566 31.7378598,61.5497684 30.4531697,63.6859998 C29.676548,64.9773957 28.8506761,65.5471726 28.2207526,65.6731109 Z"></path>
                            <path d="M41.348422,19.2821575 C40.8116356,14.0163967 30.8391204,10.4418232 30.6279534,9.6993285 C29.8637315,7.01220982 30.6279534,20.0153265 30.6279534,41.1619734 C30.6279534,62.3086204 21.5410641,62.3086204 16.4709152,62.3086204 C5.35103255,62.3086204 3.27559118,52.0728267 3.27559118,41.1619734 C3.27559118,32.1650658 3.27559051,42.9923873 3.27559058,29.251365 C3.27559065,15.5103428 14.8543313,10.4387651 14.9707469,1.50644563 C17.3949893,-0.465880996 -28.9611534,1.91867516 -26.536911,3.96321242 C-26.5369103,16.857606 -14.8417547,13.7769687 -14.8417547,27.517991 C-14.8417547,41.2590133 -14.8417547,46.845843 -14.8417547,53.3364789 C-14.8417547,65.4139437 -18.954787,67.4148942 -18.954787,67.4148942 C-19.5751857,67.943318 -19.4215084,68.3716902 -18.5901448,68.3716902 L36.642102,68.3716938 C36.642102,68.3716938 35.8671786,62.8890396 36.642102,62.3086204 C37.3503326,61.7781542 42.7542875,33.0733998 41.348422,19.2821575 Z" id="Mask" fill="#EAF2F9" style="mix-blend-mode: multiply;" mask="url(#mask-2)"></path>
                            <path d="M-0.0206693135,65.1821081 C5.39673248,65.1821081 11.3691233,61.484925 16.2248708,61.484925 C21.0806183,61.484925 26.6758697,65.1821081 32.4704126,65.1821081 C38.2649555,65.1821081 32.4704126,66.3028169 32.4704126,66.3028169 L-0.0206693135,66.3028169 C-0.0206693135,66.3028169 -5.43807111,65.1821081 -0.0206693135,65.1821081 Z" id="Rectangle-8" fill="#EAF2F9" opacity="0.3" style="mix-blend-mode: multiply;" mask="url(#mask-2)"></path>
                            <path d="M-0.0206693135,66.4145025 C5.39673248,66.4145025 11.3691233,62.7173194 16.2248708,62.7173194 C21.0806183,62.7173194 26.6758697,66.4145025 32.4704126,66.4145025 C38.2649555,66.4145025 32.4704126,67.5352113 32.4704126,67.5352113 L-0.0206693135,67.5352113 C-0.0206693135,67.5352113 -5.43807111,66.4145025 -0.0206693135,66.4145025 Z" id="Rectangle-8" fill="#5E7888" opacity="0.3" style="mix-blend-mode: multiply;" mask="url(#mask-2)"></path>
                            <rect id="reflect" fill="#FFFFFF" opacity="0.7" mask="url(#mask-2)" x="18.1417323" y="-0.246478873" width="3.02362205" height="70" rx="1.51181102"></rect>
                        </g>
                    </g>
                    <g id="Mask-+-Line" transform="translate(11.086614, 0.000000)">
                        <mask id="mask-4" fill="white">
                            <use xlink:href="#path-3"></use>
                        </mask>
                        <rect stroke="#455A64" stroke-width="0.989906832" x="-0.368969164" y="-0.494953416" width="10.56471" height="6.16596317" rx="3.08298159"></rect>
                        <path d="M0.125984252,3.82042254 L9.7007874,3.82042254" id="Line" stroke="#5E7888" stroke-width="0.742430124" stroke-linecap="square" mask="url(#mask-4)"></path>
                        <path d="M0.125984252,2.3415493 L9.7007874,2.3415493" id="Line" stroke="#98AFC3" stroke-width="0.5" stroke-linecap="square" mask="url(#mask-4)"></path>
                        <path d="M0.125984252,1.60211268 L9.7007874,1.60211268" id="Line" stroke="#98AFC3" stroke-width="0.5" stroke-linecap="square" mask="url(#mask-4)"></path>
                        <path d="M0.125984252,0.862676056 L9.7007874,0.862676056" id="Line" stroke="#98AFC3" stroke-width="0.5" stroke-linecap="square" mask="url(#mask-4)"></path>
                    </g>
                </g>
                <g id="Group-16" transform="translate(36.000000, 0.000000)">
                    <g id="Group-13" transform="translate(0.000000, 5.981308)">
                        <mask id="mask-6" fill="white">
                            <use xlink:href="#path-5"></use>
                        </mask>
                        <path stroke="#455A64" stroke-width="0.989906832" d="M17.7131162,73.0776174 C17.7068324,73.074013 17.7004882,73.0703694 17.694082,73.0666857 C17.7050078,73.0729682 17.7134625,73.0778244 17.7196692,73.0813836 Z M17.7196692,73.0813836 C17.8223002,73.1402369 17.3102731,72.8444651 17.192627,72.7788817 C16.4379256,72.3581631 15.8641083,72.1555471 15.2517622,72.1555471 C14.779344,72.1555471 14.4149984,72.4154886 13.70651,73.1768257 C13.6103891,73.280286 13.5610708,73.3332938 13.5124675,73.3850549 C12.7723837,74.1732217 12.2824299,74.513645 11.5729226,74.513645 C10.7547835,74.513645 10.259466,74.1614361 9.5253118,73.3136114 C9.45295539,73.2298105 9.45295539,73.2298105 9.38188882,73.1473701 C8.81062936,72.4860589 8.48900364,72.2320224 8.01532551,72.1479264 C7.51728699,72.0595055 7.1025033,72.2234379 6.35364274,72.7280881 C5.64685863,73.2043833 5.51440462,73.2853948 5.17107393,73.4016627 C4.98492319,73.464702 4.80129455,73.4981942 4.61644184,73.4981942 C1.84865838,73.4981942 -0.603829754,67.4603625 -0.49214079,63.2100965 C-0.143134452,49.9288404 0.17224623,41.1531513 0.454451175,36.8760538 C0.507857976,36.0666205 0.75264638,35.1750871 1.17214655,34.1337732 C1.38115398,33.6149597 1.6207796,33.0865384 1.9503622,32.4019416 C3.25664008,29.6885895 3.35910544,29.4500533 3.35910544,28.896811 C3.35910544,28.6637244 3.32762238,28.4263725 3.26474988,28.176846 C3.15424218,27.7382664 2.95236295,27.2715307 2.61641099,26.647566 C2.4770655,26.3887591 1.77656091,25.1600945 1.57932953,24.7946124 C0.315647907,22.4529312 -0.31920037,20.345372 -0.31920037,17.5505015 C-0.31920037,13.5715197 0.163745114,10.4849251 0.831864732,8.85907756 C2.37583651,5.10187201 4.69937043,2.01600126 7.79823557,-0.390896117 L7.93220868,-0.494953416 L16.2952979,-0.494953416 L16.4299678,-0.389018651 C19.7017552,2.18465325 22.1149463,5.26614033 23.6634289,8.85093554 C24.221004,10.1417429 24.4094762,12.7020619 24.4094762,18.485532 C24.4094762,20.2787257 23.834488,21.7209007 22.4031095,24.2326349 C20.8950124,26.8789923 20.5265954,27.7030553 20.5265954,28.896811 C20.5265954,29.2693901 20.6071573,29.6502483 20.7693604,30.0715081 C20.8982249,30.4061838 21.075231,30.7610664 21.3305129,31.2096726 C21.4698928,31.4546045 22.0002316,32.344929 22.0812653,32.4841593 C23.0117559,34.0829079 23.5112621,35.3148015 23.7002884,36.8480797 C23.9712084,39.0456341 24.0420073,43.4719783 23.9678118,49.7458766 C23.943194,51.8275376 23.9041663,54.0062433 23.8494286,56.5360678 C23.8253158,57.6504947 23.7503347,60.9142567 23.7493644,60.9577096 C23.7179968,62.3624451 23.7040074,63.1476776 23.7040074,63.5942134 C23.7040074,66.2672945 21.5854417,72.5879583 19.2587718,73.466297 C18.9248847,73.5923424 18.5907222,73.5242705 18.1728325,73.3244241 C18.0408814,73.2613214 17.9051375,73.18776 17.7131162,73.0776174 Z"></path>
                        <path d="M27.6713041,31.5451674 C27.133105,26.22082 20.2376552,28.6658574 19.9909619,29.4030198 C18.8695542,32.7539817 22.4870411,33.8151066 22.4870411,50.0906038 C22.4870411,66.3661011 16.3956559,69.202588 11.3121645,69.202588 C0.163018954,69.202588 3.01832788,59.4430246 3.01832788,48.4107777 C3.01832788,39.313771 3.69751513,37.6758182 6.49971313,31.5451674 C8.93073978,26.2265655 2.26646494,22.3051059 3.01832788,14.4605626 C4.245195,1.66007492 10.3960238,3.90172375 10.4625197,-1.2435953 C12.8931417,-3.23786593 -4.94153491,3.91587813 -2.51091287,5.98316279 C-2.51091216,19.0210187 -2.51091284,21.6211765 -2.51091287,35.5150806 C-2.5109129,49.4089848 -2.51091287,56.1563764 -2.51091287,62.7192267 C-2.51091287,74.9310647 5.07195266,75.8616697 5.07195266,75.8616697 C5.86048299,76.0866232 7.16932353,76.226185 7.97792491,76.174502 L21.6290551,75.3019703 C21.6290551,75.3019703 28.0499404,69.789465 28.826903,69.202588 C29.5369973,68.6662199 29.0808692,45.4898503 27.6713041,31.5451674 Z" id="Mask" fill="#EAF2F9" style="mix-blend-mode: multiply;" mask="url(#mask-6)"></path>
                        <path d="M3.37952454,73.2876216 C4.73082317,73.2876216 5.83949767,70.529595 7.50163342,70.529595 C10.1084957,70.529595 10.0386202,73.2876216 11.4839916,73.2876216 C12.2297453,73.2876216 13.6827281,70.529595 15.4425592,70.529595 C16.1274259,70.529595 17.8978463,71.7757965 19.0955487,72.5430483 C19.7930245,72.9898534 20.6262695,72.9022063 20.0719183,73.2876216 C19.1321244,73.9410179 11.4839916,74.1236486 11.4839916,74.1236486 L3.37952454,74.1236486 C3.37952454,74.1236486 2.0282259,73.2876216 3.37952454,73.2876216 Z" id="Rectangle-8" fill="#EAF2F9" opacity="0.3" style="mix-blend-mode: multiply;" mask="url(#mask-6)"></path>
                        <path d="M3.37952454,73.786064 C4.73082317,73.786064 5.83949767,71.0280374 7.50163342,71.0280374 C10.1084957,71.0280374 10.0386202,73.786064 11.4839916,73.786064 C12.2297453,73.786064 13.6827281,71.0280374 15.4425592,71.0280374 C16.1274259,71.0280374 17.8978463,72.2742389 19.0955487,73.0414906 C19.7930245,73.4882958 20.6262695,73.4006487 20.0719183,73.786064 C19.1321244,74.4394603 11.4839916,74.622091 11.4839916,74.622091 L3.37952454,74.622091 C3.37952454,74.622091 2.0282259,73.786064 3.37952454,73.786064 Z" id="Rectangle-8-Copy" fill="#5E7888" opacity="0.3" style="mix-blend-mode: multiply;" mask="url(#mask-6)"></path>
                        <rect id="reflect" fill="#FFFFFF" opacity="0.7" mask="url(#mask-6)" x="15.6631579" y="-1.4953271" width="2.27368421" height="76.7601246" rx="1.13684211"></rect>
                    </g>
                    <g id="Mask-+-Line" transform="translate(7.831579, 0.000000)">
                        <mask id="mask-8" fill="white">
                            <use xlink:href="#path-7"></use>
                        </mask>
                        <rect stroke="#455A64" stroke-width="0.989906832" x="-0.388070825" y="-0.494953416" width="9.11298376" height="6.22355169" rx="3.11177585"></rect>
                        <path d="M0.106882591,3.86292835 L8.22995951,3.86292835" id="Line" stroke="#5E7888" stroke-width="0.742430124" stroke-linecap="square" mask="url(#mask-8)"></path>
                        <path d="M0.106882591,2.36760125 L8.22995951,2.36760125" id="Line" stroke="#98AFC3" stroke-width="0.5" stroke-linecap="square" mask="url(#mask-8)"></path>
                        <path d="M0.106882591,1.61993769 L8.22995951,1.61993769" id="Line" stroke="#98AFC3" stroke-width="0.5" stroke-linecap="square" mask="url(#mask-8)"></path>
                        <path d="M0.106882591,0.872274143 L8.22995951,0.872274143" id="Line" stroke="#98AFC3" stroke-width="0.5" stroke-linecap="square" mask="url(#mask-8)"></path>
                    </g>
                </g>
                <g id="Group-22" transform="translate(65.000000, 22.000000)">
                    <g id="Group-19" opacity="0.800000012" transform="translate(0.000000, 4.668103)">
                        <mask id="mask-10" fill="white">
                            <use xlink:href="#path-9"></use>
                        </mask>
                        <path stroke="#455A64" stroke-width="0.989906832" d="M0.255046584,38.5989718 L0.255046584,36.0906833 C-0.175742646,35.9834483 -0.494953416,35.5940253 -0.494953416,35.1300466 L-0.494953416,31.6975396 C-0.494953416,31.2335609 -0.175742646,30.8441379 0.255046584,30.7369029 L0.255046584,28.2286144 C-0.175742646,28.1213793 -0.494953416,27.7319563 -0.494953416,27.2679776 L-0.494953416,23.8354707 C-0.494953416,23.371492 -0.175742646,22.9820689 0.255046584,22.8748339 L0.255046584,20.3665454 C-0.175742646,20.2593104 -0.494953416,19.8698873 -0.494953416,19.4059087 L-0.494953416,15.9734017 C-0.494953416,15.509423 -0.175742646,15.12 0.255046584,15.0127649 L0.255046584,11.0429692 C0.255046584,10.7146376 0.348353521,10.3930665 0.524094558,10.1157278 L5.0143678,3.02958268 C5.08968539,2.91072324 5.12967407,2.77290705 5.12967407,2.63219349 L5.12967407,1.23738354 C5.12967407,0.280640258 5.90526775,-0.494953416 6.86201103,-0.494953416 L12.5354913,-0.494953416 C13.4922346,-0.494953416 14.2678283,0.280640258 14.2678283,1.23738354 L14.2678283,2.60830359 C14.2678283,2.75797349 14.3130646,2.90414885 14.3976039,3.02765667 L19.1921435,10.0322457 C19.3894019,10.3204307 19.4949534,10.6615065 19.4949534,11.0107363 L19.4949534,14.9834949 L19.5050466,14.9834949 C20.051757,14.9834949 20.4949534,15.4266912 20.4949534,15.9734017 L20.4949534,19.4059087 C20.4949534,19.9526191 20.051757,20.3958155 19.5050466,20.3958155 L19.4949534,20.3958155 L19.4949534,22.8455638 L19.5050466,22.8455638 C20.051757,22.8455638 20.4949534,23.2887602 20.4949534,23.8354707 L20.4949534,27.2679776 C20.4949534,27.8146881 20.051757,28.2578845 19.5050466,28.2578845 L19.4949534,28.2578845 L19.4949534,30.7076328 L19.5050466,30.7076328 C20.051757,30.7076328 20.4949534,31.1508292 20.4949534,31.6975396 L20.4949534,35.1300466 C20.4949534,35.676757 20.051757,36.1199534 19.5050466,36.1199534 L19.4949534,36.1199534 L19.4949534,38.5697018 L19.5050466,38.5697018 C20.051757,38.5697018 20.4949534,39.0128981 20.4949534,39.5596086 L20.4949534,42.9921155 C20.4949534,43.538826 20.051757,43.9820224 19.5050466,43.9820224 L19.4949534,43.9820224 L19.4949534,46.6745979 C19.4949534,46.9897498 19.4089821,47.2989314 19.2462976,47.5688471 L16.5823119,51.9887622 C16.2688328,52.5088666 15.7059014,52.82685 15.0986307,52.82685 L4.47289495,52.82685 C3.84651146,52.82685 3.26891714,52.4887099 2.96229811,51.9425039 L0.476786695,47.5148551 C0.33140405,47.2558729 0.255046584,46.9638624 0.255046584,46.6668642 L0.255046584,43.9527523 C-0.175742646,43.8455173 -0.494953416,43.4560942 -0.494953416,42.9921155 L-0.494953416,39.5596086 C-0.494953416,39.0956299 -0.175742646,38.7062069 0.255046584,38.5989718 Z"></path>
                        <path d="M24.75,9.18417728 C24.389963,3.93527725 15.5428967,5.75220087 15.4012613,5.01208359 C14.8886773,2.33356899 19.1970485,9.8485802 19.1970485,30.9275162 C19.1970485,52.0064522 14.0526284,52.0064522 10.6519441,52.0064522 C3.19354174,52.0064522 2.80769075,41.8034333 2.80769075,30.9275162 C2.80769075,21.9594164 2.80769031,32.7520692 2.80769035,19.0550453 C2.8076904,5.3580213 10.5738611,0.302682712 10.6519441,-8.60103575 C12.2779482,-10.567047 -18.8143551,-8.19012616 -17.1883509,-6.15213546 C-17.1883504,6.70097064 -9.34409711,3.63019745 -9.34409713,17.3272214 C-9.34409715,31.0242454 -9.34409713,36.5931862 -9.34409713,43.0630393 C-9.34409713,55.1018324 -11.9790574,56.8959832 -11.9790574,56.8959832 C-12.4635264,57.5333888 -12.1959453,58.0501083 -11.3649054,58.0501084 L25.187501,58.0501118 C25.187501,58.0501118 24.6677391,52.585013 25.187501,52.0064522 C25.6625301,51.4776846 25.6929515,22.9312604 24.75,9.18417728 Z" id="Mask" fill="#EAF2F9" style="mix-blend-mode: multiply;" mask="url(#mask-10)"></path>
                        <path d="M1.28501004,52.685996 C4.17628263,52.685996 7.36375339,50.612069 9.95527054,50.612069 C12.5467877,50.612069 15.5329788,52.685996 18.6255319,52.685996 C21.7180851,52.685996 18.6255319,53.3146552 18.6255319,53.3146552 L1.28501004,53.3146552 C1.28501004,53.3146552 -1.60626255,52.685996 1.28501004,52.685996 Z" id="Rectangle-8" fill="#EAF2F9" opacity="0.3" style="mix-blend-mode: multiply;" mask="url(#mask-10)"></path>
                        <path d="M1.28501004,53.1773753 C4.17628263,53.1773753 7.36375339,51.1034483 9.95527054,51.1034483 C12.5467877,51.1034483 15.5329788,53.1773753 18.6255319,53.1773753 C21.7180851,53.1773753 18.6255319,53.8060345 18.6255319,53.8060345 L1.28501004,53.8060345 C1.28501004,53.8060345 -1.60626255,53.1773753 1.28501004,53.1773753 Z" id="Rectangle-8" fill="#5E7888" opacity="0.3" style="mix-blend-mode: multiply;" mask="url(#mask-10)"></path>
                        <rect id="reflect" fill="#FFFFFF" opacity="0.7" mask="url(#mask-10)" x="13" y="-11.7931034" width="2.5" height="69.7758621" rx="1.25"></rect>
                    </g>
                    <g id="Mask-+-Line" transform="translate(4.750000, 0.000000)">
                        <mask id="mask-12" fill="white">
                            <use xlink:href="#path-11"></use>
                        </mask>
                        <rect stroke="#455A64" stroke-width="0.989906832" x="-0.366748288" y="-0.494953416" width="10.7334966" height="6.14938959" rx="3.0746948"></rect>
                        <path d="M0.128205128,3.80818966 L9.87179487,3.80818966" id="Line" stroke="#5E7888" stroke-width="0.742430124" stroke-linecap="square" mask="url(#mask-12)"></path>
                        <path d="M0.128205128,2.33405172 L9.87179487,2.33405172" id="Line" stroke="#98AFC3" stroke-width="0.5" stroke-linecap="square" mask="url(#mask-12)"></path>
                        <path d="M0.128205128,1.59698276 L9.87179487,1.59698276" id="Line" stroke="#98AFC3" stroke-width="0.5" stroke-linecap="square" mask="url(#mask-12)"></path>
                        <path d="M0.128205128,0.859913793 L9.87179487,0.859913793" id="Line" stroke="#98AFC3" stroke-width="0.5" stroke-linecap="square" mask="url(#mask-12)"></path>
                    </g>
                </g>
            </g>
        </g>
    </g>
</svg>