<?xml version="1.0" encoding="UTF-8"?>
<svg width="260px" height="100px" viewBox="0 0 260 100" version="1.1" xmlns="http://www.w3.org/2000/svg" xmlns:xlink="http://www.w3.org/1999/xlink">
    <!-- Generator: Sketch 51.2 (57519) - http://www.bohemiancoding.com/sketch -->
    <title>Story1_Button1</title>
    <desc>Created with Sketch.</desc>
    <defs>
        <path d="M30.8725309,0.774576552 L44.9195593,0.768666538 C44.9543588,0.768651153 44.9877897,0.782220372 45.0127341,0.806485101 C45.3376312,1.12252899 45.4893956,1.58674089 45.4680273,2.19912081 C45.4468079,2.80723419 45.2953426,3.28162659 45.0136312,3.62229802 L45.0136823,3.62234027 C44.9883248,3.65300497 44.9506432,3.67080422 44.9108523,3.67091303 L31.7302475,3.70695481 C30.5880354,3.788647 29.8560507,3.98303842 29.5342936,4.29012906 C29.051658,4.75076503 28.2250733,5.9571689 28.0249617,6.22466847 C27.7064575,6.65042951 5.14103445,40.1981256 3.67382929,42.3348076 C3.17345948,43.0634932 2.3014242,43.7727456 1.27867201,42.9940524 C0.255919811,42.2153593 0.931401932,41.0505997 1.15029057,40.7799145 C1.59035413,40.2357168 25.2283722,4.91338413 25.3471745,4.73981004 C25.8319645,4.03151578 27.0409503,2.26718194 27.480764,1.76815006 C28.0391164,1.134619 29.1697054,0.803427835 30.8725309,0.774576552 Z" id="path-1"></path>
        <path d="M30.8726936,0.774924946 L44.9061762,0.769077675 C44.9409865,0.76906227 44.9744256,0.782646244 44.9993635,0.806933163 C45.3238768,1.12297498 45.4754607,1.58715366 45.4541153,2.1994692 C45.4329164,2.80758258 45.2815971,3.28197498 45.0001574,3.62264641 L45.0001711,3.62265775 C44.9748232,3.65334037 44.9371368,3.67115287 44.8973383,3.6712618 L31.7295831,3.7073032 C30.5884724,3.78899539 29.8571937,3.98338681 29.5357468,4.29047746 C29.0535766,4.75111342 28.227789,5.9575173 28.0278704,6.22501687 C27.7096734,6.6507779 5.16601055,40.198474 3.70022025,42.335156 C3.20033295,43.0638416 2.3291386,43.773094 1.30737266,42.9944008 C0.285606725,42.2157077 0.960437466,41.0509481 1.17911503,40.7802629 C1.61875422,40.2360652 25.2339777,4.91373252 25.3526654,4.74015843 C25.836988,4.03186418 27.0448079,2.26753033 27.4841975,1.76849845 C28.0420115,1.1349674 29.1715102,0.803776228 30.8726936,0.774924946 Z" id="path-3"></path>
        <path d="M30.8726936,0.774924946 L44.0721356,0.769107508 C44.8355074,0.768769692 45.4546164,1.387331 45.4549542,2.15070285 C45.4549614,2.16696197 45.4546817,2.18321995 45.4541153,2.1994692 C45.4541153,2.1994692 45.4541153,2.1994692 45.4541153,2.1994692 C45.4329164,2.80758258 45.2815971,3.28197498 45.0001574,3.62264641 L45.0001711,3.62265775 C44.9748232,3.65334037 44.9371368,3.67115287 44.8973383,3.6712618 L31.7295831,3.7073032 C30.5884724,3.78899539 29.8571937,3.98338681 29.5357468,4.29047746 C29.0535766,4.75111342 28.227789,5.9575173 28.0278704,6.22501687 C27.7096734,6.6507779 5.16601055,40.198474 3.70022025,42.335156 C3.20033295,43.0638416 2.3291386,43.773094 1.30737266,42.9944008 C0.285606725,42.2157077 0.960437466,41.0509481 1.17911503,40.7802629 C1.61875422,40.2360652 25.2339777,4.91373252 25.3526654,4.74015843 C25.836988,4.03186418 27.0448079,2.26753033 27.4841975,1.76849845 C28.0420115,1.1349674 29.1715102,0.803776228 30.8726936,0.774924946 Z" id="path-5"></path>
    </defs>
    <g id="Story1_Button1" stroke="none" stroke-width="1" fill="none" fill-rule="evenodd">
        <g id="Group-4">
            <rect id="Rectangle-16-Copy" stroke-opacity="0.2" stroke="#000000" stroke-width="5" fill="#FF2F48" fill-rule="nonzero" x="2.5" y="2.5" width="255" height="95" rx="8"></rect>
            <g id="Group-5" transform="translate(83.000000, 7.000000)">
                <g id="Group-13" transform="translate(68.485592, 53.796508) rotate(-4.000000) translate(-68.485592, -53.796508) translate(45.373544, 31.411312)" fill="#7EB3B9" fill-rule="nonzero" stroke="#151F20" stroke-width="0.5">
                    <path d="M30.8725309,1.42844232 L44.9195593,1.4225323 C44.9543588,1.42251692 44.9877897,1.43608614 45.0127341,1.46035087 C45.3376312,1.77639476 45.4893956,2.24060666 45.4680273,2.85298657 C45.4468079,3.46109995 45.2953426,3.93549236 45.0136312,4.27616379 L45.0136823,4.27620603 C44.9883248,4.30687074 44.9506432,4.32466999 44.9108523,4.3247788 L31.7302475,4.36082058 C30.5880354,4.44251277 29.8560507,4.63690419 29.5342936,4.94399483 C29.051658,5.4046308 28.2250733,6.61103467 28.0249617,6.87853424 C27.7064575,7.30429527 5.14103445,40.8519913 3.67382929,42.9886734 C3.17345948,43.7173589 2.3014242,44.4266113 1.27867201,43.6479182 C0.255919811,42.8692251 0.931401932,41.7044655 1.15029057,41.4337803 C1.59035413,40.8895826 25.2283722,5.5672499 25.3471745,5.39367581 C25.8319645,4.68538155 27.0409503,2.92104771 27.480764,2.42201583 C28.0391164,1.78848477 29.1697054,1.4572936 30.8725309,1.42844232 Z" id="Rectangle-10" transform="translate(23.099273, 22.704557) rotate(-2.000000) translate(-23.099273, -22.704557) "></path>
                    <rect id="Rectangle-13" transform="translate(30.041561, 2.486008) rotate(-20.000000) translate(-30.041561, -2.486008) " x="29.4838374" y="0.454326279" width="1.11544632" height="4.06336416" rx="0.557679125"></rect>
                    <rect id="Rectangle-13-Copy" transform="translate(28.599668, 2.969328) rotate(-29.000000) translate(-28.599668, -2.969328) " x="28.041945" y="0.937645625" width="1.11544632" height="4.06336416" rx="0.557679125"></rect>
                    <rect id="Rectangle-13-Copy-2" transform="translate(27.268539, 4.175014) rotate(-54.000000) translate(-27.268539, -4.175014) " x="26.7108162" y="2.1433317" width="1.11544632" height="4.06336416" rx="0.557679125"></rect>
                    <rect id="Rectangle-13-Copy-3" transform="translate(26.433360, 5.393661) rotate(-59.000000) translate(-26.433360, -5.393661) " x="25.8756369" y="3.36197848" width="1.11544632" height="4.06336416" rx="0.557679125"></rect>
                </g>
                <g id="Group-13-Copy" transform="translate(37.137218, 62.539641) rotate(8.000000) translate(-37.137218, -62.539641) translate(13.137218, 40.039641)" fill="#64B400" fill-rule="nonzero" stroke="#151F20" stroke-width="0.5">
                    <path d="M31.8725309,1.42844232 L45.9195593,1.4225323 C45.9543588,1.42251692 45.9877897,1.43608614 46.0127341,1.46035087 C46.3376312,1.77639476 46.4893956,2.24060666 46.4680273,2.85298657 C46.4468079,3.46109995 46.2953426,3.93549236 46.0136312,4.27616379 L46.0136823,4.27620603 C45.9883248,4.30687074 45.9506432,4.32466999 45.9108523,4.3247788 L32.7302475,4.36082058 C31.5880354,4.44251277 30.8560507,4.63690419 30.5342936,4.94399483 C30.051658,5.4046308 29.2250733,6.61103467 29.0249617,6.87853424 C28.7064575,7.30429527 6.14103445,40.8519913 4.67382929,42.9886734 C4.17345948,43.7173589 3.3014242,44.4266113 2.27867201,43.6479182 C1.25591981,42.8692251 1.93140193,41.7044655 2.15029057,41.4337803 C2.59035413,40.8895826 26.2283722,5.5672499 26.3471745,5.39367581 C26.8319645,4.68538155 28.0409503,2.92104771 28.480764,2.42201583 C29.0391164,1.78848477 30.1697054,1.4572936 31.8725309,1.42844232 Z" id="Rectangle-10" transform="translate(24.099273, 22.704557) rotate(-2.000000) translate(-24.099273, -22.704557) "></path>
                    <rect id="Rectangle-13" transform="translate(31.041561, 2.486008) rotate(-20.000000) translate(-31.041561, -2.486008) " x="30.4838374" y="0.454326279" width="1.11544632" height="4.06336416" rx="0.557679125"></rect>
                    <rect id="Rectangle-13-Copy" transform="translate(29.599668, 2.969328) rotate(-29.000000) translate(-29.599668, -2.969328) " x="29.041945" y="0.937645625" width="1.11544632" height="4.06336416" rx="0.557679125"></rect>
                    <rect id="Rectangle-13-Copy-2" transform="translate(28.268539, 4.175014) rotate(-54.000000) translate(-28.268539, -4.175014) " x="27.7108162" y="2.1433317" width="1.11544632" height="4.06336416" rx="0.557679125"></rect>
                    <rect id="Rectangle-13-Copy-3" transform="translate(27.433360, 5.393661) rotate(-59.000000) translate(-27.433360, -5.393661) " x="26.8756369" y="3.36197848" width="1.11544632" height="4.06336416" rx="0.557679125"></rect>
                </g>
                <g id="Group-13-Copy-2" transform="translate(24.749701, 0.000000)" fill="#55ACEE" fill-rule="nonzero" stroke="#151F20" stroke-width="0.5">
                    <path d="M30.8725309,1.42844232 L44.9195593,1.4225323 C44.9543588,1.42251692 44.9877897,1.43608614 45.0127341,1.46035087 C45.3376312,1.77639476 45.4893956,2.24060666 45.4680273,2.85298657 C45.4468079,3.46109995 45.2953426,3.93549236 45.0136312,4.27616379 L45.0136823,4.27620603 C44.9883248,4.30687074 44.9506432,4.32466999 44.9108523,4.3247788 L31.7302475,4.36082058 C30.5880354,4.44251277 29.8560507,4.63690419 29.5342936,4.94399483 C29.051658,5.4046308 28.2250733,6.61103467 28.0249617,6.87853424 C27.7064575,7.30429527 5.14103445,40.8519913 3.67382929,42.9886734 C3.17345948,43.7173589 2.3014242,44.4266113 1.27867201,43.6479182 C0.255919811,42.8692251 0.931401932,41.7044655 1.15029057,41.4337803 C1.59035413,40.8895826 25.2283722,5.5672499 25.3471745,5.39367581 C25.8319645,4.68538155 27.0409503,2.92104771 27.480764,2.42201583 C28.0391164,1.78848477 29.1697054,1.4572936 30.8725309,1.42844232 Z" id="Rectangle-10" transform="translate(23.099273, 22.704557) rotate(-2.000000) translate(-23.099273, -22.704557) "></path>
                    <rect id="Rectangle-13" transform="translate(30.041561, 2.486008) rotate(-20.000000) translate(-30.041561, -2.486008) " x="29.4838374" y="0.454326279" width="1.11544632" height="4.06336416" rx="0.557679125"></rect>
                    <rect id="Rectangle-13-Copy" transform="translate(28.599668, 2.969328) rotate(-29.000000) translate(-28.599668, -2.969328) " x="28.041945" y="0.937645625" width="1.11544632" height="4.06336416" rx="0.557679125"></rect>
                    <rect id="Rectangle-13-Copy-2" transform="translate(27.268539, 4.175014) rotate(-54.000000) translate(-27.268539, -4.175014) " x="26.7108162" y="2.1433317" width="1.11544632" height="4.06336416" rx="0.557679125"></rect>
                    <rect id="Rectangle-13-Copy-3" transform="translate(26.433360, 5.393661) rotate(-59.000000) translate(-26.433360, -5.393661) " x="25.8756369" y="3.36197848" width="1.11544632" height="4.06336416" rx="0.557679125"></rect>
                </g>
                <g id="Group-13-Copy-3" transform="translate(50.110778, 70.343820) rotate(20.000000) translate(-50.110778, -70.343820) translate(26.998730, 47.958624)">
                    <g id="Group-25" transform="translate(0.000000, 0.653866)">
                        <mask id="mask-2" fill="white">
                            <use xlink:href="#path-1"></use>
                        </mask>
                        <use id="Rectangle-10" stroke="#151F20" stroke-width="0.5" fill="#55ACEE" fill-rule="nonzero" transform="translate(23.099273, 22.050691) rotate(-2.000000) translate(-23.099273, -22.050691) " xlink:href="#path-1"></use>
                        <path d="M35.6841268,-2.08779721 L41.636781,6.10532833 L44.1200006,4.30116369 L38.1673464,-3.89196186 L35.6841268,-2.08779721 Z M28.9022132,-2.08779721 L34.8548673,6.10532833 L37.3380869,4.30116369 L31.3854328,-3.89196186 L28.9022132,-2.08779721 Z M19.0952927,10.5085912 L29.1840156,9.62594234 L28.9164973,6.56819422 L18.8277744,7.4508431 L19.0952927,10.5085912 Z M14.9458324,16.8938778 L25.0345553,16.0112289 L24.767037,12.9534808 L14.6783141,13.8361296 L14.9458324,16.8938778 Z M10.7963721,23.234512 L20.8850949,22.3518631 L20.6175767,19.294115 L10.5288538,20.1767638 L10.7963721,23.234512 Z M6.6469118,29.5751461 L16.7356346,28.6924973 L16.4681163,25.6347491 L6.3793935,26.517398 L6.6469118,29.5751461 Z M2.49745148,35.9157803 L12.5861743,35.0331315 L12.318656,31.9753833 L2.22993319,32.8580322 L2.49745148,35.9157803 Z M-1.65200883,42.2564145 L8.43671401,41.3737656 L8.16919571,38.3160175 L-1.91952713,39.1986664 L-1.65200883,42.2564145 Z" id="Combined-Shape" stroke="#151F20" stroke-width="0.5" fill="#FFFFFF" fill-rule="nonzero" mask="url(#mask-2)"></path>
                    </g>
                    <rect id="Rectangle-13" stroke="#151F20" stroke-width="0.5" fill="#55ACEE" fill-rule="nonzero" transform="translate(30.041561, 2.486008) rotate(-20.000000) translate(-30.041561, -2.486008) " x="29.4838374" y="0.454326279" width="1.11544632" height="4.06336416" rx="0.557679125"></rect>
                    <rect id="Rectangle-13-Copy" stroke="#151F20" stroke-width="0.5" fill="#55ACEE" fill-rule="nonzero" transform="translate(28.599668, 2.969328) rotate(-29.000000) translate(-28.599668, -2.969328) " x="28.041945" y="0.937645625" width="1.11544632" height="4.06336416" rx="0.557679125"></rect>
                    <rect id="Rectangle-13-Copy-2" stroke="#151F20" stroke-width="0.5" fill="#55ACEE" fill-rule="nonzero" transform="translate(27.268539, 4.175014) rotate(-54.000000) translate(-27.268539, -4.175014) " x="26.7108162" y="2.1433317" width="1.11544632" height="4.06336416" rx="0.557679125"></rect>
                    <rect id="Rectangle-13-Copy-3" stroke="#151F20" stroke-width="0.5" fill="#55ACEE" fill-rule="nonzero" transform="translate(26.433360, 5.393661) rotate(-59.000000) translate(-26.433360, -5.393661) " x="25.8756369" y="3.36197848" width="1.11544632" height="4.06336416" rx="0.557679125"></rect>
                </g>
                <g id="Group-22" transform="translate(26.121115, 45.304380) rotate(-7.000000) translate(-26.121115, -45.304380) translate(3.009067, 23.112160)">
                    <g id="Group-19" transform="translate(0.000000, 0.267914)">
                        <mask id="mask-4" fill="white">
                            <use xlink:href="#path-3"></use>
                        </mask>
                        <use id="Rectangle-10-Copy" stroke="#1B241A" stroke-width="0.5" fill="#8BCC00" fill-rule="nonzero" transform="translate(23.106932, 22.051040) rotate(-2.000000) translate(-23.106932, -22.051040) " xlink:href="#path-3"></use>
                        <rect id="Rectangle-14" fill="#FFFFFF" fill-rule="nonzero" mask="url(#mask-4)" transform="translate(32.783624, 1.633402) rotate(-31.000000) translate(-32.783624, -1.633402) " x="32.3378761" y="-1.04573942" width="1" height="5.35828241"></rect>
                        <rect id="Rectangle-14-Copy" fill="#FFFFFF" fill-rule="nonzero" mask="url(#mask-4)" transform="translate(35.591838, 1.633402) rotate(-31.000000) translate(-35.591838, -1.633402) " x="35.1460902" y="-1.04573942" width="1" height="5.35828241"></rect>
                        <rect id="Rectangle-14-Copy-2" fill="#FFFFFF" fill-rule="nonzero" mask="url(#mask-4)" transform="translate(38.355478, 1.633402) rotate(-31.000000) translate(-38.355478, -1.633402) " x="37.9097295" y="-1.04573942" width="1" height="5.35828241"></rect>
                        <rect id="Rectangle-14-Copy-3" fill="#FFFFFF" fill-rule="nonzero" mask="url(#mask-4)" transform="translate(41.119117, 1.633402) rotate(-31.000000) translate(-41.119117, -1.633402) " x="40.6733687" y="-1.04573942" width="1" height="5.35828241"></rect>
                        <rect id="Rectangle-14-Copy-4" fill="#FFFFFF" fill-rule="nonzero" mask="url(#mask-4)" transform="translate(25.035150, 7.018961) rotate(-85.000000) translate(-25.035150, -7.018961) " x="24.5894019" y="4.3398199" width="1" height="5.35828241"></rect>
                        <rect id="Rectangle-14-Copy-5" fill="#FFFFFF" fill-rule="nonzero" mask="url(#mask-4)" transform="translate(23.742480, 9.254556) rotate(-85.000000) translate(-23.742480, -9.254556) " x="23.2967319" y="6.5754144" width="1" height="5.35828241"></rect>
                        <rect id="Rectangle-14-Copy-6" fill="#FFFFFF" fill-rule="nonzero" mask="url(#mask-4)" transform="translate(22.449810, 11.490150) rotate(-85.000000) translate(-22.449810, -11.490150) " x="22.004062" y="8.81100889" width="1" height="5.35828241"></rect>
                        <rect id="Rectangle-14-Copy-7" fill="#FFFFFF" fill-rule="nonzero" mask="url(#mask-4)" transform="translate(21.157140, 13.725745) rotate(-85.000000) translate(-21.157140, -13.725745) " x="20.711392" y="11.0466034" width="1" height="5.35828241"></rect>
                        <rect id="Rectangle-14-Copy-8" fill="#FFFFFF" fill-rule="nonzero" mask="url(#mask-4)" transform="translate(19.864470, 15.961339) rotate(-85.000000) translate(-19.864470, -15.961339) " x="19.418722" y="13.2821979" width="1" height="5.35828241"></rect>
                        <rect id="Rectangle-14-Copy-9" fill="#FFFFFF" fill-rule="nonzero" mask="url(#mask-4)" transform="translate(18.571800, 18.196934) rotate(-85.000000) translate(-18.571800, -18.196934) " x="18.126052" y="15.5177924" width="1" height="5.35828241"></rect>
                        <rect id="Rectangle-14-Copy-10" fill="#FFFFFF" fill-rule="nonzero" mask="url(#mask-4)" transform="translate(17.279130, 20.432528) rotate(-85.000000) translate(-17.279130, -20.432528) " x="16.833382" y="17.7533869" width="1" height="5.35828241"></rect>
                        <rect id="Rectangle-14-Copy-11" fill="#FFFFFF" fill-rule="nonzero" mask="url(#mask-4)" transform="translate(15.986460, 22.668123) rotate(-85.000000) translate(-15.986460, -22.668123) " x="15.5407121" y="19.9889814" width="1" height="5.35828241"></rect>
                        <rect id="Rectangle-14-Copy-12" fill="#FFFFFF" fill-rule="nonzero" mask="url(#mask-4)" transform="translate(14.248042, 24.924555) rotate(-85.000000) translate(-14.248042, -24.924555) " x="13.8022938" y="22.2454136" width="1" height="5.35828241"></rect>
                        <rect id="Rectangle-14-Copy-13" fill="#FFFFFF" fill-rule="nonzero" mask="url(#mask-4)" transform="translate(12.643348, 27.157173) rotate(-85.000000) translate(-12.643348, -27.157173) " x="12.1976" y="24.4780313" width="1" height="5.35828241"></rect>
                        <rect id="Rectangle-14-Copy-14" fill="#FFFFFF" fill-rule="nonzero" mask="url(#mask-4)" transform="translate(11.662702, 29.389790) rotate(-85.000000) translate(-11.662702, -29.389790) " x="11.2169538" y="26.710649" width="1" height="5.35828241"></rect>
                        <rect id="Rectangle-14-Copy-15" fill="#FFFFFF" fill-rule="nonzero" mask="url(#mask-4)" transform="translate(10.102583, 31.622408) rotate(-85.000000) translate(-10.102583, -31.622408) " x="9.6568349" y="28.9432667" width="1" height="5.35828241"></rect>
                        <rect id="Rectangle-14-Copy-16" fill="#FFFFFF" fill-rule="nonzero" mask="url(#mask-4)" transform="translate(8.854488, 33.855026) rotate(-85.000000) translate(-8.854488, -33.855026) " x="8.40873975" y="31.1758843" width="1" height="5.35828241"></rect>
                        <rect id="Rectangle-14-Copy-17" fill="#FFFFFF" fill-rule="nonzero" mask="url(#mask-4)" transform="translate(7.606393, 36.087643) rotate(-85.000000) translate(-7.606393, -36.087643) " x="7.16064459" y="33.408502" width="1" height="5.35828241"></rect>
                        <rect id="Rectangle-14-Copy-18" fill="#FFFFFF" fill-rule="nonzero" mask="url(#mask-4)" transform="translate(6.313723, 38.317284) rotate(-85.000000) translate(-6.313723, -38.317284) " x="5.86797461" y="35.6381428" width="1" height="5.35828241"></rect>
                        <rect id="Rectangle-14-Copy-19" fill="#FFFFFF" fill-rule="nonzero" mask="url(#mask-4)" transform="translate(3.906682, 40.552879) rotate(-85.000000) translate(-3.906682, -40.552879) " x="3.46093396" y="37.8737373" width="1" height="5.35828241"></rect>
                    </g>
                    <g id="Group-16" transform="translate(24.382430, 0.000000)" fill="#8BCC00" fill-rule="nonzero" stroke="#1B241A" stroke-width="0.5">
                        <rect id="Rectangle-13-Copy-4" transform="translate(5.660094, 2.100405) rotate(-20.000000) translate(-5.660094, -2.100405) " x="5.10290892" y="0.0687230259" width="1.11437067" height="4.06336416" rx="0.557185337"></rect>
                        <rect id="Rectangle-13-Copy-5" transform="translate(4.219592, 2.583724) rotate(-29.000000) translate(-4.219592, -2.583724) " x="3.66240696" y="0.552042372" width="1.11437067" height="4.06336416" rx="0.557185337"></rect>
                        <rect id="Rectangle-13-Copy-6" transform="translate(2.889747, 3.789411) rotate(-54.000000) translate(-2.889747, -3.789411) " x="2.33256179" y="1.75772845" width="1.11437067" height="4.06336416" rx="0.557185337"></rect>
                        <rect id="Rectangle-13-Copy-7" transform="translate(2.055373, 5.008057) rotate(-59.000000) translate(-2.055373, -5.008057) " x="1.49818786" y="2.97637522" width="1.11437067" height="4.06336416" rx="0.557185337"></rect>
                    </g>
                </g>
                <g id="Group-22-Copy" transform="translate(46.166791, 42.205695) rotate(6.000000) translate(-46.166791, -42.205695) translate(22.666791, 19.705695)">
                    <g id="Group-19" transform="translate(0.000000, 0.267914)">
                        <mask id="mask-6" fill="white">
                            <use xlink:href="#path-5"></use>
                        </mask>
                        <use id="Rectangle-10-Copy" stroke="#1B241A" stroke-width="0.5" fill="#FF8816" fill-rule="nonzero" transform="translate(23.106932, 22.051040) rotate(-2.000000) translate(-23.106932, -22.051040) " xlink:href="#path-5"></use>
                        <rect id="Rectangle-14" fill="#FFFFFF" fill-rule="nonzero" mask="url(#mask-6)" transform="translate(32.783624, 1.633402) rotate(-31.000000) translate(-32.783624, -1.633402) " x="32.3378761" y="-1.04573942" width="1" height="5.35828241"></rect>
                        <rect id="Rectangle-14-Copy" fill="#FFFFFF" fill-rule="nonzero" mask="url(#mask-6)" transform="translate(35.591838, 1.633402) rotate(-31.000000) translate(-35.591838, -1.633402) " x="35.1460902" y="-1.04573942" width="1" height="5.35828241"></rect>
                        <rect id="Rectangle-14-Copy-2" fill="#FFFFFF" fill-rule="nonzero" mask="url(#mask-6)" transform="translate(38.355478, 1.633402) rotate(-31.000000) translate(-38.355478, -1.633402) " x="37.9097295" y="-1.04573942" width="1" height="5.35828241"></rect>
                        <rect id="Rectangle-14-Copy-3" fill="#FFFFFF" fill-rule="nonzero" mask="url(#mask-6)" transform="translate(41.119117, 1.633402) rotate(-31.000000) translate(-41.119117, -1.633402) " x="40.6733687" y="-1.04573942" width="1" height="5.35828241"></rect>
                        <rect id="Rectangle-14-Copy-4" fill="#FFFFFF" fill-rule="nonzero" mask="url(#mask-6)" transform="translate(25.035150, 7.018961) rotate(-85.000000) translate(-25.035150, -7.018961) " x="24.5894019" y="4.3398199" width="1" height="5.35828241"></rect>
                        <rect id="Rectangle-14-Copy-5" fill="#FFFFFF" fill-rule="nonzero" mask="url(#mask-6)" transform="translate(23.742480, 9.254556) rotate(-85.000000) translate(-23.742480, -9.254556) " x="23.2967319" y="6.5754144" width="1" height="5.35828241"></rect>
                        <rect id="Rectangle-14-Copy-6" fill="#FFFFFF" fill-rule="nonzero" mask="url(#mask-6)" transform="translate(22.449810, 11.490150) rotate(-85.000000) translate(-22.449810, -11.490150) " x="22.004062" y="8.81100889" width="1" height="5.35828241"></rect>
                        <rect id="Rectangle-14-Copy-7" fill="#FFFFFF" fill-rule="nonzero" mask="url(#mask-6)" transform="translate(21.157140, 13.725745) rotate(-85.000000) translate(-21.157140, -13.725745) " x="20.711392" y="11.0466034" width="1" height="5.35828241"></rect>
                        <rect id="Rectangle-14-Copy-8" fill="#FFFFFF" fill-rule="nonzero" mask="url(#mask-6)" transform="translate(19.864470, 15.961339) rotate(-85.000000) translate(-19.864470, -15.961339) " x="19.418722" y="13.2821979" width="1" height="5.35828241"></rect>
                        <rect id="Rectangle-14-Copy-9" fill="#FFFFFF" fill-rule="nonzero" mask="url(#mask-6)" transform="translate(18.571800, 18.196934) rotate(-85.000000) translate(-18.571800, -18.196934) " x="18.126052" y="15.5177924" width="1" height="5.35828241"></rect>
                        <rect id="Rectangle-14-Copy-10" fill="#FFFFFF" fill-rule="nonzero" mask="url(#mask-6)" transform="translate(17.279130, 20.432528) rotate(-85.000000) translate(-17.279130, -20.432528) " x="16.833382" y="17.7533869" width="1" height="5.35828241"></rect>
                        <rect id="Rectangle-14-Copy-11" fill="#FFFFFF" fill-rule="nonzero" mask="url(#mask-6)" transform="translate(15.986460, 22.668123) rotate(-85.000000) translate(-15.986460, -22.668123) " x="15.5407121" y="19.9889814" width="1" height="5.35828241"></rect>
                        <rect id="Rectangle-14-Copy-12" fill="#FFFFFF" fill-rule="nonzero" mask="url(#mask-6)" transform="translate(14.248042, 24.924555) rotate(-85.000000) translate(-14.248042, -24.924555) " x="13.8022938" y="22.2454136" width="1" height="5.35828241"></rect>
                        <rect id="Rectangle-14-Copy-13" fill="#FFFFFF" fill-rule="nonzero" mask="url(#mask-6)" transform="translate(12.643348, 27.157173) rotate(-85.000000) translate(-12.643348, -27.157173) " x="12.1976" y="24.4780313" width="1" height="5.35828241"></rect>
                        <rect id="Rectangle-14-Copy-14" fill="#FFFFFF" fill-rule="nonzero" mask="url(#mask-6)" transform="translate(11.662702, 29.389790) rotate(-85.000000) translate(-11.662702, -29.389790) " x="11.2169538" y="26.710649" width="1" height="5.35828241"></rect>
                        <rect id="Rectangle-14-Copy-15" fill="#FFFFFF" fill-rule="nonzero" mask="url(#mask-6)" transform="translate(10.102583, 31.622408) rotate(-85.000000) translate(-10.102583, -31.622408) " x="9.6568349" y="28.9432667" width="1" height="5.35828241"></rect>
                        <rect id="Rectangle-14-Copy-16" fill="#FFFFFF" fill-rule="nonzero" mask="url(#mask-6)" transform="translate(8.854488, 33.855026) rotate(-85.000000) translate(-8.854488, -33.855026) " x="8.40873975" y="31.1758843" width="1" height="5.35828241"></rect>
                        <rect id="Rectangle-14-Copy-17" fill="#FFFFFF" fill-rule="nonzero" mask="url(#mask-6)" transform="translate(7.606393, 36.087643) rotate(-85.000000) translate(-7.606393, -36.087643) " x="7.16064459" y="33.408502" width="1" height="5.35828241"></rect>
                        <rect id="Rectangle-14-Copy-18" fill="#FFFFFF" fill-rule="nonzero" mask="url(#mask-6)" transform="translate(6.313723, 38.317284) rotate(-85.000000) translate(-6.313723, -38.317284) " x="5.86797461" y="35.6381428" width="1" height="5.35828241"></rect>
                        <rect id="Rectangle-14-Copy-19" fill="#FFFFFF" fill-rule="nonzero" mask="url(#mask-6)" transform="translate(3.906682, 40.552879) rotate(-85.000000) translate(-3.906682, -40.552879) " x="3.46093396" y="37.8737373" width="1" height="5.35828241"></rect>
                    </g>
                    <g id="Group-16" transform="translate(24.382430, 0.000000)" fill="#FF8816" fill-rule="nonzero" stroke="#1B241A" stroke-width="0.5">
                        <rect id="Rectangle-13-Copy-4" transform="translate(5.660094, 2.100405) rotate(-20.000000) translate(-5.660094, -2.100405) " x="5.10290892" y="0.0687230259" width="1.11437067" height="4.06336416" rx="0.557185337"></rect>
                        <rect id="Rectangle-13-Copy-5" transform="translate(4.219592, 2.583724) rotate(-29.000000) translate(-4.219592, -2.583724) " x="3.66240696" y="0.552042372" width="1.11437067" height="4.06336416" rx="0.557185337"></rect>
                        <rect id="Rectangle-13-Copy-6" transform="translate(2.889747, 3.789411) rotate(-54.000000) translate(-2.889747, -3.789411) " x="2.33256179" y="1.75772845" width="1.11437067" height="4.06336416" rx="0.557185337"></rect>
                        <rect id="Rectangle-13-Copy-7" transform="translate(2.055373, 5.008057) rotate(-59.000000) translate(-2.055373, -5.008057) " x="1.49818786" y="2.97637522" width="1.11437067" height="4.06336416" rx="0.557185337"></rect>
                    </g>
                </g>
            </g>
        </g>
    </g>
</svg>