<?xml version="1.0" encoding="UTF-8"?>
<svg width="260px" height="260px" viewBox="0 0 260 260" version="1.1" xmlns="http://www.w3.org/2000/svg" xmlns:xlink="http://www.w3.org/1999/xlink">
    <!-- Generator: Sketch 51.2 (57519) - http://www.bohemiancoding.com/sketch -->
    <title>Story1_Button2</title>
    <desc>Created with Sketch.</desc>
    <defs></defs>
    <g id="Story1_Button2" stroke="none" stroke-width="1" fill="none" fill-rule="evenodd">
        <g id="Group-13" fill-rule="nonzero">
            <rect id="Rectangle-16-Copy" stroke-opacity="0.2" stroke="#000000" stroke-width="5" fill="#FFD916" x="2.5" y="2.5" width="255" height="255" rx="8"></rect>
            <g id="Group-6" opacity="0.800000012" transform="translate(130.000000, 130.000000) rotate(9.000000) translate(-130.000000, -130.000000) translate(45.000000, 45.000000)" stroke="#212121">
                <path d="M10.3464233,15.9523303 C17.8935347,15.564587 23.3147828,18.4636505 26.6101674,24.6495209 C31.5532444,33.9283266 34.7772257,44.3155219 44.191653,41.7990524 C50.4679379,40.121406 55.4385967,36.3930455 59.1036295,30.6139709 C67.4436542,21.2339812 74.28498,15.5895612 79.6276069,13.6807106 C84.9702339,11.7718601 91.1642888,15.4281302 98.2097717,24.6495209 L114.310345,69.055399 L42.9968698,101.12069 L16.166448,58.8149591 C24.6126756,56.8783023 28.8357894,54.3026156 28.8357894,51.0878991 C28.8357894,46.2658244 25.5043164,35.1185904 19.4113089,30.6139709 C15.3493039,27.6108912 9.85587911,26.0926161 2.93103448,26.0591455 L10.3464233,15.9523303 Z" id="Path-10" stroke-width="4.39655172" fill="#BFBFBF"></path>
                <path d="M75.4627415,69.7216214 C81.3288347,64.0510525 81.0597569,57.537808 78.2612492,51.6729968 C76.3955774,47.7631227 69.4463151,41.7154495 57.4134623,33.5299771 C48.1718152,23.8360066 48.1718152,14.3673075 57.4134623,5.12387992 C71.2759331,-8.74126145 93.7502498,9.0241777 99.4431045,17.3200057 C105.135959,25.6158338 105.135959,35.2523464 115.98223,44.7082771 C126.828501,54.1642077 131.486291,54.5431564 136.946393,58.7416881 C142.406495,62.9402198 156.207355,83.5293049 160.929494,88.5787609 C165.651634,93.6282169 170,109.226672 170,122.032946 C170,134.83922 169.616643,151.570417 154.360395,155.37632 C139.104147,159.182222 128.170251,162.057854 89.3443801,167.136039 C50.518509,172.214224 45.1337093,170.560257 39.383351,162.005868 C33.6329928,153.45148 37.2310741,140.181438 35.4320334,134.240016 C33.6329928,128.298595 11.5132815,106.14857 11.5132815,99.2973976 C11.5132815,92.4462256 15.3906659,70.2442148 11.5132815,64.4929514 C7.63589705,58.7416881 -4.62840101,39.0845667 1.86026315,22.0780201 C5.56149349,12.3772335 25.2521895,16.2826747 17.192076,18.5383487 C9.13196246,20.7940227 6.59382204,23.2219103 6.59382204,29.5504889 C6.59382204,35.8790674 18.7683168,49.8261354 22.8866686,55.6362247 C27.0050204,61.4463141 30.1567643,85 43.7851133,85 C57.4134623,85 69.5966484,75.3921904 75.4627415,69.7216214 Z M75.3549123,36.4570709 C80.515721,39.7940366 87.3862973,45.4283333 90.9410771,40.9396308 C94.4958569,36.4509283 95.114447,27.5065398 89.5309991,22.2899396 C83.9475512,17.0733394 72.1513073,6.00591596 65.204656,10.1775069 C58.2580046,14.3490978 58.2580046,18.9598844 62.6288622,24.1427003 C66.9997198,29.3255163 70.1941037,33.1201053 75.3549123,36.4570709 Z" id="Combined-Shape" stroke-width="4.39655172" fill="#8E8E93"></path>
                <path d="M33.7068966,134.827586 C37.9562245,130.381714 41.9525709,126.988104 45.6959359,124.646755 C49.4393009,122.305406 52.7705406,121.330516 55.6896552,121.722087" id="Path-13" stroke-width="2.93103448" stroke-linecap="round" stroke-linejoin="round"></path>
                <path d="M35.1724138,133.362069 C38.9813569,130.933991 44.1030879,130.124632 50.5376067,130.933991 C56.9721255,131.74335 64.0630382,131.087192 71.8103448,128.965517" id="Path-14" stroke-width="2.93103448" stroke-linecap="round" stroke-linejoin="round"></path>
                <path d="M71.8103448,143.62069 C80.2646884,147.890774 86.6740453,150.556477 91.0384154,151.617801 C95.4027854,152.679124 101.206072,152.679124 108.448276,151.617801" id="Path-16" stroke-width="2.93103448" stroke-linecap="round" stroke-linejoin="round"></path>
            </g>
        </g>
    </g>
</svg>