<?xml version="1.0" encoding="UTF-8"?>
<svg width="260px" height="100px" viewBox="0 0 260 100" version="1.1" xmlns="http://www.w3.org/2000/svg" xmlns:xlink="http://www.w3.org/1999/xlink">
    <!-- Generator: Sketch 51.2 (57519) - http://www.bohemiancoding.com/sketch -->
    <title>Story1_Button2</title>
    <desc>Created with Sketch.</desc>
    <defs></defs>
    <g id="Story1_Button2" stroke="none" stroke-width="1" fill="none" fill-rule="evenodd">
        <g id="Group-13" fill-rule="nonzero">
            <rect id="Rectangle-16-Copy" stroke-opacity="0.2" stroke="#000000" stroke-width="5" fill="#FFD916" x="2.5" y="2.5" width="255" height="95" rx="8"></rect>
            <g id="Group-6" opacity="0.800000012" transform="translate(129.760748, 51.665792) rotate(9.000000) translate(-129.760748, -51.665792) translate(89.760748, 11.665792)" stroke="#212121">
                <path d="M4.86890509,7.50697897 C8.42048693,7.32451153 10.9716625,8.68877672 12.5224317,11.5997746 C14.8485856,15.9662713 16.3657533,20.8543633 20.796072,19.6701423 C23.7496178,18.8806617 26.0887514,17.1261391 27.8134727,14.4065745 C31.7381902,9.99246176 34.9576377,7.33626408 37.471815,6.43798147 C39.9859924,5.53969886 42.9008418,7.26029656 46.2163632,11.5997746 L53.7931034,32.4966584 L20.2338211,47.5862069 L7.60774022,27.6776278 C11.5824356,26.7662599 13.5697833,25.5541721 13.5697833,24.0413643 C13.5697833,21.7721527 12.0020312,16.5263955 9.1347336,14.4065745 C7.22320184,12.9933606 4.63806076,12.2788782 1.37931034,12.2631273 L4.86890509,7.50697897 Z" id="Path-10" stroke-width="2.06896552" fill="#BFBFBF"></path>
                <path d="M35.5118784,32.8101748 C38.2723928,30.1416718 38.1457679,27.0766155 36.8288232,24.3167044 C35.95086,22.4767636 32.6806189,19.6307998 27.0180999,15.7788128 C22.6690895,11.2169443 22.6690895,6.76108588 27.0180999,2.41123761 C33.5416156,-4.1135348 44.1177646,4.24667186 46.7967551,8.15059094 C49.4757455,12.05451 49.4757455,16.5893395 54.579873,21.0391892 C59.6840005,25.4890389 61.8759017,25.6673677 64.4453615,27.6431473 C67.0148213,29.6189269 73.5093435,39.3079082 75.7315268,41.6841228 C77.9537101,44.0603374 80,51.4007868 80,57.4272687 C80,63.4537507 79.8195966,71.327255 72.6401858,73.118268 C65.4607749,74.909281 60.3154124,76.2625195 42.0444142,78.6522536 C23.773416,81.0419877 21.2393926,80.2636503 18.5333417,76.2380556 C15.8272907,72.212461 17.5205055,65.9677355 16.6738981,63.1717724 C15.8272907,60.3758092 5.4180148,49.952268 5.4180148,46.7281871 C5.4180148,43.5041062 7.24266629,33.0561011 5.4180148,30.3496242 C3.59336332,27.6431473 -2.17807106,18.3927372 0.875417955,10.3896565 C2.6171734,5.82458047 11.8833833,7.66243517 8.09038869,8.72392882 C4.2973941,9.78542247 3.10297508,10.9279578 3.10297508,13.9061124 C3.10297508,16.884267 8.83214906,23.4475931 10.770197,26.1817528 C12.7082449,28.9159125 14.1914185,40 20.6047592,40 C27.0180999,40 32.7513639,35.4786778 35.5118784,32.8101748 Z M35.4611352,17.1562687 C37.8897511,18.7266054 41.1229634,21.3780392 42.795801,19.2657086 C44.4686385,17.153378 44.7597397,12.944254 42.1322349,10.4893834 C39.50473,8.03451268 33.9535564,2.82631339 30.684544,4.78941501 C27.4155316,6.75251663 27.4155316,8.92229856 29.4724058,11.3612707 C31.5292799,13.8002429 33.0325194,15.5859319 35.4611352,17.1562687 Z" id="Combined-Shape" stroke-width="2.06896552" fill="#8E8E93"></path>
                <path d="M15.862069,63.4482759 C17.8617527,61.3561008 19.7423863,59.7591077 21.5039698,58.6572964 C23.2655533,57.555485 24.8331956,57.0967136 26.2068966,57.2809821" id="Path-13" stroke-width="1.37931034" stroke-linecap="round" stroke-linejoin="round"></path>
                <path d="M16.5517241,62.7586207 C18.344168,61.6159958 20.7543943,61.2351209 23.7824031,61.6159958 C26.810412,61.9968708 30.1473121,61.6880906 33.7931034,60.6896552" id="Path-14" stroke-width="1.37931034" stroke-linecap="round" stroke-linejoin="round"></path>
                <path d="M33.7931034,67.5862069 C37.7716181,69.5956582 40.787786,70.850107 42.8416072,71.3495532 C44.8954284,71.8489995 47.6263869,71.8489995 51.0344828,71.3495532" id="Path-16" stroke-width="1.37931034" stroke-linecap="round" stroke-linejoin="round"></path>
            </g>
        </g>
    </g>
</svg>