<?xml version="1.0" encoding="UTF-8"?>
<svg width="100px" height="100px" viewBox="0 0 100 100" version="1.1" xmlns="http://www.w3.org/2000/svg" xmlns:xlink="http://www.w3.org/1999/xlink">
    <!-- Generator: Sketch 51.2 (57519) - http://www.bohemiancoding.com/sketch -->
    <title>Story1_fish03</title>
    <desc>Created with Sketch.</desc>
    <defs></defs>
    <g id="Story1_fish03" stroke="none" stroke-width="1" fill="none" fill-rule="evenodd">
        <path d="M20.7376069,45.0055506 C23.9290694,45.3961772 27.2158625,49.1561248 29.9109334,51.2986824 C30.859443,52.0527391 37.9641044,47.9991335 42.3602658,44.8075949 C44.0964706,43.5471397 41.4744276,40.230869 43.8315014,41.9029914 C44.4661408,42.3532085 44.9899146,43.3650238 46.3835939,43.5606811 C47.9774818,43.7844454 51.3433259,41.6886671 56.7987904,41.411955 C57.1396211,41.3946674 57.7546172,41.411955 59.1732877,41.411955 C59.2719863,41.411955 58.4466555,40.7047578 59.3313696,40.7047578 C59.4411194,40.7047578 60.5579754,40.7853972 60.5579754,40.4796473 C60.5579754,40.391083 59.5631229,38.8079024 60.5579754,39.0194333 C61.1953825,39.1549623 62.8179988,39.8803246 64.2165585,41.3108663 C64.7388107,41.3108663 69.593151,40.4796473 74.011132,42.1653119 C76.0095244,42.9277913 78.7865246,44.5273862 79.9763092,46.4802091 C80.1767205,46.8091491 79.0397269,46.4487169 79.0397269,46.9777613 C79.0397269,47.062105 79.5606431,47.2764425 79.8170271,47.6816936 C80.2384011,48.3477349 77.3015538,51.5431243 74.011132,53.105016 C73.2030763,53.4885824 70.0858035,54.5862743 66.957581,55.1503106 C65.4318788,55.4254034 63.7187825,58.7561046 62.2984275,59.9927344 C61.2054926,60.9442964 61.8104812,59.0768207 61.1860689,58.7616836 C59.6071125,57.964794 56.7046848,57.7699558 52.8125187,56.8990664 C51.5008135,56.6055665 50.4188925,57.4356919 49.0935282,58.7616836 C47.4430913,60.4129016 48.7716809,57.3268064 47.4430913,56.8990664 C43.4018408,55.5979838 36.7105387,53.858664 33.0289639,53.105016 C30.6100692,52.6098489 30.2881103,52.7069723 29.7632581,53.2512381 C27.0477796,56.0671584 24.4293924,58.8721478 22.7328569,60.1068254 C18.2083418,63.3996046 24.0673381,56.8705542 25.3342614,52.1773862 C24.243483,48.5100564 17.8628177,44.653684 20.7376069,45.0055506 Z" id="Rectangle-17-Copy-2" fill="#104865" fill-rule="nonzero"></path>
    </g>
</svg>