<?xml version="1.0" encoding="UTF-8"?>
<svg width="100px" height="100px" viewBox="0 0 100 100" version="1.1" xmlns="http://www.w3.org/2000/svg" xmlns:xlink="http://www.w3.org/1999/xlink">
    <!-- Generator: Sketch 51.2 (57519) - http://www.bohemiancoding.com/sketch -->
    <title>Story1_plastic7</title>
    <desc>Created with Sketch.</desc>
    <defs>
        <path d="M32.0586367,0.778549039 L46.6467738,0.77215522 C46.6816791,0.772140283 46.7152771,0.785433751 46.7407227,0.809327351 C47.0790496,1.12701846 47.2371034,1.59404241 47.2148841,2.2103992 C47.1928314,2.82213194 47.0353071,3.29923766 46.7423113,3.64171636 L46.7423683,3.64176512 C46.7164063,3.67211174 46.6785014,3.68962795 46.6385648,3.68973365 L32.9493062,3.72596626 C31.7632109,3.80807742 31.0031039,4.00346579 30.668985,4.31213138 C30.1678068,4.77512976 29.3094652,5.98772079 29.1016654,6.25659225 C28.7709245,6.68453684 5.33855018,40.4042853 3.8149758,42.5519255 C3.29538205,43.2843482 2.38984366,43.9972381 1.32779789,43.2145513 C0.26575211,42.4318646 0.967185885,41.2611314 1.19448411,40.989058 C1.65145467,40.4420694 26.1976325,4.93858287 26.3209991,4.76411859 C26.8244145,4.05219178 28.0798488,2.27880939 28.5365599,1.77721818 C29.116364,1.140438 30.2903895,0.807548288 32.0586367,0.778549039 Z" id="path-1"></path>
    </defs>
    <g id="Story1_plastic7" stroke="none" stroke-width="1" fill="none" fill-rule="evenodd">
        <g id="4" transform="translate(49.743774, 50.434408) rotate(-116.000000) translate(-49.743774, -50.434408) translate(25.743774, 27.934408)">
            <g id="Group-25" transform="translate(0.000000, 0.657219)">
                <mask id="mask-2" fill="white">
                    <use xlink:href="#path-1"></use>
                </mask>
                <use id="Rectangle-10" stroke="#151F20" stroke-width="0.527777778" fill="#55ACEE" fill-rule="nonzero" transform="translate(23.986735, 22.163780) rotate(-2.000000) translate(-23.986735, -22.163780) " xlink:href="#path-1"></use>
                <path d="M37.1650518,-2.06079259 L43.1334146,6.15395401 L45.7051064,4.28551052 L39.7367437,-3.92923608 L37.1650518,-2.06079259 Z M30.1225808,-2.06079259 L36.0909436,6.15395401 L38.6626354,4.28551052 L32.6942726,-3.92923608 L30.1225808,-2.06079259 Z M20.00904,10.6080166 L30.1243862,9.72303843 L29.8473368,6.55634874 L19.7319905,7.44132686 L20.00904,10.6080166 Z M15.7001597,17.0260506 L25.8155059,16.1410725 L25.5384564,12.9743828 L15.4231102,13.8593609 L15.7001597,17.0260506 Z M11.3912793,23.3992033 L21.5066256,22.5142252 L21.2295761,19.3475355 L11.1142299,20.2325136 L11.3912793,23.3992033 Z M7.08239904,29.772356 L17.1977453,28.8873779 L16.9206958,25.7206882 L6.80534959,26.6056663 L7.08239904,29.772356 Z M2.77351873,36.1455087 L12.888865,35.2605306 L12.6118155,32.0938409 L2.49646928,32.9788191 L2.77351873,36.1455087 Z M-1.53536158,42.5186615 L8.57998466,41.6336833 L8.30293521,38.4669936 L-1.81241103,39.3519718 L-1.53536158,42.5186615 Z" id="Combined-Shape" stroke="#151F20" stroke-width="0.527777778" fill="#FFFFFF" fill-rule="nonzero" mask="url(#mask-2)"></path>
            </g>
            <rect id="Rectangle-13" stroke="#151F20" stroke-width="0.527777778" fill="#55ACEE" fill-rule="nonzero" transform="translate(31.195741, 2.498758) rotate(-20.000000) translate(-31.195741, -2.498758) " x="30.6165903" y="0.456656332" width="1.15830116" height="4.0842035" rx="0.570874749"></rect>
            <rect id="Rectangle-13-Copy" stroke="#151F20" stroke-width="0.527777778" fill="#55ACEE" fill-rule="nonzero" transform="translate(29.698452, 2.984556) rotate(-29.000000) translate(-29.698452, -2.984556) " x="29.1193012" y="0.942454426" width="1.15830116" height="4.0842035" rx="0.570874749"></rect>
            <rect id="Rectangle-13-Copy-2" stroke="#151F20" stroke-width="0.527777778" fill="#55ACEE" fill-rule="nonzero" transform="translate(28.316182, 4.196426) rotate(-54.000000) translate(-28.316182, -4.196426) " x="27.7370311" y="2.15432398" width="1.15830116" height="4.0842035" rx="0.570874749"></rect>
            <rect id="Rectangle-13-Copy-3" stroke="#151F20" stroke-width="0.527777778" fill="#55ACEE" fill-rule="nonzero" transform="translate(27.448915, 5.421322) rotate(-59.000000) translate(-27.448915, -5.421322) " x="26.8697647" y="3.37922069" width="1.15830116" height="4.0842035" rx="0.570874749"></rect>
        </g>
    </g>
</svg>