<?xml version="1.0" encoding="UTF-8"?>
<svg width="100px" height="100px" viewBox="0 0 100 100" version="1.1" xmlns="http://www.w3.org/2000/svg" xmlns:xlink="http://www.w3.org/1999/xlink">
    <!-- Generator: Sketch 51.2 (57519) - http://www.bohemiancoding.com/sketch -->
    <title>Story1_plastic8</title>
    <desc>Created with Sketch.</desc>
    <defs></defs>
    <g id="Story1_plastic8" stroke="none" stroke-width="1" fill="none" fill-rule="evenodd">
        <g id="2" transform="translate(50.397750, 50.415355) rotate(181.000000) translate(-50.397750, -50.415355) translate(26.397750, 27.415355)" fill="#E22124" fill-rule="nonzero" stroke="#151F20" stroke-width="0.527777778">
            <path d="M32.0586367,1.43576822 L46.6467738,1.4293744 C46.6816791,1.42935946 46.7152771,1.44265293 46.7407227,1.46654653 C47.0790496,1.78423764 47.2371034,2.25126159 47.2148841,2.86761838 C47.1928314,3.47935112 47.0353071,3.95645684 46.7423113,4.29893554 L46.7423683,4.2989843 C46.7164063,4.32933092 46.6785014,4.34684713 46.6385648,4.34695283 L32.9493062,4.38318544 C31.7632109,4.4652966 31.0031039,4.66068497 30.668985,4.96935056 C30.1678068,5.43234894 29.3094652,6.64493996 29.1016654,6.91381143 C28.7709245,7.34175602 5.33855018,41.0615045 3.8149758,43.2091447 C3.29538205,43.9415674 2.38984366,44.6544573 1.32779789,43.8717705 C0.26575211,43.0890838 0.967185885,41.9183506 1.19448411,41.6462772 C1.65145467,41.0992886 26.1976325,5.59580204 26.3209991,5.42133776 C26.8244145,4.70941096 28.0798488,2.93602857 28.5365599,2.43443736 C29.116364,1.79765718 30.2903895,1.46476746 32.0586367,1.43576822 Z" id="Rectangle-10" transform="translate(23.986735, 22.820999) rotate(-2.000000) translate(-23.986735, -22.820999) "></path>
            <rect id="Rectangle-13" transform="translate(31.195741, 2.498758) rotate(-20.000000) translate(-31.195741, -2.498758) " x="30.6165903" y="0.456656332" width="1.15830116" height="4.0842035" rx="0.570874749"></rect>
            <rect id="Rectangle-13-Copy" transform="translate(29.698452, 2.984556) rotate(-29.000000) translate(-29.698452, -2.984556) " x="29.1193012" y="0.942454426" width="1.15830116" height="4.0842035" rx="0.570874749"></rect>
            <rect id="Rectangle-13-Copy-2" transform="translate(28.316182, 4.196426) rotate(-54.000000) translate(-28.316182, -4.196426) " x="27.7370311" y="2.15432398" width="1.15830116" height="4.0842035" rx="0.570874749"></rect>
            <rect id="Rectangle-13-Copy-3" transform="translate(27.448915, 5.421322) rotate(-59.000000) translate(-27.448915, -5.421322) " x="26.8697647" y="3.37922069" width="1.15830116" height="4.0842035" rx="0.570874749"></rect>
        </g>
    </g>
</svg>