<?xml version="1.0" encoding="UTF-8"?>
<svg width="100px" height="100px" viewBox="0 0 100 100" version="1.1" xmlns="http://www.w3.org/2000/svg" xmlns:xlink="http://www.w3.org/1999/xlink">
    <!-- Generator: Sketch 51.2 (57519) - http://www.bohemiancoding.com/sketch -->
    <title>Story1_plastic17</title>
    <desc>Created with Sketch.</desc>
    <defs>
        <path d="M31.3907484,0.777680626 L45.673566,0.77129653 C45.7086425,0.771281218 45.7423657,0.784832817 45.7676782,0.809115343 C46.0984605,1.12643816 46.2529813,1.59271093 46.2312406,2.20793367 C46.2096651,2.81848403 46.0556573,3.29477753 45.7692172,3.63681419 L45.7693932,3.63696157 C45.7436465,3.66770559 45.7056393,3.68551351 45.6655385,3.68562179 L32.2628624,3.72181023 C31.1014774,3.8038298 30.3572059,3.99900023 30.0300478,4.30732153 C29.5393108,4.76980347 28.6988513,5.98104194 28.4953807,6.2496135 C28.1715302,6.67708075 5.22733038,40.3592174 3.73549714,42.5044621 C3.22672826,43.2360678 2.34005525,43.9481625 1.30013543,43.1663488 C0.260215607,42.3845351 0.947036179,41.2151078 1.16959902,40.9433378 C1.61704936,40.3969593 25.6518485,4.93307425 25.772645,4.75880457 C26.2655725,4.04767187 27.494852,2.27626755 27.9420483,1.77523583 C28.509773,1.13916593 29.6593397,0.806647529 31.3907484,0.777680626 Z" id="path-1"></path>
    </defs>
    <g id="Story1_plastic17" stroke="none" stroke-width="1" fill="none" fill-rule="evenodd">
        <g id="10" transform="translate(49.778230, 50.180557) rotate(20.000000) translate(-49.778230, -50.180557) translate(26.278230, 27.680557)">
            <g id="Group-25" transform="translate(0.000000, 0.656486)">
                <mask id="mask-2" fill="white">
                    <use xlink:href="#path-1"></use>
                </mask>
                <use id="Rectangle-10" stroke="#151F20" stroke-width="0.5" fill="#F98220" fill-rule="nonzero" transform="translate(23.487011, 22.139058) rotate(-2.000000) translate(-23.487011, -22.139058) " xlink:href="#path-1"></use>
                <path d="M36.3171588,-2.08298082 L42.2948457,6.14459928 L44.8265378,4.30521724 L38.848851,-3.92236286 L36.3171588,-2.08298082 Z M29.4214059,-2.08298082 L35.3990928,6.14459928 L37.9307849,4.30521724 L31.9530981,-3.92236286 L29.4214059,-2.08298082 Z M19.4796468,10.574508 L29.6107957,9.6881473 L29.3380554,6.57071177 L19.2069065,7.45707245 L19.4796468,10.574508 Z M15.2605348,16.9853832 L25.3916837,16.0990225 L25.1189435,12.981587 L14.9877945,13.8679477 L15.2605348,16.9853832 Z M11.0414228,23.3514272 L21.1725718,22.4650665 L20.8998315,19.3476309 L10.7686826,20.2339916 L11.0414228,23.3514272 Z M6.82231085,29.7174711 L16.9534598,28.8311104 L16.6807195,25.7136749 L6.54957059,26.6000356 L6.82231085,29.7174711 Z M2.60319888,36.083515 L12.7343478,35.1971544 L12.4616076,32.0797188 L2.33045862,32.9660795 L2.60319888,36.083515 Z M-1.61591308,42.449559 L8.51523587,41.5631983 L8.2424956,38.4457628 L-1.88865335,39.3321234 L-1.61591308,42.449559 Z" id="Combined-Shape" stroke="#151F20" stroke-width="0.5" fill="#FFFFFF" fill-rule="nonzero" mask="url(#mask-2)"></path>
            </g>
            <rect id="Rectangle-13" stroke="#151F20" stroke-width="0.5" fill="#F98220" fill-rule="nonzero" transform="translate(30.545830, 2.495971) rotate(-20.000000) translate(-30.545830, -2.495971) " x="29.9787447" y="0.456146967" width="1.13416988" height="4.07964788" rx="0.565466991"></rect>
            <rect id="Rectangle-13-Copy" stroke="#151F20" stroke-width="0.5" fill="#F98220" fill-rule="nonzero" transform="translate(29.079734, 2.981227) rotate(-29.000000) translate(-29.079734, -2.981227) " x="28.5126491" y="0.941403189" width="1.13416988" height="4.07964788" rx="0.565466991"></rect>
            <rect id="Rectangle-13-Copy-2" stroke="#151F20" stroke-width="0.5" fill="#F98220" fill-rule="nonzero" transform="translate(27.726261, 4.191745) rotate(-54.000000) translate(-27.726261, -4.191745) " x="27.1591763" y="2.15192099" width="1.13416988" height="4.07964788" rx="0.565466991"></rect>
            <rect id="Rectangle-13-Copy-3" stroke="#151F20" stroke-width="0.5" fill="#F98220" fill-rule="nonzero" transform="translate(26.877063, 5.415275) rotate(-59.000000) translate(-26.877063, -5.415275) " x="26.3099779" y="3.37545143" width="1.13416988" height="4.07964788" rx="0.565466991"></rect>
        </g>
    </g>
</svg>