<?xml version="1.0" encoding="UTF-8"?>
<svg width="100px" height="100px" viewBox="0 0 100 100" version="1.1" xmlns="http://www.w3.org/2000/svg" xmlns:xlink="http://www.w3.org/1999/xlink">
    <!-- Generator: Sketch 51.2 (57519) - http://www.bohemiancoding.com/sketch -->
    <title>Story1_plastic16</title>
    <desc>Created with Sketch.</desc>
    <defs></defs>
    <g id="Story1_plastic16" stroke="none" stroke-width="1" fill="none" fill-rule="evenodd">
        <g id="12" transform="translate(50.000000, 50.000000) rotate(30.000000) translate(-50.000000, -50.000000) translate(26.000000, 27.000000)" fill="#42E3B8" fill-rule="nonzero" stroke="#151F20" stroke-width="0.558139535">
            <path d="M32.0586367,1.46767418 L46.6403398,1.46134438 C46.6797199,1.46132716 46.717558,1.47665003 46.7458298,1.50406345 C47.0806399,1.82870847 47.2369913,2.3044684 47.2148841,2.93134323 C47.1929577,3.55308796 47.0371074,4.0387861 46.7473331,4.38843762 L46.7475716,4.38863529 C46.7188238,4.42332331 46.6761535,4.44345008 46.6311016,4.44357197 L32.9493062,4.48058956 C31.7632109,4.56452541 31.0031039,4.76425575 30.668985,5.07978057 C30.1678068,5.5530678 29.3094652,6.7926053 29.1016654,7.06745168 C28.7709245,7.50490615 5.33855018,41.9739824 3.8149758,44.1693479 C3.29538205,44.9180467 2.38984366,45.6467785 1.32779789,44.8466988 C0.26575211,44.046619 0.967185885,42.8498695 1.19448411,42.57175 C1.65145467,42.0126061 26.1976325,5.7201532 26.3209991,5.54181194 C26.8244145,4.81406453 28.0798488,3.00127365 28.5365599,2.48853596 C29.116364,1.83760512 30.2903895,1.49731785 32.0586367,1.46767418 Z" id="Rectangle-10" transform="translate(23.986735, 23.328133) rotate(-2.000000) translate(-23.986735, -23.328133) "></path>
            <rect id="Rectangle-13" transform="translate(31.195741, 2.554286) rotate(-20.000000) translate(-31.195741, -2.554286) " x="30.6165903" y="0.466804251" width="1.15830116" height="4.17496357" rx="0.579150579"></rect>
            <rect id="Rectangle-13-Copy" transform="translate(29.698452, 3.050880) rotate(-29.000000) translate(-29.698452, -3.050880) " x="29.1193012" y="0.963397857" width="1.15830116" height="4.17496357" rx="0.579150579"></rect>
            <rect id="Rectangle-13-Copy-2" transform="translate(28.316182, 4.289680) rotate(-54.000000) translate(-28.316182, -4.289680) " x="27.7370311" y="2.20219784" width="1.15830116" height="4.17496357" rx="0.579150579"></rect>
            <rect id="Rectangle-13-Copy-3" transform="translate(27.448915, 5.541796) rotate(-59.000000) translate(-27.448915, -5.541796) " x="26.8697647" y="3.45431448" width="1.15830116" height="4.17496357" rx="0.579150579"></rect>
        </g>
    </g>
</svg>