<?xml version="1.0" encoding="UTF-8"?>
<svg width="100px" height="100px" viewBox="0 0 100 100" version="1.1" xmlns="http://www.w3.org/2000/svg" xmlns:xlink="http://www.w3.org/1999/xlink">
    <!-- Generator: Sketch 51.2 (57519) - http://www.bohemiancoding.com/sketch -->
    <title>Story1_fish02</title>
    <desc>Created with Sketch.</desc>
    <defs></defs>
    <g id="Story1_fish02" stroke="none" stroke-width="1" fill="none" fill-rule="evenodd">
        <path d="M22.0122807,41.7449415 C24.049317,44.9674426 27.4013729,48.0196245 31.7527679,50.7774102 C35.6727772,46.0106692 44.3428667,38.7093153 56.1960953,38.0466804 C64.0982476,37.6049238 71.3659755,39.7212115 77.999279,44.3955433 C71.480681,51.7962252 64.4802562,56.0740095 56.9980045,57.2288963 C45.7746269,58.9612265 36.9532334,55.0703517 31.9677569,51.5712917 C29.5653145,54.0447823 27.2411067,57.8647282 24.9951335,63.0311291 C23.2614788,56.1256693 22.2671945,49.0302734 22.0122807,41.7449415 Z M69.1935114,45.9945267 C69.9749122,45.9945267 70.6083626,45.3656705 70.6083626,44.5899371 C70.6083626,43.8142037 69.9749122,43.1853476 69.1935114,43.1853476 C68.4121106,43.1853476 67.7786601,43.8142037 67.7786601,44.5899371 C67.7786601,45.3656705 68.4121106,45.9945267 69.1935114,45.9945267 Z" id="Combined-Shape-Copy" fill="#104865" fill-rule="nonzero"></path>
    </g>
</svg>