<?xml version="1.0" encoding="UTF-8"?>
<svg width="100px" height="100px" viewBox="0 0 100 100" version="1.1" xmlns="http://www.w3.org/2000/svg" xmlns:xlink="http://www.w3.org/1999/xlink">
    <!-- Generator: Sketch 51.2 (57519) - http://www.bohemiancoding.com/sketch -->
    <title>Story1_plastic5</title>
    <desc>Created with Sketch.</desc>
    <defs></defs>
    <g id="Story1_plastic5" stroke="none" stroke-width="1" fill="none" fill-rule="evenodd" opacity="0.800000012">
        <g id="16" transform="translate(49.783792, 49.783792) scale(1, -1) rotate(93.000000) translate(-49.783792, -49.783792) translate(14.783792, 14.783792)" fill-rule="nonzero" stroke="#212121">
            <path d="M4.26029195,6.5686066 C7.36792606,6.40894759 9.60020467,7.60267963 10.9571278,10.1498027 C12.9925124,13.9704874 14.3200341,18.2475679 18.196563,17.2113745 C20.7809156,16.5205789 22.8276575,14.9853717 24.3367886,12.6057527 C27.7709164,8.74340404 30.5879329,6.41923107 32.7878382,5.63323378 C34.9877434,4.8472365 37.5382366,6.35275949 40.4393178,10.1498027 L47.0689655,28.4345761 L17.7045935,41.637931 L6.65677269,24.2179243 C10.1346311,23.4204774 11.8735603,22.3599005 11.8735603,21.0361938 C11.8735603,19.0506336 10.5017773,14.460596 7.9928919,12.6057527 C6.32030161,11.3691905 4.05830316,10.7440184 1.20689655,10.7302364 L4.26029195,6.5686066 Z" id="Path-10" stroke-width="1.5" fill="#BFBFBF"></path>
            <path d="M31.0728936,28.7089029 C33.4883437,26.3739628 33.3775469,23.6920386 32.2252203,21.2771163 C31.4570025,19.6671682 28.5955415,17.1769498 23.6408374,13.8064612 C19.8354533,9.81482623 19.8354533,5.91595014 23.6408374,2.10983291 C29.3489136,-3.59934295 38.6030441,3.71583788 40.9471607,7.13176707 C43.2912773,10.5476963 43.2912773,14.5156721 47.7573889,18.4092906 C52.2235004,22.3029091 54.141414,22.4589467 56.3896913,24.1877539 C58.6379686,25.9165611 64.3206756,34.3944197 66.265086,36.4736074 C68.2094963,38.5527952 70,44.9756885 70,50.2488602 C70,55.5220319 69.842147,62.4113482 63.5601625,63.9784845 C57.2781781,65.5456209 52.7759858,66.7297046 36.7888624,68.8207219 C20.801739,70.9117392 18.5844685,70.230694 16.216674,66.7082987 C13.8488794,63.1859033 15.3304423,57.7217686 14.5896608,55.2753008 C13.8488794,52.8288331 4.74076295,43.7082345 4.74076295,40.8871637 C4.74076295,38.0660929 6.337333,28.9240884 4.74076295,26.5559212 C3.1441929,24.1877539 -1.90581218,16.0936451 0.765990711,9.09094943 C2.29002673,5.09650791 10.3979604,6.70463077 7.0790901,7.63343772 C3.76021984,8.56224466 2.71510319,9.56196305 2.71510319,12.1678484 C2.71510319,14.7737337 7.72813043,20.516644 9.42392235,22.9090337 C11.1197143,25.3014234 12.4174912,35 18.0291643,35 C23.6408374,35 28.6574434,31.0438431 31.0728936,28.7089029 Z M31.0284933,15.0117351 C33.1535322,16.3857798 35.982593,18.7057843 37.4463259,16.857495 C38.9100587,15.0092058 39.1647723,11.3262223 36.8657055,9.17821044 C34.5666387,7.03019859 29.7093618,2.47302422 26.848976,4.19073814 C23.9885901,5.90845205 23.9885901,7.80701124 25.788355,9.94111191 C27.5881199,12.0752126 28.9034544,13.6376904 31.0284933,15.0117351 Z" id="Combined-Shape" stroke-width="1.5" fill="#8E8E93"></path>
            <path d="M13.8793103,55.5172414 C15.6290336,53.6865882 17.274588,52.2892192 18.8159736,51.3251343 C20.3573592,50.3610494 21.7290461,49.9596244 22.9310345,50.1208593" id="Path-13" stroke-width="1.20689655" stroke-linecap="round" stroke-linejoin="round"></path>
            <path d="M14.4827586,54.9137931 C16.051147,53.9139963 18.160095,53.5807308 20.8096027,53.9139963 C23.4591105,54.2472619 26.3788981,53.9770792 29.5689655,53.1034483" id="Path-14" stroke-width="1.20689655" stroke-linecap="round" stroke-linejoin="round"></path>
            <path d="M29.5689655,59.137931 C33.0501658,60.8962009 35.6893128,61.9938436 37.4864063,62.4308591 C39.2834999,62.8678746 41.6730886,62.8678746 44.6551724,62.4308591" id="Path-16" stroke-width="1.20689655" stroke-linecap="round" stroke-linejoin="round"></path>
        </g>
    </g>
</svg>