<?xml version="1.0" encoding="UTF-8"?>
<svg width="100px" height="100px" viewBox="0 0 100 100" version="1.1" xmlns="http://www.w3.org/2000/svg" xmlns:xlink="http://www.w3.org/1999/xlink">
    <!-- Generator: Sketch 51.2 (57519) - http://www.bohemiancoding.com/sketch -->
    <title>Story1_plastic6</title>
    <desc>Created with Sketch.</desc>
    <defs></defs>
    <g id="Story1_plastic6" stroke="none" stroke-width="1" fill="none" fill-rule="evenodd" opacity="0.800000012">
        <g id="14" transform="translate(50.375018, 50.132378) scale(-1, -1) rotate(105.000000) translate(-50.375018, -50.132378) translate(18.875018, 12.632378)" fill-rule="nonzero" stroke="#212121">
            <path d="M39.2454095,0.691039836 C35.8341973,1.48589935 34.36037,2.7288757 34.8239277,4.41996889 C35.5192643,6.95660867 37.6567053,16.4590251 34.8239277,19.753551 C31.9911502,23.048077 23.9322119,26.8427513 17.029873,24.9454142 C12.4283137,23.6805227 10.1222695,19.7227608 10.1117402,13.0721285 C11.3172062,6.42849348 10.2345816,3.54444028 6.86386658,4.41996889 C1.80779399,5.7332618 2.2906694e-16,6.29512207 0,8.65549987 C0,11.0158777 7.13924739,20.2355489 6.29123649,26.8673554 C5.7258959,31.2885598 5.40421332,39.6087705 5.32618876,51.8279877 L47.9838905,27.4082417 C45.0961717,24.4756511 42.9178286,21.4708617 41.448861,18.3938734 C39.2454095,13.7783909 38.9785331,5.62556856 42.2365311,4.41996889 C44.4085297,3.61623578 43.4114892,2.37325942 39.2454095,0.691039836 Z" id="Path-18" stroke-width="1.5" fill="#BFBFBF"></path>
            <path d="M4.67593541,4.83625904 C6.65685019,3.96080495 12.7672688,3.02977075 12.7672688,4.83625904 C12.7672688,6.64274733 10.7013245,18.672378 16.0085359,24.1327167 C21.3157472,29.5930554 30.8718385,28.0767041 35.9883473,26.0222927 C41.1048562,23.9678813 45.9616849,17.4314224 43.5332705,9.06569305 C41.1048562,0.699963705 33.7688942,3.46062089 35.9883473,2.0802923 C38.2078004,0.699963705 44.5449408,-1.17018052 46.399895,0.971338986 C48.2548493,3.11285849 47.6042966,4.18274296 47.6042966,9.06569305 C47.6042966,13.9486431 54.6244497,28.9792782 59.8545685,38.4727226 C65.0846874,47.966167 62.7847606,62.7564549 53.1590155,68.7253709 C43.5332705,74.694287 28.0336165,77.1969701 12.7672688,71.1704287 C-2.49907896,65.1438873 5.37517809,38.8211551 6.54170964,34.7250635 C7.7082412,30.6289719 9.18314283,18.4461676 7.86242624,12.3000844 C6.54170964,6.15400109 1.69424312,6.15400109 4.67593541,4.83625904 Z" id="Path-17" stroke-width="1.5" fill="#8E8E93"></path>
            <path d="M8.37220625,38.6982308 C8.22126863,53.5269547 10.9448261,62.9880046 16.5428785,67.0813805 C24.9399572,73.2214444 6.95418702,63.8939165 6.95418702,58.8513952" id="Path-20" stroke-width="1.20747022"></path>
        </g>
    </g>
</svg>