<?xml version="1.0" encoding="UTF-8"?>
<svg width="100px" height="100px" viewBox="0 0 100 100" version="1.1" xmlns="http://www.w3.org/2000/svg" xmlns:xlink="http://www.w3.org/1999/xlink">
    <!-- Generator: Sketch 51.2 (57519) - http://www.bohemiancoding.com/sketch -->
    <title>Story1_fish04</title>
    <desc>Created with Sketch.</desc>
    <defs></defs>
    <g id="Story1_fish04" stroke="none" stroke-width="1" fill="none" fill-rule="evenodd">
        <path d="M46.6572883,65.4113433 C48.1299705,65.4113433 41.093733,68.7710133 42.7955926,68.981891 C45.3030021,69.2925844 54.0347637,65.5100846 56.473819,64.948076 C57.8632151,64.6279306 60.7648148,65.4212224 64.204261,64.5820661 C67.4527839,63.7894912 71.2377952,61.3765689 72.8027072,60.6323605 C73.9925486,60.0665203 71.187112,58.8278227 71.0210864,58.5735957 C70.5693468,57.8818689 72.6733005,58.4987888 73.115476,58.5735957 C75.113933,58.9116933 73.334173,49.4934422 71.6366685,45.9983935 C68.0285172,38.56945 59.8910592,33.7492422 49.8528653,34.3037723 C47.3821774,34.4402581 42.2552968,30.6283448 35.5794885,31.0296114 C32.5659189,31.2107497 38.9802722,33.3167883 37.567522,35.8248187 C35.5794885,39.3541393 35.5794885,47.0964965 34.5090312,47.0964965 C29.7807124,47.0964965 25,39.3541393 25,40.7854579 C25,43.5489409 29.4508505,46.6334039 28.9786729,49.8094638 C28.7547027,51.3159789 26.62552,58.8595447 27.0957452,60.6323605 C27.5659704,62.4051762 32.5039144,51.5341855 33.7779236,53.6555381 C35.0519328,55.7768908 36.9322637,62.0682283 31.5747563,66.0846598 C29.8692843,67.363223 37.567522,66.5160575 43.2585791,64.948076 C44.6887274,64.5540462 46.2952591,65.4113433 46.6572883,65.4113433 Z" id="Oval-13" fill="#104865" fill-rule="nonzero"></path>
    </g>
</svg>