<?xml version="1.0" encoding="UTF-8"?>
<svg width="100px" height="100px" viewBox="0 0 100 100" version="1.1" xmlns="http://www.w3.org/2000/svg" xmlns:xlink="http://www.w3.org/1999/xlink">
    <!-- Generator: Sketch 51.2 (57519) - http://www.bohemiancoding.com/sketch -->
    <title>Story1_plastic22</title>
    <desc>Created with Sketch.</desc>
    <defs>
        <path d="M0.75,42.0646552 L0.75,38.625 L0.494953416,38.625 C0.221598193,38.625 -2.44079396e-16,38.4034018 -2.77555756e-16,38.1300466 L-5.55111512e-17,34.6975396 C-8.89875112e-17,34.4241844 0.221598193,34.2025862 0.494953416,34.2025862 L0.75,34.2025862 L0.75,30.762931 L0.494953416,30.762931 C0.221598193,30.762931 -2.44079396e-16,30.5413328 -2.77555756e-16,30.2679776 L-5.55111512e-17,26.8354707 C-8.89875112e-17,26.5621154 0.221598193,26.3405172 0.494953416,26.3405172 L0.75,26.3405172 L0.75,22.9008621 L0.494953416,22.9008621 C0.221598193,22.9008621 -2.44079396e-16,22.6792639 -2.77555756e-16,22.4059087 L5.55111512e-17,18.9734017 C2.20347913e-17,18.7000465 0.221598193,18.4784483 0.494953416,18.4784483 L0.75,18.4784483 L0.75,14.0429692 C0.75,13.8084466 0.816647813,13.578753 0.942177124,13.3806539 L5.43245037,6.2945088 C5.55797968,6.09640974 5.62462749,5.86671608 5.62462749,5.63219349 L5.62462749,1.23738354 C5.62462749,0.553995481 6.17862297,5.01051766e-15 6.86201103,4.88498131e-15 L12.5354913,-2.22044605e-16 C13.2188794,-3.47580955e-16 13.7728748,0.553995481 13.7728748,1.23738354 L13.7728748,5.60830359 C13.7728748,5.85775342 13.8482688,6.10137902 13.9891676,6.3072254 L18.7837072,13.3118145 C18.9246061,13.5176608 19,13.7612864 19,14.0107363 L19,18.4784483 L19.5050466,18.4784483 C19.7784018,18.4784483 20,18.7000465 20,18.9734017 L20,22.4059087 C20,22.6792639 19.7784018,22.9008621 19.5050466,22.9008621 L19,22.9008621 L19,26.3405172 L19.5050466,26.3405172 C19.7784018,26.3405172 20,26.5621154 20,26.8354707 L20,30.2679776 C20,30.5413328 19.7784018,30.762931 19.5050466,30.762931 L19,30.762931 L19,34.2025862 L19.5050466,34.2025862 C19.7784018,34.2025862 20,34.4241844 20,34.6975396 L20,38.1300466 C20,38.4034018 19.7784018,38.625 19.5050466,38.625 L19,38.625 L19,42.0646552 L19.5050466,42.0646552 C19.7784018,42.0646552 20,42.2862534 20,42.5596086 L20,45.9921155 C20,46.2654708 19.7784018,46.487069 19.5050466,46.487069 L19,46.487069 L19,49.6745979 C19,49.8997064 18.9385919,50.1205504 18.8223887,50.3133473 L16.158403,54.7332624 C15.9344894,55.1047656 15.5323955,55.3318966 15.0986307,55.3318966 L4.47289495,55.3318966 C4.02547818,55.3318966 3.6129108,55.0903679 3.39389721,54.7002208 L0.908385793,50.272572 C0.804541048,50.0875847 0.75,49.8790058 0.75,49.6668642 L0.75,46.487069 L0.494953416,46.487069 C0.221598193,46.487069 -2.44079396e-16,46.2654708 -2.77555756e-16,45.9921155 L-5.55111512e-17,42.5596086 C-8.89875112e-17,42.2862534 0.221598193,42.0646552 0.494953416,42.0646552 L0.75,42.0646552 Z" id="path-1"></path>
        <rect id="path-3" x="0.128205128" y="0" width="9.74358974" height="5.15948276" rx="2.57974138"></rect>
    </defs>
    <g id="Story1_plastic22" stroke="none" stroke-width="1" fill="none" fill-rule="evenodd">
        <g id="Group-22" transform="translate(50.297675, 58.911709) rotate(58.000000) translate(-50.297675, -58.911709) translate(29.297675, 30.411709)">
            <g id="Group-19" opacity="0.800000012" transform="translate(0.000000, 0.668103)">
                <mask id="mask-2" fill="white">
                    <use xlink:href="#path-1"></use>
                </mask>
                <path stroke="#455A64" stroke-width="0.989906832" d="M0.255046584,41.5989718 L0.255046584,39.0906833 C-0.175742646,38.9834483 -0.494953416,38.5940253 -0.494953416,38.1300466 L-0.494953416,34.6975396 C-0.494953416,34.2335609 -0.175742646,33.8441379 0.255046584,33.7369029 L0.255046584,31.2286144 C-0.175742646,31.1213793 -0.494953416,30.7319563 -0.494953416,30.2679776 L-0.494953416,26.8354707 C-0.494953416,26.371492 -0.175742646,25.9820689 0.255046584,25.8748339 L0.255046584,23.3665454 C-0.175742646,23.2593104 -0.494953416,22.8698873 -0.494953416,22.4059087 L-0.494953416,18.9734017 C-0.494953416,18.509423 -0.175742646,18.12 0.255046584,18.0127649 L0.255046584,14.0429692 C0.255046584,13.7146376 0.348353521,13.3930665 0.524094558,13.1157278 L5.0143678,6.02958268 C5.08968539,5.91072324 5.12967407,5.77290705 5.12967407,5.63219349 L5.12967407,1.23738354 C5.12967407,0.280640258 5.90526775,-0.494953416 6.86201103,-0.494953416 L12.5354913,-0.494953416 C13.4922346,-0.494953416 14.2678283,0.280640258 14.2678283,1.23738354 L14.2678283,5.60830359 C14.2678283,5.75797349 14.3130646,5.90414885 14.3976039,6.02765667 L19.1921435,13.0322457 C19.3894019,13.3204307 19.4949534,13.6615065 19.4949534,14.0107363 L19.4949534,17.9834949 L19.5050466,17.9834949 C20.051757,17.9834949 20.4949534,18.4266912 20.4949534,18.9734017 L20.4949534,22.4059087 C20.4949534,22.9526191 20.051757,23.3958155 19.5050466,23.3958155 L19.4949534,23.3958155 L19.4949534,25.8455638 L19.5050466,25.8455638 C20.051757,25.8455638 20.4949534,26.2887602 20.4949534,26.8354707 L20.4949534,30.2679776 C20.4949534,30.8146881 20.051757,31.2578845 19.5050466,31.2578845 L19.4949534,31.2578845 L19.4949534,33.7076328 L19.5050466,33.7076328 C20.051757,33.7076328 20.4949534,34.1508292 20.4949534,34.6975396 L20.4949534,38.1300466 C20.4949534,38.676757 20.051757,39.1199534 19.5050466,39.1199534 L19.4949534,39.1199534 L19.4949534,41.5697018 L19.5050466,41.5697018 C20.051757,41.5697018 20.4949534,42.0128981 20.4949534,42.5596086 L20.4949534,45.9921155 C20.4949534,46.538826 20.051757,46.9820224 19.5050466,46.9820224 L19.4949534,46.9820224 L19.4949534,49.6745979 C19.4949534,49.9897498 19.4089821,50.2989314 19.2462976,50.5688471 L16.5823119,54.9887622 C16.2688328,55.5088666 15.7059014,55.82685 15.0986307,55.82685 L4.47289495,55.82685 C3.84651146,55.82685 3.26891714,55.4887099 2.96229811,54.9425039 L0.476786695,50.5148551 C0.33140405,50.2558729 0.255046584,49.9638624 0.255046584,49.6668642 L0.255046584,46.9527523 C-0.175742646,46.8455173 -0.494953416,46.4560942 -0.494953416,45.9921155 L-0.494953416,42.5596086 C-0.494953416,42.0956299 -0.175742646,41.7062069 0.255046584,41.5989718 Z"></path>
                <path d="M24.75,12.1841773 C24.389963,6.93527725 15.5428967,8.75220087 15.4012613,8.01208359 C14.8886773,5.33356899 19.1970485,12.8485802 19.1970485,33.9275162 C19.1970485,55.0064522 14.0526284,55.0064522 10.6519441,55.0064522 C3.19354174,55.0064522 2.80769075,44.8034333 2.80769075,33.9275162 C2.80769075,24.9594164 2.80769031,35.7520692 2.80769035,22.0550453 C2.8076904,8.3580213 10.5738611,3.30268271 10.6519441,-5.60103575 C12.2779482,-7.56704705 -18.8143551,-5.19012616 -17.1883509,-3.15213546 C-17.1883504,9.70097064 -9.34409711,6.63019745 -9.34409713,20.3272214 C-9.34409715,34.0242454 -9.34409713,39.5931862 -9.34409713,46.0630393 C-9.34409713,58.1018324 -11.9790574,59.8959832 -11.9790574,59.8959832 C-12.4635264,60.5333888 -12.1959453,61.0501083 -11.3649054,61.0501084 L25.187501,61.0501118 C25.187501,61.0501118 24.6677391,55.585013 25.187501,55.0064522 C25.6625301,54.4776846 25.6929515,25.9312604 24.75,12.1841773 Z" id="Mask" fill="#EAF2F9" style="mix-blend-mode: multiply;" mask="url(#mask-2)"></path>
                <path d="M1.28501004,55.685996 C4.17628263,55.685996 7.36375339,53.612069 9.95527054,53.612069 C12.5467877,53.612069 15.5329788,55.685996 18.6255319,55.685996 C21.7180851,55.685996 18.6255319,56.3146552 18.6255319,56.3146552 L1.28501004,56.3146552 C1.28501004,56.3146552 -1.60626255,55.685996 1.28501004,55.685996 Z" id="Rectangle-8" fill="#EAF2F9" opacity="0.3" style="mix-blend-mode: multiply;" mask="url(#mask-2)"></path>
                <path d="M1.28501004,56.1773753 C4.17628263,56.1773753 7.36375339,54.1034483 9.95527054,54.1034483 C12.5467877,54.1034483 15.5329788,56.1773753 18.6255319,56.1773753 C21.7180851,56.1773753 18.6255319,56.8060345 18.6255319,56.8060345 L1.28501004,56.8060345 C1.28501004,56.8060345 -1.60626255,56.1773753 1.28501004,56.1773753 Z" id="Rectangle-8" fill="#5E7888" opacity="0.3" style="mix-blend-mode: multiply;" mask="url(#mask-2)"></path>
                <rect id="reflect" fill="#FFFFFF" opacity="0.7" mask="url(#mask-2)" x="13" y="-8.79310345" width="2.5" height="69.7758621" rx="1.25"></rect>
            </g>
            <g id="Mask-+-Line" transform="translate(38.000000, 10.579741) rotate(96.000000) translate(-38.000000, -10.579741) translate(33.000000, 8.000000)">
                <mask id="mask-4" fill="white">
                    <use xlink:href="#path-3"></use>
                </mask>
                <rect stroke="#455A64" stroke-width="0.989906832" x="-0.366748288" y="-0.494953416" width="10.7334966" height="6.14938959" rx="3.0746948"></rect>
                <path d="M0.128205128,3.80818966 L9.87179487,3.80818966" id="Line" stroke="#5E7888" stroke-width="0.742430124" stroke-linecap="square" mask="url(#mask-4)"></path>
                <path d="M0.128205128,2.33405172 L9.87179487,2.33405172" id="Line" stroke="#98AFC3" stroke-width="0.5" stroke-linecap="square" mask="url(#mask-4)"></path>
                <path d="M0.128205128,1.59698276 L9.87179487,1.59698276" id="Line" stroke="#98AFC3" stroke-width="0.5" stroke-linecap="square" mask="url(#mask-4)"></path>
                <path d="M0.128205128,0.859913793 L9.87179487,0.859913793" id="Line" stroke="#98AFC3" stroke-width="0.5" stroke-linecap="square" mask="url(#mask-4)"></path>
            </g>
        </g>
    </g>
</svg>