<?xml version="1.0" encoding="UTF-8"?>
<svg width="100px" height="100px" viewBox="0 0 100 100" version="1.1" xmlns="http://www.w3.org/2000/svg" xmlns:xlink="http://www.w3.org/1999/xlink">
    <!-- Generator: Sketch 51.2 (57519) - http://www.bohemiancoding.com/sketch -->
    <title>Story1_plastic2</title>
    <desc>Created with Sketch.</desc>
    <defs>
        <path d="M0.975,51.4008621 L0.975,46.875 L0.65,46.875 C0.291014913,46.875 3.77029901e-16,46.5839851 3.33066907e-16,46.225 L0,41.7060345 C-4.39629938e-17,41.3470494 0.291014913,41.0560345 0.65,41.0560345 L0.975,41.0560345 L0.975,36.5301724 L0.65,36.5301724 C0.291014913,36.5301724 3.77029901e-16,36.2391575 3.33066907e-16,35.8801724 L0,31.3612069 C-4.39629938e-17,31.0022218 0.291014913,30.7112069 0.65,30.7112069 L0.975,30.7112069 L0.975,26.1853448 L0.65,26.1853448 C0.291014913,26.1853448 3.77029901e-16,25.8943299 3.33066907e-16,25.5353448 L0,21.0163793 C-4.39629938e-17,20.6573942 0.291014913,20.3663793 0.65,20.3663793 L0.975,20.3663793 L0.975,14.5245206 C0.975,14.2195406 1.06082557,13.9207161 1.22266265,13.6622174 L7.06435309,4.33141772 C7.22619017,4.07291903 7.31201574,3.77409454 7.31201574,3.46911452 L7.31201574,1.625 C7.31201574,0.727537282 8.03955302,-5.71833781e-17 8.93701574,-2.22044605e-16 L16.2797373,0 C17.1772,-1.64861227e-16 17.9047373,0.727537282 17.9047373,1.625 L17.9047373,3.43794348 C17.9047373,3.76242453 18.0018794,4.07947541 18.1836525,4.34826249 L24.4210848,13.5715268 C24.6028579,13.8403139 24.7,14.1573648 24.7,14.4818458 L24.7,20.3663793 L25.35,20.3663793 C25.7089851,20.3663793 26,20.6573942 26,21.0163793 L26,25.5353448 C26,25.8943299 25.7089851,26.1853448 25.35,26.1853448 L24.7,26.1853448 L24.7,30.7112069 L25.35,30.7112069 C25.7089851,30.7112069 26,31.0022218 26,31.3612069 L26,35.8801724 C26,36.2391575 25.7089851,36.5301724 25.35,36.5301724 L24.7,36.5301724 L24.7,41.0560345 L25.35,41.0560345 C25.7089851,41.0560345 26,41.3470494 26,41.7060345 L26,46.225 C26,46.5839851 25.7089851,46.875 25.35,46.875 L24.7,46.875 L24.7,51.4008621 L25.35,51.4008621 C25.7089851,51.4008621 26,51.691877 26,52.0508621 L26,56.5698276 C26,56.9288127 25.7089851,57.2198276 25.35,57.2198276 L24.7,57.2198276 L24.7,61.419472 C24.7,61.7121608 24.6209484,61.9994162 24.471196,62.2508936 L21.0094384,68.0641802 C20.716406,68.5562659 20.1859695,68.8577586 19.6132424,68.8577586 L5.82997794,68.8577586 C5.23941749,68.8577586 4.69534566,68.5373644 4.40891141,68.0209178 L1.17893348,62.1972042 C1.04518025,61.9560445 0.975,61.6848129 0.975,61.409045 L0.975,57.2198276 L0.65,57.2198276 C0.291014913,57.2198276 3.77029901e-16,56.9288127 3.33066907e-16,56.5698276 L0,52.0508621 C-4.39629938e-17,51.691877 0.291014913,51.4008621 0.65,51.4008621 L0.975,51.4008621 Z" id="path-1"></path>
        <rect id="path-3" x="0.166666667" y="0" width="12.6666667" height="6.7887931" rx="3.39439655"></rect>
    </defs>
    <g id="Story1_plastic2" stroke="none" stroke-width="1" fill="none" fill-rule="evenodd">
        <g id="18" transform="translate(49.690754, 49.896598) rotate(112.000000) translate(-49.690754, -49.896598) translate(36.690754, 12.396598)">
            <g id="Group-19" opacity="0.800000012" transform="translate(0.000000, 6.142241)">
                <mask id="mask-2" fill="white">
                    <use xlink:href="#path-1"></use>
                </mask>
                <path stroke="#455A64" stroke-width="1.3" d="M0.325,50.7918178 L0.325,47.4840443 C-0.235698844,47.3397304 -0.65,46.8307478 -0.65,46.225 L-0.65,41.7060345 C-0.65,41.1002867 -0.235698844,40.5913041 0.325,40.4469902 L0.325,37.1392167 C-0.235698844,36.9949028 -0.65,36.4859202 -0.65,35.8801724 L-0.65,31.3612069 C-0.65,30.7554591 -0.235698844,30.2464765 0.325,30.1021626 L0.325,26.7943891 C-0.235698844,26.6500752 -0.65,26.1410926 -0.65,25.5353448 L-0.65,21.0163793 C-0.65,20.4106315 -0.235698844,19.9016489 0.325,19.757335 L0.325,14.5245206 C0.325,14.0975486 0.4451558,13.6791943 0.671727705,13.3172961 L6.51341815,3.98649644 C6.6105204,3.83139723 6.66201574,3.65210253 6.66201574,3.46911452 L6.66201574,1.625 C6.66201574,0.368552194 7.68056793,-0.65 8.93701574,-0.65 L16.2797373,-0.65 C17.5361851,-0.65 18.5547373,0.368552194 18.5547373,1.625 L18.5547373,3.43794348 C18.5547373,3.63263211 18.6130226,3.82286264 18.7220864,3.98413489 L24.9595187,13.2073992 C25.214001,13.5837011 25.35,14.0275724 25.35,14.4818458 L25.35,19.7163793 C26.0679702,19.7163793 26.65,20.2984091 26.65,21.0163793 L26.65,25.5353448 C26.65,26.253315 26.0679702,26.8353448 25.35,26.8353448 L25.35,30.0612069 C26.0679702,30.0612069 26.65,30.6432367 26.65,31.3612069 L26.65,35.8801724 C26.65,36.5981426 26.0679702,37.1801724 25.35,37.1801724 L25.35,40.4060345 C26.0679702,40.4060345 26.65,40.9880643 26.65,41.7060345 L26.65,46.225 C26.65,46.9429702 26.0679702,47.525 25.35,47.525 L25.35,50.7508621 C26.0679702,50.7508621 26.65,51.3328919 26.65,52.0508621 L26.65,56.5698276 C26.65,57.2877978 26.0679702,57.8698276 25.35,57.8698276 L25.35,61.419472 C25.35,61.8292363 25.2393278,62.2313938 25.0296743,62.5834622 L21.5679168,68.3967488 C21.1576714,69.0856688 20.4150603,69.5077586 19.6132424,69.5077586 L5.82997794,69.5077586 C5.0031933,69.5077586 4.24149275,69.0592067 3.8404848,68.3361815 L0.610506865,62.5124679 C0.423252345,62.1748443 0.325,61.79512 0.325,61.409045 L0.325,57.8288719 C-0.235698844,57.684558 -0.65,57.1755754 -0.65,56.5698276 L-0.65,52.0508621 C-0.65,51.4451143 -0.235698844,50.9361317 0.325,50.7918178 Z"></path>
                <path d="M32.175,12.0844438 C31.7069519,5.17799638 20.2057656,7.56868535 20.0216397,6.59484683 C19.3552804,3.07048551 24.9561631,12.9586582 24.9561631,40.6941003 C24.9561631,68.4295424 18.268417,68.4295424 13.8475273,68.4295424 C4.15160427,68.4295424 3.64999798,55.0045174 3.64999798,40.6941003 C3.64999798,28.893969 3.6499974,43.0948279 3.64999746,25.072428 C3.64999752,7.05002803 13.7460194,0.398266727 13.8475273,-11.3171523 C15.9613327,-13.9040093 -24.4586616,-10.7764818 -22.3448562,-8.09491508 C-22.3448555,8.81706663 -12.1473262,4.7765756 -12.1473263,22.7989755 C-12.1473263,40.8213755 -12.1473263,48.1489292 -12.1473263,56.6618938 C-12.1473263,72.502411 -15.5491831,74.8231051 -15.5491831,74.8231051 C-16.1920221,75.6839051 -15.8337387,76.3817214 -14.759144,76.3817215 L32.7437512,76.3817261 C32.7437512,76.3817261 32.0680609,69.1908066 32.7437512,68.4295424 C33.3612891,67.7337955 33.400837,30.1727111 32.175,12.0844438 Z" id="Mask" fill="#EAF2F9" style="mix-blend-mode: multiply;" mask="url(#mask-2)"></path>
                <path d="M1.67051305,69.3236789 C5.42916741,69.3236789 9.57287941,66.5948276 12.9418517,66.5948276 C16.310824,66.5948276 20.1928724,69.3236789 24.2131915,69.3236789 C28.2335106,69.3236789 24.2131915,70.1508621 24.2131915,70.1508621 L1.67051305,70.1508621 C1.67051305,70.1508621 -2.08814131,69.3236789 1.67051305,69.3236789 Z" id="Rectangle-8" fill="#EAF2F9" opacity="0.3" style="mix-blend-mode: multiply;" mask="url(#mask-2)"></path>
                <path d="M1.67051305,69.9702306 C5.42916741,69.9702306 9.57287941,67.2413793 12.9418517,67.2413793 C16.310824,67.2413793 20.1928724,69.9702306 24.2131915,69.9702306 C28.2335106,69.9702306 24.2131915,70.7974138 24.2131915,70.7974138 L1.67051305,70.7974138 C1.67051305,70.7974138 -2.08814131,69.9702306 1.67051305,69.9702306 Z" id="Rectangle-8" fill="#5E7888" opacity="0.3" style="mix-blend-mode: multiply;" mask="url(#mask-2)"></path>
                <rect id="reflect" fill="#FFFFFF" opacity="0.7" mask="url(#mask-2)" x="16.9" y="-15.5172414" width="3.25" height="91.8103448" rx="1.625"></rect>
            </g>
            <g id="Mask-+-Line" transform="translate(6.175000, 0.000000)">
                <mask id="mask-4" fill="white">
                    <use xlink:href="#path-3"></use>
                </mask>
                <rect stroke="#455A64" stroke-width="1.3" x="-0.483333333" y="-0.65" width="13.9666667" height="8.0887931" rx="4.04439655"></rect>
                <path d="M0.166666667,5.01077586 L12.8333333,5.01077586" id="Line" stroke="#5E7888" stroke-width="0.975" stroke-linecap="square" mask="url(#mask-4)"></path>
                <path d="M0.166666667,3.07112069 L12.8333333,3.07112069" id="Line" stroke="#98AFC3" stroke-width="0.5" stroke-linecap="square" mask="url(#mask-4)"></path>
                <path d="M0.166666667,2.1012931 L12.8333333,2.1012931" id="Line" stroke="#98AFC3" stroke-width="0.5" stroke-linecap="square" mask="url(#mask-4)"></path>
                <path d="M0.166666667,1.13146552 L12.8333333,1.13146552" id="Line" stroke="#98AFC3" stroke-width="0.5" stroke-linecap="square" mask="url(#mask-4)"></path>
            </g>
        </g>
    </g>
</svg>