<?xml version="1.0" encoding="UTF-8"?>
<svg width="100px" height="100px" viewBox="0 0 100 100" version="1.1" xmlns="http://www.w3.org/2000/svg" xmlns:xlink="http://www.w3.org/1999/xlink">
    <!-- Generator: Sketch 51.2 (57519) - http://www.bohemiancoding.com/sketch -->
    <title>Story1_plastic1</title>
    <desc>Created with Sketch.</desc>
    <defs>
        <path d="M1.34340702,8.4817562 C2.91783198,5.03357506 5.28317051,2.20632299 8.4394226,0 L16.7957872,0 C20.1376101,2.3658872 22.5977136,5.19313927 24.1760979,8.4817562 C24.7230938,9.62144065 24.9109613,12.0544429 24.9109613,17.3301862 C24.9109613,21.0735613 20.8662937,24.0883878 20.8662937,27.0907603 C20.8662937,29.3010188 23.6953164,31.0919972 24.1760979,34.6018502 C24.8583028,39.5821559 24.1760979,56.8122345 24.1760979,59.6195751 C24.1760979,60.5893217 22.609436,67.5128944 19.8791291,68.4405382 C19.1507811,68.6880003 17.7684257,67.1818066 15.8872523,67.1818066 C14.2462938,67.1818066 13.506733,69.3925234 12.0551277,69.3925234 C10.4653165,69.3925234 10.0958588,67.4464793 8.4394226,67.1818066 C6.91290857,66.9378934 5.89804268,68.4405382 4.80879359,68.4405382 C2.00438343,68.4405382 -0.0864797007,62.3277511 0.00275189853,59.2716548 C0.366118936,46.8266842 0.694483138,38.603416 0.987844505,34.6018502 C1.17923055,31.9912685 4.01464465,28.6041752 4.01464465,27.0907603 C4.01464465,24.5135913 0.18307609,22.3705105 0.18307609,16.4535952 C0.18307609,12.1303417 0.858228564,9.54435572 1.34340702,8.4817562 Z" id="path-1"></path>
        <rect id="path-3" x="0.111336032" y="0" width="8.46153846" height="4.90654206" rx="2.45327103"></rect>
    </defs>
    <g id="Story1_plastic1" stroke="none" stroke-width="1" fill="none" fill-rule="evenodd">
        <g id="19" transform="translate(50.457457, 49.779787) rotate(-75.000000) translate(-50.457457, -49.779787) translate(37.957457, 12.279787)">
            <g id="Group-13" transform="translate(0.000000, 5.607477)">
                <mask id="mask-2" fill="white">
                    <use xlink:href="#path-1"></use>
                </mask>
                <path stroke="#455A64" stroke-width="1.03519669" d="M18.4703043,68.5677133 C18.4637484,68.564329 18.4571293,68.5609077 18.4504452,68.5574485 C18.4618585,68.5633551 18.4706856,68.5679181 18.4771606,68.5712599 Z M18.4771606,68.5712599 C18.5839873,68.6263928 18.0505659,68.3490761 17.9279165,68.2875407 C17.1374524,67.8909512 16.5347108,67.6994049 15.8872523,67.6994049 C15.3798718,67.6994049 15.0007336,67.9428506 14.2600148,68.6592252 C14.1599077,68.7562011 14.1084769,68.8059517 14.0577913,68.8545324 C13.2893347,69.591077 12.7791296,69.9101217 12.0551277,69.9101217 C11.2180718,69.9101217 10.7024209,69.580121 9.93896828,68.7866275 C9.86352091,68.7079848 9.86352091,68.7079848 9.78953948,68.6307452 C9.19419816,68.0104749 8.8604859,67.7732501 8.35775442,67.6929214 C7.82340946,67.6075414 7.38479901,67.7635558 6.59866757,68.2403458 C5.864783,68.685448 5.72618425,68.7617407 5.37206388,68.8696703 C5.18220772,68.9275351 4.99578574,68.9581366 4.80879359,68.9581366 C1.93882671,68.9581366 -0.631599215,63.2627699 -0.514625955,59.2565485 C-0.151034472,46.8038908 0.177524707,38.5757398 0.471631521,34.5640058 C0.528225959,33.7920352 0.786019384,32.9470266 1.22678503,31.962336 C1.44538385,31.4739763 1.69569997,30.9771799 2.03976882,30.3339615 C3.38348934,27.8219476 3.4970463,27.5840263 3.4970463,27.0907603 C3.4970463,26.8816115 3.46554566,26.6678754 3.40229821,26.4419623 C3.28965832,26.0396247 3.08199529,25.6075279 2.73520546,25.0278433 C2.59062117,24.7861601 1.86095243,23.6343242 1.65494669,23.2907568 C0.331737801,21.0839667 -0.334522254,19.0933112 -0.334522254,16.4535952 C-0.334522254,12.7105711 0.170854872,9.80360759 0.872567187,8.26677272 C2.48553211,4.7341844 4.91120277,1.83481828 8.14287495,-0.424225807 L8.27644889,-0.517598344 L16.9604619,-0.517598344 L17.0948639,-0.422446682 C20.5064613,1.99283835 23.0250592,4.88731448 24.6427331,8.25779283 C25.2317064,9.48493861 25.4285596,11.8916921 25.4285596,17.3301862 C25.4285596,19.0354414 24.825161,20.3975314 23.3259316,22.7652485 C21.7658138,25.2291259 21.3838921,25.9979687 21.3838921,27.0907603 C21.3838921,27.4257367 21.4649385,27.7705704 21.6294847,28.1551811 C21.7618351,28.4645371 21.9445524,28.7942371 22.2086656,29.2119497 C22.3534309,29.4409058 22.905619,30.2752102 22.9903531,30.4062396 C23.965175,31.9136654 24.4898126,33.0781515 24.6889075,34.5316053 C24.9720516,36.5986444 25.0458436,40.7507637 24.9684839,46.6380728 C24.9428349,48.5900454 24.9021742,50.6329225 24.8451478,53.004966 C24.8200282,54.0498305 24.7419214,57.1096623 24.7409123,57.150332 C24.7082611,58.4663287 24.6936962,59.2021127 24.6936962,59.6195751 C24.6936962,62.1475497 22.474907,68.105259 20.0456392,68.9306224 C19.7118336,69.0440355 19.3748512,68.9822538 18.9478414,68.7984667 C18.8110007,68.7395698 18.6699364,68.6707699 18.4703043,68.5677133 Z"></path>
                <path d="M28.8242751,29.5735944 C28.2636511,24.5820187 21.0808908,26.8742413 20.8239187,27.565331 C19.6557856,30.7068578 23.4240012,31.7016624 23.4240012,46.9599411 C23.4240012,62.2182198 17.0788082,64.8774263 11.7835046,64.8774263 C0.169811411,64.8774263 3.14409154,55.7278355 3.14409154,45.3851041 C3.14409154,36.8566603 3.85157826,35.3210795 6.77053451,29.5735944 C9.30285394,24.5874052 2.36090098,20.9110368 3.14409154,13.5567775 C4.42207812,1.55632024 10.8291914,3.65786601 10.898458,-1.1658706 C13.4303559,-3.03549931 -5.1474322,3.67113574 -2.61553424,5.60921512 C-2.6155335,17.832205 -2.61553421,20.2698529 -2.61553424,33.2953881 C-2.61553427,46.3209232 -2.61553424,52.6466029 -2.61553424,58.799275 C-2.61553424,70.2478732 5.27290537,71.1167909 5.27290537,71.1167909 C6.10002311,71.3296313 7.46804535,71.4620484 8.32476883,71.4127656 L22.5302657,70.5955972 C22.5302657,70.5955972 29.2186879,65.4276235 30.028024,64.8774263 C30.7677056,64.3745812 30.2925721,42.6467346 28.8242751,29.5735944 Z" id="Mask" fill="#EAF2F9" style="mix-blend-mode: multiply;" mask="url(#mask-2)"></path>
                <path d="M3.52033806,68.7071453 C4.92794081,68.7071453 6.08281007,66.1214953 7.81420148,66.1214953 C10.529683,66.1214953 10.456896,68.7071453 11.9624913,68.7071453 C12.7393181,68.7071453 14.2528418,66.1214953 16.0859992,66.1214953 C16.799402,66.1214953 18.6435899,67.2898092 19.8911965,68.0091077 C20.6177339,68.4279875 21.4856974,68.3458184 20.9082483,68.7071453 C19.9292963,69.3197043 11.9624913,69.4909206 11.9624913,69.4909206 L3.52033806,69.4909206 C3.52033806,69.4909206 2.11273532,68.7071453 3.52033806,68.7071453 Z" id="Rectangle-8" fill="#EAF2F9" opacity="0.3" style="mix-blend-mode: multiply;" mask="url(#mask-2)"></path>
                <path d="M3.52033806,69.174435 C4.92794081,69.174435 6.08281007,66.588785 7.81420148,66.588785 C10.529683,66.588785 10.456896,69.174435 11.9624913,69.174435 C12.7393181,69.174435 14.2528418,66.588785 16.0859992,66.588785 C16.799402,66.588785 18.6435899,67.7570989 19.8911965,68.4763975 C20.6177339,68.8952773 21.4856974,68.8131081 20.9082483,69.174435 C19.9292963,69.786994 11.9624913,69.9582103 11.9624913,69.9582103 L3.52033806,69.9582103 C3.52033806,69.9582103 2.11273532,69.174435 3.52033806,69.174435 Z" id="Rectangle-8-Copy" fill="#5E7888" opacity="0.3" style="mix-blend-mode: multiply;" mask="url(#mask-2)"></path>
                <rect id="reflect" fill="#FFFFFF" opacity="0.7" mask="url(#mask-2)" x="16.3157895" y="-1.40186916" width="2.36842105" height="71.9626168" rx="1.18421053"></rect>
            </g>
            <g id="Mask-+-Line" transform="translate(8.157895, 0.000000)">
                <mask id="mask-4" fill="white">
                    <use xlink:href="#path-3"></use>
                </mask>
                <rect stroke="#455A64" stroke-width="1.03519669" x="-0.406262311" y="-0.517598344" width="9.49673515" height="5.94173874" rx="2.97086937"></rect>
                <path d="M0.111336032,3.62149533 L8.57287449,3.62149533" id="Line" stroke="#5E7888" stroke-width="0.776397516" stroke-linecap="square" mask="url(#mask-4)"></path>
                <path d="M0.111336032,2.21962617 L8.57287449,2.21962617" id="Line" stroke="#98AFC3" stroke-width="0.5" stroke-linecap="square" mask="url(#mask-4)"></path>
                <path d="M0.111336032,1.51869159 L8.57287449,1.51869159" id="Line" stroke="#98AFC3" stroke-width="0.5" stroke-linecap="square" mask="url(#mask-4)"></path>
                <path d="M0.111336032,0.817757009 L8.57287449,0.817757009" id="Line" stroke="#98AFC3" stroke-width="0.5" stroke-linecap="square" mask="url(#mask-4)"></path>
            </g>
        </g>
    </g>
</svg>