<?xml version="1.0" encoding="UTF-8"?>
<svg width="100px" height="100px" viewBox="0 0 100 100" version="1.1" xmlns="http://www.w3.org/2000/svg" xmlns:xlink="http://www.w3.org/1999/xlink">
    <!-- Generator: Sketch 51.2 (57519) - http://www.bohemiancoding.com/sketch -->
    <title>Story1_plastic3</title>
    <desc>Created with Sketch.</desc>
    <defs>
        <path d="M2.5666663e-08,42.8355523 C2.56666632e-08,37.4883529 -3.20833272e-08,32.3989319 2.56666703e-08,21.2098138 C8.34166678e-08,10.0206956 9.50231489,8.63028169 9.50231451,1.22667716 C11.4720115,-0.379360239 14.5279885,-0.438160316 16.4976855,1.22667716 C16.4976851,8.63028169 26,10.0206956 26,21.2098138 C26,32.3989319 26,37.5503202 26,42.8355523 C26,52.6700593 22.7862335,53.098941 22.7862335,53.098941 C22.2114272,53.4163056 21.2028065,53.6735804 20.5432336,53.6735804 L5.4567665,53.6735804 C4.79279816,53.6735804 3.76649502,53.4661612 3.21376657,53.098941 C3.21376657,53.098941 2.5666663e-08,52.6700593 2.5666663e-08,42.8355523 Z" id="path-1"></path>
        <rect id="path-3" x="0.102362205" y="0" width="7.77952756" height="4.21478873" rx="2.10739437"></rect>
    </defs>
    <g id="Story1_plastic3" stroke="none" stroke-width="1" fill="none" fill-rule="evenodd">
        <g id="17" transform="translate(49.878325, 49.731105) rotate(-48.000000) translate(-49.878325, -49.731105) translate(36.878325, 21.231105)">
            <g id="Rectangle-6-+-Rectangle-1" transform="translate(0.000000, 3.211268)">
                <g id="Rectangle-1">
                    <mask id="mask-2" fill="white">
                        <use xlink:href="#path-1"></use>
                    </mask>
                    <path stroke="#455A64" stroke-width="0.8" d="M22.9178649,53.4822237 C22.2786346,53.8157731 21.2485358,54.0735804 20.5432336,54.0735804 L5.4567665,54.0735804 C4.67406226,54.0735804 3.6608313,53.8388747 3.06627997,53.4789276 C2.55591136,53.3694683 1.89055228,52.9034513 1.26405841,51.861272 C0.21711465,50.1196698 -0.399999974,47.2046489 -0.399999974,42.8355523 C-0.399999974,42.5105425 -0.399999974,42.5105425 -0.399999975,42.1859565 C-0.399999979,39.842169 -0.399999979,39.842169 -0.399999987,37.3388172 C-0.400000006,31.0434438 -0.400000006,31.0434438 -0.399999974,21.2098138 C-0.399999949,16.3551525 1.087468,13.3170701 4.45223464,9.53288627 C4.62719429,9.33611794 5.79947566,8.04108279 6.12378235,7.67058082 C8.22185001,5.27365773 9.10231463,3.56224636 9.10231451,1.22667718 L9.1023145,1.03671269 L9.24954137,0.916667897 C11.3918551,-0.830116503 14.6612773,-0.849242523 16.7558971,0.921182794 L16.8976856,1.04102599 L16.8976855,1.22667718 C16.8976854,3.56224636 17.77815,5.27365773 19.8762177,7.67058082 C20.2005244,8.04108279 21.3728058,9.33611794 21.5477654,9.53288625 C24.9125321,13.3170701 26.4,16.3551525 26.4,21.2098138 C26.4,31.0572146 26.4,31.0572146 26.4,37.3663585 C26.4,40.022487 26.4,40.022487 26.4,42.4918135 C26.4,42.6636514 26.4,42.6636514 26.4,42.8355523 C26.4,47.2046489 25.7828854,50.1196698 24.7359416,51.861272 C24.1029396,52.9142777 23.4302606,53.3790883 22.9178649,53.4822237 Z"></path>
                    <path d="M33.5955929,15.7011854 C33.1594539,11.4133516 25.0567853,8.50262748 24.8852121,7.89802463 C24.2642818,5.70994228 24.8852121,16.2981944 24.8852121,33.5176069 C24.8852121,50.7370195 17.5021146,50.7370195 13.3826186,50.7370195 C4.34771395,50.7370195 2.66141783,42.4021589 2.66141783,33.5176069 C2.66141783,26.1915536 2.66141729,35.0080868 2.66141735,23.8189687 C2.66141741,12.6298505 12.0691442,8.50013731 12.1637318,1.22667716 C14.1334288,-0.379360239 -23.5309372,1.56234978 -21.5612402,3.22718725 C-21.5612396,13.7269077 -12.0589257,11.2183888 -12.0589257,22.4075069 C-12.0589257,33.5966251 -12.0589257,38.1459007 -12.0589257,43.4311328 C-12.0589257,53.2656398 -15.4111915,54.9060001 -15.4111915,54.9060001 C-15.9095068,55.3302048 -15.7799756,55.6740906 -15.1044927,55.6740906 L29.7717079,55.6740935 C29.7717079,55.6740935 29.1420826,51.2096466 29.7717079,50.7370195 C30.3471452,50.3050684 34.7378586,26.931197 33.5955929,15.7011854 Z" id="Mask" fill="#EAF2F9" style="mix-blend-mode: multiply;" mask="url(#mask-2)"></path>
                    <path d="M-0.0167938172,53.0768595 C4.38484514,53.0768595 9.23741268,50.0662961 13.1827075,50.0662961 C17.1280024,50.0662961 21.6741441,53.0768595 26.3822102,53.0768595 C31.0902763,53.0768595 26.3822102,53.9894366 26.3822102,53.9894366 L-0.0167938172,53.9894366 C-0.0167938172,53.9894366 -4.41843277,53.0768595 -0.0167938172,53.0768595 Z" id="Rectangle-8" fill="#EAF2F9" opacity="0.3" style="mix-blend-mode: multiply;" mask="url(#mask-2)"></path>
                    <path d="M-0.0167938172,54.0803806 C4.38484514,54.0803806 9.23741268,51.0698172 13.1827075,51.0698172 C17.1280024,51.0698172 21.6741441,54.0803806 26.3822102,54.0803806 C31.0902763,54.0803806 26.3822102,54.9929577 26.3822102,54.9929577 L-0.0167938172,54.9929577 C-0.0167938172,54.9929577 -4.41843277,54.0803806 -0.0167938172,54.0803806 Z" id="Rectangle-8" fill="#5E7888" opacity="0.3" style="mix-blend-mode: multiply;" mask="url(#mask-2)"></path>
                    <rect id="reflect" fill="#FFFFFF" opacity="0.7" mask="url(#mask-2)" x="14.7401575" y="-0.200704225" width="2.45669291" height="57" rx="1.22834646"></rect>
                </g>
            </g>
            <g id="Mask-+-Line" transform="translate(9.007874, 0.000000)">
                <mask id="mask-4" fill="white">
                    <use xlink:href="#path-3"></use>
                </mask>
                <rect stroke="#455A64" stroke-width="0.8" x="-0.297637795" y="-0.4" width="8.57952756" height="5.01478873" rx="2.50739437"></rect>
                <path d="M0.102362205,3.11091549 L7.88188976,3.11091549" id="Line" stroke="#5E7888" stroke-width="0.6" stroke-linecap="square" mask="url(#mask-4)"></path>
                <path d="M0.102362205,1.90669014 L7.88188976,1.90669014" id="Line" stroke="#98AFC3" stroke-width="0.5" stroke-linecap="square" mask="url(#mask-4)"></path>
                <path d="M0.102362205,1.30457746 L7.88188976,1.30457746" id="Line" stroke="#98AFC3" stroke-width="0.5" stroke-linecap="square" mask="url(#mask-4)"></path>
                <path d="M0.102362205,0.702464789 L7.88188976,0.702464789" id="Line" stroke="#98AFC3" stroke-width="0.5" stroke-linecap="square" mask="url(#mask-4)"></path>
            </g>
        </g>
    </g>
</svg>