<?xml version="1.0" encoding="UTF-8"?>
<svg width="100px" height="100px" viewBox="0 0 100 100" version="1.1" xmlns="http://www.w3.org/2000/svg" xmlns:xlink="http://www.w3.org/1999/xlink">
    <!-- Generator: Sketch 51.2 (57519) - http://www.bohemiancoding.com/sketch -->
    <title>Story1_plastic20</title>
    <desc>Created with Sketch.</desc>
    <defs>
        <path d="M37.5766238,0.850415594 L50.0348817,0.844703323 C50.0662362,0.84468936 50.0963454,0.856973818 50.1187411,0.878917706 C50.4069239,1.16128651 50.5415386,1.5760377 50.5225851,2.12317129 C50.5037793,2.66604378 50.3696367,3.08963919 50.1201571,3.39395752 L50.1204788,3.39422124 C50.09776,3.42193397 50.0638446,3.43804289 50.0280098,3.43814159 L38.3374041,3.47034202 C37.324281,3.54332971 36.6750229,3.71700826 36.3896297,3.99137768 C35.96154,4.40293179 35.2283732,5.48079048 35.0508775,5.71978734 C34.7683697,6.10018253 5.48789957,46.9832526 4.18651313,48.8922661 C3.74269347,49.5433085 2.96921276,50.1769884 2.06204866,49.4812669 C1.15488456,48.7855453 1.75402591,47.7448936 1.94817647,47.5030506 C2.33850549,47.0168385 32.5703494,4.54822344 32.6757251,4.39314408 C33.1057257,3.76032025 34.1780759,2.18398035 34.5681833,1.7381215 C35.0634326,1.17209467 36.0662461,0.876192704 37.5766238,0.850415594 Z" id="path-1"></path>
    </defs>
    <g id="Story1_plastic20" stroke="none" stroke-width="1" fill="none" fill-rule="evenodd">
        <g id="Group-13-Copy-3" transform="translate(50.316858, 50.316858) scale(-1, 1) rotate(-111.000000) translate(-50.316858, -50.316858) translate(24.316858, 24.316858)">
            <g id="Group-25" transform="translate(0.000000, 0.584195)">
                <mask id="mask-2" fill="white">
                    <use xlink:href="#path-1"></use>
                </mask>
                <path stroke="#151F20" stroke-width="0.2" d="M50.1977553,3.45703438 L50.1978133,3.45761985 C50.1561617,3.50842697 50.0939829,3.53796026 50.0282852,3.53814121 L38.3445897,3.57008352 C37.3535124,3.64148299 36.7222136,3.81035737 36.4589344,4.06346693 C36.3241358,4.1930587 36.1476428,4.40118297 35.9369593,4.67417047 C35.8914982,4.73307553 35.8446765,4.79470372 35.7964482,4.85905282 C35.5963414,5.12604758 35.1163491,5.79935166 35.1311591,5.77941002 C34.4781009,6.65874918 5.29636236,47.4417536 4.26914017,48.9485935 C3.65015085,49.8565936 2.83536657,50.2003616 2.00119289,49.5606178 C1.22905926,48.9684537 1.37565647,48.0564699 1.87019605,47.4404482 C2.17209076,47.064394 32.2877611,4.78617514 32.593013,4.33694164 C33.5430074,2.93885275 34.179373,2.03063447 34.492924,1.67227286 C35.0112166,1.0799095 36.0389874,0.776643356 37.5749174,0.750430154 L37.576578,0.750415604 L50.0348372,0.744703333 C50.0923758,0.74467771 50.1476292,0.767220932 50.1887276,0.807490183 C50.4989246,1.11142907 50.6423819,1.55342462 50.6225252,2.12663335 C50.6030198,2.68969997 50.4623377,3.13411222 50.1977553,3.45703438 Z"></path>
                <path d="M41.4609792,-1.89941035 L46.9243846,5.62032207 L49.3239477,3.87693739 L43.8605423,-3.64279502 L41.4609792,-1.89941035 Z M35.4455351,-1.89941035 L40.9089405,5.62032207 L43.3085037,3.87693739 L37.8450983,-3.64279502 L35.4455351,-1.89941035 Z M27.3801005,10.320044 L36.6396311,9.50994009 L36.3811251,6.55520354 L27.1215946,7.36530749 L27.3801005,10.320044 Z M21.2877244,17.7772924 L30.5472549,16.9671884 L30.288749,14.0124519 L21.0292184,14.8225558 L21.2877244,17.7772924 Z M16.5731795,25.4296612 L25.8327101,24.6195572 L25.5742041,21.6648207 L16.3146736,22.4749246 L16.5731795,25.4296612 Z M11.8586347,33.0820299 L21.1181652,32.271926 L20.8596592,29.3171894 L11.6001287,30.1272934 L11.8586347,33.0820299 Z M6.55630455,39.9253817 L15.8158351,39.1152778 L15.5573291,36.1605412 L6.2977986,36.9706452 L6.55630455,39.9253817 Z M2.65077668,46.9899652 L11.9103072,46.1798613 L11.6518013,43.2251247 L2.39227073,44.0352287 L2.65077668,46.9899652 Z" id="Combined-Shape" stroke="#151F20" stroke-width="0.2" fill="#FFFFFF" fill-rule="nonzero" mask="url(#mask-2)"></path>
            </g>
            <rect id="Rectangle-13" stroke="#151F20" stroke-width="0.2" fill="#55ACEE" fill-rule="nonzero" transform="translate(36.646362, 2.221118) rotate(-20.000000) translate(-36.646362, -2.221118) " x="36.1516709" y="0.40591674" width="1" height="3.63040311" rx="0.498257097"></rect>
            <rect id="Rectangle-13-Copy" stroke="#151F20" stroke-width="0.2" fill="#55ACEE" fill-rule="nonzero" transform="translate(35.367428, 2.652939) rotate(-29.000000) translate(-35.367428, -2.652939) " x="34.8727364" y="0.837737267" width="1" height="3.63040311" rx="0.498257097"></rect>
            <rect id="Rectangle-13-Copy-2" stroke="#151F20" stroke-width="0.2" fill="#55ACEE" fill-rule="nonzero" transform="translate(34.186739, 3.730156) rotate(-54.000000) translate(-34.186739, -3.730156) " x="33.6920474" y="1.91495465" width="1" height="3.63040311" rx="0.498257097"></rect>
            <rect id="Rectangle-13-Copy-3" stroke="#151F20" stroke-width="0.2" fill="#55ACEE" fill-rule="nonzero" transform="translate(33.445948, 4.818953) rotate(-59.000000) translate(-33.445948, -4.818953) " x="32.9512573" y="3.00375172" width="1" height="3.63040311" rx="0.498257097"></rect>
        </g>
    </g>
</svg>