<?xml version="1.0" encoding="UTF-8"?>
<svg width="100px" height="100px" viewBox="0 0 100 100" version="1.1" xmlns="http://www.w3.org/2000/svg" xmlns:xlink="http://www.w3.org/1999/xlink">
    <!-- Generator: Sketch 51.2 (57519) - http://www.bohemiancoding.com/sketch -->
    <title>Story1_plastic21</title>
    <desc>Created with Sketch.</desc>
    <defs></defs>
    <g id="Story1_plastic21" stroke="none" stroke-width="1" fill="none" fill-rule="evenodd" opacity="0.800000012">
        <g id="Group-6" transform="translate(50.500000, 50.500000) rotate(-335.000000) translate(-50.500000, -50.500000) translate(15.000000, 13.000000)" fill-rule="nonzero" stroke="#212121">
            <path d="M4.32115327,6.73180179 C7.47318215,6.5681761 9.73735045,7.79156608 11.1136582,10.4019718 C13.1781197,14.3175803 14.524606,18.7009236 18.4565139,17.6389863 C21.0777858,16.9310281 23.1537669,15.3576791 24.684457,12.9189391 C28.1676438,8.96063147 31.0249034,6.57871507 33.2562358,5.7731899 C35.4875683,4.96766474 38.0744971,6.51059202 41.0170223,10.4019718 L47.7413793,29.1410252 L17.9575162,42.6724138 L6.75186944,24.8196119 C10.2794116,24.0023526 12.0431826,22.915426 12.0431826,21.5588321 C12.0431826,19.5239413 10.6518027,14.8198655 8.10707607,12.9189391 C6.41059164,11.6516549 4.11627892,11.0109505 1.22413793,10.9968261 L4.32115327,6.73180179 Z" id="Path-10" stroke-width="1.2987013" fill="#BFBFBF"></path>
            <path d="M31.5167921,29.4221676 C33.9667486,27.0292165 33.854369,24.2806607 32.6855806,21.8057404 C31.9063882,20.1557935 29.0040493,17.6037063 23.9785637,14.1494788 C20.1188169,10.0586728 20.1188169,6.06293027 23.9785637,2.16225112 C29.7681838,-3.68876762 39.1545161,3.80815683 41.5321201,7.30895383 C43.9097241,10.8097508 43.9097241,14.8763099 48.4396373,18.8666642 C52.9695504,22.8570186 54.9148628,23.016933 57.1952583,24.7886919 C59.4756539,26.5604508 65.2395424,35.2489394 67.21173,37.379784 C69.1839177,39.5106286 71,46.0930969 71,51.497279 C71,56.9014612 70.839892,63.9619407 64.4681649,65.5680121 C60.7352062,66.5089498 57.6218622,67.3151437 52.422639,68.2524406 C51.9257519,68.3420176 52.6590409,63.8283161 52.1216893,63.92052 C51.4641208,64.0333519 49.5252589,68.7528003 48.7992309,68.8703387 C48.7697097,69.8856153 47.7052581,61.8840279 46.666409,64.2488721 C45.6275599,66.6137163 42.7737259,75.6808055 42.439285,74.5832679 C41.34972,71.0076329 42.4471599,69.4575871 40.7385535,65.7553244 C39.0299471,62.0530616 37.4070044,72.7923796 37.3144176,70.5305535 C36.5248929,70.6348935 34.5651525,67.1119139 33.8402182,67.2027759 C33.1632736,67.287623 33.7171051,70.9871748 33.0937341,71.0602554 C20.6740508,72.5162713 18.6238345,71.6356623 16.4483407,68.3656477 C14.0467205,64.7557394 15.5494486,59.1558498 14.7980846,56.6486002 C14.0467205,54.1413507 4.80848814,44.7941534 4.80848814,41.9029939 C4.80848814,39.0118343 6.42786633,29.6426993 4.80848814,27.2156956 C3.18910995,24.7886919 -1.93303807,16.4934872 0.776933435,9.31681153 C2.3227414,5.22312922 10.5465027,6.87120545 7.18021996,7.82308834 C3.81393726,8.77497123 2.75389038,9.79952735 2.75389038,12.4701551 C2.75389038,15.1407829 7.83853229,21.0263743 9.55854981,23.4782022 C11.2785673,25.9300302 12.5948839,35.8695652 18.2867238,35.8695652 C23.9785637,35.8695652 29.0668355,31.8151187 31.5167921,29.4221676 Z M31.4717575,15.3846975 C33.6271541,16.7928799 36.4966301,19.1705243 37.9812734,17.2763148 C39.4659167,15.3821053 39.724269,11.6076191 37.3923584,9.40624051 C35.0604479,7.20486191 30.1337813,2.53446582 27.2325328,4.29485585 C24.3312843,6.05524589 24.3312843,8.00097425 26.1567601,10.1880961 C27.9822359,12.3752179 29.3163609,13.976515 31.4717575,15.3846975 Z" id="Combined-Shape" stroke-width="1.2987013" fill="#8E8E93"></path>
            <path d="M14.6896552,56.2781109 C16.3460599,54.6104352 17.9038514,53.3374696 19.3630297,52.4592142 C20.8222081,51.5809588 22.1207384,51.2152715 23.2586207,51.3621521" id="Path-13" stroke-width="1.23152709" stroke-linecap="round" stroke-linejoin="round"></path>
            <path d="M14.6896552,56.2781109 C16.2804491,55.2534745 18.4195249,54.911929 21.1068828,55.2534745 C23.7942406,55.59502 26.7557395,55.3181247 29.9913793,54.4227886" id="Path-14" stroke-width="1.23152709" stroke-linecap="round" stroke-linejoin="round"></path>
        </g>
    </g>
</svg>