<?xml version="1.0" encoding="UTF-8"?>
<svg width="320px" height="200px" viewBox="0 0 320 200" version="1.1" xmlns="http://www.w3.org/2000/svg" xmlns:xlink="http://www.w3.org/1999/xlink">
    <!-- Generator: Sketch 51.2 (57519) - http://www.bohemiancoding.com/sketch -->
    <title>WasteAni_02_2</title>
    <desc>Created with Sketch.</desc>
    <defs>
        <radialGradient cx="47.3135769%" cy="27.7683354%" fx="47.3135769%" fy="27.7683354%" r="64.9417324%" gradientTransform="translate(0.473136,0.277683),scale(0.895803,1.000000),rotate(90.000000),translate(-0.473136,-0.277683)" id="radialGradient-1">
            <stop stop-color="#FF833B" offset="0%"></stop>
            <stop stop-color="#C81707" offset="100%"></stop>
        </radialGradient>
        <path d="M21.7109005,39.9045346 C32.363976,39.9045346 41,32.168357 41,22.6252983 C41,15.0586912 35.5707353,8.6280277 28.0115783,6.28889598 C26.0370727,5.67789814 23.9172463,5.34606205 21.7109005,5.34606205 C19.8692099,5.34606205 18.0878032,5.57727371 16.4008793,6.00906131 C8.32996008,8.07490607 2.42180095,14.7320318 2.42180095,22.6252983 C2.42180095,32.168357 11.057825,39.9045346 21.7109005,39.9045346 Z" id="path-2"></path>
        <filter x="-5.2%" y="-2.9%" width="110.4%" height="111.6%" filterUnits="objectBoundingBox" id="filter-3">
            <feOffset dx="0" dy="1" in="SourceAlpha" result="shadowOffsetOuter1"></feOffset>
            <feGaussianBlur stdDeviation="0.5" in="shadowOffsetOuter1" result="shadowBlurOuter1"></feGaussianBlur>
            <feColorMatrix values="0 0 0 0 0   0 0 0 0 0   0 0 0 0 0  0 0 0 0.298233696 0" type="matrix" in="shadowBlurOuter1"></feColorMatrix>
        </filter>
        <linearGradient x1="50%" y1="50%" x2="50%" y2="100%" id="linearGradient-4">
            <stop stop-color="#C81707" stop-opacity="0.49852808" offset="0%"></stop>
            <stop stop-color="#FFFFFF" stop-opacity="0.503255208" offset="100%"></stop>
        </linearGradient>
        <path d="M30.0521327,13.7470167 C30.0521327,13.0616037 26.6146981,12.5059666 22.3744076,12.5059666 C18.1341171,12.5059666 14.6966825,13.0616037 14.6966825,13.7470167 C14.6966825,14.4324298 18.1341171,14.9880668 22.3744076,14.9880668 C26.6146981,14.9880668 30.0521327,14.4324298 30.0521327,13.7470167 Z" id="path-5"></path>
        <filter x="-6.5%" y="-40.3%" width="113.0%" height="180.6%" filterUnits="objectBoundingBox" id="filter-6">
            <feGaussianBlur stdDeviation="0.5" in="SourceAlpha" result="shadowBlurInner1"></feGaussianBlur>
            <feOffset dx="0" dy="1" in="shadowBlurInner1" result="shadowOffsetInner1"></feOffset>
            <feComposite in="shadowOffsetInner1" in2="SourceAlpha" operator="arithmetic" k2="-1" k3="1" result="shadowInnerInner1"></feComposite>
            <feColorMatrix values="0 0 0 0 0   0 0 0 0 0   0 0 0 0 0  0 0 0 0.2 0" type="matrix" in="shadowInnerInner1"></feColorMatrix>
        </filter>
        <linearGradient x1="50%" y1="35.197191%" x2="50%" y2="113.282212%" id="linearGradient-7">
            <stop stop-color="#D93917" stop-opacity="0.497622283" offset="0%"></stop>
            <stop stop-color="#FFFFFF" offset="100%"></stop>
        </linearGradient>
        <linearGradient x1="50%" y1="0%" x2="50%" y2="54.7622601%" id="linearGradient-8">
            <stop stop-color="#56AD19" offset="0%"></stop>
            <stop stop-color="#284F0C" offset="100%"></stop>
        </linearGradient>
        <path d="M19.5295438,10.5515276 L23.3473519,2.39844621 C23.9057876,1.20588469 25.3823698,0.552154304 25.9608638,0.729017682 L25.777051,0.672820484 C25.878568,0.70385734 25.9451482,0.81159225 25.926074,0.911813801 L24.052166,10.7578851 C24.1966422,10.645284 24.3672623,10.5223464 24.5769644,10.3876511 C25.4222257,9.84472486 28.3368229,8.32866803 28.3368229,8.32866803 C28.3368229,8.32866803 28.8125263,8.04404848 29.9572038,7.42138579 C31.1018814,6.7987231 31.5115164,6.61890443 33.1812234,6.46521995 C34.8509303,6.31153548 35.3876801,6.92154964 35.3876801,6.92154964 C35.3876801,6.92154964 32.4618436,7.24382425 31.4530445,7.81066957 C30.4442455,8.37751489 30.1765959,8.44710353 28.9482679,9.27432379 C27.7199399,10.101544 27.5375862,10.2068886 26.4201275,11.2000988 C25.3026688,12.193309 25.0851387,12.7079177 25.0851387,12.7079177 L26.8715144,12.960891 C26.8715144,12.960891 27.6909509,13.0417682 28.5195618,13.0696573 C29.3481728,13.0975465 30.9378611,13.2781751 31.8348285,13.3954674 C32.7317959,13.5127597 32.7091585,13.4725017 33.5908691,13.5257426 C34.4725796,13.5789835 35.9039816,13.8239648 36.5333776,14.1534098 C37.1627736,14.4828548 37.4675846,14.6414956 38.1006122,15.1963443 C38.7336399,15.751193 39.3225116,16.5980855 39.3225116,16.5980855 C39.3225116,16.5980855 37.8367407,15.4504889 37.2683177,15.1963443 C36.6998948,14.9421998 36.1342587,14.7686935 34.7955381,14.5740544 C33.4568176,14.3794152 32.3979721,14.262057 29.9572048,14.1333675 C27.5164374,14.0046779 26.4883209,14.1360561 26.4883209,14.1360561 C26.4883209,14.1360561 25.2865718,14.0843337 24.1176996,14.15341 C22.9488275,14.2224863 22.6562374,14.5740542 22.6562374,14.5740542 L22.9874031,16.2903624 C22.9874031,16.2903624 23.4343347,17.0525776 23.4759202,17.8199345 C23.5175057,18.5872914 23.1626189,19.5235328 23.1626189,19.5235328 C23.1626189,19.5235328 22.6630364,18.7664067 22.1186047,18.0154695 C21.5741731,17.2645322 20.0465934,14.8495142 20.0465934,14.8495142 C20.0465934,14.8495142 19.73522,13.8741681 18.4134173,13.8741681 C17.0916145,13.8741681 17.1211673,13.7850222 15.0385047,13.3954673 C12.955842,13.0059124 11.3975821,12.6359923 10.2223765,12.7064512 C9.04717087,12.77691 6.52846363,13.5386313 5.4832997,13.6919473 C4.43813577,13.8452633 4.0992893,13.593691 4.0992893,13.593691 L5.93638534,12.8027521 C5.93638534,12.8027521 7.07002295,12.3295809 8.39911329,12.0362551 C9.72820363,11.7429294 10.554607,11.7835262 10.554607,11.7835262 C10.554607,11.7835262 11.9408529,11.8379439 13.2762757,11.9790611 C14.6116984,12.1201783 16.6165337,12.7079176 16.6165337,12.7079176 L13.5221116,10.4086711 L11.7367067,8.90060776 L10.3526963,7.66995967 L11.3639485,8.08033865 L12.6023502,8.88154311 C12.6023502,8.88154311 15.0050374,10.6838426 15.9824128,11.149993 C16.9597881,11.6161433 18.1511819,11.9467975 18.1511819,11.9467975 C18.1511819,11.9467975 17.2600548,10.3914488 17.0643136,9.8999865 C16.8685723,9.40852415 14.5354394,5.53153885 13.7509599,5.0219276 C12.9664804,4.51231635 11.9898563,5.01634145 11.4418491,5.4103089 C10.8938419,5.80427634 11.1181125,6.91470592 11.1181125,6.91470592 C11.1181125,6.91470592 10.6426246,5.02212772 11.3918568,4.60103862 C12.141089,4.17994951 13.2505515,4.19090406 13.2505515,4.19090406 C13.2505515,4.19090406 14.1225733,4.29366946 14.5775318,4.5602207 C15.0324903,4.82677193 15.338866,5.18552927 16.0377441,5.82386532 C16.7366221,6.46220136 18.2557927,8.3471488 18.7885345,9.27432394 C19.2677804,10.1083957 19.2819737,10.0337626 19.5295438,10.5515276 Z" id="path-9"></path>
        <filter x="-6.4%" y="-6.6%" width="112.8%" height="123.9%" filterUnits="objectBoundingBox" id="filter-10">
            <feMorphology radius="0.25" operator="dilate" in="SourceAlpha" result="shadowSpreadOuter1"></feMorphology>
            <feOffset dx="0" dy="1" in="shadowSpreadOuter1" result="shadowOffsetOuter1"></feOffset>
            <feGaussianBlur stdDeviation="0.5" in="shadowOffsetOuter1" result="shadowBlurOuter1"></feGaussianBlur>
            <feComposite in="shadowBlurOuter1" in2="SourceAlpha" operator="out" result="shadowBlurOuter1"></feComposite>
            <feColorMatrix values="0 0 0 0 0.235294118   0 0 0 0 0.0274509804   0 0 0 0 0.00784313725  0 0 0 0.3 0" type="matrix" in="shadowBlurOuter1"></feColorMatrix>
        </filter>
        <linearGradient x1="50%" y1="35.197191%" x2="50%" y2="113.282212%" id="linearGradient-11">
            <stop stop-color="#55AB19" offset="0%"></stop>
            <stop stop-color="#FFFFFF" offset="100%"></stop>
        </linearGradient>
        <path d="M0.341316456,63.3706875 C0.341316456,98.2097045 28.4544684,126.451364 63.1339747,126.451364 C97.8126835,126.451364 125.925835,98.2097045 125.925835,63.3706875 C125.925835,28.5324716 97.8126835,0.289210227 63.1339747,0.289210227 C28.4544684,0.289210227 0.341316456,28.5324716 0.341316456,63.3706875" id="path-12"></path>
        <path d="M0.341316456,63.3706875 C0.341316456,98.2097045 28.4544684,126.451364 63.1339747,126.451364 C97.8126835,126.451364 125.925835,98.2097045 125.925835,63.3706875 C125.925835,28.5324716 97.8126835,0.289210227 63.1339747,0.289210227 C28.4544684,0.289210227 0.341316456,28.5324716 0.341316456,63.3706875" id="path-14"></path>
        <path d="M0.341316456,63.3706875 C0.341316456,98.2097045 28.4544684,126.451364 63.1339747,126.451364 C97.8126835,126.451364 125.925835,98.2097045 125.925835,63.3706875 C125.925835,28.5324716 97.8126835,0.289210227 63.1339747,0.289210227 C28.4544684,0.289210227 0.341316456,28.5324716 0.341316456,63.3706875" id="path-16"></path>
        <path d="M0.341316456,63.3706875 C0.341316456,98.2097045 28.4544684,126.451364 63.1339747,126.451364 C97.8126835,126.451364 125.925835,98.2097045 125.925835,63.3706875 C125.925835,28.5324716 97.8126835,0.289210227 63.1339747,0.289210227 C28.4544684,0.289210227 0.341316456,28.5324716 0.341316456,63.3706875 Z" id="path-18"></path>
        <path d="M0.341316456,63.3706875 C0.341316456,98.2097045 28.4544684,126.451364 63.1339747,126.451364 C97.8126835,126.451364 125.925835,98.2097045 125.925835,63.3706875 C125.925835,28.5324716 97.8126835,0.289210227 63.1339747,0.289210227 C28.4544684,0.289210227 0.341316456,28.5324716 0.341316456,63.3706875" id="path-20"></path>
        <path d="M0.341316456,63.3706875 C0.341316456,98.2097045 28.4544684,126.451364 63.1339747,126.451364 C97.8126835,126.451364 125.925835,98.2097045 125.925835,63.3706875 C125.925835,28.5324716 97.8126835,0.289210227 63.1339747,0.289210227 C28.4544684,0.289210227 0.341316456,28.5324716 0.341316456,63.3706875" id="path-22"></path>
        <path d="M0.341316456,63.3706875 C0.341316456,98.2097045 28.4544684,126.451364 63.1339747,126.451364 C97.8126835,126.451364 125.925835,98.2097045 125.925835,63.3706875 C125.925835,28.5324716 97.8126835,0.289210227 63.1339747,0.289210227 C28.4544684,0.289210227 0.341316456,28.5324716 0.341316456,63.3706875" id="path-24"></path>
        <path d="M0.341316456,63.3706875 C0.341316456,98.2097045 28.4544684,126.451364 63.1339747,126.451364 C97.8126835,126.451364 125.925835,98.2097045 125.925835,63.3706875 C125.925835,28.5324716 97.8126835,0.289210227 63.1339747,0.289210227 C28.4544684,0.289210227 0.341316456,28.5324716 0.341316456,63.3706875" id="path-26"></path>
        <path d="M0.341316456,63.3706875 C0.341316456,98.2097045 28.4544684,126.451364 63.1339747,126.451364 C97.8126835,126.451364 125.925835,98.2097045 125.925835,63.3706875 C125.925835,28.5324716 97.8126835,0.289210227 63.1339747,0.289210227 C28.4544684,0.289210227 0.341316456,28.5324716 0.341316456,63.3706875" id="path-28"></path>
        <path d="M0.341316456,63.3706875 C0.341316456,98.2097045 28.4544684,126.451364 63.1339747,126.451364 C97.8126835,126.451364 125.925835,98.2097045 125.925835,63.3706875 C125.925835,28.5324716 97.8126835,0.289210227 63.1339747,0.289210227 C28.4544684,0.289210227 0.341316456,28.5324716 0.341316456,63.3706875" id="path-30"></path>
        <path d="M0.341316456,63.3706875 C0.341316456,98.2097045 28.4544684,126.451364 63.1339747,126.451364 C97.8126835,126.451364 125.925835,98.2097045 125.925835,63.3706875 C125.925835,28.5324716 97.8126835,0.289210227 63.1339747,0.289210227 C28.4544684,0.289210227 0.341316456,28.5324716 0.341316456,63.3706875" id="path-32"></path>
        <path d="M0.341316456,63.3706875 C0.341316456,98.2097045 28.4544684,126.451364 63.1339747,126.451364 C97.8126835,126.451364 125.925835,98.2097045 125.925835,63.3706875 C125.925835,28.5324716 97.8126835,0.289210227 63.1339747,0.289210227 C28.4544684,0.289210227 0.341316456,28.5324716 0.341316456,63.3706875 Z" id="path-34"></path>
        <path d="M0.341316456,63.3706875 C0.341316456,98.2097045 28.4544684,126.451364 63.1339747,126.451364 C97.8126835,126.451364 125.925835,98.2097045 125.925835,63.3706875 C125.925835,28.5324716 97.8126835,0.289210227 63.1339747,0.289210227 C28.4544684,0.289210227 0.341316456,28.5324716 0.341316456,63.3706875" id="path-36"></path>
        <path d="M0.341316456,63.3706875 C0.341316456,98.2097045 28.4544684,126.451364 63.1339747,126.451364 C97.8126835,126.451364 125.925835,98.2097045 125.925835,63.3706875 C125.925835,28.5324716 97.8126835,0.289210227 63.1339747,0.289210227 C28.4544684,0.289210227 0.341316456,28.5324716 0.341316456,63.3706875" id="path-38"></path>
        <path d="M0.341316456,63.3706875 C0.341316456,98.2097045 28.4544684,126.451364 63.1339747,126.451364 C97.8126835,126.451364 125.925835,98.2097045 125.925835,63.3706875 C125.925835,28.5324716 97.8126835,0.289210227 63.1339747,0.289210227 C28.4544684,0.289210227 0.341316456,28.5324716 0.341316456,63.3706875" id="path-40"></path>
    </defs>
    <g id="WasteAni_02_2" stroke="none" stroke-width="1" fill="none" fill-rule="evenodd">
        <rect id="Rectangle-22" fill="#DFD2BA" fill-rule="nonzero" x="0" y="0" width="320" height="200"></rect>
        <g id="Tomatoe" transform="translate(188.000000, 117.000000)">
            <g id="Oval-1">
                <use fill="black" fill-opacity="1" filter="url(#filter-3)" xlink:href="#path-2"></use>
                <use fill="url(#radialGradient-1)" fill-rule="evenodd" xlink:href="#path-2"></use>
            </g>
            <g id="Oval-2" opacity="0.300000012" transform="translate(22.374408, 13.747017) scale(1, -1) translate(-22.374408, -13.747017) ">
                <use fill="url(#linearGradient-4)" fill-rule="evenodd" xlink:href="#path-5"></use>
                <use fill="black" fill-opacity="1" filter="url(#filter-6)" xlink:href="#path-5"></use>
            </g>
            <path d="M11.1792085,32.5167043 C11.1792085,31.7259498 9.52211397,30.2625298 8.73698097,30.2625298 C7.95184797,30.2625298 7.31537192,30.903563 7.31537192,31.6943175 C7.31537192,32.485072 8.46215719,33.4128878 9.24729019,33.4128878 C10.0324232,33.4128878 11.1792085,33.3074587 11.1792085,32.5167043 Z" id="Oval-2-Copy-7" fill="url(#linearGradient-7)" opacity="0.145230877"></path>
            <path d="M4.90434776,25.4652885 C4.90434776,24.7595336 3.42537728,23.4534192 2.72463961,23.4534192 C2.02390193,23.4534192 1.45584181,24.0255466 1.45584181,24.7313015 C1.45584181,25.4370564 2.47935711,26.2651397 3.18009479,26.2651397 C3.88083246,26.2651397 4.90434776,26.1710434 4.90434776,25.4652885 Z" id="Oval-2-Copy-17" fill="url(#linearGradient-7)" opacity="0.6" transform="translate(3.180095, 24.859279) rotate(50.000000) translate(-3.180095, -24.859279) "></path>
            <path d="M13.3452986,37.6598852 C13.3452986,37.2165835 12.4163214,36.3961814 11.9761711,36.3961814 C11.5360208,36.3961814 11.1792085,36.7555485 11.1792085,37.1988502 C11.1792085,37.642152 11.8221032,38.1622912 12.2622536,38.1622912 C12.7024039,38.1622912 13.3452986,38.103187 13.3452986,37.6598852 Z" id="Oval-2-Copy-16" fill="url(#linearGradient-7)" opacity="0.500932836"></path>
            <path d="M23.5600954,39.4975941 C23.5600954,39.0542923 22.6311181,38.2338902 22.1909678,38.2338902 C21.7508175,38.2338902 21.3940052,38.5932573 21.3940052,39.036559 C21.3940052,39.4798608 22.0368999,40 22.4770503,40 C22.9172006,40 23.5600954,39.9408958 23.5600954,39.4975941 Z" id="Oval-2-Copy-18" fill="url(#linearGradient-7)" opacity="0.495102612"></path>
            <path d="M38.2252124,26.7706251 C38.5369177,25.8452768 36.0617418,22.6252983 34.5167858,22.6252983 C32.9718298,22.6252983 31.7193955,23.8866999 31.7193955,25.4427176 C31.7193955,26.9987354 33.9759976,28.8244575 35.5209536,28.8244575 C37.0659096,28.8244575 37.9135071,27.6959735 38.2252124,26.7706251 Z" id="Oval-2-Copy-8" fill="url(#linearGradient-7)" opacity="0.253847948"></path>
            <path d="M24.7309909,24.4806052 C24.7309909,23.929257 24.2872123,23.4823009 23.7397836,23.4823009 C23.1923549,23.4823009 22.7485762,23.929257 22.7485762,24.4806052 C22.7485762,25.0319535 23.9967863,25.7248779 24.5442151,25.7248779 C25.0916438,25.7248779 24.7309909,25.0319535 24.7309909,24.4806052 Z" id="Oval-2-Copy-3" fill="url(#linearGradient-7)" opacity="0.264342351"></path>
            <path d="M36.1849241,30.4579974 C36.1849241,29.9814499 35.8013524,29.5951318 35.3281927,29.5951318 C34.855033,29.5951318 34.4714612,29.9814499 34.4714612,30.4579974 C34.4714612,30.9345449 35.5503282,31.5334611 36.0234879,31.5334611 C36.4966476,31.5334611 36.1849241,30.9345449 36.1849241,30.4579974 Z" id="Oval-2-Copy-9" fill="url(#linearGradient-7)" opacity="0.149999991"></path>
            <path d="M24.8786033,31.0163076 C24.8786033,30.7157898 24.6367174,30.4721719 24.3383359,30.4721719 C24.0399545,30.4721719 23.7980685,30.7157898 23.7980685,31.0163076 C23.7980685,31.3168254 24.4784179,31.6945107 24.7767993,31.6945107 C25.0751807,31.6945107 24.8786033,31.3168254 24.8786033,31.0163076 Z" id="Oval-2-Copy-10" fill="url(#linearGradient-7)" opacity="0.249999985"></path>
            <path d="M9.9642384,15.8456893 C9.9642384,15.4219797 9.62319576,15.0784952 9.20249835,15.0784952 C8.78180093,15.0784952 8.44075829,15.4219797 8.44075829,15.8456893 C8.44075829,16.2693988 9.40000426,16.8019093 9.82070167,16.8019093 C10.2413991,16.8019093 9.9642384,16.2693988 9.9642384,15.8456893 Z" id="Oval-2-Copy-6" fill="url(#linearGradient-7)" opacity="0.501982276"></path>
            <path d="M18.3933649,18.6886405 C18.3933649,18.2275422 18.0222282,17.8537482 17.5644079,17.8537482 C17.1065875,17.8537482 16.7354508,18.2275422 16.7354508,18.6886405 C16.7354508,19.1497388 17.3388136,18.9945826 17.796634,18.9945826 C18.2544543,18.9945826 18.3933649,19.1497388 18.3933649,18.6886405 Z" id="Oval-2-Copy-4" fill="url(#linearGradient-7)" opacity="0.25338153"></path>
            <path d="M26.6872038,17.7025039 C26.6872038,17.491845 26.517645,17.3210722 26.3084837,17.3210722 C26.0993224,17.3210722 25.9297636,17.491845 25.9297636,17.7025039 C25.9297636,17.9131628 26.205418,17.8422777 26.4145793,17.8422777 C26.6237406,17.8422777 26.6872038,17.9131628 26.6872038,17.7025039 Z" id="Oval-2-Copy-5" fill="url(#linearGradient-7)" opacity="0.501982276"></path>
            <g id="Path-1">
                <use fill="black" fill-opacity="1" filter="url(#filter-10)" xlink:href="#path-9"></use>
                <use stroke="#3E7C12" stroke-width="0.5" fill="url(#linearGradient-8)" fill-rule="evenodd" xlink:href="#path-9"></use>
            </g>
            <path d="M26.2504378,14.3463643 C26.2504378,13.9325903 25.3833385,13.1668341 24.9725061,13.1668341 C24.5616736,13.1668341 24.228628,13.5022642 24.228628,13.9160382 C24.228628,14.3298122 24.8287004,14.8153056 25.2395329,14.8153056 C25.6503654,14.8153056 26.2504378,14.7601383 26.2504378,14.3463643 Z" id="Oval-2-Copy-19" fill="url(#linearGradient-11)" opacity="0.104361007" transform="translate(25.239533, 13.991070) rotate(-12.000000) translate(-25.239533, -13.991070) "></path>
            <path d="M12.7810751,9.45812319 C12.7810751,9.17073696 12.1788324,8.63888192 11.8934892,8.63888192 C11.608146,8.63888192 11.3768296,8.8718545 11.3768296,9.15924074 C11.3768296,9.44662697 11.7936092,9.78382584 12.0789524,9.78382584 C12.3642956,9.78382584 12.7810751,9.74550943 12.7810751,9.45812319 Z" id="Oval-2-Copy-22" fill="url(#linearGradient-11)" opacity="0.148554104" transform="translate(12.078952, 9.211354) rotate(-12.000000) translate(-12.078952, -9.211354) "></path>
            <path d="M17.9645162,10.2400605 C17.9645162,9.9765658 17.4123402,9.48892593 17.1507187,9.48892593 C16.8890972,9.48892593 16.677011,9.7025306 16.677011,9.96602531 C16.677011,10.22952 17.0591421,10.5386862 17.3207636,10.5386862 C17.5823852,10.5386862 17.9645162,10.5035552 17.9645162,10.2400605 Z" id="Oval-2-Copy-20" fill="url(#linearGradient-11)" opacity="0.25233209" transform="translate(17.320764, 10.013806) rotate(-12.000000) translate(-17.320764, -10.013806) "></path>
            <path d="M20.1346814,13.4034132 C20.1346814,13.1888474 19.6850402,12.7917585 19.4719998,12.7917585 C19.2589594,12.7917585 19.086256,12.9656984 19.086256,13.1802642 C19.086256,13.39483 19.3974283,13.6465864 19.6104687,13.6465864 C19.8235091,13.6465864 20.1346814,13.617979 20.1346814,13.4034132 Z" id="Oval-2-Copy-23" fill="url(#linearGradient-11)" opacity="0.15001166" transform="translate(19.610469, 13.219172) rotate(-12.000000) translate(-19.610469, -13.219172) "></path>
            <path d="M31.6426781,8.16103135 C31.6426781,7.9466328 31.1933873,7.54985337 30.9805129,7.54985337 C30.7676386,7.54985337 30.5950698,7.72365774 30.5950698,7.93805628 C30.5950698,8.15245483 30.9059995,8.40401506 31.1188739,8.40401506 C31.3317483,8.40401506 31.6426781,8.3754299 31.6426781,8.16103135 Z" id="Oval-2-Copy-21" fill="url(#linearGradient-11)" opacity="0.25233209" transform="translate(31.118874, 7.976934) rotate(-12.000000) translate(-31.118874, -7.976934) "></path>
            <path d="M24.6254794,2.73156182 C25.5415915,2.73156182 26.2842472,2.63461151 26.2842472,2.05464661 C26.2842472,1.47468172 25.5415915,1.00452728 24.6254794,1.00452728 C23.7093673,1.00452728 22.9667116,1.47468172 22.9667116,2.05464661 C22.9667116,2.63461151 23.7093673,2.73156182 24.6254794,2.73156182 Z" id="Oval-3" fill="#3F7F12" transform="translate(24.625479, 1.868045) rotate(-53.000000) translate(-24.625479, -1.868045) "></path>
        </g>
        <g id="Group-6" opacity="0.800000012" transform="translate(219.090933, 115.090933) rotate(-335.000000) translate(-219.090933, -115.090933) translate(164.090933, 60.090933)" fill-rule="nonzero" stroke="#212121">
            <path d="M6.6947445,10.3220961 C11.5781695,10.0712033 15.0860359,11.947068 17.2183436,15.94969 C20.4168052,21.9536231 22.5029107,28.6747495 28.594599,27.0464457 C32.6557245,25.9609098 35.8720332,23.5484412 38.243525,19.80904 C43.6400115,13.7396349 48.0667518,10.0873631 51.5237457,8.85222452 C54.9807396,7.61708593 58.9886575,9.98290777 63.5474994,15.94969 L73.9655172,44.6829053 L27.821504,65.4310345 L10.4606428,38.0567382 C15.9258489,36.8036074 18.658452,35.1369866 18.658452,33.0568759 C18.658452,29.9367099 16.5027929,22.7237938 12.5602587,19.80904 C9.93190254,17.8658708 6.37733354,16.8834575 1.89655172,16.8618001 L6.6947445,10.3220961 Z" id="Path-10" stroke-width="2" fill="#BFBFBF"></path>
            <path d="M48.8288328,45.1139903 C52.6245401,41.4447987 52.4504309,37.2303464 50.6396318,33.4354685 C49.4324324,30.90555 44.935851,26.9923497 37.1498874,21.6958676 C31.1699981,15.4232984 31.1699981,9.29649308 37.1498874,3.31545171 C46.1197214,-5.65611035 60.6619264,5.83917381 64.3455382,11.2070625 C68.02915,16.5749513 68.02915,22.8103418 75.0473253,28.9288852 C82.0655007,35.0474285 85.0793649,35.2926306 88.6123721,38.0093276 C92.1453793,40.7260246 101.075347,54.0483737 104.130849,57.3156688 C107.186351,60.5829639 110,70.6760819 110,78.9624945 C110,87.2489072 109.751945,98.0749757 99.8802554,100.537619 C90.0085655,103.000261 82.933692,104.860964 57.8110695,108.146849 C32.688447,111.432733 29.2041648,110.362519 25.4833448,104.827326 C21.7625247,99.2921338 24.090695,90.7056363 22.9266099,86.861187 C21.7625247,83.0167377 7.44977036,68.6843685 7.44977036,64.2512572 C7.44977036,59.818146 9.95866615,45.452139 7.44977036,41.7307333 C4.94087456,38.0093276 -2.99484771,25.2900137 1.20369969,14.2857777 C3.59861343,8.00879814 16.339652,10.5358484 11.1242844,11.9954021 C5.90891689,13.4549559 4.26659073,15.0259419 4.26659073,19.1209046 C4.26659073,23.2158672 12.144205,32.2404405 14.8090208,35.9999101 C17.4738367,39.7593797 19.5132004,55 28.3315439,55 C37.1498874,55 45.0331254,48.783182 48.8288328,45.1139903 Z M48.7590609,23.5898694 C52.0984077,25.7490825 56.5440747,29.3948039 58.8442264,26.4903494 C61.144378,23.5858948 61.5446421,17.7983493 57.9318229,14.4229021 C54.3190037,11.0474549 46.68614,3.88618092 42.191248,6.58544564 C37.6963559,9.28471037 37.6963559,12.2681605 40.5245579,15.6217473 C43.3527599,18.975334 45.4197141,21.4306564 48.7590609,23.5898694 Z" id="Combined-Shape" stroke-width="2" fill="#8E8E93"></path>
            <path d="M23.2746126,85.7586067 C25.4826149,83.5985436 27.5803969,81.8969355 29.5679585,80.6537825 C31.9901358,79.1387919 34.1456439,78.5079812 36.0344828,78.7613503" id="Path-13" stroke-width="1.89655172" stroke-linecap="round" stroke-linejoin="round"></path>
            <path d="M22.7586207,86.2931034 C25.2232309,84.7219943 28.5372921,84.1982912 32.7008043,84.7219943 C36.8643165,85.2456973 41.4525541,84.8211245 46.4655172,83.4482759" id="Path-14" stroke-width="1.89655172" stroke-linecap="round" stroke-linejoin="round"></path>
            <path d="M46.4655172,92.9310345 C51.9359749,95.6940301 56.0832058,97.4188971 58.9072099,98.1056357 C61.7312141,98.7923743 65.4862821,98.7923743 70.1724138,98.1056357" id="Path-16" stroke-width="1.89655172" stroke-linecap="round" stroke-linejoin="round"></path>
        </g>
        <g id="Group" transform="translate(20.000000, 16.000000)">
            <g id="4">
                <path d="M125.925995,63.478921 C125.925995,98.3171369 97.812843,126.559597 63.1341342,126.559597 C28.4546278,126.559597 0.341475949,98.3171369 0.341475949,63.478921 C0.341475949,28.6407051 28.4546278,0.398244886 63.1341342,0.398244886 C97.812843,0.398244886 125.925995,28.6407051 125.925995,63.478921" id="Fill-1-Copy" fill="#D1E1E7"></path>
                <g id="Group-49" transform="translate(0.000000, 0.108153)">
                    <g id="Group-6">
                        <mask id="mask-13" fill="white">
                            <use xlink:href="#path-12"></use>
                        </mask>
                        <g id="Clip-5"></g>
                        <path d="M59.2805278,87.6254915 L68.3333886,87.6254915 C71.2162367,87.6254915 73.552819,89.9736222 73.552819,92.8697301 L73.552819,110.505145 C73.552819,113.401253 71.2162367,115.748582 68.3333886,115.748582 L59.2805278,115.748582 C56.3976797,115.748582 54.0603,113.401253 54.0603,110.505145 L54.0603,92.8697301 C54.0603,89.9736222 56.3976797,87.6254915 59.2805278,87.6254915" id="Fill-4" fill="#F7AC82" mask="url(#mask-13)"></path>
                    </g>
                    <g id="Group-9">
                        <mask id="mask-15" fill="white">
                            <use xlink:href="#path-14"></use>
                        </mask>
                        <g id="Clip-8"></g>
                        <path d="M82.5996351,134.621352 L44.9953017,134.621352 C39.0837625,134.621352 34.2911392,129.800114 34.2911392,123.85408 L34.2911392,107.705574 C34.2911392,101.758739 39.0837625,96.9375 44.9953017,96.9375 L82.5996351,96.9375 C88.5119706,96.9375 93.3037975,101.758739 93.3037975,107.705574 L93.3037975,123.85408 C93.3037975,129.800114 88.5119706,134.621352 82.5996351,134.621352" id="Fill-7" fill="#7B53A2" mask="url(#mask-15)"></path>
                        <rect id="Rectangle-Copy" fill="#FBCBA9" fill-rule="nonzero" mask="url(#mask-15)" x="79.7468354" y="111.357955" width="13.556962" height="19.2272727"></rect>
                        <path d="M34.2911392,121.664574 C34.2911392,117.779044 34.2911392,114.568267 34.2911392,112.032244 L47.8481013,112.032244 C47.8481013,113.266579 47.8481013,115.996635 47.8481013,120.22241 C47.8481013,124.43213 48.8205004,129.550294 53.1653263,129.550294 C59.7295504,129.550294 58.6769328,130.936398 55.1967264,131.784505 C57.0641357,134.162938 60.595023,136.99998 58.6315733,138.23049 C56.6681236,139.461 53.7910538,143.502488 45.8837272,137.608064 C37.9764006,131.713639 34.2911392,127.334118 34.2911392,121.664574 Z" id="Rectangle-Copy-2" fill="#FBCBA9" fill-rule="nonzero" mask="url(#mask-15)"></path>
                    </g>
                    <g id="Group-12">
                        <mask id="mask-17" fill="white">
                            <use xlink:href="#path-16"></use>
                        </mask>
                        <g id="Clip-11"></g>
                        <path d="M59.3747886,87.6254915 L68.4284468,87.6254915 C71.3104975,87.6254915 73.6470797,89.9736222 73.6470797,92.8697301 L73.6470797,110.505145 C73.6470797,113.401253 71.3104975,115.748582 68.4284468,115.748582 L59.3747886,115.748582 C56.4919405,115.748582 54.1545608,113.401253 54.1545608,110.505145 L54.1545608,92.8697301 C54.1545608,89.9736222 56.4919405,87.6254915 59.3747886,87.6254915" id="Fill-10" fill="#F7AC82" mask="url(#mask-17)"></path>
                    </g>
                    <g id="Group-15">
                        <mask id="mask-19" fill="white">
                            <use xlink:href="#path-18"></use>
                        </mask>
                        <g id="Clip-14"></g>
                        <path d="M43.2657684,25.5084222 C43.2657684,25.5084222 26.7254772,29.2825756 19.435819,67.3045074 L23.9215785,67.3045074 C23.9215785,67.3045074 24.1480595,100.256047 26.6983633,102.227644 C26.6983633,102.227644 13.828819,111.240428 15.2307684,115.183621 C16.6327177,119.126013 25.2700975,123.068405 26.6983633,121.66161 C28.1266291,120.253212 29.1944392,103.636041 29.1944392,103.636041 C29.1944392,103.636041 27.5660089,101.100445 40.1819582,96.0316551 C52.7971101,90.9620642 87.0005278,96.876854 87.0005278,96.876854 L97.0932873,102.227644 C97.0932873,102.227644 95.691338,121.680837 98.4952367,121.952422 C101.298338,122.224007 109.147819,116.591218 108.587199,113.212024 C108.026578,109.83203 99.8963886,101.664445 99.8963886,101.664445 C99.8963886,101.664445 102.13887,67.3045074 100.1763,63.3613142 C100.1763,63.3613142 105.784097,65.6149108 107.185249,64.7697119 C107.185249,64.7697119 107.74587,4.21662102 42.1445278,23.0873881 L43.2657684,25.5084222 Z" id="Fill-13" fill="#EFBB37" mask="url(#mask-19)"></path>
                    </g>
                    <g id="Group-18">
                        <mask id="mask-21" fill="white">
                            <use xlink:href="#path-20"></use>
                        </mask>
                        <g id="Clip-17"></g>
                        <path d="M38.8220354,76.2319705 C38.8220354,80.5813398 35.3131747,84.1063398 30.983719,84.1063398 C26.6542633,84.1063398 23.1454025,80.5813398 23.1454025,76.2319705 C23.1454025,71.8826011 26.6542633,68.3576011 30.983719,68.3576011 C35.3131747,68.3576011 38.8220354,71.8826011 38.8220354,76.2319705" id="Fill-16" fill="#F7AC82" mask="url(#mask-21)"></path>
                    </g>
                    <g id="Group-21">
                        <mask id="mask-23" fill="white">
                            <use xlink:href="#path-22"></use>
                        </mask>
                        <g id="Clip-20"></g>
                        <path d="M103.923205,76.2319705 C103.923205,80.5813398 100.413547,84.1063398 96.0848886,84.1063398 C91.7554329,84.1063398 88.2457747,80.5813398 88.2457747,76.2319705 C88.2457747,71.8826011 91.7554329,68.3576011 96.0848886,68.3576011 C100.413547,68.3576011 103.923205,71.8826011 103.923205,76.2319705" id="Fill-19" fill="#F7AC82" mask="url(#mask-23)"></path>
                    </g>
                    <g id="Group-24">
                        <mask id="mask-25" fill="white">
                            <use xlink:href="#path-24"></use>
                        </mask>
                        <g id="Clip-23"></g>
                        <path d="M99.5698253,67.2042852 C99.5698253,87.0468307 83.5582557,103.132047 63.8065595,103.132047 C44.0556608,103.132047 28.0440911,87.0468307 28.0440911,67.2042852 C28.0440911,47.3617398 44.0556608,31.2765239 63.8065595,31.2765239 C83.5582557,31.2765239 99.5698253,47.3617398 99.5698253,67.2042852" id="Fill-22" fill="#FBCBA9" mask="url(#mask-25)"></path>
                    </g>
                    <g id="Group-27">
                        <mask id="mask-27" fill="white">
                            <use xlink:href="#path-26"></use>
                        </mask>
                        <g id="Clip-26"></g>
                        <path d="M50.6212975,70.1241068 C50.6212975,72.97455 48.3206013,75.2850273 45.4832089,75.2850273 C42.6458165,75.2850273 40.3451203,72.97455 40.3451203,70.1241068 C40.3451203,67.2728625 42.6458165,64.9631864 45.4832089,64.9631864 C48.3206013,64.9631864 50.6212975,67.2728625 50.6212975,70.1241068" id="Fill-25" fill="#010202" mask="url(#mask-27)"></path>
                    </g>
                    <g id="Group-30">
                        <mask id="mask-29" fill="white">
                            <use xlink:href="#path-28"></use>
                        </mask>
                        <g id="Clip-29"></g>
                        <path d="M87.268238,70.1241068 C87.268238,72.97455 84.9683392,75.2850273 82.1309468,75.2850273 C79.2935544,75.2850273 76.9928582,72.97455 76.9928582,70.1241068 C76.9928582,67.2728625 79.2935544,64.9631864 82.1309468,64.9631864 C84.9683392,64.9631864 87.268238,67.2728625 87.268238,70.1241068" id="Fill-28" fill="#010202" mask="url(#mask-29)"></path>
                    </g>
                    <g id="Group-33">
                        <mask id="mask-31" fill="white">
                            <use xlink:href="#path-30"></use>
                        </mask>
                        <g id="Clip-32"></g>
                        <path d="M63.7942785,77.9320619 C61.1753924,77.9320619 59.0525316,75.7994369 59.0525316,73.1685051 L68.5368228,73.1685051 C68.5368228,75.7994369 66.413962,77.9320619 63.7942785,77.9320619" id="Fill-31" fill="#F7AC82" mask="url(#mask-31)"></path>
                    </g>
                    <g id="Group-36">
                        <mask id="mask-33" fill="white">
                            <use xlink:href="#path-32"></use>
                        </mask>
                        <g id="Clip-35"></g>
                        <path d="M55.6537215,83.6198097 L71.9356329,83.6198097 C71.9356329,83.6198097 69.8518481,92.1246733 63.7942785,92.1246733 C57.7375063,92.1246733 55.6537215,83.6198097 55.6537215,83.6198097" id="Fill-34" fill="#CA583C" mask="url(#mask-33)"></path>
                    </g>
                    <g id="Group-39">
                        <mask id="mask-35" fill="white">
                            <use xlink:href="#path-34"></use>
                        </mask>
                        <g id="Clip-38"></g>
                        <path d="M27.9105949,68.2417568 C27.9105949,68.2417568 39.6652785,72.0711886 51.419962,35.6867795 L51.419962,23.7049841 L39.6652785,32.4958534 L23.1449241,63.1353136 L27.9105949,68.2417568 Z" id="Fill-37" fill="#EFBB37" mask="url(#mask-35)"></path>
                    </g>
                    <g id="Group-42">
                        <mask id="mask-37" fill="white">
                            <use xlink:href="#path-36"></use>
                        </mask>
                        <g id="Clip-41"></g>
                        <path d="M42.5336924,23.5220847 C42.5336924,23.5220847 49.9995911,61.1714881 109.517844,65.7555903 C109.517844,65.7555903 105.16287,2.95611307 42.5336924,23.5220847" id="Fill-40" fill="#EFBB37" mask="url(#mask-37)"></path>
                    </g>
                    <g id="Group-45">
                        <mask id="mask-39" fill="white">
                            <use xlink:href="#path-38"></use>
                        </mask>
                        <g id="Clip-44"></g>
                        <path d="M29.0000962,103.494881 L26.4314506,102.672114 C26.1252228,102.573574 25.9561595,102.243506 26.0542481,101.935069 L26.3198051,101.098682 C26.4178937,100.790245 26.7456532,100.619603 27.0526785,100.718143 L29.6205266,101.541711 C29.9275519,101.640251 30.0966152,101.970319 29.9985266,102.277955 L29.7329696,103.115143 C29.634881,103.42358 29.3071215,103.593421 29.0000962,103.494881" id="Fill-43" fill="#7B53A2" mask="url(#mask-39)"></path>
                    </g>
                    <g id="Group-48">
                        <mask id="mask-41" fill="white">
                            <use xlink:href="#path-40"></use>
                        </mask>
                        <g id="Clip-47"></g>
                        <path d="M97.5472861,103.537101 L100.115932,102.713533 C100.422159,102.614993 100.591223,102.285726 100.493134,101.977289 L100.227577,101.140101 C100.129489,100.831664 99.8017291,100.661022 99.4947038,100.759561 L96.9268557,101.583931 C96.6198304,101.68247 96.4507671,102.011737 96.5488557,102.319374 L96.8144127,103.156561 C96.9125013,103.464999 97.2402608,103.63484 97.5472861,103.537101" id="Fill-46" fill="#7B53A2" mask="url(#mask-41)"></path>
                    </g>
                </g>
                <g id="Group-54" transform="translate(14.354430, 102.653608)" fill="#EFBB37">
                    <path d="M12.0086772,0.344648864 C12.0086772,0.344648864 -5.8753481,10.3428307 3.15598101,16.1190239 C12.1889051,21.895217 12.7862089,20.4227284 13.436943,15.0278761 C14.0884747,9.63302386 15.3412975,1.49668295 14.295019,1.39093295 C13.2503354,1.28438182 12.0086772,0.344648864 12.0086772,0.344648864" id="Fill-50"></path>
                    <path d="M85.8111038,0.177211364 C85.8111038,0.177211364 102.707066,11.7824727 93.1860911,16.7022511 C83.664319,21.6212284 82.6020911,20.2777227 82.4449899,14.845217 C82.2894835,9.41271136 82.3875722,1.01840455 83.4386354,1.00879091 C84.4904962,0.999177273 85.8111038,0.177211364 85.8111038,0.177211364" id="Fill-52"></path>
                </g>
            </g>
        </g>
        <g id="Group-8" transform="translate(61.000000, 148.000000)">
            <rect id="Rectangle-path" fill="#00B3E3" transform="translate(7.488196, 5.339539) rotate(209.695136) translate(-7.488196, -5.339539) " x="2.62597695" y="3.86594706" width="9.724439" height="2.94718335"></rect>
            <path d="M3.97910786,1.60520024 L2.54700101,4.16488762 L6.18142641,6.27817646 C6.91141633,5.62512524 7.42865423,4.73160874 7.61423891,3.71884879 L3.97910786,1.60520024 L3.97910786,1.60520024 Z" id="Shape" fill="#000000" opacity="0.2"></path>
            <path d="M38.7522429,7.18877913 C39.1805696,6.0103733 38.522379,5.04617403 37.2894405,5.04617403 L11.3730343,5.04617403 C10.1402722,5.04617403 9.22152218,6.07026481 9.33107359,7.32241092 L10.191255,17.1318481 C10.3011593,18.3834546 11.399496,19.4077252 12.6322581,19.4077252 L32.0720766,19.4077252 C33.3048387,19.4077252 34.6639113,18.443526 35.0920615,17.2651201 L38.7522429,7.18877913 L38.7522429,7.18877913 Z" id="Shape" fill="#A4A9AD"></path>
            <ellipse id="Oval" fill="#333E48" cx="15.3301159" cy="22.158418" rx="2.69785786" ry="2.75051286"></ellipse>
            <ellipse id="Oval" fill="#333E48" cx="3.26305444" cy="2.88522379" rx="2.69785786" ry="2.75051286"></ellipse>
            <ellipse id="Oval" fill="#333E48" cx="27.8558468" cy="22.158418" rx="2.69785786" ry="2.75051286"></ellipse>
            <path d="M10.1021673,16.1133328 L35.5105091,16.1133328 L36.5809728,13.1664189 L9.84354839,13.1664189 L10.1021673,16.1133328 L10.1021673,16.1133328 Z M9.40410786,8.15657549 L9.6625504,11.1034893 L37.3301915,11.1034893 L38.4006552,8.15657549 L9.40410786,8.15657549 L9.40410786,8.15657549 Z" id="Shape" fill="#000000" opacity="0.2"></path>
        </g>
        <rect id="Rectangle-22-Copy" stroke-opacity="0.2" stroke="#000000" stroke-width="8" fill-opacity="0" fill="#FFFFFF" fill-rule="nonzero" x="4" y="4" width="312" height="192"></rect>
    </g>
</svg>