<?xml version="1.0" encoding="UTF-8"?>
<svg width="320px" height="200px" viewBox="0 0 320 200" version="1.1" xmlns="http://www.w3.org/2000/svg" xmlns:xlink="http://www.w3.org/1999/xlink">
    <!-- Generator: Sketch 51.2 (57519) - http://www.bohemiancoding.com/sketch -->
    <title>WasteAni_02_4</title>
    <desc>Created with Sketch.</desc>
    <defs>
        <path d="M0.341316456,63.3706875 C0.341316456,98.2097045 28.4544684,126.451364 63.1339747,126.451364 C97.8126835,126.451364 125.925835,98.2097045 125.925835,63.3706875 C125.925835,28.5324716 97.8126835,0.289210227 63.1339747,0.289210227 C28.4544684,0.289210227 0.341316456,28.5324716 0.341316456,63.3706875" id="path-1"></path>
        <path d="M0.341316456,63.3706875 C0.341316456,98.2097045 28.4544684,126.451364 63.1339747,126.451364 C97.8126835,126.451364 125.925835,98.2097045 125.925835,63.3706875 C125.925835,28.5324716 97.8126835,0.289210227 63.1339747,0.289210227 C28.4544684,0.289210227 0.341316456,28.5324716 0.341316456,63.3706875" id="path-3"></path>
        <path d="M0.341316456,63.3706875 C0.341316456,98.2097045 28.4544684,126.451364 63.1339747,126.451364 C97.8126835,126.451364 125.925835,98.2097045 125.925835,63.3706875 C125.925835,28.5324716 97.8126835,0.289210227 63.1339747,0.289210227 C28.4544684,0.289210227 0.341316456,28.5324716 0.341316456,63.3706875" id="path-5"></path>
        <path d="M0.341316456,63.3706875 C0.341316456,98.2097045 28.4544684,126.451364 63.1339747,126.451364 C97.8126835,126.451364 125.925835,98.2097045 125.925835,63.3706875 C125.925835,28.5324716 97.8126835,0.289210227 63.1339747,0.289210227 C28.4544684,0.289210227 0.341316456,28.5324716 0.341316456,63.3706875 Z" id="path-7"></path>
        <path d="M0.341316456,63.3706875 C0.341316456,98.2097045 28.4544684,126.451364 63.1339747,126.451364 C97.8126835,126.451364 125.925835,98.2097045 125.925835,63.3706875 C125.925835,28.5324716 97.8126835,0.289210227 63.1339747,0.289210227 C28.4544684,0.289210227 0.341316456,28.5324716 0.341316456,63.3706875" id="path-9"></path>
        <path d="M0.341316456,63.3706875 C0.341316456,98.2097045 28.4544684,126.451364 63.1339747,126.451364 C97.8126835,126.451364 125.925835,98.2097045 125.925835,63.3706875 C125.925835,28.5324716 97.8126835,0.289210227 63.1339747,0.289210227 C28.4544684,0.289210227 0.341316456,28.5324716 0.341316456,63.3706875" id="path-11"></path>
        <path d="M0.341316456,63.3706875 C0.341316456,98.2097045 28.4544684,126.451364 63.1339747,126.451364 C97.8126835,126.451364 125.925835,98.2097045 125.925835,63.3706875 C125.925835,28.5324716 97.8126835,0.289210227 63.1339747,0.289210227 C28.4544684,0.289210227 0.341316456,28.5324716 0.341316456,63.3706875" id="path-13"></path>
        <path d="M0.341316456,63.3706875 C0.341316456,98.2097045 28.4544684,126.451364 63.1339747,126.451364 C97.8126835,126.451364 125.925835,98.2097045 125.925835,63.3706875 C125.925835,28.5324716 97.8126835,0.289210227 63.1339747,0.289210227 C28.4544684,0.289210227 0.341316456,28.5324716 0.341316456,63.3706875" id="path-15"></path>
        <path d="M0.341316456,63.3706875 C0.341316456,98.2097045 28.4544684,126.451364 63.1339747,126.451364 C97.8126835,126.451364 125.925835,98.2097045 125.925835,63.3706875 C125.925835,28.5324716 97.8126835,0.289210227 63.1339747,0.289210227 C28.4544684,0.289210227 0.341316456,28.5324716 0.341316456,63.3706875" id="path-17"></path>
        <path d="M0.341316456,63.3706875 C0.341316456,98.2097045 28.4544684,126.451364 63.1339747,126.451364 C97.8126835,126.451364 125.925835,98.2097045 125.925835,63.3706875 C125.925835,28.5324716 97.8126835,0.289210227 63.1339747,0.289210227 C28.4544684,0.289210227 0.341316456,28.5324716 0.341316456,63.3706875" id="path-19"></path>
        <path d="M0.341316456,63.3706875 C0.341316456,98.2097045 28.4544684,126.451364 63.1339747,126.451364 C97.8126835,126.451364 125.925835,98.2097045 125.925835,63.3706875 C125.925835,28.5324716 97.8126835,0.289210227 63.1339747,0.289210227 C28.4544684,0.289210227 0.341316456,28.5324716 0.341316456,63.3706875" id="path-21"></path>
        <path d="M0.341316456,63.3706875 C0.341316456,98.2097045 28.4544684,126.451364 63.1339747,126.451364 C97.8126835,126.451364 125.925835,98.2097045 125.925835,63.3706875 C125.925835,28.5324716 97.8126835,0.289210227 63.1339747,0.289210227 C28.4544684,0.289210227 0.341316456,28.5324716 0.341316456,63.3706875 Z" id="path-23"></path>
        <path d="M0.341316456,63.3706875 C0.341316456,98.2097045 28.4544684,126.451364 63.1339747,126.451364 C97.8126835,126.451364 125.925835,98.2097045 125.925835,63.3706875 C125.925835,28.5324716 97.8126835,0.289210227 63.1339747,0.289210227 C28.4544684,0.289210227 0.341316456,28.5324716 0.341316456,63.3706875" id="path-25"></path>
        <path d="M0.341316456,63.3706875 C0.341316456,98.2097045 28.4544684,126.451364 63.1339747,126.451364 C97.8126835,126.451364 125.925835,98.2097045 125.925835,63.3706875 C125.925835,28.5324716 97.8126835,0.289210227 63.1339747,0.289210227 C28.4544684,0.289210227 0.341316456,28.5324716 0.341316456,63.3706875" id="path-27"></path>
        <path d="M0.341316456,63.3706875 C0.341316456,98.2097045 28.4544684,126.451364 63.1339747,126.451364 C97.8126835,126.451364 125.925835,98.2097045 125.925835,63.3706875 C125.925835,28.5324716 97.8126835,0.289210227 63.1339747,0.289210227 C28.4544684,0.289210227 0.341316456,28.5324716 0.341316456,63.3706875" id="path-29"></path>
    </defs>
    <g id="WasteAni_02_4" stroke="none" stroke-width="1" fill="none" fill-rule="evenodd">
        <rect id="Rectangle-22" fill="#DFD2BA" fill-rule="nonzero" x="0" y="0" width="320" height="200"></rect>
        <rect id="Rectangle-22-Copy" stroke-opacity="0.2" stroke="#000000" stroke-width="8" fill-opacity="0" fill="#FFFFFF" fill-rule="nonzero" x="4" y="4" width="312" height="192"></rect>
        <g id="Group" transform="translate(20.000000, 16.000000)">
            <g id="4">
                <path d="M125.925995,63.478921 C125.925995,98.3171369 97.812843,126.559597 63.1341342,126.559597 C28.4546278,126.559597 0.341475949,98.3171369 0.341475949,63.478921 C0.341475949,28.6407051 28.4546278,0.398244886 63.1341342,0.398244886 C97.812843,0.398244886 125.925995,28.6407051 125.925995,63.478921" id="Fill-1-Copy" fill="#D1E1E7"></path>
                <g id="Group-49" transform="translate(0.000000, 0.108153)">
                    <g id="Group-6">
                        <mask id="mask-2" fill="white">
                            <use xlink:href="#path-1"></use>
                        </mask>
                        <g id="Clip-5"></g>
                        <path d="M59.2805278,87.6254915 L68.3333886,87.6254915 C71.2162367,87.6254915 73.552819,89.9736222 73.552819,92.8697301 L73.552819,110.505145 C73.552819,113.401253 71.2162367,115.748582 68.3333886,115.748582 L59.2805278,115.748582 C56.3976797,115.748582 54.0603,113.401253 54.0603,110.505145 L54.0603,92.8697301 C54.0603,89.9736222 56.3976797,87.6254915 59.2805278,87.6254915" id="Fill-4" fill="#F7AC82" mask="url(#mask-2)"></path>
                    </g>
                    <g id="Group-9">
                        <mask id="mask-4" fill="white">
                            <use xlink:href="#path-3"></use>
                        </mask>
                        <g id="Clip-8"></g>
                        <path d="M82.5996351,134.621352 L44.9953017,134.621352 C39.0837625,134.621352 34.2911392,129.800114 34.2911392,123.85408 L34.2911392,107.705574 C34.2911392,101.758739 39.0837625,96.9375 44.9953017,96.9375 L82.5996351,96.9375 C88.5119706,96.9375 93.3037975,101.758739 93.3037975,107.705574 L93.3037975,123.85408 C93.3037975,129.800114 88.5119706,134.621352 82.5996351,134.621352" id="Fill-7" fill="#7B53A2" mask="url(#mask-4)"></path>
                        <rect id="Rectangle-Copy" fill="#FBCBA9" fill-rule="nonzero" mask="url(#mask-4)" x="79.7468354" y="111.357955" width="13.556962" height="19.2272727"></rect>
                        <path d="M34.2911392,121.664574 C34.2911392,117.779044 34.2911392,114.568267 34.2911392,112.032244 L47.8481013,112.032244 C47.8481013,113.266579 47.8481013,115.996635 47.8481013,120.22241 C47.8481013,124.43213 48.8205004,129.550294 53.1653263,129.550294 C59.7295504,129.550294 58.6769328,130.936398 55.1967264,131.784505 C57.0641357,134.162938 60.595023,136.99998 58.6315733,138.23049 C56.6681236,139.461 53.7910538,143.502488 45.8837272,137.608064 C37.9764006,131.713639 34.2911392,127.334118 34.2911392,121.664574 Z" id="Rectangle-Copy-2" fill="#FBCBA9" fill-rule="nonzero" mask="url(#mask-4)"></path>
                    </g>
                    <g id="Group-12">
                        <mask id="mask-6" fill="white">
                            <use xlink:href="#path-5"></use>
                        </mask>
                        <g id="Clip-11"></g>
                        <path d="M59.3747886,87.6254915 L68.4284468,87.6254915 C71.3104975,87.6254915 73.6470797,89.9736222 73.6470797,92.8697301 L73.6470797,110.505145 C73.6470797,113.401253 71.3104975,115.748582 68.4284468,115.748582 L59.3747886,115.748582 C56.4919405,115.748582 54.1545608,113.401253 54.1545608,110.505145 L54.1545608,92.8697301 C54.1545608,89.9736222 56.4919405,87.6254915 59.3747886,87.6254915" id="Fill-10" fill="#F7AC82" mask="url(#mask-6)"></path>
                    </g>
                    <g id="Group-15">
                        <mask id="mask-8" fill="white">
                            <use xlink:href="#path-7"></use>
                        </mask>
                        <g id="Clip-14"></g>
                        <path d="M43.2657684,25.5084222 C43.2657684,25.5084222 26.7254772,29.2825756 19.435819,67.3045074 L23.9215785,67.3045074 C23.9215785,67.3045074 24.1480595,100.256047 26.6983633,102.227644 C26.6983633,102.227644 13.828819,111.240428 15.2307684,115.183621 C16.6327177,119.126013 25.2700975,123.068405 26.6983633,121.66161 C28.1266291,120.253212 29.1944392,103.636041 29.1944392,103.636041 C29.1944392,103.636041 27.5660089,101.100445 40.1819582,96.0316551 C52.7971101,90.9620642 87.0005278,96.876854 87.0005278,96.876854 L97.0932873,102.227644 C97.0932873,102.227644 95.691338,121.680837 98.4952367,121.952422 C101.298338,122.224007 109.147819,116.591218 108.587199,113.212024 C108.026578,109.83203 99.8963886,101.664445 99.8963886,101.664445 C99.8963886,101.664445 102.13887,67.3045074 100.1763,63.3613142 C100.1763,63.3613142 105.784097,65.6149108 107.185249,64.7697119 C107.185249,64.7697119 107.74587,4.21662102 42.1445278,23.0873881 L43.2657684,25.5084222 Z" id="Fill-13" fill="#EFBB37" mask="url(#mask-8)"></path>
                    </g>
                    <g id="Group-18">
                        <mask id="mask-10" fill="white">
                            <use xlink:href="#path-9"></use>
                        </mask>
                        <g id="Clip-17"></g>
                        <path d="M38.8220354,76.2319705 C38.8220354,80.5813398 35.3131747,84.1063398 30.983719,84.1063398 C26.6542633,84.1063398 23.1454025,80.5813398 23.1454025,76.2319705 C23.1454025,71.8826011 26.6542633,68.3576011 30.983719,68.3576011 C35.3131747,68.3576011 38.8220354,71.8826011 38.8220354,76.2319705" id="Fill-16" fill="#F7AC82" mask="url(#mask-10)"></path>
                    </g>
                    <g id="Group-21">
                        <mask id="mask-12" fill="white">
                            <use xlink:href="#path-11"></use>
                        </mask>
                        <g id="Clip-20"></g>
                        <path d="M103.923205,76.2319705 C103.923205,80.5813398 100.413547,84.1063398 96.0848886,84.1063398 C91.7554329,84.1063398 88.2457747,80.5813398 88.2457747,76.2319705 C88.2457747,71.8826011 91.7554329,68.3576011 96.0848886,68.3576011 C100.413547,68.3576011 103.923205,71.8826011 103.923205,76.2319705" id="Fill-19" fill="#F7AC82" mask="url(#mask-12)"></path>
                    </g>
                    <g id="Group-24">
                        <mask id="mask-14" fill="white">
                            <use xlink:href="#path-13"></use>
                        </mask>
                        <g id="Clip-23"></g>
                        <path d="M99.5698253,67.2042852 C99.5698253,87.0468307 83.5582557,103.132047 63.8065595,103.132047 C44.0556608,103.132047 28.0440911,87.0468307 28.0440911,67.2042852 C28.0440911,47.3617398 44.0556608,31.2765239 63.8065595,31.2765239 C83.5582557,31.2765239 99.5698253,47.3617398 99.5698253,67.2042852" id="Fill-22" fill="#FBCBA9" mask="url(#mask-14)"></path>
                    </g>
                    <g id="Group-27">
                        <mask id="mask-16" fill="white">
                            <use xlink:href="#path-15"></use>
                        </mask>
                        <g id="Clip-26"></g>
                        <path d="M50.6212975,70.1241068 C50.6212975,72.97455 48.3206013,75.2850273 45.4832089,75.2850273 C42.6458165,75.2850273 40.3451203,72.97455 40.3451203,70.1241068 C40.3451203,67.2728625 42.6458165,64.9631864 45.4832089,64.9631864 C48.3206013,64.9631864 50.6212975,67.2728625 50.6212975,70.1241068" id="Fill-25" fill="#010202" mask="url(#mask-16)"></path>
                    </g>
                    <g id="Group-30">
                        <mask id="mask-18" fill="white">
                            <use xlink:href="#path-17"></use>
                        </mask>
                        <g id="Clip-29"></g>
                        <path d="M87.268238,70.1241068 C87.268238,72.97455 84.9683392,75.2850273 82.1309468,75.2850273 C79.2935544,75.2850273 76.9928582,72.97455 76.9928582,70.1241068 C76.9928582,67.2728625 79.2935544,64.9631864 82.1309468,64.9631864 C84.9683392,64.9631864 87.268238,67.2728625 87.268238,70.1241068" id="Fill-28" fill="#010202" mask="url(#mask-18)"></path>
                    </g>
                    <g id="Group-33">
                        <mask id="mask-20" fill="white">
                            <use xlink:href="#path-19"></use>
                        </mask>
                        <g id="Clip-32"></g>
                        <path d="M63.7942785,77.9320619 C61.1753924,77.9320619 59.0525316,75.7994369 59.0525316,73.1685051 L68.5368228,73.1685051 C68.5368228,75.7994369 66.413962,77.9320619 63.7942785,77.9320619" id="Fill-31" fill="#F7AC82" mask="url(#mask-20)"></path>
                    </g>
                    <g id="Group-36">
                        <mask id="mask-22" fill="white">
                            <use xlink:href="#path-21"></use>
                        </mask>
                        <g id="Clip-35"></g>
                        <path d="M55.6537215,83.6198097 L71.9356329,83.6198097 C71.9356329,83.6198097 69.8518481,92.1246733 63.7942785,92.1246733 C57.7375063,92.1246733 55.6537215,83.6198097 55.6537215,83.6198097" id="Fill-34" fill="#CA583C" mask="url(#mask-22)"></path>
                    </g>
                    <g id="Group-39">
                        <mask id="mask-24" fill="white">
                            <use xlink:href="#path-23"></use>
                        </mask>
                        <g id="Clip-38"></g>
                        <path d="M27.9105949,68.2417568 C27.9105949,68.2417568 39.6652785,72.0711886 51.419962,35.6867795 L51.419962,23.7049841 L39.6652785,32.4958534 L23.1449241,63.1353136 L27.9105949,68.2417568 Z" id="Fill-37" fill="#EFBB37" mask="url(#mask-24)"></path>
                    </g>
                    <g id="Group-42">
                        <mask id="mask-26" fill="white">
                            <use xlink:href="#path-25"></use>
                        </mask>
                        <g id="Clip-41"></g>
                        <path d="M42.5336924,23.5220847 C42.5336924,23.5220847 49.9995911,61.1714881 109.517844,65.7555903 C109.517844,65.7555903 105.16287,2.95611307 42.5336924,23.5220847" id="Fill-40" fill="#EFBB37" mask="url(#mask-26)"></path>
                    </g>
                    <g id="Group-45">
                        <mask id="mask-28" fill="white">
                            <use xlink:href="#path-27"></use>
                        </mask>
                        <g id="Clip-44"></g>
                        <path d="M29.0000962,103.494881 L26.4314506,102.672114 C26.1252228,102.573574 25.9561595,102.243506 26.0542481,101.935069 L26.3198051,101.098682 C26.4178937,100.790245 26.7456532,100.619603 27.0526785,100.718143 L29.6205266,101.541711 C29.9275519,101.640251 30.0966152,101.970319 29.9985266,102.277955 L29.7329696,103.115143 C29.634881,103.42358 29.3071215,103.593421 29.0000962,103.494881" id="Fill-43" fill="#7B53A2" mask="url(#mask-28)"></path>
                    </g>
                    <g id="Group-48">
                        <mask id="mask-30" fill="white">
                            <use xlink:href="#path-29"></use>
                        </mask>
                        <g id="Clip-47"></g>
                        <path d="M97.5472861,103.537101 L100.115932,102.713533 C100.422159,102.614993 100.591223,102.285726 100.493134,101.977289 L100.227577,101.140101 C100.129489,100.831664 99.8017291,100.661022 99.4947038,100.759561 L96.9268557,101.583931 C96.6198304,101.68247 96.4507671,102.011737 96.5488557,102.319374 L96.8144127,103.156561 C96.9125013,103.464999 97.2402608,103.63484 97.5472861,103.537101" id="Fill-46" fill="#7B53A2" mask="url(#mask-30)"></path>
                    </g>
                </g>
                <g id="Group-54" transform="translate(14.354430, 102.653608)" fill="#EFBB37">
                    <path d="M12.0086772,0.344648864 C12.0086772,0.344648864 -5.8753481,10.3428307 3.15598101,16.1190239 C12.1889051,21.895217 12.7862089,20.4227284 13.436943,15.0278761 C14.0884747,9.63302386 15.3412975,1.49668295 14.295019,1.39093295 C13.2503354,1.28438182 12.0086772,0.344648864 12.0086772,0.344648864" id="Fill-50"></path>
                    <path d="M85.8111038,0.177211364 C85.8111038,0.177211364 102.707066,11.7824727 93.1860911,16.7022511 C83.664319,21.6212284 82.6020911,20.2777227 82.4449899,14.845217 C82.2894835,9.41271136 82.3875722,1.01840455 83.4386354,1.00879091 C84.4904962,0.999177273 85.8111038,0.177211364 85.8111038,0.177211364" id="Fill-52"></path>
                </g>
            </g>
        </g>
        <g id="house-copy-2" transform="translate(61.000000, 149.000000)">
            <path d="M14.2927231,12.1157212 C14.2927231,12.6478726 13.8548385,13.0833534 13.3195615,13.0833534 L6.36163846,13.0833534 C5.82644615,13.0833534 5.38847692,12.6479567 5.38847692,12.1157212 L5.38847692,2.1172476 C5.38847692,1.58509615 5.82636154,1.14961538 6.36163846,1.14961538 L13.3195615,1.14961538 C13.8547538,1.14961538 14.2927231,1.58501202 14.2927231,2.1172476 L14.2927231,12.1157212 L14.2927231,12.1157212 Z" id="Shape" fill="#D68231"></path>
            <rect id="Rectangle-path" fill="#000000" opacity="0.1" x="5.38830769" y="2.81194712" width="5.13539231" height="2.45723558"></rect>
            <rect id="Rectangle-path" fill="#000000" opacity="0.1" x="9.15724615" y="6.60305288" width="5.13539231" height="2.45723558"></rect>
            <polygon id="Shape" fill="#D1D3D3" points="3.60266923 12.7754207 3.60266923 32.82125 39.7210846 32.82125 39.7210846 12.7754207 21.6617077 1.56894231"></polygon>
            <polygon id="Shape" fill="#000000" opacity="0.1" points="21.6617077 1.56894231 3.60266923 12.7754207 3.60266923 16.839375 21.6617077 5.63289663 39.7210846 16.839375 39.7210846 12.7754207"></polygon>
            <rect id="Rectangle-path" fill="#000000" opacity="0.1" x="34.5853538" y="16.6613462" width="5.13547692" height="2.45723558"></rect>
            <rect id="Rectangle-path" fill="#000000" opacity="0.1" x="27.5593154" y="27.8130529" width="5.13547692" height="2.45723558"></rect>
            <rect id="Rectangle-path" fill="#000000" opacity="0.1" x="21.2222154" y="16.6217188" width="5.13547692" height="2.45723558"></rect>
            <rect id="Rectangle-path" fill="#000000" opacity="0.1" x="3.60258462" y="22.6179928" width="5.13539231" height="2.45723558"></rect>
            <rect id="Rectangle-path" fill="#000000" opacity="0.1" x="7.6362" y="13.8185216" width="5.13547692" height="2.45723558"></rect>
            <rect id="Rectangle-path" fill="#D68231" x="17.2508769" y="20.756262" width="8.82056154" height="12.0651562"></rect>
            <ellipse id="Oval" fill="#FFFFFF" cx="21.6611154" cy="25.0814543" rx="1.72767692" ry="1.71786058"></ellipse>
            <ellipse id="Oval" fill="#FFFFFF" cx="21.6611154" cy="10.5498918" rx="3.674" ry="3.653125"></ellipse>
            <path d="M21.6612846,6.89685096 C19.6321231,6.89685096 17.9872,8.53234375 17.9872,10.549976 C17.9872,10.7703245 18.0079308,10.985625 18.0455,11.1949519 C18.3520615,9.48516827 19.8537308,8.18705529 21.6612846,8.18705529 C23.4690077,8.18705529 24.9705077,9.48516827 25.2769846,11.1949519 C25.3145538,10.9855409 25.3352846,10.7702404 25.3352846,10.549976 C25.3352846,8.53234375 23.6904462,6.89685096 21.6612846,6.89685096 L21.6612846,6.89685096 Z" id="Shape" fill="#000000" opacity="0.2"></path>
            <polygon id="Shape" fill="#D68231" points="25.3352 9.82423077 22.3910923 9.82423077 22.3910923 6.89685096 20.9313077 6.89685096 20.9313077 9.82423077 17.9872 9.82423077 17.9872 11.275637 20.9313077 11.275637 20.9313077 14.2030168 22.3910923 14.2030168 22.3910923 11.275637 25.3352 11.275637"></polygon>
            <path d="M21.6612846,14.928762 C19.2329077,14.928762 17.2573077,12.964387 17.2573077,10.549976 C17.2573077,8.1355649 19.2329077,6.1711899 21.6612846,6.1711899 C24.0895769,6.1711899 26.0650923,8.1355649 26.0650923,10.549976 C26.0650923,12.964387 24.0895769,14.928762 21.6612846,14.928762 L21.6612846,14.928762 Z M21.6612846,7.62251202 C20.0377692,7.62251202 18.7170923,8.93576923 18.7170923,10.5498918 C18.7170923,12.1640144 20.0378538,13.4772716 21.6612846,13.4772716 C23.2847154,13.4772716 24.6053923,12.1640144 24.6053923,10.5498918 C24.6053923,8.93576923 23.2847154,7.62251202 21.6612846,7.62251202 L21.6612846,7.62251202 Z" id="Shape" fill="#1A9CFC"></path>
            <rect id="Rectangle-path" fill="#000000" opacity="0.1" x="17.2508769" y="20.756262" width="8.82056154" height="1.5249399"></rect>
            <rect id="Rectangle-path" fill="#FFFFFF" x="6.78471538" y="17.8757452" width="6.31154615" height="7.09254808"></rect>
            <rect id="Rectangle-path" fill="#000000" opacity="0.2" x="6.78471538" y="17.8757452" width="6.31154615" height="1.56364183"></rect>
            <rect id="Rectangle-path" fill="#D68231" x="6.78471538" y="20.696274" width="6.31154615" height="1.45140625"></rect>
            <path d="M7.41933077,24.3372837 L12.4616462,24.3372837 L12.4616462,18.5067548 L7.41933077,18.5067548 L7.41933077,24.3372837 Z M13.7308769,17.2447356 L13.7308769,25.5993029 L6.1501,25.5993029 L6.1501,17.2447356 L13.7308769,17.2447356 Z" id="Rectangle-path" fill="#1A9CFC" fill-rule="nonzero"></path>
            <rect id="Rectangle-path" fill="#FFFFFF" x="30.2276615" y="17.8757452" width="6.31154615" height="7.09254808"></rect>
            <rect id="Rectangle-path" fill="#000000" opacity="0.2" x="30.2276615" y="17.8757452" width="6.31154615" height="1.56364183"></rect>
            <rect id="Rectangle-path" fill="#D68231" x="30.2276615" y="20.696274" width="6.31154615" height="1.45140625"></rect>
            <path d="M36.5392077,25.6941226 L30.2276615,25.6941226 C29.8245538,25.6941226 29.4977692,25.3692788 29.4977692,24.9683774 L29.4977692,17.8756611 C29.4977692,17.4747596 29.8245538,17.1499159 30.2276615,17.1499159 L36.5392077,17.1499159 C36.9423154,17.1499159 37.2691,17.4747596 37.2691,17.8756611 L37.2691,24.9683774 C37.2691,25.3691947 36.9423154,25.6941226 36.5392077,25.6941226 L36.5392077,25.6941226 Z M30.9573846,24.2426322 L35.8092308,24.2426322 L35.8092308,18.6014062 L30.9573846,18.6014062 L30.9573846,24.2426322 L30.9573846,24.2426322 Z" id="Shape" fill="#1A9CFC"></path>
            <path d="M41.8273308,32.82125 C41.8273308,29.6460096 39.2386077,27.0720793 36.0453077,27.0720793 C32.8520077,27.0720793 30.2632,29.6460938 30.2632,32.82125 L41.8273308,32.82125 L41.8273308,32.82125 Z" id="Shape" fill="#218649"></path>
            <path d="M1.49515385,32.82125 C1.49515385,29.6460096 4.08387692,27.0720793 7.27726154,27.0720793 C10.4706462,27.0720793 13.0592846,29.6460938 13.0592846,32.82125 L1.49515385,32.82125 L1.49515385,32.82125 Z" id="Shape" fill="#218649"></path>
            <path d="M43.3229923,34.5172954 C43.3229923,34.7828935 43.1069697,35 42.8429702,35 L0.480022139,35 C0.216022655,35 0,34.7828935 0,34.5172954 L0,32.7902268 C0,32.5247988 0.216022655,32.3076923 0.480022139,32.3076923 L42.8430548,32.3076923 C43.1070543,32.3076923 43.3230769,32.5247988 43.3230769,32.7902268 L43.3230769,34.5172954 L43.3229923,34.5172954 L43.3229923,34.5172954 Z" id="Shape" fill="#00AD68"></path>
            <rect id="Rectangle-path" fill="#333E48" x="14.4725308" y="32.3076923" width="14.3761538" height="2.69230769"></rect>
            <path d="M41.4366615,15.3667668 C41.1554846,15.3667668 40.8710923,15.2912139 40.6148769,15.1324519 L21.6617077,3.39289663 L2.70845385,15.1324519 C1.97856154,15.5848438 1.01834615,15.3627284 0.563623077,14.6370673 C0.1089,13.9114063 0.332115385,12.9565625 1.06200769,12.5043389 L20.8384,0.254927885 C21.3423692,-0.0572115385 21.9809615,-0.0572115385 22.4849308,0.254927885 L42.2614923,12.5044231 C42.9913846,12.9565625 43.2145154,13.9114063 42.7598769,14.6371514 C42.4646538,15.1080529 41.9563692,15.3667668 41.4366615,15.3667668 L41.4366615,15.3667668 Z" id="Shape" fill="#1A9CFC"></path>
        </g>
    </g>
</svg>