<?xml version="1.0" encoding="UTF-8"?>
<svg width="320px" height="200px" viewBox="0 0 320 200" version="1.1" xmlns="http://www.w3.org/2000/svg" xmlns:xlink="http://www.w3.org/1999/xlink">
    <!-- Generator: Sketch 51.2 (57519) - http://www.bohemiancoding.com/sketch -->
    <title>WasteAni_03_1</title>
    <desc>Created with Sketch.</desc>
    <defs>
        <path d="M0.428,79.101 C0.428,122.588 35.681,157.84 79.168,157.84 C122.654,157.84 157.907,122.588 157.907,79.101 C157.907,35.615 122.654,0.361 79.168,0.361 C35.681,0.361 0.428,35.615 0.428,79.101" id="path-1"></path>
        <path d="M0.428,79.101 C0.428,122.588 35.681,157.84 79.168,157.84 C122.654,157.84 157.907,122.588 157.907,79.101 C157.907,35.615 122.654,0.361 79.168,0.361 C35.681,0.361 0.428,35.615 0.428,79.101" id="path-3"></path>
        <path d="M0.428,79.101 C0.428,122.588 35.681,157.84 79.168,157.84 C122.654,157.84 157.907,122.588 157.907,79.101 C157.907,35.615 122.654,0.361 79.168,0.361 C35.681,0.361 0.428,35.615 0.428,79.101" id="path-5"></path>
        <path d="M0.428,79.101 C0.428,122.588 35.681,157.84 79.168,157.84 C122.654,157.84 157.907,122.588 157.907,79.101 C157.907,35.615 122.654,0.361 79.168,0.361 C35.681,0.361 0.428,35.615 0.428,79.101 Z" id="path-7"></path>
        <path d="M0.428,79.101 C0.428,122.588 35.681,157.84 79.168,157.84 C122.654,157.84 157.907,122.588 157.907,79.101 C157.907,35.615 122.654,0.361 79.168,0.361 C35.681,0.361 0.428,35.615 0.428,79.101" id="path-9"></path>
        <path d="M0.428,79.101 C0.428,122.588 35.681,157.84 79.168,157.84 C122.654,157.84 157.907,122.588 157.907,79.101 C157.907,35.615 122.654,0.361 79.168,0.361 C35.681,0.361 0.428,35.615 0.428,79.101" id="path-11"></path>
        <path d="M0.428,79.101 C0.428,122.588 35.681,157.84 79.168,157.84 C122.654,157.84 157.907,122.588 157.907,79.101 C157.907,35.615 122.654,0.361 79.168,0.361 C35.681,0.361 0.428,35.615 0.428,79.101" id="path-13"></path>
        <path d="M0.428,79.101 C0.428,122.588 35.681,157.84 79.168,157.84 C122.654,157.84 157.907,122.588 157.907,79.101 C157.907,35.615 122.654,0.361 79.168,0.361 C35.681,0.361 0.428,35.615 0.428,79.101" id="path-15"></path>
        <path d="M0.428,79.101 C0.428,122.588 35.681,157.84 79.168,157.84 C122.654,157.84 157.907,122.588 157.907,79.101 C157.907,35.615 122.654,0.361 79.168,0.361 C35.681,0.361 0.428,35.615 0.428,79.101" id="path-17"></path>
        <path d="M0.428,79.101 C0.428,122.588 35.681,157.84 79.168,157.84 C122.654,157.84 157.907,122.588 157.907,79.101 C157.907,35.615 122.654,0.361 79.168,0.361 C35.681,0.361 0.428,35.615 0.428,79.101" id="path-19"></path>
        <path d="M0.428,79.101 C0.428,122.588 35.681,157.84 79.168,157.84 C122.654,157.84 157.907,122.588 157.907,79.101 C157.907,35.615 122.654,0.361 79.168,0.361 C35.681,0.361 0.428,35.615 0.428,79.101" id="path-21"></path>
        <path d="M0.428,79.101 C0.428,122.588 35.681,157.84 79.168,157.84 C122.654,157.84 157.907,122.588 157.907,79.101 C157.907,35.615 122.654,0.361 79.168,0.361 C35.681,0.361 0.428,35.615 0.428,79.101 Z" id="path-23"></path>
        <path d="M0.428,79.101 C0.428,122.588 35.681,157.84 79.168,157.84 C122.654,157.84 157.907,122.588 157.907,79.101 C157.907,35.615 122.654,0.361 79.168,0.361 C35.681,0.361 0.428,35.615 0.428,79.101" id="path-25"></path>
        <path d="M0.428,79.101 C0.428,122.588 35.681,157.84 79.168,157.84 C122.654,157.84 157.907,122.588 157.907,79.101 C157.907,35.615 122.654,0.361 79.168,0.361 C35.681,0.361 0.428,35.615 0.428,79.101" id="path-27"></path>
        <path d="M0.428,79.101 C0.428,122.588 35.681,157.84 79.168,157.84 C122.654,157.84 157.907,122.588 157.907,79.101 C157.907,35.615 122.654,0.361 79.168,0.361 C35.681,0.361 0.428,35.615 0.428,79.101" id="path-29"></path>
        <path d="M0.75,39.0646552 L0.75,35.625 L0.494953416,35.625 C0.221598193,35.625 -2.44079396e-16,35.4034018 -2.77555756e-16,35.1300466 L-5.55111512e-17,31.6975396 C-8.89875112e-17,31.4241844 0.221598193,31.2025862 0.494953416,31.2025862 L0.75,31.2025862 L0.75,27.762931 L0.494953416,27.762931 C0.221598193,27.762931 -2.44079396e-16,27.5413328 -2.77555756e-16,27.2679776 L-5.55111512e-17,23.8354707 C-8.89875112e-17,23.5621154 0.221598193,23.3405172 0.494953416,23.3405172 L0.75,23.3405172 L0.75,19.9008621 L0.494953416,19.9008621 C0.221598193,19.9008621 -2.44079396e-16,19.6792639 -2.77555756e-16,19.4059087 L5.55111512e-17,15.9734017 C2.20347913e-17,15.7000465 0.221598193,15.4784483 0.494953416,15.4784483 L0.75,15.4784483 L0.75,11.0429692 C0.75,10.8084466 0.816647813,10.578753 0.942177124,10.3806539 L5.43245037,3.2945088 C5.55797968,3.09640974 5.62462749,2.86671608 5.62462749,2.63219349 L5.62462749,1.23738354 C5.62462749,0.553995481 6.17862297,1.2553635e-16 6.86201103,0 L12.5354913,0 C13.2188794,1.0884047e-15 13.7728748,0.553995481 13.7728748,1.23738354 L13.7728748,2.60830359 C13.7728748,2.85775342 13.8482688,3.10137902 13.9891676,3.3072254 L18.7837072,10.3118145 C18.9246061,10.5176608 19,10.7612864 19,11.0107363 L19,15.4784483 L19.5050466,15.4784483 C19.7784018,15.4784483 20,15.7000465 20,15.9734017 L20,19.4059087 C20,19.6792639 19.7784018,19.9008621 19.5050466,19.9008621 L19,19.9008621 L19,23.3405172 L19.5050466,23.3405172 C19.7784018,23.3405172 20,23.5621154 20,23.8354707 L20,27.2679776 C20,27.5413328 19.7784018,27.762931 19.5050466,27.762931 L19,27.762931 L19,31.2025862 L19.5050466,31.2025862 C19.7784018,31.2025862 20,31.4241844 20,31.6975396 L20,35.1300466 C20,35.4034018 19.7784018,35.625 19.5050466,35.625 L19,35.625 L19,39.0646552 L19.5050466,39.0646552 C19.7784018,39.0646552 20,39.2862534 20,39.5596086 L20,42.9921155 C20,43.2654708 19.7784018,43.487069 19.5050466,43.487069 L19,43.487069 L19,46.6745979 C19,46.8997064 18.9385919,47.1205504 18.8223887,47.3133473 L16.158403,51.7332624 C15.9344894,52.1047656 15.5323955,52.3318966 15.0986307,52.3318966 L4.47289495,52.3318966 C4.02547818,52.3318966 3.6129108,52.0903679 3.39389721,51.7002208 L0.908385793,47.272572 C0.804541048,47.0875847 0.75,46.8790058 0.75,46.6668642 L0.75,43.487069 L0.494953416,43.487069 C0.221598193,43.487069 -2.44079396e-16,43.2654708 -2.77555756e-16,42.9921155 L-5.55111512e-17,39.5596086 C-8.89875112e-17,39.2862534 0.221598193,39.0646552 0.494953416,39.0646552 L0.75,39.0646552 Z" id="path-31"></path>
        <linearGradient x1="50%" y1="0%" x2="50%" y2="100%" id="linearGradient-33">
            <stop stop-color="#38CBFE" offset="0%"></stop>
            <stop stop-color="#1A9CFC" offset="100%"></stop>
        </linearGradient>
        <rect id="path-34" x="0.128205128" y="0" width="9.74358974" height="5.15948276" rx="2.57974138"></rect>
    </defs>
    <g id="WasteAni_03_1" stroke="none" stroke-width="1" fill="none" fill-rule="evenodd">
        <rect fill="#FFFFFF" x="0" y="0" width="320" height="200"></rect>
        <rect id="Rectangle-22" fill="#DFD2BA" fill-rule="nonzero" x="0" y="0" width="320" height="200"></rect>
        <g id="Group" transform="translate(20.000000, 14.000000)">
            <g id="4">
                <path d="M157.9072,79.2361 C157.9072,122.7221 122.6542,157.9751 79.1682,157.9751 C35.6812,157.9751 0.4282,122.7221 0.4282,79.2361 C0.4282,35.7501 35.6812,0.4971 79.1682,0.4971 C122.6542,0.4971 157.9072,35.7501 157.9072,79.2361" id="Fill-1-Copy" fill="#D1E1E7"></path>
                <g id="Group-49" transform="translate(0.000000, 0.135000)">
                    <g id="Group-6">
                        <mask id="mask-2" fill="white">
                            <use xlink:href="#path-1"></use>
                        </mask>
                        <g id="Clip-5"></g>
                        <path d="M74.3359,109.3765 L85.6879,109.3765 C89.3029,109.3765 92.2329,112.3075 92.2329,115.9225 L92.2329,137.9355 C92.2329,141.5505 89.3029,144.4805 85.6879,144.4805 L74.3359,144.4805 C70.7209,144.4805 67.7899,141.5505 67.7899,137.9355 L67.7899,115.9225 C67.7899,112.3075 70.7209,109.3765 74.3359,109.3765" id="Fill-4" fill="#F7AC82" mask="url(#mask-2)"></path>
                    </g>
                    <g id="Group-9">
                        <mask id="mask-4" fill="white">
                            <use xlink:href="#path-3"></use>
                        </mask>
                        <g id="Clip-8"></g>
                        <path d="M103.57732,168.038 L56.4226799,168.038 C49.0097974,168.038 43,162.02 43,154.598 L43,134.441 C43,127.018 49.0097974,121 56.4226799,121 L103.57732,121 C110.991201,121 117,127.018 117,134.441 L117,154.598 C117,162.02 110.991201,168.038 103.57732,168.038" id="Fill-7" fill="#7B53A2" mask="url(#mask-4)"></path>
                        <rect id="Rectangle-Copy" fill="#FBCBA9" fill-rule="nonzero" mask="url(#mask-4)" x="100" y="139" width="17" height="24"></rect>
                    </g>
                    <g id="Group-12">
                        <mask id="mask-6" fill="white">
                            <use xlink:href="#path-5"></use>
                        </mask>
                        <g id="Clip-11"></g>
                        <path d="M74.4541,109.3765 L85.8071,109.3765 C89.4211,109.3765 92.3511,112.3075 92.3511,115.9225 L92.3511,137.9355 C92.3511,141.5505 89.4211,144.4805 85.8071,144.4805 L74.4541,144.4805 C70.8391,144.4805 67.9081,141.5505 67.9081,137.9355 L67.9081,115.9225 C67.9081,112.3075 70.8391,109.3765 74.4541,109.3765" id="Fill-10" fill="#F7AC82" mask="url(#mask-6)"></path>
                    </g>
                    <g id="Group-15">
                        <mask id="mask-8" fill="white">
                            <use xlink:href="#path-7"></use>
                        </mask>
                        <g id="Clip-14"></g>
                        <path d="M54.2539,31.8403 C54.2539,31.8403 33.5129,36.5513 24.3719,84.0113 L29.9969,84.0113 C29.9969,84.0113 30.2809,125.1423 33.4789,127.6033 C33.4789,127.6033 17.3409,138.8533 19.0989,143.7753 C20.8569,148.6963 31.6879,153.6173 33.4789,151.8613 C35.2699,150.1033 36.6089,129.3613 36.6089,129.3613 C36.6089,129.3613 34.5669,126.1963 50.3869,119.8693 C66.2059,113.5413 109.0959,120.9243 109.0959,120.9243 L121.7519,127.6033 C121.7519,127.6033 119.9939,151.8853 123.5099,152.2243 C127.0249,152.5633 136.8679,145.5323 136.1649,141.3143 C135.4619,137.0953 125.2669,126.9003 125.2669,126.9003 C125.2669,126.9003 128.0789,84.0113 125.6179,79.0893 C125.6179,79.0893 132.6499,81.9023 134.4069,80.8473 C134.4069,80.8473 135.1099,5.2633 52.8479,28.8183 L54.2539,31.8403 Z" id="Fill-13" fill="#EFBB37" mask="url(#mask-8)"></path>
                    </g>
                    <g id="Group-18">
                        <mask id="mask-10" fill="white">
                            <use xlink:href="#path-9"></use>
                        </mask>
                        <g id="Clip-17"></g>
                        <path d="M48.6816,95.1548 C48.6816,100.5838 44.2816,104.9838 38.8526,104.9838 C33.4236,104.9838 29.0236,100.5838 29.0236,95.1548 C29.0236,89.7258 33.4236,85.3258 38.8526,85.3258 C44.2816,85.3258 48.6816,89.7258 48.6816,95.1548" id="Fill-16" fill="#F7AC82" mask="url(#mask-10)"></path>
                    </g>
                    <g id="Group-21">
                        <mask id="mask-12" fill="white">
                            <use xlink:href="#path-11"></use>
                        </mask>
                        <g id="Clip-20"></g>
                        <path d="M130.3164,95.1548 C130.3164,100.5838 125.9154,104.9838 120.4874,104.9838 C115.0584,104.9838 110.6574,100.5838 110.6574,95.1548 C110.6574,89.7258 115.0584,85.3258 120.4874,85.3258 C125.9154,85.3258 130.3164,89.7258 130.3164,95.1548" id="Fill-19" fill="#F7AC82" mask="url(#mask-12)"></path>
                    </g>
                    <g id="Group-24">
                        <mask id="mask-14" fill="white">
                            <use xlink:href="#path-13"></use>
                        </mask>
                        <g id="Clip-23"></g>
                        <path d="M124.8574,83.8862 C124.8574,108.6542 104.7794,128.7322 80.0114,128.7322 C55.2444,128.7322 35.1664,108.6542 35.1664,83.8862 C35.1664,59.1182 55.2444,39.0402 80.0114,39.0402 C104.7794,39.0402 124.8574,59.1182 124.8574,83.8862" id="Fill-22" fill="#FBCBA9" mask="url(#mask-14)"></path>
                    </g>
                    <g id="Group-27">
                        <mask id="mask-16" fill="white">
                            <use xlink:href="#path-15"></use>
                        </mask>
                        <g id="Clip-26"></g>
                        <path d="M63.4775,87.5308 C63.4775,91.0888 60.5925,93.9728 57.0345,93.9728 C53.4765,93.9728 50.5915,91.0888 50.5915,87.5308 C50.5915,83.9718 53.4765,81.0888 57.0345,81.0888 C60.5925,81.0888 63.4775,83.9718 63.4775,87.5308" id="Fill-25" fill="#010202" mask="url(#mask-16)"></path>
                    </g>
                    <g id="Group-30">
                        <mask id="mask-18" fill="white">
                            <use xlink:href="#path-17"></use>
                        </mask>
                        <g id="Clip-29"></g>
                        <path d="M109.4316,87.5308 C109.4316,91.0888 106.5476,93.9728 102.9896,93.9728 C99.4316,93.9728 96.5466,91.0888 96.5466,87.5308 C96.5466,83.9718 99.4316,81.0888 102.9896,81.0888 C106.5476,81.0888 109.4316,83.9718 109.4316,87.5308" id="Fill-28" fill="#010202" mask="url(#mask-18)"></path>
                    </g>
                    <g id="Group-33">
                        <mask id="mask-20" fill="white">
                            <use xlink:href="#path-19"></use>
                        </mask>
                        <g id="Clip-32"></g>
                        <path d="M79.996,97.2769 C76.712,97.2769 74.05,94.6149 74.05,91.3309 L85.943,91.3309 C85.943,94.6149 83.281,97.2769 79.996,97.2769" id="Fill-31" fill="#F7AC82" mask="url(#mask-20)"></path>
                    </g>
                    <g id="Group-36">
                        <mask id="mask-22" fill="white">
                            <use xlink:href="#path-21"></use>
                        </mask>
                        <g id="Clip-35"></g>
                        <path d="M69.788,104.3765 L90.205,104.3765 C90.205,104.3765 87.592,114.9925 79.996,114.9925 C72.401,114.9925 69.788,104.3765 69.788,104.3765" id="Fill-34" fill="#CA583C" mask="url(#mask-22)"></path>
                    </g>
                    <g id="Group-39">
                        <mask id="mask-24" fill="white">
                            <use xlink:href="#path-23"></use>
                        </mask>
                        <g id="Clip-38"></g>
                        <path d="M34.999,85.1812 C34.999,85.1812 49.739,89.9612 64.479,44.5452 L64.479,29.5892 L49.739,40.5622 L29.023,78.8072 L34.999,85.1812 Z" id="Fill-37" fill="#EFBB37" mask="url(#mask-24)"></path>
                    </g>
                    <g id="Group-42">
                        <mask id="mask-26" fill="white">
                            <use xlink:href="#path-25"></use>
                        </mask>
                        <g id="Clip-41"></g>
                        <path d="M53.3359,29.3609 C53.3359,29.3609 62.6979,76.3559 137.3319,82.0779 C137.3319,82.0779 131.8709,3.6899 53.3359,29.3609" id="Fill-40" fill="#EFBB37" mask="url(#mask-26)"></path>
                    </g>
                    <g id="Group-45">
                        <mask id="mask-28" fill="white">
                            <use xlink:href="#path-27"></use>
                        </mask>
                        <g id="Clip-44"></g>
                        <path d="M36.3652,129.1851 L33.1442,128.1581 C32.7602,128.0351 32.5482,127.6231 32.6712,127.2381 L33.0042,126.1941 C33.1272,125.8091 33.5382,125.5961 33.9232,125.7191 L37.1432,126.7471 C37.5282,126.8701 37.7402,127.2821 37.6172,127.6661 L37.2842,128.7111 C37.1612,129.0961 36.7502,129.3081 36.3652,129.1851" id="Fill-43" fill="#7B53A2" mask="url(#mask-28)"></path>
                    </g>
                    <g id="Group-48">
                        <mask id="mask-30" fill="white">
                            <use xlink:href="#path-29"></use>
                        </mask>
                        <g id="Clip-47"></g>
                        <path d="M122.3212,129.2378 L125.5422,128.2098 C125.9262,128.0868 126.1382,127.6758 126.0152,127.2908 L125.6822,126.2458 C125.5592,125.8608 125.1482,125.6478 124.7632,125.7708 L121.5432,126.7998 C121.1582,126.9228 120.9462,127.3338 121.0692,127.7178 L121.4022,128.7628 C121.5252,129.1478 121.9362,129.3598 122.3212,129.2378" id="Fill-46" fill="#7B53A2" mask="url(#mask-30)"></path>
                    </g>
                </g>
                <g id="Group-54" transform="translate(18.000000, 128.135000)" fill="#EFBB37">
                    <path d="M15.0585,0.4302 C15.0585,0.4302 -7.3675,12.9102 3.9575,20.1202 C15.2845,27.3302 16.0335,25.4922 16.8495,18.7582 C17.6665,12.0242 19.2375,1.8682 17.9255,1.7362 C16.6155,1.6032 15.0585,0.4302 15.0585,0.4302" id="Fill-50"></path>
                    <path d="M107.6044,0.2212 C107.6044,0.2212 128.7914,14.7072 116.8524,20.8482 C104.9124,26.9882 103.5804,25.3112 103.3834,18.5302 C103.1884,11.7492 103.3114,1.2712 104.6294,1.2592 C105.9484,1.2472 107.6044,0.2212 107.6044,0.2212" id="Fill-52"></path>
                </g>
            </g>
            <g id="Group-22" transform="translate(69.000000, 119.000000)">
                <g id="Group-19" opacity="0.800000012" transform="translate(0.000000, 4.668103)">
                    <mask id="mask-32" fill="white">
                        <use xlink:href="#path-31"></use>
                    </mask>
                    <path stroke="#455A64" stroke-width="0.989906832" d="M0.255046584,38.5989718 L0.255046584,36.0906833 C-0.175742646,35.9834483 -0.494953416,35.5940253 -0.494953416,35.1300466 L-0.494953416,31.6975396 C-0.494953416,31.2335609 -0.175742646,30.8441379 0.255046584,30.7369029 L0.255046584,28.2286144 C-0.175742646,28.1213793 -0.494953416,27.7319563 -0.494953416,27.2679776 L-0.494953416,23.8354707 C-0.494953416,23.371492 -0.175742646,22.9820689 0.255046584,22.8748339 L0.255046584,20.3665454 C-0.175742646,20.2593104 -0.494953416,19.8698873 -0.494953416,19.4059087 L-0.494953416,15.9734017 C-0.494953416,15.509423 -0.175742646,15.12 0.255046584,15.0127649 L0.255046584,11.0429692 C0.255046584,10.7146376 0.348353521,10.3930665 0.524094558,10.1157278 L5.0143678,3.02958268 C5.08968539,2.91072324 5.12967407,2.77290705 5.12967407,2.63219349 L5.12967407,1.23738354 C5.12967407,0.280640258 5.90526775,-0.494953416 6.86201103,-0.494953416 L12.5354913,-0.494953416 C13.4922346,-0.494953416 14.2678283,0.280640258 14.2678283,1.23738354 L14.2678283,2.60830359 C14.2678283,2.75797349 14.3130646,2.90414885 14.3976039,3.02765667 L19.1921435,10.0322457 C19.3894019,10.3204307 19.4949534,10.6615065 19.4949534,11.0107363 L19.4949534,14.9834949 L19.5050466,14.9834949 C20.051757,14.9834949 20.4949534,15.4266912 20.4949534,15.9734017 L20.4949534,19.4059087 C20.4949534,19.9526191 20.051757,20.3958155 19.5050466,20.3958155 L19.4949534,20.3958155 L19.4949534,22.8455638 L19.5050466,22.8455638 C20.051757,22.8455638 20.4949534,23.2887602 20.4949534,23.8354707 L20.4949534,27.2679776 C20.4949534,27.8146881 20.051757,28.2578845 19.5050466,28.2578845 L19.4949534,28.2578845 L19.4949534,30.7076328 L19.5050466,30.7076328 C20.051757,30.7076328 20.4949534,31.1508292 20.4949534,31.6975396 L20.4949534,35.1300466 C20.4949534,35.676757 20.051757,36.1199534 19.5050466,36.1199534 L19.4949534,36.1199534 L19.4949534,38.5697018 L19.5050466,38.5697018 C20.051757,38.5697018 20.4949534,39.0128981 20.4949534,39.5596086 L20.4949534,42.9921155 C20.4949534,43.538826 20.051757,43.9820224 19.5050466,43.9820224 L19.4949534,43.9820224 L19.4949534,46.6745979 C19.4949534,46.9897498 19.4089821,47.2989314 19.2462976,47.5688471 L16.5823119,51.9887622 C16.2688328,52.5088666 15.7059014,52.82685 15.0986307,52.82685 L4.47289495,52.82685 C3.84651146,52.82685 3.26891714,52.4887099 2.96229811,51.9425039 L0.476786695,47.5148551 C0.33140405,47.2558729 0.255046584,46.9638624 0.255046584,46.6668642 L0.255046584,43.9527523 C-0.175742646,43.8455173 -0.494953416,43.4560942 -0.494953416,42.9921155 L-0.494953416,39.5596086 C-0.494953416,39.0956299 -0.175742646,38.7062069 0.255046584,38.5989718 Z"></path>
                    <path d="M-1,2.11694328 C3.63190063,2.85530442 7.13190063,3.22448499 9.5,3.22448499 C11.8680994,3.22448499 15.3680994,2.85530442 20,2.11694328 L20,55.1169433 L-1,55.1169433 L-1,2.11694328 Z" id="Rectangle" fill="url(#linearGradient-33)" fill-rule="nonzero" opacity="0.699999988" mask="url(#mask-32)"></path>
                    <path d="M24.75,9.18417728 C24.389963,3.93527725 15.5428967,5.75220087 15.4012613,5.01208359 C14.8886773,2.33356899 19.1970485,9.8485802 19.1970485,30.9275162 C19.1970485,52.0064522 14.0526284,52.0064522 10.6519441,52.0064522 C3.19354174,52.0064522 2.80769075,41.8034333 2.80769075,30.9275162 C2.80769075,21.9594164 2.80769031,32.7520692 2.80769035,19.0550453 C2.8076904,5.3580213 10.5738611,0.302682712 10.6519441,-8.60103575 C12.2779482,-10.567047 -18.8143551,-8.19012616 -17.1883509,-6.15213546 C-17.1883504,6.70097064 -9.34409711,3.63019745 -9.34409713,17.3272214 C-9.34409715,31.0242454 -9.34409713,36.5931862 -9.34409713,43.0630393 C-9.34409713,55.1018324 -11.9790574,56.8959832 -11.9790574,56.8959832 C-12.4635264,57.5333888 -12.1959453,58.0501083 -11.3649054,58.0501084 L25.187501,58.0501118 C25.187501,58.0501118 24.6677391,52.585013 25.187501,52.0064522 C25.6625301,51.4776846 25.6929515,22.9312604 24.75,9.18417728 Z" id="Mask" fill="#EAF2F9" style="mix-blend-mode: multiply;" mask="url(#mask-32)"></path>
                    <path d="M1.28501004,52.685996 C4.17628263,52.685996 7.36375339,50.612069 9.95527054,50.612069 C12.5467877,50.612069 15.5329788,52.685996 18.6255319,52.685996 C21.7180851,52.685996 18.6255319,53.3146552 18.6255319,53.3146552 L1.28501004,53.3146552 C1.28501004,53.3146552 -1.60626255,52.685996 1.28501004,52.685996 Z" id="Rectangle-8" fill="#EAF2F9" opacity="0.3" style="mix-blend-mode: multiply;" mask="url(#mask-32)"></path>
                    <path d="M1.28501004,53.1773753 C4.17628263,53.1773753 7.36375339,51.1034483 9.95527054,51.1034483 C12.5467877,51.1034483 15.5329788,53.1773753 18.6255319,53.1773753 C21.7180851,53.1773753 18.6255319,53.8060345 18.6255319,53.8060345 L1.28501004,53.8060345 C1.28501004,53.8060345 -1.60626255,53.1773753 1.28501004,53.1773753 Z" id="Rectangle-8" fill="#5E7888" opacity="0.3" style="mix-blend-mode: multiply;" mask="url(#mask-32)"></path>
                    <rect id="reflect" fill="#FFFFFF" opacity="0.7" mask="url(#mask-32)" x="13" y="-11.7931034" width="2.5" height="69.7758621" rx="1.25"></rect>
                </g>
                <g id="Mask-+-Line" transform="translate(4.750000, 0.000000)">
                    <mask id="mask-35" fill="white">
                        <use xlink:href="#path-34"></use>
                    </mask>
                    <rect stroke="#455A64" stroke-width="0.989906832" x="-0.366748288" y="-0.494953416" width="10.7334966" height="6.14938959" rx="3.0746948"></rect>
                    <path d="M0.128205128,3.80818966 L9.87179487,3.80818966" id="Line" stroke="#5E7888" stroke-width="0.742430124" stroke-linecap="square" mask="url(#mask-35)"></path>
                    <path d="M0.128205128,2.33405172 L9.87179487,2.33405172" id="Line" stroke="#98AFC3" stroke-width="0.5" stroke-linecap="square" mask="url(#mask-35)"></path>
                    <path d="M0.128205128,1.59698276 L9.87179487,1.59698276" id="Line" stroke="#98AFC3" stroke-width="0.5" stroke-linecap="square" mask="url(#mask-35)"></path>
                    <path d="M0.128205128,0.859913793 L9.87179487,0.859913793" id="Line" stroke="#98AFC3" stroke-width="0.5" stroke-linecap="square" mask="url(#mask-35)"></path>
                </g>
            </g>
            <path d="M43,152.084165 C43,147.209604 43,143.181549 43,140 L59.8666656,140 C59.8666656,141.548526 59.8666656,144.973496 59.8666656,150.27491 C59.8666656,155.556181 61.0764597,161.977134 66.4820014,161.977134 C74.6487702,161.977134 73.3391737,163.71606 69.0093337,164.780046 C71.3326394,167.76389 75.7255333,171.32308 73.2827405,172.866806 C70.8399476,174.410532 67.2604898,179.48075 57.4227227,172.085946 C47.5849557,164.691142 43,159.196847 43,152.084165 Z" id="Rectangle-Copy-2" fill="#FBCBA9" fill-rule="nonzero"></path>
        </g>
        <rect id="Rectangle-22-Copy" stroke-opacity="0.2" stroke="#000000" stroke-width="8" fill-opacity="0" fill="#FFFFFF" fill-rule="nonzero" x="4" y="4" width="312" height="192"></rect>
        <g id="supermarket" transform="translate(195.000000, 60.000000)">
            <path d="M91.6603516,78.8475624 L91.6603516,30.610423 C91.6603516,28.8292718 90.2203125,27.3720562 88.4601562,27.3720562 L11.5384766,27.3720562 C9.77832031,27.3720562 8.33828125,28.8292718 8.33828125,30.610423 L8.33828125,78.8475624 L91.6603516,78.8475624 L91.6603516,78.8475624 Z" id="Shape" fill="#D1D3D3"></path>
            <rect id="Rectangle-path" fill="#000000" opacity="0.1" x="8.33769531" y="67.6365083" width="9.24433594" height="4.5018932"></rect>
            <rect id="Rectangle-path" fill="#000000" opacity="0.1" x="12.9603516" y="55.1299098" width="9.24433594" height="4.5018932"></rect>
            <rect id="Rectangle-path" fill="#000000" opacity="0.1" x="66.3195313" y="55.8509085" width="9.24433594" height="4.50169556"></rect>
            <rect id="Rectangle-path" fill="#000000" opacity="0.1" x="82.4167969" y="58.1004716" width="9.24433594" height="4.50169556"></rect>
            <rect id="Rectangle-path" fill="#000000" opacity="0.1" x="74.7832031" y="68.5002046" width="9.24433594" height="4.5018932"></rect>
            <rect id="Rectangle-path" fill="#000000" opacity="0.1" x="25.9390625" y="60.8791227" width="9.24433594" height="4.50169556"></rect>
            <path d="M88.4601562,27.3720562 L11.5384766,27.3720562 C9.77832031,27.3720562 8.33828125,28.8292718 8.33828125,30.610423 L8.33828125,53.1098093 L91.6605469,53.1098093 L91.6605469,30.6106207 C91.6603516,28.8294695 90.2203125,27.3720562 88.4601562,27.3720562 L88.4601562,27.3720562 Z" id="Shape" fill="#0071CE"></path>
            <rect id="Rectangle-path" fill="#FFFFFF" x="30.5623047" y="53.1090187" width="38.8744141" height="25.738939"></rect>
            <rect id="Rectangle-path" fill="#00B3E3" x="48.3982422" y="53.1090187" width="3.20019531" height="23.3035922"></rect>
            <rect id="Rectangle-path" fill="#000000" opacity="0.1" x="30.5623047" y="53.1090187" width="38.8744141" height="4.54458391"></rect>
            <g id="Group-8" transform="translate(25.714286, 0.000000)">
                <rect id="Rectangle-path" fill="#00B3E3" transform="translate(8.290503, 5.867625) rotate(209.695136) translate(-8.290503, -5.867625) " x="2.90733162" y="4.24829347" width="10.7663432" height="3.23866303"></rect>
                <path d="M4.40544085,1.76395631 L2.81989397,4.57679958 L6.8437221,6.89909501 C7.65192522,6.18145631 8.22458147,5.19957004 8.43005022,4.08664702 L4.40544085,1.76395631 L4.40544085,1.76395631 Z" id="Shape" fill="#000000" opacity="0.2"></path>
                <path d="M42.904269,7.89975728 C43.3784877,6.60480583 42.6497768,5.54524619 41.2847377,5.54524619 L12.5915737,5.54524619 C11.2267299,5.54524619 10.2095424,6.67062067 10.3308315,8.04660541 L11.2831752,18.8262067 C11.4048549,20.2015985 12.6208705,21.3271706 13.9857143,21.3271706 L35.5083705,21.3271706 C36.8732143,21.3271706 38.3779018,20.267611 38.8519252,18.9726595 L42.904269,7.89975728 L42.904269,7.89975728 Z" id="Shape" fill="#A4A9AD"></path>
                <ellipse id="Oval" fill="#333E48" cx="16.9726283" cy="24.3499098" rx="2.98691406" ry="3.02254161"></ellipse>
                <ellipse id="Oval" fill="#333E48" cx="3.61266741" cy="3.17057559" rx="2.98691406" ry="3.02254161"></ellipse>
                <ellipse id="Oval" fill="#333E48" cx="30.8404018" cy="24.3499098" rx="2.98691406" ry="3.02254161"></ellipse>
                <path d="M11.1845424,17.7069591 L39.3152065,17.7069591 L40.5003627,14.4685922 L10.8982143,14.4685922 L11.1845424,17.7069591 L11.1845424,17.7069591 Z M10.4116908,8.96326976 L10.6978237,12.2016366 L41.3298549,12.2016366 L42.5150112,8.96326976 L10.4116908,8.96326976 L10.4116908,8.96326976 Z" id="Shape" fill="#000000" opacity="0.2"></path>
            </g>
            <path d="M84.0283203,38.4329022 L44.5005859,38.4329022 C43.6167969,38.4329022 42.9003906,37.7081484 42.9003906,36.81362 C42.9003906,35.9190915 43.6167969,35.1943377 44.5005859,35.1943377 L84.0283203,35.1943377 C84.9123047,35.1943377 85.6285156,35.9190915 85.6285156,36.81362 C85.6285156,37.7081484 84.9119141,38.4329022 84.0283203,38.4329022 L84.0283203,38.4329022 Z" id="Shape" fill="#00B3E3"></path>
            <path d="M84.0283203,45.1104404 L44.5005859,45.1104404 C43.6167969,45.1104404 42.9003906,44.3856865 42.9003906,43.4911581 C42.9003906,42.5966297 43.6167969,41.8718759 44.5005859,41.8718759 L84.0283203,41.8718759 C84.9123047,41.8718759 85.6285156,42.5966297 85.6285156,43.4911581 C85.6285156,44.3856865 84.9119141,45.1104404 84.0283203,45.1104404 L84.0283203,45.1104404 Z" id="Shape" fill="#FFB819"></path>
            <path d="M99.0144531,68.9729646 C99.0144531,64.8629958 95.721875,50.7450208 91.6603516,50.7450208 C87.5990234,50.7450208 84.30625,64.8629958 84.30625,68.9729646 C84.30625,73.0829334 87.5990234,76.4145874 91.6603516,76.4145874 C95.721875,76.4145874 99.0144531,73.0829334 99.0144531,68.9729646 L99.0144531,68.9729646 Z" id="Shape" fill="#00AD68"></path>
            <path d="M15.6921875,68.9729646 C15.6921875,64.8629958 12.3996094,50.7450208 8.33808594,50.7450208 C4.27675781,50.7450208 0.983984375,64.8629958 0.983984375,68.9729646 C0.983984375,73.0829334 4.27675781,76.4145874 8.33808594,76.4145874 C12.3998047,76.4145874 15.6921875,73.0829334 15.6921875,68.9729646 L15.6921875,68.9729646 Z" id="Shape" fill="#00AD68"></path>
            <rect id="Rectangle-path" fill="#00B3E3" x="25.0494141" y="27.3724515" width="7.26445312" height="25.738939"></rect>
            <rect id="Rectangle-path" fill="#FFB819" x="17.7847656" y="27.3724515" width="7.26445313" height="25.738939"></rect>
        </g>
    </g>
</svg>