<?xml version="1.0" encoding="UTF-8"?>
<svg width="320px" height="200px" viewBox="0 0 320 200" version="1.1" xmlns="http://www.w3.org/2000/svg" xmlns:xlink="http://www.w3.org/1999/xlink">
    <!-- Generator: Sketch 51.2 (57519) - http://www.bohemiancoding.com/sketch -->
    <title>WasteAni_01_4</title>
    <desc>Created with Sketch.</desc>
    <defs>
        <path d="M0.428,79.101 C0.428,122.588 35.681,157.84 79.168,157.84 C122.654,157.84 157.907,122.588 157.907,79.101 C157.907,35.615 122.654,0.361 79.168,0.361 C35.681,0.361 0.428,35.615 0.428,79.101" id="path-1"></path>
        <path d="M0.428,79.101 C0.428,122.588 35.681,157.84 79.168,157.84 C122.654,157.84 157.907,122.588 157.907,79.101 C157.907,35.615 122.654,0.361 79.168,0.361 C35.681,0.361 0.428,35.615 0.428,79.101" id="path-3"></path>
        <path d="M0.428,79.101 C0.428,122.588 35.681,157.84 79.168,157.84 C122.654,157.84 157.907,122.588 157.907,79.101 C157.907,35.615 122.654,0.361 79.168,0.361 C35.681,0.361 0.428,35.615 0.428,79.101" id="path-5"></path>
        <path d="M0.428,79.101 C0.428,122.588 35.681,157.84 79.168,157.84 C122.654,157.84 157.907,122.588 157.907,79.101 C157.907,35.615 122.654,0.361 79.168,0.361 C35.681,0.361 0.428,35.615 0.428,79.101 Z" id="path-7"></path>
        <path d="M0.428,79.101 C0.428,122.588 35.681,157.84 79.168,157.84 C122.654,157.84 157.907,122.588 157.907,79.101 C157.907,35.615 122.654,0.361 79.168,0.361 C35.681,0.361 0.428,35.615 0.428,79.101" id="path-9"></path>
        <path d="M0.428,79.101 C0.428,122.588 35.681,157.84 79.168,157.84 C122.654,157.84 157.907,122.588 157.907,79.101 C157.907,35.615 122.654,0.361 79.168,0.361 C35.681,0.361 0.428,35.615 0.428,79.101" id="path-11"></path>
        <path d="M0.428,79.101 C0.428,122.588 35.681,157.84 79.168,157.84 C122.654,157.84 157.907,122.588 157.907,79.101 C157.907,35.615 122.654,0.361 79.168,0.361 C35.681,0.361 0.428,35.615 0.428,79.101" id="path-13"></path>
        <path d="M0.428,79.101 C0.428,122.588 35.681,157.84 79.168,157.84 C122.654,157.84 157.907,122.588 157.907,79.101 C157.907,35.615 122.654,0.361 79.168,0.361 C35.681,0.361 0.428,35.615 0.428,79.101" id="path-15"></path>
        <path d="M0.428,79.101 C0.428,122.588 35.681,157.84 79.168,157.84 C122.654,157.84 157.907,122.588 157.907,79.101 C157.907,35.615 122.654,0.361 79.168,0.361 C35.681,0.361 0.428,35.615 0.428,79.101" id="path-17"></path>
        <path d="M0.428,79.101 C0.428,122.588 35.681,157.84 79.168,157.84 C122.654,157.84 157.907,122.588 157.907,79.101 C157.907,35.615 122.654,0.361 79.168,0.361 C35.681,0.361 0.428,35.615 0.428,79.101" id="path-19"></path>
        <path d="M0.428,79.101 C0.428,122.588 35.681,157.84 79.168,157.84 C122.654,157.84 157.907,122.588 157.907,79.101 C157.907,35.615 122.654,0.361 79.168,0.361 C35.681,0.361 0.428,35.615 0.428,79.101" id="path-21"></path>
        <path d="M0.428,79.101 C0.428,122.588 35.681,157.84 79.168,157.84 C122.654,157.84 157.907,122.588 157.907,79.101 C157.907,35.615 122.654,0.361 79.168,0.361 C35.681,0.361 0.428,35.615 0.428,79.101 Z" id="path-23"></path>
        <path d="M0.428,79.101 C0.428,122.588 35.681,157.84 79.168,157.84 C122.654,157.84 157.907,122.588 157.907,79.101 C157.907,35.615 122.654,0.361 79.168,0.361 C35.681,0.361 0.428,35.615 0.428,79.101" id="path-25"></path>
        <path d="M0.428,79.101 C0.428,122.588 35.681,157.84 79.168,157.84 C122.654,157.84 157.907,122.588 157.907,79.101 C157.907,35.615 122.654,0.361 79.168,0.361 C35.681,0.361 0.428,35.615 0.428,79.101" id="path-27"></path>
        <path d="M0.428,79.101 C0.428,122.588 35.681,157.84 79.168,157.84 C122.654,157.84 157.907,122.588 157.907,79.101 C157.907,35.615 122.654,0.361 79.168,0.361 C35.681,0.361 0.428,35.615 0.428,79.101" id="path-29"></path>
    </defs>
    <g id="WasteAni_01_4" stroke="none" stroke-width="1" fill="none" fill-rule="evenodd">
        <rect id="Rectangle-22" fill="#DFD2BA" fill-rule="nonzero" x="0" y="0" width="320" height="200"></rect>
        <g id="Group" transform="translate(81.000000, 14.000000)">
            <g id="4">
                <path d="M157.9072,79.2361 C157.9072,122.7221 122.6542,157.9751 79.1682,157.9751 C35.6812,157.9751 0.4282,122.7221 0.4282,79.2361 C0.4282,35.7501 35.6812,0.4971 79.1682,0.4971 C122.6542,0.4971 157.9072,35.7501 157.9072,79.2361" id="Fill-1-Copy" fill="#D1E1E7"></path>
                <g id="Group-49" transform="translate(0.000000, 0.135000)">
                    <g id="Group-6">
                        <mask id="mask-2" fill="white">
                            <use xlink:href="#path-1"></use>
                        </mask>
                        <g id="Clip-5"></g>
                        <path d="M74.3359,109.3765 L85.6879,109.3765 C89.3029,109.3765 92.2329,112.3075 92.2329,115.9225 L92.2329,137.9355 C92.2329,141.5505 89.3029,144.4805 85.6879,144.4805 L74.3359,144.4805 C70.7209,144.4805 67.7899,141.5505 67.7899,137.9355 L67.7899,115.9225 C67.7899,112.3075 70.7209,109.3765 74.3359,109.3765" id="Fill-4" fill="#F7AC82" mask="url(#mask-2)"></path>
                    </g>
                    <g id="Group-9">
                        <mask id="mask-4" fill="white">
                            <use xlink:href="#path-3"></use>
                        </mask>
                        <g id="Clip-8"></g>
                        <path d="M103.57732,168.038 L56.4226799,168.038 C49.0097974,168.038 43,162.02 43,154.598 L43,134.441 C43,127.018 49.0097974,121 56.4226799,121 L103.57732,121 C110.991201,121 117,127.018 117,134.441 L117,154.598 C117,162.02 110.991201,168.038 103.57732,168.038" id="Fill-7" fill="#7B53A2" mask="url(#mask-4)"></path>
                        <rect id="Rectangle-Copy" fill="#FBCBA9" fill-rule="nonzero" mask="url(#mask-4)" x="100" y="139" width="17" height="24"></rect>
                    </g>
                    <g id="Group-12">
                        <mask id="mask-6" fill="white">
                            <use xlink:href="#path-5"></use>
                        </mask>
                        <g id="Clip-11"></g>
                        <path d="M74.4541,109.3765 L85.8071,109.3765 C89.4211,109.3765 92.3511,112.3075 92.3511,115.9225 L92.3511,137.9355 C92.3511,141.5505 89.4211,144.4805 85.8071,144.4805 L74.4541,144.4805 C70.8391,144.4805 67.9081,141.5505 67.9081,137.9355 L67.9081,115.9225 C67.9081,112.3075 70.8391,109.3765 74.4541,109.3765" id="Fill-10" fill="#F7AC82" mask="url(#mask-6)"></path>
                    </g>
                    <g id="Group-15">
                        <mask id="mask-8" fill="white">
                            <use xlink:href="#path-7"></use>
                        </mask>
                        <g id="Clip-14"></g>
                        <path d="M54.2539,31.8403 C54.2539,31.8403 33.5129,36.5513 24.3719,84.0113 L29.9969,84.0113 C29.9969,84.0113 30.2809,125.1423 33.4789,127.6033 C33.4789,127.6033 17.3409,138.8533 19.0989,143.7753 C20.8569,148.6963 31.6879,153.6173 33.4789,151.8613 C35.2699,150.1033 36.6089,129.3613 36.6089,129.3613 C36.6089,129.3613 34.5669,126.1963 50.3869,119.8693 C66.2059,113.5413 109.0959,120.9243 109.0959,120.9243 L121.7519,127.6033 C121.7519,127.6033 119.9939,151.8853 123.5099,152.2243 C127.0249,152.5633 136.8679,145.5323 136.1649,141.3143 C135.4619,137.0953 125.2669,126.9003 125.2669,126.9003 C125.2669,126.9003 128.0789,84.0113 125.6179,79.0893 C125.6179,79.0893 132.6499,81.9023 134.4069,80.8473 C134.4069,80.8473 135.1099,5.2633 52.8479,28.8183 L54.2539,31.8403 Z" id="Fill-13" fill="#EFBB37" mask="url(#mask-8)"></path>
                    </g>
                    <g id="Group-18">
                        <mask id="mask-10" fill="white">
                            <use xlink:href="#path-9"></use>
                        </mask>
                        <g id="Clip-17"></g>
                        <path d="M48.6816,95.1548 C48.6816,100.5838 44.2816,104.9838 38.8526,104.9838 C33.4236,104.9838 29.0236,100.5838 29.0236,95.1548 C29.0236,89.7258 33.4236,85.3258 38.8526,85.3258 C44.2816,85.3258 48.6816,89.7258 48.6816,95.1548" id="Fill-16" fill="#F7AC82" mask="url(#mask-10)"></path>
                    </g>
                    <g id="Group-21">
                        <mask id="mask-12" fill="white">
                            <use xlink:href="#path-11"></use>
                        </mask>
                        <g id="Clip-20"></g>
                        <path d="M130.3164,95.1548 C130.3164,100.5838 125.9154,104.9838 120.4874,104.9838 C115.0584,104.9838 110.6574,100.5838 110.6574,95.1548 C110.6574,89.7258 115.0584,85.3258 120.4874,85.3258 C125.9154,85.3258 130.3164,89.7258 130.3164,95.1548" id="Fill-19" fill="#F7AC82" mask="url(#mask-12)"></path>
                    </g>
                    <g id="Group-24">
                        <mask id="mask-14" fill="white">
                            <use xlink:href="#path-13"></use>
                        </mask>
                        <g id="Clip-23"></g>
                        <path d="M124.8574,83.8862 C124.8574,108.6542 104.7794,128.7322 80.0114,128.7322 C55.2444,128.7322 35.1664,108.6542 35.1664,83.8862 C35.1664,59.1182 55.2444,39.0402 80.0114,39.0402 C104.7794,39.0402 124.8574,59.1182 124.8574,83.8862" id="Fill-22" fill="#FBCBA9" mask="url(#mask-14)"></path>
                    </g>
                    <g id="Group-27">
                        <mask id="mask-16" fill="white">
                            <use xlink:href="#path-15"></use>
                        </mask>
                        <g id="Clip-26"></g>
                        <path d="M63.4775,87.5308 C63.4775,91.0888 60.5925,93.9728 57.0345,93.9728 C53.4765,93.9728 50.5915,91.0888 50.5915,87.5308 C50.5915,83.9718 53.4765,81.0888 57.0345,81.0888 C60.5925,81.0888 63.4775,83.9718 63.4775,87.5308" id="Fill-25" fill="#010202" mask="url(#mask-16)"></path>
                    </g>
                    <g id="Group-30">
                        <mask id="mask-18" fill="white">
                            <use xlink:href="#path-17"></use>
                        </mask>
                        <g id="Clip-29"></g>
                        <path d="M109.4316,87.5308 C109.4316,91.0888 106.5476,93.9728 102.9896,93.9728 C99.4316,93.9728 96.5466,91.0888 96.5466,87.5308 C96.5466,83.9718 99.4316,81.0888 102.9896,81.0888 C106.5476,81.0888 109.4316,83.9718 109.4316,87.5308" id="Fill-28" fill="#010202" mask="url(#mask-18)"></path>
                    </g>
                    <g id="Group-33">
                        <mask id="mask-20" fill="white">
                            <use xlink:href="#path-19"></use>
                        </mask>
                        <g id="Clip-32"></g>
                        <path d="M79.996,97.2769 C76.712,97.2769 74.05,94.6149 74.05,91.3309 L85.943,91.3309 C85.943,94.6149 83.281,97.2769 79.996,97.2769" id="Fill-31" fill="#F7AC82" mask="url(#mask-20)"></path>
                    </g>
                    <g id="Group-36">
                        <mask id="mask-22" fill="white">
                            <use xlink:href="#path-21"></use>
                        </mask>
                        <g id="Clip-35"></g>
                        <path d="M69.788,104.3765 L90.205,104.3765 C90.205,104.3765 87.592,114.9925 79.996,114.9925 C72.401,114.9925 69.788,104.3765 69.788,104.3765" id="Fill-34" fill="#CA583C" mask="url(#mask-22)"></path>
                    </g>
                    <g id="Group-39">
                        <mask id="mask-24" fill="white">
                            <use xlink:href="#path-23"></use>
                        </mask>
                        <g id="Clip-38"></g>
                        <path d="M34.999,85.1812 C34.999,85.1812 49.739,89.9612 64.479,44.5452 L64.479,29.5892 L49.739,40.5622 L29.023,78.8072 L34.999,85.1812 Z" id="Fill-37" fill="#EFBB37" mask="url(#mask-24)"></path>
                    </g>
                    <g id="Group-42">
                        <mask id="mask-26" fill="white">
                            <use xlink:href="#path-25"></use>
                        </mask>
                        <g id="Clip-41"></g>
                        <path d="M53.3359,29.3609 C53.3359,29.3609 62.6979,76.3559 137.3319,82.0779 C137.3319,82.0779 131.8709,3.6899 53.3359,29.3609" id="Fill-40" fill="#EFBB37" mask="url(#mask-26)"></path>
                    </g>
                    <g id="Group-45">
                        <mask id="mask-28" fill="white">
                            <use xlink:href="#path-27"></use>
                        </mask>
                        <g id="Clip-44"></g>
                        <path d="M36.3652,129.1851 L33.1442,128.1581 C32.7602,128.0351 32.5482,127.6231 32.6712,127.2381 L33.0042,126.1941 C33.1272,125.8091 33.5382,125.5961 33.9232,125.7191 L37.1432,126.7471 C37.5282,126.8701 37.7402,127.2821 37.6172,127.6661 L37.2842,128.7111 C37.1612,129.0961 36.7502,129.3081 36.3652,129.1851" id="Fill-43" fill="#7B53A2" mask="url(#mask-28)"></path>
                    </g>
                    <g id="Group-48">
                        <mask id="mask-30" fill="white">
                            <use xlink:href="#path-29"></use>
                        </mask>
                        <g id="Clip-47"></g>
                        <path d="M122.3212,129.2378 L125.5422,128.2098 C125.9262,128.0868 126.1382,127.6758 126.0152,127.2908 L125.6822,126.2458 C125.5592,125.8608 125.1482,125.6478 124.7632,125.7708 L121.5432,126.7998 C121.1582,126.9228 120.9462,127.3338 121.0692,127.7178 L121.4022,128.7628 C121.5252,129.1478 121.9362,129.3598 122.3212,129.2378" id="Fill-46" fill="#7B53A2" mask="url(#mask-30)"></path>
                    </g>
                </g>
                <g id="Group-54" transform="translate(18.000000, 128.135000)" fill="#EFBB37">
                    <path d="M15.0585,0.4302 C15.0585,0.4302 -7.3675,12.9102 3.9575,20.1202 C15.2845,27.3302 16.0335,25.4922 16.8495,18.7582 C17.6665,12.0242 19.2375,1.8682 17.9255,1.7362 C16.6155,1.6032 15.0585,0.4302 15.0585,0.4302" id="Fill-50"></path>
                    <path d="M107.6044,0.2212 C107.6044,0.2212 128.7914,14.7072 116.8524,20.8482 C104.9124,26.9882 103.5804,25.3112 103.3834,18.5302 C103.1884,11.7492 103.3114,1.2712 104.6294,1.2592 C105.9484,1.2472 107.6044,0.2212 107.6044,0.2212" id="Fill-52"></path>
                </g>
            </g>
            <path d="M43,152 C43,147.149977 43,143.142199 43,139.976666 L60,139.976666 C60,141.517397 60,144.925126 60,150.199852 C60,155.454538 61.2193577,161.843169 66.6676313,161.843169 C74.8989601,161.843169 73.579011,163.573341 69.2149427,164.631971 C71.5566146,167.600794 75.9842352,171.142068 73.5221316,172.678023 C71.060028,174.213978 67.4522738,179.258673 57.5367372,171.901094 C47.6212007,164.543515 43,159.076877 43,152 Z" id="Rectangle-Copy-2" fill="#FBCBA9" fill-rule="nonzero"></path>
        </g>
        <rect id="Rectangle-22-Copy" stroke-opacity="0.2" stroke="#000000" stroke-width="8" fill-opacity="0" fill="#FFFFFF" fill-rule="nonzero" x="4" y="4" width="312" height="192"></rect>
    </g>
</svg>