<?xml version="1.0" encoding="UTF-8"?>
<svg width="320px" height="200px" viewBox="0 0 320 200" version="1.1" xmlns="http://www.w3.org/2000/svg" xmlns:xlink="http://www.w3.org/1999/xlink">
    <!-- Generator: Sketch 51.2 (57519) - http://www.bohemiancoding.com/sketch -->
    <title>ZeroWasteAni_02_2</title>
    <desc>Created with Sketch.</desc>
    <defs>
        <polygon id="path-1" points="0 0.638 126.166513 0.638 126.166513 127.0036 0 127.0036"></polygon>
        <path d="M63.5750818,0.7304 C28.5694088,0.7304 0.190899371,29.1528 0.190899371,64.2128 C0.190899371,99.2752 28.5694088,127.6976 63.5750818,127.6976 C98.5815535,127.6976 126.959264,99.2752 126.959264,64.2128" id="path-3"></path>
        <path d="M63.5750818,0.7304 C28.5694088,0.7304 0.190899371,29.1528 0.190899371,64.2128 C0.190899371,99.2752 28.5694088,127.6976 63.5750818,127.6976 C98.5815535,127.6976 126.959264,99.2752 126.959264,64.2128 C126.959264,29.1528 98.5815535,0.7304 63.5750818,0.7304 Z" id="path-5"></path>
        <path d="M63.5750818,0.7304 C28.5694088,0.7304 0.190899371,29.1528 0.190899371,64.2128 C0.190899371,99.2752 28.5694088,127.6976 63.5750818,127.6976 C98.5815535,127.6976 126.959264,99.2752 126.959264,64.2128 C126.959264,29.1528 98.5815535,0.7304 63.5750818,0.7304 Z" id="path-7"></path>
        <path d="M63.5750818,0.7304 C28.5694088,0.7304 0.190899371,29.1528 0.190899371,64.2128 C0.190899371,99.2752 28.5694088,127.6976 63.5750818,127.6976 C98.5815535,127.6976 126.959264,99.2752 126.959264,64.2128" id="path-9"></path>
        <path d="M63.5750818,0.7304 C28.5694088,0.7304 0.190899371,29.1528 0.190899371,64.2128 C0.190899371,99.2752 28.5694088,127.6976 63.5750818,127.6976 C98.5815535,127.6976 126.959264,99.2752 126.959264,64.2128" id="path-11"></path>
        <path d="M63.5750818,0.7304 C28.5694088,0.7304 0.190899371,29.1528 0.190899371,64.2128 C0.190899371,99.2752 28.5694088,127.6976 63.5750818,127.6976 C98.5815535,127.6976 126.959264,99.2752 126.959264,64.2128" id="path-13"></path>
        <path d="M63.5750818,0.7304 C28.5694088,0.7304 0.190899371,29.1528 0.190899371,64.2128 C0.190899371,99.2752 28.5694088,127.6976 63.5750818,127.6976 C98.5815535,127.6976 126.959264,99.2752 126.959264,64.2128" id="path-15"></path>
        <path d="M63.5750818,0.7304 C28.5694088,0.7304 0.190899371,29.1528 0.190899371,64.2128 C0.190899371,99.2752 28.5694088,127.6976 63.5750818,127.6976 C98.5815535,127.6976 126.959264,99.2752 126.959264,64.2128" id="path-17"></path>
        <path d="M63.5750818,0.7304 C28.5694088,0.7304 0.190899371,29.1528 0.190899371,64.2128 C0.190899371,99.2752 28.5694088,127.6976 63.5750818,127.6976 C98.5815535,127.6976 126.959264,99.2752 126.959264,64.2128" id="path-19"></path>
        <path d="M63.5750818,0.7304 C28.5694088,0.7304 0.190899371,29.1528 0.190899371,64.2128 C0.190899371,99.2752 28.5694088,127.6976 63.5750818,127.6976 C98.5815535,127.6976 126.959264,99.2752 126.959264,64.2128" id="path-21"></path>
        <path d="M63.5750818,0.7304 C28.5694088,0.7304 0.190899371,29.1528 0.190899371,64.2128 C0.190899371,99.2752 28.5694088,127.6976 63.5750818,127.6976 C98.5815535,127.6976 126.959264,99.2752 126.959264,64.2128" id="path-23"></path>
        <path d="M63.5750818,0.7304 C28.5694088,0.7304 0.190899371,29.1528 0.190899371,64.2128 C0.190899371,99.2752 28.5694088,127.6976 63.5750818,127.6976 C98.5815535,127.6976 126.959264,99.2752 126.959264,64.2128" id="path-25"></path>
        <path d="M63.5750818,0.7304 C28.5694088,0.7304 0.190899371,29.1528 0.190899371,64.2128 C0.190899371,99.2752 28.5694088,127.6976 63.5750818,127.6976 C98.5815535,127.6976 126.959264,99.2752 126.959264,64.2128 C126.959264,29.1528 98.5815535,0.7304 63.5750818,0.7304 Z" id="path-27"></path>
        <radialGradient cx="47.3135769%" cy="27.7683354%" fx="47.3135769%" fy="27.7683354%" r="64.9417324%" gradientTransform="translate(0.473136,0.277683),scale(0.895803,1.000000),rotate(90.000000),translate(-0.473136,-0.277683)" id="radialGradient-29">
            <stop stop-color="#FF833B" offset="0%"></stop>
            <stop stop-color="#C81707" offset="100%"></stop>
        </radialGradient>
        <path d="M21.7109005,39.9045346 C32.363976,39.9045346 41,32.168357 41,22.6252983 C41,15.0586912 35.5707353,8.6280277 28.0115783,6.28889598 C26.0370727,5.67789814 23.9172463,5.34606205 21.7109005,5.34606205 C19.8692099,5.34606205 18.0878032,5.57727371 16.4008793,6.00906131 C8.32996008,8.07490607 2.42180095,14.7320318 2.42180095,22.6252983 C2.42180095,32.168357 11.057825,39.9045346 21.7109005,39.9045346 Z" id="path-30"></path>
        <filter x="-5.2%" y="-2.9%" width="110.4%" height="111.6%" filterUnits="objectBoundingBox" id="filter-31">
            <feOffset dx="0" dy="1" in="SourceAlpha" result="shadowOffsetOuter1"></feOffset>
            <feGaussianBlur stdDeviation="0.5" in="shadowOffsetOuter1" result="shadowBlurOuter1"></feGaussianBlur>
            <feColorMatrix values="0 0 0 0 0   0 0 0 0 0   0 0 0 0 0  0 0 0 0.298233696 0" type="matrix" in="shadowBlurOuter1"></feColorMatrix>
        </filter>
        <linearGradient x1="50%" y1="50%" x2="50%" y2="100%" id="linearGradient-32">
            <stop stop-color="#C81707" stop-opacity="0.49852808" offset="0%"></stop>
            <stop stop-color="#FFFFFF" stop-opacity="0.503255208" offset="100%"></stop>
        </linearGradient>
        <path d="M30.0521327,13.7470167 C30.0521327,13.0616037 26.6146981,12.5059666 22.3744076,12.5059666 C18.1341171,12.5059666 14.6966825,13.0616037 14.6966825,13.7470167 C14.6966825,14.4324298 18.1341171,14.9880668 22.3744076,14.9880668 C26.6146981,14.9880668 30.0521327,14.4324298 30.0521327,13.7470167 Z" id="path-33"></path>
        <filter x="-6.5%" y="-40.3%" width="113.0%" height="180.6%" filterUnits="objectBoundingBox" id="filter-34">
            <feGaussianBlur stdDeviation="0.5" in="SourceAlpha" result="shadowBlurInner1"></feGaussianBlur>
            <feOffset dx="0" dy="1" in="shadowBlurInner1" result="shadowOffsetInner1"></feOffset>
            <feComposite in="shadowOffsetInner1" in2="SourceAlpha" operator="arithmetic" k2="-1" k3="1" result="shadowInnerInner1"></feComposite>
            <feColorMatrix values="0 0 0 0 0   0 0 0 0 0   0 0 0 0 0  0 0 0 0.2 0" type="matrix" in="shadowInnerInner1"></feColorMatrix>
        </filter>
        <linearGradient x1="50%" y1="35.197191%" x2="50%" y2="113.282212%" id="linearGradient-35">
            <stop stop-color="#D93917" stop-opacity="0.497622283" offset="0%"></stop>
            <stop stop-color="#FFFFFF" offset="100%"></stop>
        </linearGradient>
        <linearGradient x1="50%" y1="0%" x2="50%" y2="54.7622601%" id="linearGradient-36">
            <stop stop-color="#56AD19" offset="0%"></stop>
            <stop stop-color="#284F0C" offset="100%"></stop>
        </linearGradient>
        <path d="M19.5295438,10.5515276 L23.3473519,2.39844621 C23.9057876,1.20588469 25.3823698,0.552154304 25.9608638,0.729017682 L25.777051,0.672820484 C25.878568,0.70385734 25.9451482,0.81159225 25.926074,0.911813801 L24.052166,10.7578851 C24.1966422,10.645284 24.3672623,10.5223464 24.5769644,10.3876511 C25.4222257,9.84472486 28.3368229,8.32866803 28.3368229,8.32866803 C28.3368229,8.32866803 28.8125263,8.04404848 29.9572038,7.42138579 C31.1018814,6.7987231 31.5115164,6.61890443 33.1812234,6.46521995 C34.8509303,6.31153548 35.3876801,6.92154964 35.3876801,6.92154964 C35.3876801,6.92154964 32.4618436,7.24382425 31.4530445,7.81066957 C30.4442455,8.37751489 30.1765959,8.44710353 28.9482679,9.27432379 C27.7199399,10.101544 27.5375862,10.2068886 26.4201275,11.2000988 C25.3026688,12.193309 25.0851387,12.7079177 25.0851387,12.7079177 L26.8715144,12.960891 C26.8715144,12.960891 27.6909509,13.0417682 28.5195618,13.0696573 C29.3481728,13.0975465 30.9378611,13.2781751 31.8348285,13.3954674 C32.7317959,13.5127597 32.7091585,13.4725017 33.5908691,13.5257426 C34.4725796,13.5789835 35.9039816,13.8239648 36.5333776,14.1534098 C37.1627736,14.4828548 37.4675846,14.6414956 38.1006122,15.1963443 C38.7336399,15.751193 39.3225116,16.5980855 39.3225116,16.5980855 C39.3225116,16.5980855 37.8367407,15.4504889 37.2683177,15.1963443 C36.6998948,14.9421998 36.1342587,14.7686935 34.7955381,14.5740544 C33.4568176,14.3794152 32.3979721,14.262057 29.9572048,14.1333675 C27.5164374,14.0046779 26.4883209,14.1360561 26.4883209,14.1360561 C26.4883209,14.1360561 25.2865718,14.0843337 24.1176996,14.15341 C22.9488275,14.2224863 22.6562374,14.5740542 22.6562374,14.5740542 L22.9874031,16.2903624 C22.9874031,16.2903624 23.4343347,17.0525776 23.4759202,17.8199345 C23.5175057,18.5872914 23.1626189,19.5235328 23.1626189,19.5235328 C23.1626189,19.5235328 22.6630364,18.7664067 22.1186047,18.0154695 C21.5741731,17.2645322 20.0465934,14.8495142 20.0465934,14.8495142 C20.0465934,14.8495142 19.73522,13.8741681 18.4134173,13.8741681 C17.0916145,13.8741681 17.1211673,13.7850222 15.0385047,13.3954673 C12.955842,13.0059124 11.3975821,12.6359923 10.2223765,12.7064512 C9.04717087,12.77691 6.52846363,13.5386313 5.4832997,13.6919473 C4.43813577,13.8452633 4.0992893,13.593691 4.0992893,13.593691 L5.93638534,12.8027521 C5.93638534,12.8027521 7.07002295,12.3295809 8.39911329,12.0362551 C9.72820363,11.7429294 10.554607,11.7835262 10.554607,11.7835262 C10.554607,11.7835262 11.9408529,11.8379439 13.2762757,11.9790611 C14.6116984,12.1201783 16.6165337,12.7079176 16.6165337,12.7079176 L13.5221116,10.4086711 L11.7367067,8.90060776 L10.3526963,7.66995967 L11.3639485,8.08033865 L12.6023502,8.88154311 C12.6023502,8.88154311 15.0050374,10.6838426 15.9824128,11.149993 C16.9597881,11.6161433 18.1511819,11.9467975 18.1511819,11.9467975 C18.1511819,11.9467975 17.2600548,10.3914488 17.0643136,9.8999865 C16.8685723,9.40852415 14.5354394,5.53153885 13.7509599,5.0219276 C12.9664804,4.51231635 11.9898563,5.01634145 11.4418491,5.4103089 C10.8938419,5.80427634 11.1181125,6.91470592 11.1181125,6.91470592 C11.1181125,6.91470592 10.6426246,5.02212772 11.3918568,4.60103862 C12.141089,4.17994951 13.2505515,4.19090406 13.2505515,4.19090406 C13.2505515,4.19090406 14.1225733,4.29366946 14.5775318,4.5602207 C15.0324903,4.82677193 15.338866,5.18552927 16.0377441,5.82386532 C16.7366221,6.46220136 18.2557927,8.3471488 18.7885345,9.27432394 C19.2677804,10.1083957 19.2819737,10.0337626 19.5295438,10.5515276 Z" id="path-37"></path>
        <filter x="-6.4%" y="-6.6%" width="112.8%" height="123.9%" filterUnits="objectBoundingBox" id="filter-38">
            <feMorphology radius="0.25" operator="dilate" in="SourceAlpha" result="shadowSpreadOuter1"></feMorphology>
            <feOffset dx="0" dy="1" in="shadowSpreadOuter1" result="shadowOffsetOuter1"></feOffset>
            <feGaussianBlur stdDeviation="0.5" in="shadowOffsetOuter1" result="shadowBlurOuter1"></feGaussianBlur>
            <feComposite in="shadowBlurOuter1" in2="SourceAlpha" operator="out" result="shadowBlurOuter1"></feComposite>
            <feColorMatrix values="0 0 0 0 0.235294118   0 0 0 0 0.0274509804   0 0 0 0 0.00784313725  0 0 0 0.3 0" type="matrix" in="shadowBlurOuter1"></feColorMatrix>
        </filter>
        <linearGradient x1="50%" y1="35.197191%" x2="50%" y2="113.282212%" id="linearGradient-39">
            <stop stop-color="#55AB19" offset="0%"></stop>
            <stop stop-color="#FFFFFF" offset="100%"></stop>
        </linearGradient>
    </defs>
    <g id="ZeroWasteAni_02_2" stroke="none" stroke-width="1" fill="none" fill-rule="evenodd">
        <rect fill="#FFFFFF" x="0" y="0" width="320" height="200"></rect>
        <rect id="Rectangle-22" fill="#FEEDCF" fill-rule="nonzero" x="0" y="0" width="320" height="200"></rect>
        <rect id="Rectangle-22-Copy" stroke-opacity="0.2" stroke="#000000" stroke-width="8" fill-opacity="0" fill="#FFFFFF" fill-rule="nonzero" x="4" y="4" width="312" height="192"></rect>
        <g id="Group" transform="translate(173.000000, 16.000000)">
            <g id="2">
                <g id="Group-3" transform="translate(0.000000, 0.870400)">
                    <mask id="mask-2" fill="white">
                        <use xlink:href="#path-1"></use>
                    </mask>
                    <g id="Clip-2"></g>
                    <path d="M126.166513,63.8204 C126.166513,98.7156 97.9229906,127.0036 63.0826572,127.0036 C28.2431226,127.0036 -0.000399371069,98.7156 -0.000399371069,63.8204 C-0.000399371069,28.926 28.2431226,0.638 63.0826572,0.638 C97.9229906,0.638 126.166513,28.926 126.166513,63.8204" id="Fill-1" fill="#D1E1E7" mask="url(#mask-2)"></path>
                </g>
                <g id="Group-49" transform="translate(0.000000, -0.000000)">
                    <g id="Group-6">
                        <mask id="mask-4" fill="white">
                            <use xlink:href="#path-3"></use>
                        </mask>
                        <g id="Clip-5"></g>
                        <path d="M59.0643453,88.95872 L68.190773,88.95872 C71.0782258,88.95872 73.419339,91.30352 73.419339,94.19552 L73.419339,111.89072 C73.419339,114.78272 71.0782258,117.12752 68.190773,117.12752 L59.0643453,117.12752 C56.1768925,117.12752 53.8357792,114.78272 53.8357792,111.89072 L53.8357792,94.19552 C53.8357792,91.30352 56.1768925,88.95872 59.0643453,88.95872" id="Fill-4" fill="#F7AC82" mask="url(#mask-4)"></path>
                    </g>
                    <g id="Group-9">
                        <mask id="mask-6" fill="white">
                            <use xlink:href="#path-5"></use>
                        </mask>
                        <g id="Clip-8"></g>
                        <path d="M25.6099893,58.29544 C25.6099893,58.29544 23.9925365,124.29064 22.9078447,124.65224 C21.8231528,125.01464 47.4947252,120.66904 55.4493981,122.47944 C63.4040711,124.29064 75.6439956,114.14984 75.6439956,114.14984 L85.1945553,82.47944 L83.4317314,63.59224 L61.5717566,40.28584 L25.6099893,58.29544 Z" id="Fill-7" fill="#162846" mask="url(#mask-6)"></path>
                    </g>
                    <g id="Group-12">
                        <mask id="mask-8" fill="white">
                            <use xlink:href="#path-7"></use>
                        </mask>
                        <g id="Clip-11"></g>
                        <path d="M101.843536,59.2196 C101.843536,59.2196 103.460989,125.214 104.545681,125.5756 C105.630373,125.938 79.9588006,121.5924 72.0041277,123.4036 C64.0494547,125.214 51.8087314,115.074 51.8087314,115.074 L42.2589704,83.4036 L44.0217943,64.5164 L65.8817692,41.21 L101.843536,59.2196 Z" id="Fill-10" fill="#162846" mask="url(#mask-8)"></path>
                    </g>
                    <g id="Group-15">
                        <mask id="mask-10" fill="white">
                            <use xlink:href="#path-9"></use>
                        </mask>
                        <g id="Clip-14"></g>
                        <path d="M82.6195823,136.1456 L44.3812237,136.1456 C38.3975891,136.1456 33.5471698,131.3312 33.5471698,125.3928 L33.5471698,109.1536 C33.5471698,103.2152 38.3975891,98.4 44.3812237,98.4 L82.6195823,98.4 C88.6024109,98.4 93.4528302,103.2152 93.4528302,109.1536 L93.4528302,125.3928 C93.4528302,131.3312 88.6024109,136.1456 82.6195823,136.1456" id="Fill-13" fill="#F05E2F" mask="url(#mask-10)"></path>
                        <rect id="Rectangle-Copy" fill="#FBCBA9" fill-rule="nonzero" mask="url(#mask-10)" x="33.5471698" y="112" width="13.5786164" height="19.2"></rect>
                        <path d="M66.27272,121.82397 C66.27272,117.943951 66.27272,114.935961 66.27272,112.8 L79.7448366,112.8 C79.7056853,115.113249 79.7056853,117.042506 79.7448366,118.587771 C79.8513207,122.790604 95.0746509,130.746906 93.3105742,132.346918 C91.5464975,133.94693 90.5711713,137.07973 82.3005951,133.800775 C74.0300189,130.52182 66.27272,127.485472 66.27272,121.82397 Z" id="Rectangle-Copy-2" fill="#FBCBA9" fill-rule="nonzero" mask="url(#mask-10)" transform="translate(79.862775, 124.019615) scale(-1, 1) translate(-79.862775, -124.019615) "></path>
                    </g>
                    <g id="Group-18">
                        <mask id="mask-12" fill="white">
                            <use xlink:href="#path-11"></use>
                        </mask>
                        <g id="Clip-17"></g>
                        <path d="M59.159156,88.95872 L68.2855836,88.95872 C71.1730365,88.95872 73.5141497,91.30352 73.5141497,94.19552 L73.5141497,111.89072 C73.5141497,114.78272 71.1730365,117.12752 68.2855836,117.12752 L59.159156,117.12752 C56.2717031,117.12752 53.9305899,114.78272 53.9305899,111.89072 L53.9305899,94.19552 C53.9305899,91.30352 56.2717031,88.95872 59.159156,88.95872" id="Fill-16" fill="#F7AC82" mask="url(#mask-12)"></path>
                    </g>
                    <g id="Group-21">
                        <mask id="mask-14" fill="white">
                            <use xlink:href="#path-13"></use>
                        </mask>
                        <g id="Clip-20"></g>
                        <path d="M38.5267679,77.54696 C38.5267679,81.90296 35.0011201,85.43416 30.6519692,85.43416 C26.3028182,85.43416 22.7771704,81.90296 22.7771704,77.54696 C22.7771704,73.19096 26.3028182,69.65976 30.6519692,69.65976 C35.0011201,69.65976 38.5267679,73.19096 38.5267679,77.54696" id="Fill-19" fill="#F7AC82" mask="url(#mask-14)"></path>
                    </g>
                    <g id="Group-24">
                        <mask id="mask-16" fill="white">
                            <use xlink:href="#path-15"></use>
                        </mask>
                        <g id="Clip-23"></g>
                        <path d="M103.929691,77.54696 C103.929691,81.90296 100.404043,85.43416 96.0548925,85.43416 C91.7057415,85.43416 88.1800937,81.90296 88.1800937,77.54696 C88.1800937,73.19096 91.7057415,69.65976 96.0548925,69.65976 C100.404043,69.65976 103.929691,73.19096 103.929691,77.54696" id="Fill-22" fill="#F7AC82" mask="url(#mask-16)"></path>
                    </g>
                    <g id="Group-27">
                        <mask id="mask-18" fill="white">
                            <use xlink:href="#path-17"></use>
                        </mask>
                        <g id="Clip-26"></g>
                        <path d="M99.5564981,68.5048 C99.5564981,88.3792 83.4706302,104.4896 63.6274792,104.4896 C43.7843283,104.4896 27.6984604,88.3792 27.6984604,68.5048 C27.6984604,48.6304 43.7843283,32.5192 63.6274792,32.5192 C83.4706302,32.5192 99.5564981,48.6304 99.5564981,68.5048" id="Fill-25" fill="#FBCBA9" mask="url(#mask-18)"></path>
                    </g>
                    <g id="Group-30">
                        <mask id="mask-20" fill="white">
                            <use xlink:href="#path-19"></use>
                        </mask>
                        <g id="Clip-29"></g>
                        <path d="M50.3804208,71.42904 C50.3804208,74.28424 48.0696597,76.59864 45.2189491,76.59864 C42.3682384,76.59864 40.0574774,74.28424 40.0574774,71.42904 C40.0574774,68.57464 42.3682384,66.25944 45.2189491,66.25944 C48.0696597,66.25944 50.3804208,68.57464 50.3804208,71.42904" id="Fill-28" fill="#010202" mask="url(#mask-20)"></path>
                    </g>
                    <g id="Group-33">
                        <mask id="mask-22" fill="white">
                            <use xlink:href="#path-21"></use>
                        </mask>
                        <g id="Clip-32"></g>
                        <path d="M87.1978006,71.42904 C87.1978006,74.28424 84.8862409,76.59864 82.0363289,76.59864 C79.1856182,76.59864 76.8748572,74.28424 76.8748572,71.42904 C76.8748572,68.57464 79.1856182,66.25944 82.0363289,66.25944 C84.8862409,66.25944 87.1978006,68.57464 87.1978006,71.42904" id="Fill-31" fill="#010202" mask="url(#mask-22)"></path>
                    </g>
                    <g id="Group-36">
                        <mask id="mask-24" fill="white">
                            <use xlink:href="#path-23"></use>
                        </mask>
                        <g id="Clip-35"></g>
                        <path d="M63.6150189,79.25008 C60.9839623,79.25008 58.850522,77.11328 58.850522,74.47808 L68.3795157,74.47808 C68.3795157,77.11328 66.2460755,79.25008 63.6150189,79.25008" id="Fill-34" fill="#F7AC82" mask="url(#mask-24)"></path>
                    </g>
                    <g id="Group-39">
                        <mask id="mask-26" fill="white">
                            <use xlink:href="#path-25"></use>
                        </mask>
                        <g id="Clip-38"></g>
                        <path d="M55.436139,84.94624 L71.7935792,84.94624 C71.7935792,84.94624 69.7000761,93.46544 63.6152585,93.46544 C57.5304409,93.46544 55.436139,84.94624 55.436139,84.94624" id="Fill-37" fill="#CA583C" mask="url(#mask-26)"></path>
                    </g>
                    <g id="Group-42">
                        <mask id="mask-28" fill="white">
                            <use xlink:href="#path-27"></use>
                        </mask>
                        <g id="Clip-41"></g>
                        <path d="M25.5978507,59.7449225 C25.2632431,49.6096791 34.8623788,24.71528 62.7889597,24.71528 C94.9337429,24.71528 101.858522,51.3344693 101.858522,59.7449225 C98.3531652,62.2934308 87.9027325,64.0034505 76.1765599,64.8 C75.9475562,64.815556 76.4686112,59.7449225 75.6261764,54.9781685 C75.2908682,53.0808918 74.3236607,50.8532853 74.0759974,50.386762 C73.7974707,49.8621013 74.3268414,51.2367257 74.6005357,55.2353836 C74.9360086,60.136622 74.5682762,64.8880138 74.3921065,64.8982199 C52.3792592,66.1735027 25.7533748,64.4557369 25.5978507,59.7449225 Z" id="Fill-40" fill="#162846" mask="url(#mask-28)"></path>
                    </g>
                </g>
            </g>
        </g>
        <g id="Tomatoe" transform="translate(78.000000, 125.000000)">
            <g id="Oval-1">
                <use fill="black" fill-opacity="1" filter="url(#filter-31)" xlink:href="#path-30"></use>
                <use fill="url(#radialGradient-29)" fill-rule="evenodd" xlink:href="#path-30"></use>
            </g>
            <g id="Oval-2" opacity="0.300000012" transform="translate(22.374408, 13.747017) scale(1, -1) translate(-22.374408, -13.747017) ">
                <use fill="url(#linearGradient-32)" fill-rule="evenodd" xlink:href="#path-33"></use>
                <use fill="black" fill-opacity="1" filter="url(#filter-34)" xlink:href="#path-33"></use>
            </g>
            <path d="M11.1792085,32.5167043 C11.1792085,31.7259498 9.52211397,30.2625298 8.73698097,30.2625298 C7.95184797,30.2625298 7.31537192,30.903563 7.31537192,31.6943175 C7.31537192,32.485072 8.46215719,33.4128878 9.24729019,33.4128878 C10.0324232,33.4128878 11.1792085,33.3074587 11.1792085,32.5167043 Z" id="Oval-2-Copy-7" fill="url(#linearGradient-35)" opacity="0.145230877"></path>
            <path d="M4.90434776,25.4652885 C4.90434776,24.7595336 3.42537728,23.4534192 2.72463961,23.4534192 C2.02390193,23.4534192 1.45584181,24.0255466 1.45584181,24.7313015 C1.45584181,25.4370564 2.47935711,26.2651397 3.18009479,26.2651397 C3.88083246,26.2651397 4.90434776,26.1710434 4.90434776,25.4652885 Z" id="Oval-2-Copy-17" fill="url(#linearGradient-35)" opacity="0.6" transform="translate(3.180095, 24.859279) rotate(50.000000) translate(-3.180095, -24.859279) "></path>
            <path d="M13.3452986,37.6598852 C13.3452986,37.2165835 12.4163214,36.3961814 11.9761711,36.3961814 C11.5360208,36.3961814 11.1792085,36.7555485 11.1792085,37.1988502 C11.1792085,37.642152 11.8221032,38.1622912 12.2622536,38.1622912 C12.7024039,38.1622912 13.3452986,38.103187 13.3452986,37.6598852 Z" id="Oval-2-Copy-16" fill="url(#linearGradient-35)" opacity="0.500932836"></path>
            <path d="M23.5600954,39.4975941 C23.5600954,39.0542923 22.6311181,38.2338902 22.1909678,38.2338902 C21.7508175,38.2338902 21.3940052,38.5932573 21.3940052,39.036559 C21.3940052,39.4798608 22.0368999,40 22.4770503,40 C22.9172006,40 23.5600954,39.9408958 23.5600954,39.4975941 Z" id="Oval-2-Copy-18" fill="url(#linearGradient-35)" opacity="0.495102612"></path>
            <path d="M38.2252124,26.7706251 C38.5369177,25.8452768 36.0617418,22.6252983 34.5167858,22.6252983 C32.9718298,22.6252983 31.7193955,23.8866999 31.7193955,25.4427176 C31.7193955,26.9987354 33.9759976,28.8244575 35.5209536,28.8244575 C37.0659096,28.8244575 37.9135071,27.6959735 38.2252124,26.7706251 Z" id="Oval-2-Copy-8" fill="url(#linearGradient-35)" opacity="0.253847948"></path>
            <path d="M24.7309909,24.4806052 C24.7309909,23.929257 24.2872123,23.4823009 23.7397836,23.4823009 C23.1923549,23.4823009 22.7485762,23.929257 22.7485762,24.4806052 C22.7485762,25.0319535 23.9967863,25.7248779 24.5442151,25.7248779 C25.0916438,25.7248779 24.7309909,25.0319535 24.7309909,24.4806052 Z" id="Oval-2-Copy-3" fill="url(#linearGradient-35)" opacity="0.264342351"></path>
            <path d="M36.1849241,30.4579974 C36.1849241,29.9814499 35.8013524,29.5951318 35.3281927,29.5951318 C34.855033,29.5951318 34.4714612,29.9814499 34.4714612,30.4579974 C34.4714612,30.9345449 35.5503282,31.5334611 36.0234879,31.5334611 C36.4966476,31.5334611 36.1849241,30.9345449 36.1849241,30.4579974 Z" id="Oval-2-Copy-9" fill="url(#linearGradient-35)" opacity="0.149999991"></path>
            <path d="M24.8786033,31.0163076 C24.8786033,30.7157898 24.6367174,30.4721719 24.3383359,30.4721719 C24.0399545,30.4721719 23.7980685,30.7157898 23.7980685,31.0163076 C23.7980685,31.3168254 24.4784179,31.6945107 24.7767993,31.6945107 C25.0751807,31.6945107 24.8786033,31.3168254 24.8786033,31.0163076 Z" id="Oval-2-Copy-10" fill="url(#linearGradient-35)" opacity="0.249999985"></path>
            <path d="M9.9642384,15.8456893 C9.9642384,15.4219797 9.62319576,15.0784952 9.20249835,15.0784952 C8.78180093,15.0784952 8.44075829,15.4219797 8.44075829,15.8456893 C8.44075829,16.2693988 9.40000426,16.8019093 9.82070167,16.8019093 C10.2413991,16.8019093 9.9642384,16.2693988 9.9642384,15.8456893 Z" id="Oval-2-Copy-6" fill="url(#linearGradient-35)" opacity="0.501982276"></path>
            <path d="M18.3933649,18.6886405 C18.3933649,18.2275422 18.0222282,17.8537482 17.5644079,17.8537482 C17.1065875,17.8537482 16.7354508,18.2275422 16.7354508,18.6886405 C16.7354508,19.1497388 17.3388136,18.9945826 17.796634,18.9945826 C18.2544543,18.9945826 18.3933649,19.1497388 18.3933649,18.6886405 Z" id="Oval-2-Copy-4" fill="url(#linearGradient-35)" opacity="0.25338153"></path>
            <path d="M26.6872038,17.7025039 C26.6872038,17.491845 26.517645,17.3210722 26.3084837,17.3210722 C26.0993224,17.3210722 25.9297636,17.491845 25.9297636,17.7025039 C25.9297636,17.9131628 26.205418,17.8422777 26.4145793,17.8422777 C26.6237406,17.8422777 26.6872038,17.9131628 26.6872038,17.7025039 Z" id="Oval-2-Copy-5" fill="url(#linearGradient-35)" opacity="0.501982276"></path>
            <g id="Path-1">
                <use fill="black" fill-opacity="1" filter="url(#filter-38)" xlink:href="#path-37"></use>
                <use stroke="#3E7C12" stroke-width="0.5" fill="url(#linearGradient-36)" fill-rule="evenodd" xlink:href="#path-37"></use>
            </g>
            <path d="M26.2504378,14.3463643 C26.2504378,13.9325903 25.3833385,13.1668341 24.9725061,13.1668341 C24.5616736,13.1668341 24.228628,13.5022642 24.228628,13.9160382 C24.228628,14.3298122 24.8287004,14.8153056 25.2395329,14.8153056 C25.6503654,14.8153056 26.2504378,14.7601383 26.2504378,14.3463643 Z" id="Oval-2-Copy-19" fill="url(#linearGradient-39)" opacity="0.104361007" transform="translate(25.239533, 13.991070) rotate(-12.000000) translate(-25.239533, -13.991070) "></path>
            <path d="M12.7810751,9.45812319 C12.7810751,9.17073696 12.1788324,8.63888192 11.8934892,8.63888192 C11.608146,8.63888192 11.3768296,8.8718545 11.3768296,9.15924074 C11.3768296,9.44662697 11.7936092,9.78382584 12.0789524,9.78382584 C12.3642956,9.78382584 12.7810751,9.74550943 12.7810751,9.45812319 Z" id="Oval-2-Copy-22" fill="url(#linearGradient-39)" opacity="0.148554104" transform="translate(12.078952, 9.211354) rotate(-12.000000) translate(-12.078952, -9.211354) "></path>
            <path d="M17.9645162,10.2400605 C17.9645162,9.9765658 17.4123402,9.48892593 17.1507187,9.48892593 C16.8890972,9.48892593 16.677011,9.7025306 16.677011,9.96602531 C16.677011,10.22952 17.0591421,10.5386862 17.3207636,10.5386862 C17.5823852,10.5386862 17.9645162,10.5035552 17.9645162,10.2400605 Z" id="Oval-2-Copy-20" fill="url(#linearGradient-39)" opacity="0.25233209" transform="translate(17.320764, 10.013806) rotate(-12.000000) translate(-17.320764, -10.013806) "></path>
            <path d="M20.1346814,13.4034132 C20.1346814,13.1888474 19.6850402,12.7917585 19.4719998,12.7917585 C19.2589594,12.7917585 19.086256,12.9656984 19.086256,13.1802642 C19.086256,13.39483 19.3974283,13.6465864 19.6104687,13.6465864 C19.8235091,13.6465864 20.1346814,13.617979 20.1346814,13.4034132 Z" id="Oval-2-Copy-23" fill="url(#linearGradient-39)" opacity="0.15001166" transform="translate(19.610469, 13.219172) rotate(-12.000000) translate(-19.610469, -13.219172) "></path>
            <path d="M31.6426781,8.16103135 C31.6426781,7.9466328 31.1933873,7.54985337 30.9805129,7.54985337 C30.7676386,7.54985337 30.5950698,7.72365774 30.5950698,7.93805628 C30.5950698,8.15245483 30.9059995,8.40401506 31.1188739,8.40401506 C31.3317483,8.40401506 31.6426781,8.3754299 31.6426781,8.16103135 Z" id="Oval-2-Copy-21" fill="url(#linearGradient-39)" opacity="0.25233209" transform="translate(31.118874, 7.976934) rotate(-12.000000) translate(-31.118874, -7.976934) "></path>
            <path d="M24.6254794,2.73156182 C25.5415915,2.73156182 26.2842472,2.63461151 26.2842472,2.05464661 C26.2842472,1.47468172 25.5415915,1.00452728 24.6254794,1.00452728 C23.7093673,1.00452728 22.9667116,1.47468172 22.9667116,2.05464661 C22.9667116,2.63461151 23.7093673,2.73156182 24.6254794,2.73156182 Z" id="Oval-3" fill="#3F7F12" transform="translate(24.625479, 1.868045) rotate(-53.000000) translate(-24.625479, -1.868045) "></path>
        </g>
        <g id="bag" opacity="0.900000036" transform="translate(50.000000, 51.000000)" fill-rule="nonzero">
            <path d="M93.8607437,117.888533 C92.8276583,109.804406 84.3955779,43.830041 83.4104925,36.1201992 C83.2363417,34.758791 82.0734874,33.7382754 80.6957186,33.7382754 L15.3042814,33.7382754 C13.9265126,33.7382754 12.7634171,34.758791 12.5892663,36.1201992 L2.13925628,117.888533 C1.93085427,119.516121 3.20659296,120.958488 4.85403015,120.958488 L91.1457286,120.958488 C92.793407,120.958488 94.0686633,119.516121 93.8607437,117.888533 Z" id="Shape" fill="#ECF1F8"></path>
            <path d="M36.7308543,33.7382754 L15.3042814,33.7382754 C13.9265126,33.7382754 12.7634171,34.758791 12.5892663,36.1201992 L2.13925628,117.888533 C1.93085427,119.516121 3.20659296,120.958488 4.85403015,120.958488 L73.2451055,120.958488 C35.2923015,110.896512 17.2491256,67.5606328 36.7308543,33.7382754 Z" id="Shape" fill="#AFCBD8"></path>
            <polyline id="Shape" fill="#FFCA54" points="29.6982513 92.1486211 90.5709347 92.1486211 88.679397 77.3487422 7.32036181 77.3487422 5.42882412 92.1486211 23.0052663 92.1486211"></polyline>
            <path d="M7.32036181,77.3487422 L5.42906533,92.1486211 L36.2670151,92.1486211 C33.7157789,87.5526973 31.7564623,82.5853711 30.4913367,77.3487422 L7.32036181,77.3487422 Z" id="Shape" fill="#F9B24B"></path>
            <polygon id="Shape" fill="#FF4B4E" points="7.32036181 77.3487422 88.679397 77.3487422 86.7881005 62.5483828 9.2118995 62.5483828"></polygon>
            <path d="M28.8373869,62.5483828 L9.2118995,62.5483828 C9.17451256,62.8405078 7.35654271,77.0655059 7.32036181,77.3487422 L30.4913367,77.3487422 C29.3482613,72.6178066 28.7710553,67.6891582 28.8373869,62.5483828 Z" id="Shape" fill="#EF3F48"></path>
            <path d="M95.9481407,117.693943 C95.6941508,115.706965 87.712402,53.2539551 87.4586533,51.2669766 C87.3197186,50.1832793 86.326191,49.4186133 85.2371457,49.5541055 C84.1485829,49.6922402 83.3788945,50.6827266 83.5173467,51.7666641 L84.6314774,60.4842891 L11.3685226,60.4842891 L14.4699497,36.2170137 C14.5179497,35.8415273 14.8409246,35.5580508 15.2213065,35.5580508 L25.302995,35.5580508 L25.302995,42.2846133 C25.302995,43.3774395 26.1923216,44.2627031 27.2893266,44.2627031 C28.3863317,44.2627031 29.2756583,43.3771992 29.2756583,42.2846133 L29.2756583,35.5580508 L66.7241005,35.5580508 L66.7241005,42.2846133 C66.7241005,43.3774395 67.6131859,44.2627031 68.710191,44.2627031 C69.8074372,44.2627031 70.6967638,43.3771992 70.6967638,42.2846133 L70.6967638,35.5580508 L80.7789347,35.5580508 C81.1590754,35.5580508 81.4820503,35.8415273 81.529809,36.2170137 L82.6748141,45.1765547 C82.8132663,46.260252 83.808,47.0241973 84.8963216,46.8894258 C85.984402,46.7515312 86.7543317,45.7608047 86.6161206,44.6768672 L85.4708744,35.7170859 C85.1708141,33.3702363 83.1538492,31.6011504 80.7789347,31.6011504 L70.6967638,31.6011504 L70.6967638,20.1643125 C70.697005,9.04530469 61.614392,0 50.4513769,0 L45.5486231,0 C34.3851256,0 25.302995,9.04530469 25.302995,20.1643125 L25.302995,31.6013906 L15.2213065,31.6013906 C12.8461508,31.6013906 10.8291859,33.370957 10.5288844,35.7175664 C10.3918794,36.7899727 0.103477387,117.290109 0.0518592965,117.693943 C-0.307778894,120.507809 1.89708543,123 4.74428141,123 L91.2554774,123 C94.1038794,123 96.3070553,120.506848 95.9481407,117.693943 Z M29.2756583,20.1643125 C29.2756583,11.227834 36.5755176,3.95690039 45.5486231,3.95690039 L50.4513769,3.95690039 C59.4237588,3.95690039 66.7241005,11.227834 66.7241005,20.1643125 L66.7241005,31.6013906 L29.2756583,31.6013906 L29.2756583,20.1643125 Z M85.1372864,64.4411895 C85.2641608,65.4340781 86.4021709,74.3390859 86.5278392,75.3223652 L9.4721608,75.3223652 L10.8627136,64.4411895 L85.1372864,64.4411895 Z M91.8237588,118.78725 C91.4836583,119.172586 96.2325226,119.0431 4.74428141,119.0431 C4.29177889,119.0431 3.93527638,118.646713 3.99292462,118.193631 L7.06998995,94.1168613 L22.9415879,94.1168613 C24.038593,94.1168613 24.9279196,93.2311172 24.9279196,92.1385313 C24.9279196,91.0459453 24.038593,90.1602012 22.9415879,90.1602012 L7.57579899,90.1602012 C7.89419095,87.6692109 8.66146734,81.6667148 8.96659296,79.2792656 L87.033407,79.2792656 L88.424201,90.1602012 L29.6516985,90.1602012 C28.5546935,90.1602012 27.6653668,91.0459453 27.6653668,92.1385313 C27.6653668,93.2311172 28.5546935,94.1168613 29.6516985,94.1168613 L88.9300101,94.1168613 C92.2550352,120.134004 92.1474573,118.421373 91.8237588,118.78725 Z" id="Shape" fill="#231F20"></path>
        </g>
        <g id="Group-8" transform="translate(236.500000, 160.500000) scale(-1, 1) translate(-236.500000, -160.500000) translate(217.000000, 148.000000)">
            <rect id="Rectangle-path" fill="#00B3E3" transform="translate(7.488196, 5.339539) rotate(209.695136) translate(-7.488196, -5.339539) " x="2.62597695" y="3.86594706" width="9.724439" height="2.94718335"></rect>
            <path d="M3.97910786,1.60520024 L2.54700101,4.16488762 L6.18142641,6.27817646 C6.91141633,5.62512524 7.42865423,4.73160874 7.61423891,3.71884879 L3.97910786,1.60520024 L3.97910786,1.60520024 Z" id="Shape" fill="#000000" opacity="0.2"></path>
            <path d="M38.7522429,7.18877913 C39.1805696,6.0103733 38.522379,5.04617403 37.2894405,5.04617403 L11.3730343,5.04617403 C10.1402722,5.04617403 9.22152218,6.07026481 9.33107359,7.32241092 L10.191255,17.1318481 C10.3011593,18.3834546 11.399496,19.4077252 12.6322581,19.4077252 L32.0720766,19.4077252 C33.3048387,19.4077252 34.6639113,18.443526 35.0920615,17.2651201 L38.7522429,7.18877913 L38.7522429,7.18877913 Z" id="Shape" fill="#A4A9AD"></path>
            <ellipse id="Oval" fill="#333E48" cx="15.3301159" cy="22.158418" rx="2.69785786" ry="2.75051286"></ellipse>
            <ellipse id="Oval" fill="#333E48" cx="3.26305444" cy="2.88522379" rx="2.69785786" ry="2.75051286"></ellipse>
            <ellipse id="Oval" fill="#333E48" cx="27.8558468" cy="22.158418" rx="2.69785786" ry="2.75051286"></ellipse>
            <path d="M10.1021673,16.1133328 L35.5105091,16.1133328 L36.5809728,13.1664189 L9.84354839,13.1664189 L10.1021673,16.1133328 L10.1021673,16.1133328 Z M9.40410786,8.15657549 L9.6625504,11.1034893 L37.3301915,11.1034893 L38.4006552,8.15657549 L9.40410786,8.15657549 L9.40410786,8.15657549 Z" id="Shape" fill="#000000" opacity="0.2"></path>
        </g>
    </g>
</svg>