<?xml version="1.0" encoding="UTF-8"?>
<svg width="320px" height="200px" viewBox="0 0 320 200" version="1.1" xmlns="http://www.w3.org/2000/svg" xmlns:xlink="http://www.w3.org/1999/xlink">
    <!-- Generator: Sketch 51.2 (57519) - http://www.bohemiancoding.com/sketch -->
    <title>ZeroWasteAni_01_1</title>
    <desc>Created with Sketch.</desc>
    <defs>
        <polygon id="path-1" points="0 0.7975 157.9565 0.7975 157.9565 158.7545 0 158.7545"></polygon>
        <path d="M79.594,0.913 C35.768,0.913 0.239,36.441 0.239,80.266 C0.239,124.094 35.768,159.622 79.594,159.622 C123.421,159.622 158.949,124.094 158.949,80.266" id="path-3"></path>
        <path d="M79.594,0.913 C35.768,0.913 0.239,36.441 0.239,80.266 C0.239,124.094 35.768,159.622 79.594,159.622 C123.421,159.622 158.949,124.094 158.949,80.266 C158.949,36.441 123.421,0.913 79.594,0.913 Z" id="path-5"></path>
        <path d="M79.594,0.913 C35.768,0.913 0.239,36.441 0.239,80.266 C0.239,124.094 35.768,159.622 79.594,159.622 C123.421,159.622 158.949,124.094 158.949,80.266 C158.949,36.441 123.421,0.913 79.594,0.913 Z" id="path-7"></path>
        <path d="M79.594,0.913 C35.768,0.913 0.239,36.441 0.239,80.266 C0.239,124.094 35.768,159.622 79.594,159.622 C123.421,159.622 158.949,124.094 158.949,80.266" id="path-9"></path>
        <path d="M79.594,0.913 C35.768,0.913 0.239,36.441 0.239,80.266 C0.239,124.094 35.768,159.622 79.594,159.622 C123.421,159.622 158.949,124.094 158.949,80.266" id="path-11"></path>
        <path d="M79.594,0.913 C35.768,0.913 0.239,36.441 0.239,80.266 C0.239,124.094 35.768,159.622 79.594,159.622 C123.421,159.622 158.949,124.094 158.949,80.266" id="path-13"></path>
        <path d="M79.594,0.913 C35.768,0.913 0.239,36.441 0.239,80.266 C0.239,124.094 35.768,159.622 79.594,159.622 C123.421,159.622 158.949,124.094 158.949,80.266" id="path-15"></path>
        <path d="M79.594,0.913 C35.768,0.913 0.239,36.441 0.239,80.266 C0.239,124.094 35.768,159.622 79.594,159.622 C123.421,159.622 158.949,124.094 158.949,80.266" id="path-17"></path>
        <path d="M79.594,0.913 C35.768,0.913 0.239,36.441 0.239,80.266 C0.239,124.094 35.768,159.622 79.594,159.622 C123.421,159.622 158.949,124.094 158.949,80.266" id="path-19"></path>
        <path d="M79.594,0.913 C35.768,0.913 0.239,36.441 0.239,80.266 C0.239,124.094 35.768,159.622 79.594,159.622 C123.421,159.622 158.949,124.094 158.949,80.266" id="path-21"></path>
        <path d="M79.594,0.913 C35.768,0.913 0.239,36.441 0.239,80.266 C0.239,124.094 35.768,159.622 79.594,159.622 C123.421,159.622 158.949,124.094 158.949,80.266" id="path-23"></path>
        <path d="M79.594,0.913 C35.768,0.913 0.239,36.441 0.239,80.266 C0.239,124.094 35.768,159.622 79.594,159.622 C123.421,159.622 158.949,124.094 158.949,80.266" id="path-25"></path>
        <path d="M79.594,0.913 C35.768,0.913 0.239,36.441 0.239,80.266 C0.239,124.094 35.768,159.622 79.594,159.622 C123.421,159.622 158.949,124.094 158.949,80.266 C158.949,36.441 123.421,0.913 79.594,0.913 Z" id="path-27"></path>
        <path d="M26.256574,2.61144066 C35.4620783,2.61144066 39.8265407,2.61144066 39.7966242,8.76952774 C39.7667077,14.9276148 35.0679574,15.4709633 26.256574,15.4709633" id="path-29"></path>
        <path d="M5.49819317,29.7521878 C5.49819301,25.9512926 2.80330041,21.4723812 1.88307655,16.650394 C1.06951769,12.1652825 0.0880539924,0.977361848 0.0880539924,0.977361848 C0.0394231153,0.437579804 0.432815552,0 0.98401492,0 L29.633269,0 C30.1767255,0 30.576774,0.445828072 30.5264138,0.990990595 C30.5264138,0.990990595 29.5130023,12.3509831 28.6820615,16.650394 C27.746029,21.7469158 25.0295509,25.9512926 25.0295507,29.7521878 C25.0295514,33.0759512 24.4568956,35.9583099 24.4568956,35.9583099 C24.3640645,36.4953382 23.8426308,36.9306857 23.2926597,36.9306857 L7.23508419,36.9306857 C6.68492558,36.9306857 6.15966168,36.4875173 6.07084839,35.9527263 C6.07084839,35.9527263 5.49819325,33.0476839 5.49819317,29.7521878 Z" id="path-30"></path>
    </defs>
    <g id="ZeroWasteAni_01_1" stroke="none" stroke-width="1" fill="none" fill-rule="evenodd">
        <rect fill="#FFFFFF" x="0" y="0" width="320" height="200"></rect>
        <rect id="Rectangle-22" fill="#FEEDCF" fill-rule="nonzero" x="0" y="0" width="320" height="200"></rect>
        <rect id="Rectangle-22-Copy" stroke-opacity="0.2" stroke="#000000" stroke-width="8" fill-opacity="0" fill="#FFFFFF" fill-rule="nonzero" x="4" y="4" width="312" height="192"></rect>
        <g id="Group" transform="translate(81.000000, 14.000000)">
            <g id="2">
                <g id="Group-3" transform="translate(0.000000, 1.088000)">
                    <mask id="mask-2" fill="white">
                        <use xlink:href="#path-1"></use>
                    </mask>
                    <g id="Clip-2"></g>
                    <path d="M157.9565,79.7755 C157.9565,123.3945 122.5965,158.7545 78.9775,158.7545 C35.3595,158.7545 -0.0005,123.3945 -0.0005,79.7755 C-0.0005,36.1575 35.3595,0.7975 78.9775,0.7975 C122.5965,0.7975 157.9565,36.1575 157.9565,79.7755" id="Fill-1" fill="#D1E1E7" mask="url(#mask-2)"></path>
                </g>
                <g id="Group-49" transform="translate(0.000000, -0.000000)">
                    <g id="Group-6">
                        <mask id="mask-4" fill="white">
                            <use xlink:href="#path-3"></use>
                        </mask>
                        <g id="Clip-5"></g>
                        <path d="M73.9467,111.1984 L85.3727,111.1984 C88.9877,111.1984 91.9187,114.1294 91.9187,117.7444 L91.9187,139.8634 C91.9187,143.4784 88.9877,146.4094 85.3727,146.4094 L73.9467,146.4094 C70.3317,146.4094 67.4007,143.4784 67.4007,139.8634 L67.4007,117.7444 C67.4007,114.1294 70.3317,111.1984 73.9467,111.1984" id="Fill-4" fill="#F7AC82" mask="url(#mask-4)"></path>
                    </g>
                    <g id="Group-9">
                        <mask id="mask-6" fill="white">
                            <use xlink:href="#path-5"></use>
                        </mask>
                        <g id="Clip-8"></g>
                        <path d="M32.0629,72.8693 C32.0629,72.8693 30.0379,155.3633 28.6799,155.8153 C27.3219,156.2683 59.4619,150.8363 69.4209,153.0993 C79.3799,155.3633 94.7039,142.6873 94.7039,142.6873 L106.6609,103.0993 L104.4539,79.4903 L77.0859,50.3573 L32.0629,72.8693 Z" id="Fill-7" fill="#162846" mask="url(#mask-6)"></path>
                    </g>
                    <g id="Group-12">
                        <mask id="mask-8" fill="white">
                            <use xlink:href="#path-7"></use>
                        </mask>
                        <g id="Clip-11"></g>
                        <path d="M127.5049,74.0245 C127.5049,74.0245 129.5299,156.5175 130.8879,156.9695 C132.2459,157.4225 100.1059,151.9905 90.1469,154.2545 C80.1879,156.5175 64.8629,143.8425 64.8629,143.8425 L52.9069,104.2545 L55.1139,80.6455 L82.4819,51.5125 L127.5049,74.0245 Z" id="Fill-10" fill="#162846" mask="url(#mask-8)"></path>
                    </g>
                    <g id="Group-15">
                        <mask id="mask-10" fill="white">
                            <use xlink:href="#path-9"></use>
                        </mask>
                        <g id="Clip-14"></g>
                        <path d="M103.437115,170.182 L55.5638942,170.182 C48.0725722,170.182 42,164.164 42,156.741 L42,136.442 C42,129.019 48.0725722,123 55.5638942,123 L103.437115,123 C110.927428,123 117,129.019 117,136.442 L117,156.741 C117,164.164 110.927428,170.182 103.437115,170.182" id="Fill-13" fill="#F05E2F" mask="url(#mask-10)"></path>
                        <rect id="Rectangle-Copy" fill="#FBCBA9" fill-rule="nonzero" mask="url(#mask-10)" x="42" y="140" width="17" height="24"></rect>
                    </g>
                    <g id="Group-18">
                        <mask id="mask-12" fill="white">
                            <use xlink:href="#path-11"></use>
                        </mask>
                        <g id="Clip-17"></g>
                        <path d="M74.0654,111.1984 L85.4914,111.1984 C89.1064,111.1984 92.0374,114.1294 92.0374,117.7444 L92.0374,139.8634 C92.0374,143.4784 89.1064,146.4094 85.4914,146.4094 L74.0654,146.4094 C70.4504,146.4094 67.5194,143.4784 67.5194,139.8634 L67.5194,117.7444 C67.5194,114.1294 70.4504,111.1984 74.0654,111.1984" id="Fill-16" fill="#F7AC82" mask="url(#mask-12)"></path>
                    </g>
                    <g id="Group-21">
                        <mask id="mask-14" fill="white">
                            <use xlink:href="#path-13"></use>
                        </mask>
                        <g id="Clip-20"></g>
                        <path d="M48.2343,96.9337 C48.2343,102.3787 43.8203,106.7927 38.3753,106.7927 C32.9303,106.7927 28.5163,102.3787 28.5163,96.9337 C28.5163,91.4887 32.9303,87.0747 38.3753,87.0747 C43.8203,87.0747 48.2343,91.4887 48.2343,96.9337" id="Fill-19" fill="#F7AC82" mask="url(#mask-14)"></path>
                    </g>
                    <g id="Group-24">
                        <mask id="mask-16" fill="white">
                            <use xlink:href="#path-15"></use>
                        </mask>
                        <g id="Clip-23"></g>
                        <path d="M130.1167,96.9337 C130.1167,102.3787 125.7027,106.7927 120.2577,106.7927 C114.8127,106.7927 110.3987,102.3787 110.3987,96.9337 C110.3987,91.4887 114.8127,87.0747 120.2577,87.0747 C125.7027,87.0747 130.1167,91.4887 130.1167,96.9337" id="Fill-22" fill="#F7AC82" mask="url(#mask-16)"></path>
                    </g>
                    <g id="Group-27">
                        <mask id="mask-18" fill="white">
                            <use xlink:href="#path-17"></use>
                        </mask>
                        <g id="Clip-26"></g>
                        <path d="M124.6416,85.631 C124.6416,110.474 104.5026,130.612 79.6596,130.612 C54.8166,130.612 34.6776,110.474 34.6776,85.631 C34.6776,60.788 54.8166,40.649 79.6596,40.649 C104.5026,40.649 124.6416,60.788 124.6416,85.631" id="Fill-25" fill="#FBCBA9" mask="url(#mask-18)"></path>
                    </g>
                    <g id="Group-30">
                        <mask id="mask-20" fill="white">
                            <use xlink:href="#path-19"></use>
                        </mask>
                        <g id="Clip-29"></g>
                        <path d="M63.0747,89.2863 C63.0747,92.8553 60.1817,95.7483 56.6127,95.7483 C53.0437,95.7483 50.1507,92.8553 50.1507,89.2863 C50.1507,85.7183 53.0437,82.8243 56.6127,82.8243 C60.1817,82.8243 63.0747,85.7183 63.0747,89.2863" id="Fill-28" fill="#010202" mask="url(#mask-20)"></path>
                    </g>
                    <g id="Group-33">
                        <mask id="mask-22" fill="white">
                            <use xlink:href="#path-21"></use>
                        </mask>
                        <g id="Clip-32"></g>
                        <path d="M109.1689,89.2863 C109.1689,92.8553 106.2749,95.7483 102.7069,95.7483 C99.1379,95.7483 96.2449,92.8553 96.2449,89.2863 C96.2449,85.7183 99.1379,82.8243 102.7069,82.8243 C106.2749,82.8243 109.1689,85.7183 109.1689,89.2863" id="Fill-31" fill="#010202" mask="url(#mask-22)"></path>
                    </g>
                    <g id="Group-36">
                        <mask id="mask-24" fill="white">
                            <use xlink:href="#path-23"></use>
                        </mask>
                        <g id="Clip-35"></g>
                        <path d="M79.644,99.0626 C76.35,99.0626 73.679,96.3916 73.679,93.0976 L85.609,93.0976 C85.609,96.3916 82.938,99.0626 79.644,99.0626" id="Fill-34" fill="#F7AC82" mask="url(#mask-24)"></path>
                    </g>
                    <g id="Group-39">
                        <mask id="mask-26" fill="white">
                            <use xlink:href="#path-25"></use>
                        </mask>
                        <g id="Clip-38"></g>
                        <path d="M69.4043,106.1828 L89.8833,106.1828 C89.8833,106.1828 87.2623,116.8318 79.6443,116.8318 C72.0263,116.8318 69.4043,106.1828 69.4043,106.1828" id="Fill-37" fill="#CA583C" mask="url(#mask-26)"></path>
                    </g>
                    <g id="Group-42">
                        <mask id="mask-28" fill="white">
                            <use xlink:href="#path-27"></use>
                        </mask>
                        <g id="Clip-41"></g>
                        <path d="M32.0477029,74.6811531 C31.6287847,62.0120989 43.6466002,30.8941 78.6098,30.8941 C118.854056,30.8941 127.523661,64.1680866 127.523661,74.6811531 C123.135065,77.8667885 110.051453,80.0043131 95.3706538,81 C95.0839483,81.019445 95.7362927,74.6811531 94.6815909,68.7227106 C94.2617956,66.3511147 93.0508823,63.5666066 92.7408156,62.9834525 C92.392109,62.3276267 93.0548645,64.0459071 93.3975211,69.0442295 C93.8175226,75.1707775 93.3571332,81.1100172 93.1365743,81.1227749 C65.5771827,82.7168784 32.2424141,80.5696711 32.0477029,74.6811531 Z" id="Fill-40" fill="#162846" mask="url(#mask-28)"></path>
                    </g>
                </g>
            </g>
            <g id="Path-1-+-Rectangle-6-+-Rectangle-6-+-Rectangle-1" transform="translate(74.000000, 151.500000) scale(-1, 1) translate(-74.000000, -151.500000) translate(54.000000, 133.000000)">
                <g id="Path-1">
                    <use stroke="#455A64" stroke-width="3.20914286" xlink:href="#path-29"></use>
                    <use stroke="#EAF2F9" stroke-width="1.23428571" xlink:href="#path-29"></use>
                </g>
                <g id="Rectangle-6-+-Rectangle-1">
                    <g id="Rectangle-1">
                        <mask id="mask-31" fill="white">
                            <use xlink:href="#path-30"></use>
                        </mask>
                        <path stroke="#455A64" stroke-width="0.987428571" d="M5.00447888,29.7521878 C5.00447881,27.9541119 4.65081176,26.7412408 3.074456,22.378754 C2.18034654,19.9043501 1.71501088,18.4034865 1.39728944,16.7385114 C1.28138403,16.0995304 1.15884362,15.308743 1.03030333,14.3790449 C0.850882827,13.0813437 0.662251755,11.5314864 0.467720457,9.78221117 C0.254542399,7.86525947 0.0454895178,5.8119812 -0.1506983,3.75878648 C-0.21935779,3.04023371 -0.281507973,2.3729861 -0.336052469,1.77412119 C-0.368792282,1.41465824 -0.391730981,1.15775926 -0.403668708,1.02166289 C-0.478545993,0.190556881 0.1449902,-0.493714286 0.98401492,-0.493714286 L29.633269,-0.493714286 C30.4682214,-0.493714286 31.0950471,0.202728212 31.0181752,1.03486005 C31.006082,1.17042041 30.9830379,1.42413259 30.9501375,1.77912739 C30.8953265,2.37053721 30.8328501,3.02947572 30.7638023,3.73907948 C30.566504,5.7667117 30.3560643,7.79443024 30.1412022,9.68754473 C29.9401087,11.4593467 29.7450956,13.023533 29.5596934,14.3243104 C29.4217085,15.2924087 29.2905203,16.1039612 29.1676539,16.7395784 C28.8442353,18.5005322 28.3555443,20.0894761 27.4755009,22.4849519 C25.8024771,27.0389184 25.5232651,27.9666344 25.523265,29.7521877 C25.5232653,31.2288427 25.4144317,32.7241638 25.2330633,34.1633909 C25.1695821,34.667138 25.1015223,35.1282131 25.0333712,35.5371654 C24.992242,35.7839683 24.9600072,35.9595802 24.9433949,36.0424066 C24.8095126,36.8169156 24.0820842,37.4243999 23.2926597,37.4243999 L7.23508419,37.4243999 C6.44505301,37.4243999 5.71243421,36.8081555 5.58645569,36.048212 C5.56762154,35.9526676 5.53541183,35.7760299 5.49430445,35.5280675 C5.42617528,35.1171081 5.35813361,34.654468 5.29466625,34.1498823 C5.11331083,32.7080491 5.00447892,31.2164988 5.00447888,29.7521878 Z"></path>
                        <path d="M6.0671757,29.5995954 C6.06717556,25.9459459 3.54445328,21.6405464 2.68302035,17.0053619 C1.92143785,12.6940024 1.00177891,1.92939739 1.00177891,1.92939739 C0.956751247,1.41610539 1.34765016,1 1.85756416,1 L28.644152,1 C29.1618168,1 29.5448104,1.41438113 29.498252,1.93217888 C29.498252,1.93217888 28.5477354,12.8725091 27.7698814,17.0053619 C26.8936498,21.9044456 24.3507211,25.9459459 24.3507209,29.5995954 C24.3507216,32.794597 23.8111961,35.5872788 23.8111961,35.5872788 C23.726204,36.0913608 23.2396305,36.5 22.7247957,36.5 L7.69310085,36.5 C7.17809058,36.5 6.68899625,36.0895607 6.60670067,35.5820169 C6.60670067,35.5820169 6.06717578,32.7674248 6.0671757,29.5995954 Z" id="Mask-Copy" fill="#F7941D" opacity="0.900000036" mask="url(#mask-31)"></path>
                        <rect id="Rectangle-35" fill="#EAF2F9" style="mix-blend-mode: multiply;" mask="url(#mask-31)" x="0" y="26.6998876" width="34.0740741" height="4.49156988"></rect>
                        <path d="M35.1278228,29.7521878 C35.1278226,25.9512926 32.43293,23.9676978 31.5127062,19.1457106 C30.6991473,14.6605991 36.6528815,0.910272909 36.6528815,0.910272909 C36.8650448,0.407543063 36.5962357,0 36.0518078,0 L29.1333774,0 C28.5892503,0 28.1154196,0.432813945 28.0725234,0.99050814 C28.0725234,0.99050814 27.0438665,14.8462997 26.2129257,19.1457106 C25.2768932,24.2422324 22.5604151,25.9512926 22.5604149,29.7521878 C22.5604156,33.0759512 21.9572659,36.9579806 21.9572659,36.9579806 C21.8812761,37.4941561 22.255535,37.9288123 22.8075648,37.9288123 L34.8806729,37.9288123 C35.4262698,37.9288123 35.8054084,37.4935306 35.7309719,36.9533204 C35.7309719,36.9533204 35.1278229,33.0476839 35.1278228,29.7521878 Z" id="Mask" fill="#EAF2F9" style="mix-blend-mode: multiply;" mask="url(#mask-31)"></path>
                        <path d="M11.9891983,28.5243339 C11.9891983,26.8879251 11.2950853,24.4375034 10.5621602,22.978572 C10.5621602,22.978572 6.41975353,18.1997719 6.41975309,-0.998126639 L-4.93649637,-0.998126639 C-5.48294322,-0.998126639 -5.83164545,-0.560958868 -5.71840639,-0.0358823603 L2.26161627,36.966568 C2.37622614,37.4980009 2.91428431,37.9627484 3.45544264,38.0040039 L24.7539949,39.6277111 L24.7539949,34.5344035 L15.9406421,34.5344035 C13.75832,34.5344035 11.9891983,32.7616176 11.9891983,30.5856354 L11.9891983,28.5243339 Z" id="Mask" fill="#EAF2F9" style="mix-blend-mode: multiply;" mask="url(#mask-31)"></path>
                        <rect id="reflect" fill="#FFFFFF" opacity="0.7" mask="url(#mask-31)" x="17.2839506" y="-16.7186212" width="2.96296296" height="58.3904084" rx="1.48148148"></rect>
                        <rect id="Rectangle-2" fill="#B5C5C5" style="mix-blend-mode: multiply;" mask="url(#mask-31)" x="-9.87654321" y="-17.7167478" width="52.0987654" height="9.98126639"></rect>
                        <rect id="Rectangle-2" fill="#FFFFFF" mask="url(#mask-31)" x="-9.87654321" y="-8.48407643" width="52.0987654" height="9.98126639"></rect>
                    </g>
                </g>
            </g>
            <path d="M82.6210504,152.279962 C82.6210504,147.429939 82.6210504,143.669952 82.6210504,141 L99.4877161,141 C99.4386999,143.891562 99.4386999,146.303133 99.4877161,148.234714 C99.6210309,153.488255 103.141453,155.707582 108.546995,155.707582 C116.713764,155.707582 115.404167,157.437754 111.074327,158.496384 C113.397633,161.465207 118.680161,163.433632 116.471592,165.433647 C114.263024,167.433662 113.041946,171.349662 102.687445,167.250969 C92.3329443,163.152275 82.6210504,159.35684 82.6210504,152.279962 Z" id="Rectangle-Copy-2" fill="#FBCBA9" fill-rule="nonzero" transform="translate(99.810525, 155.024519) scale(-1, 1) translate(-99.810525, -155.024519) "></path>
        </g>
    </g>
</svg>