<?xml version="1.0" encoding="UTF-8"?>
<svg width="320px" height="200px" viewBox="0 0 320 200" version="1.1" xmlns="http://www.w3.org/2000/svg" xmlns:xlink="http://www.w3.org/1999/xlink">
    <!-- Generator: Sketch 51.2 (57519) - http://www.bohemiancoding.com/sketch -->
    <title>ZeroWasteAni_02_3</title>
    <desc>Created with Sketch.</desc>
    <defs>
        <polygon id="path-1" points="0 0.638 126.166513 0.638 126.166513 127.0036 0 127.0036"></polygon>
        <path d="M63.5750818,0.7304 C28.5694088,0.7304 0.190899371,29.1528 0.190899371,64.2128 C0.190899371,99.2752 28.5694088,127.6976 63.5750818,127.6976 C98.5815535,127.6976 126.959264,99.2752 126.959264,64.2128" id="path-3"></path>
        <path d="M63.5750818,0.7304 C28.5694088,0.7304 0.190899371,29.1528 0.190899371,64.2128 C0.190899371,99.2752 28.5694088,127.6976 63.5750818,127.6976 C98.5815535,127.6976 126.959264,99.2752 126.959264,64.2128 C126.959264,29.1528 98.5815535,0.7304 63.5750818,0.7304 Z" id="path-5"></path>
        <path d="M63.5750818,0.7304 C28.5694088,0.7304 0.190899371,29.1528 0.190899371,64.2128 C0.190899371,99.2752 28.5694088,127.6976 63.5750818,127.6976 C98.5815535,127.6976 126.959264,99.2752 126.959264,64.2128 C126.959264,29.1528 98.5815535,0.7304 63.5750818,0.7304 Z" id="path-7"></path>
        <path d="M63.5750818,0.7304 C28.5694088,0.7304 0.190899371,29.1528 0.190899371,64.2128 C0.190899371,99.2752 28.5694088,127.6976 63.5750818,127.6976 C98.5815535,127.6976 126.959264,99.2752 126.959264,64.2128" id="path-9"></path>
        <path d="M63.5750818,0.7304 C28.5694088,0.7304 0.190899371,29.1528 0.190899371,64.2128 C0.190899371,99.2752 28.5694088,127.6976 63.5750818,127.6976 C98.5815535,127.6976 126.959264,99.2752 126.959264,64.2128" id="path-11"></path>
        <path d="M63.5750818,0.7304 C28.5694088,0.7304 0.190899371,29.1528 0.190899371,64.2128 C0.190899371,99.2752 28.5694088,127.6976 63.5750818,127.6976 C98.5815535,127.6976 126.959264,99.2752 126.959264,64.2128" id="path-13"></path>
        <path d="M63.5750818,0.7304 C28.5694088,0.7304 0.190899371,29.1528 0.190899371,64.2128 C0.190899371,99.2752 28.5694088,127.6976 63.5750818,127.6976 C98.5815535,127.6976 126.959264,99.2752 126.959264,64.2128" id="path-15"></path>
        <path d="M63.5750818,0.7304 C28.5694088,0.7304 0.190899371,29.1528 0.190899371,64.2128 C0.190899371,99.2752 28.5694088,127.6976 63.5750818,127.6976 C98.5815535,127.6976 126.959264,99.2752 126.959264,64.2128" id="path-17"></path>
        <path d="M63.5750818,0.7304 C28.5694088,0.7304 0.190899371,29.1528 0.190899371,64.2128 C0.190899371,99.2752 28.5694088,127.6976 63.5750818,127.6976 C98.5815535,127.6976 126.959264,99.2752 126.959264,64.2128" id="path-19"></path>
        <path d="M63.5750818,0.7304 C28.5694088,0.7304 0.190899371,29.1528 0.190899371,64.2128 C0.190899371,99.2752 28.5694088,127.6976 63.5750818,127.6976 C98.5815535,127.6976 126.959264,99.2752 126.959264,64.2128" id="path-21"></path>
        <path d="M63.5750818,0.7304 C28.5694088,0.7304 0.190899371,29.1528 0.190899371,64.2128 C0.190899371,99.2752 28.5694088,127.6976 63.5750818,127.6976 C98.5815535,127.6976 126.959264,99.2752 126.959264,64.2128" id="path-23"></path>
        <path d="M63.5750818,0.7304 C28.5694088,0.7304 0.190899371,29.1528 0.190899371,64.2128 C0.190899371,99.2752 28.5694088,127.6976 63.5750818,127.6976 C98.5815535,127.6976 126.959264,99.2752 126.959264,64.2128" id="path-25"></path>
        <path d="M63.5750818,0.7304 C28.5694088,0.7304 0.190899371,29.1528 0.190899371,64.2128 C0.190899371,99.2752 28.5694088,127.6976 63.5750818,127.6976 C98.5815535,127.6976 126.959264,99.2752 126.959264,64.2128 C126.959264,29.1528 98.5815535,0.7304 63.5750818,0.7304 Z" id="path-27"></path>
    </defs>
    <g id="ZeroWasteAni_02_3" stroke="none" stroke-width="1" fill="none" fill-rule="evenodd">
        <rect fill="#FFFFFF" x="0" y="0" width="320" height="200"></rect>
        <rect id="Rectangle-22" fill="#FEEDCF" fill-rule="nonzero" x="0" y="0" width="320" height="200"></rect>
        <rect id="Rectangle-22-Copy" stroke-opacity="0.2" stroke="#000000" stroke-width="8" fill-opacity="0" fill="#FFFFFF" fill-rule="nonzero" x="4" y="4" width="312" height="192"></rect>
        <g id="Group" transform="translate(173.000000, 16.000000)">
            <g id="2">
                <g id="Group-3" transform="translate(0.000000, 0.870400)">
                    <mask id="mask-2" fill="white">
                        <use xlink:href="#path-1"></use>
                    </mask>
                    <g id="Clip-2"></g>
                    <path d="M126.166513,63.8204 C126.166513,98.7156 97.9229906,127.0036 63.0826572,127.0036 C28.2431226,127.0036 -0.000399371069,98.7156 -0.000399371069,63.8204 C-0.000399371069,28.926 28.2431226,0.638 63.0826572,0.638 C97.9229906,0.638 126.166513,28.926 126.166513,63.8204" id="Fill-1" fill="#D1E1E7" mask="url(#mask-2)"></path>
                </g>
                <g id="Group-49" transform="translate(0.000000, -0.000000)">
                    <g id="Group-6">
                        <mask id="mask-4" fill="white">
                            <use xlink:href="#path-3"></use>
                        </mask>
                        <g id="Clip-5"></g>
                        <path d="M59.0643453,88.95872 L68.190773,88.95872 C71.0782258,88.95872 73.419339,91.30352 73.419339,94.19552 L73.419339,111.89072 C73.419339,114.78272 71.0782258,117.12752 68.190773,117.12752 L59.0643453,117.12752 C56.1768925,117.12752 53.8357792,114.78272 53.8357792,111.89072 L53.8357792,94.19552 C53.8357792,91.30352 56.1768925,88.95872 59.0643453,88.95872" id="Fill-4" fill="#F7AC82" mask="url(#mask-4)"></path>
                    </g>
                    <g id="Group-9">
                        <mask id="mask-6" fill="white">
                            <use xlink:href="#path-5"></use>
                        </mask>
                        <g id="Clip-8"></g>
                        <path d="M25.6099893,58.29544 C25.6099893,58.29544 23.9925365,124.29064 22.9078447,124.65224 C21.8231528,125.01464 47.4947252,120.66904 55.4493981,122.47944 C63.4040711,124.29064 75.6439956,114.14984 75.6439956,114.14984 L85.1945553,82.47944 L83.4317314,63.59224 L61.5717566,40.28584 L25.6099893,58.29544 Z" id="Fill-7" fill="#162846" mask="url(#mask-6)"></path>
                    </g>
                    <g id="Group-12">
                        <mask id="mask-8" fill="white">
                            <use xlink:href="#path-7"></use>
                        </mask>
                        <g id="Clip-11"></g>
                        <path d="M101.843536,59.2196 C101.843536,59.2196 103.460989,125.214 104.545681,125.5756 C105.630373,125.938 79.9588006,121.5924 72.0041277,123.4036 C64.0494547,125.214 51.8087314,115.074 51.8087314,115.074 L42.2589704,83.4036 L44.0217943,64.5164 L65.8817692,41.21 L101.843536,59.2196 Z" id="Fill-10" fill="#162846" mask="url(#mask-8)"></path>
                    </g>
                    <g id="Group-15">
                        <mask id="mask-10" fill="white">
                            <use xlink:href="#path-9"></use>
                        </mask>
                        <g id="Clip-14"></g>
                        <path d="M82.6195823,136.1456 L44.3812237,136.1456 C38.3975891,136.1456 33.5471698,131.3312 33.5471698,125.3928 L33.5471698,109.1536 C33.5471698,103.2152 38.3975891,98.4 44.3812237,98.4 L82.6195823,98.4 C88.6024109,98.4 93.4528302,103.2152 93.4528302,109.1536 L93.4528302,125.3928 C93.4528302,131.3312 88.6024109,136.1456 82.6195823,136.1456" id="Fill-13" fill="#F05E2F" mask="url(#mask-10)"></path>
                        <rect id="Rectangle-Copy" fill="#FBCBA9" fill-rule="nonzero" mask="url(#mask-10)" x="33.5471698" y="112" width="13.5786164" height="19.2"></rect>
                        <path d="M66.27272,121.82397 C66.27272,117.943951 66.27272,114.935961 66.27272,112.8 L79.7448366,112.8 C79.7056853,115.113249 79.7056853,117.042506 79.7448366,118.587771 C79.8513207,122.790604 95.0746509,130.746906 93.3105742,132.346918 C91.5464975,133.94693 90.5711713,137.07973 82.3005951,133.800775 C74.0300189,130.52182 66.27272,127.485472 66.27272,121.82397 Z" id="Rectangle-Copy-2" fill="#FBCBA9" fill-rule="nonzero" mask="url(#mask-10)" transform="translate(79.862775, 124.019615) scale(-1, 1) translate(-79.862775, -124.019615) "></path>
                    </g>
                    <g id="Group-18">
                        <mask id="mask-12" fill="white">
                            <use xlink:href="#path-11"></use>
                        </mask>
                        <g id="Clip-17"></g>
                        <path d="M59.159156,88.95872 L68.2855836,88.95872 C71.1730365,88.95872 73.5141497,91.30352 73.5141497,94.19552 L73.5141497,111.89072 C73.5141497,114.78272 71.1730365,117.12752 68.2855836,117.12752 L59.159156,117.12752 C56.2717031,117.12752 53.9305899,114.78272 53.9305899,111.89072 L53.9305899,94.19552 C53.9305899,91.30352 56.2717031,88.95872 59.159156,88.95872" id="Fill-16" fill="#F7AC82" mask="url(#mask-12)"></path>
                    </g>
                    <g id="Group-21">
                        <mask id="mask-14" fill="white">
                            <use xlink:href="#path-13"></use>
                        </mask>
                        <g id="Clip-20"></g>
                        <path d="M38.5267679,77.54696 C38.5267679,81.90296 35.0011201,85.43416 30.6519692,85.43416 C26.3028182,85.43416 22.7771704,81.90296 22.7771704,77.54696 C22.7771704,73.19096 26.3028182,69.65976 30.6519692,69.65976 C35.0011201,69.65976 38.5267679,73.19096 38.5267679,77.54696" id="Fill-19" fill="#F7AC82" mask="url(#mask-14)"></path>
                    </g>
                    <g id="Group-24">
                        <mask id="mask-16" fill="white">
                            <use xlink:href="#path-15"></use>
                        </mask>
                        <g id="Clip-23"></g>
                        <path d="M103.929691,77.54696 C103.929691,81.90296 100.404043,85.43416 96.0548925,85.43416 C91.7057415,85.43416 88.1800937,81.90296 88.1800937,77.54696 C88.1800937,73.19096 91.7057415,69.65976 96.0548925,69.65976 C100.404043,69.65976 103.929691,73.19096 103.929691,77.54696" id="Fill-22" fill="#F7AC82" mask="url(#mask-16)"></path>
                    </g>
                    <g id="Group-27">
                        <mask id="mask-18" fill="white">
                            <use xlink:href="#path-17"></use>
                        </mask>
                        <g id="Clip-26"></g>
                        <path d="M99.5564981,68.5048 C99.5564981,88.3792 83.4706302,104.4896 63.6274792,104.4896 C43.7843283,104.4896 27.6984604,88.3792 27.6984604,68.5048 C27.6984604,48.6304 43.7843283,32.5192 63.6274792,32.5192 C83.4706302,32.5192 99.5564981,48.6304 99.5564981,68.5048" id="Fill-25" fill="#FBCBA9" mask="url(#mask-18)"></path>
                    </g>
                    <g id="Group-30">
                        <mask id="mask-20" fill="white">
                            <use xlink:href="#path-19"></use>
                        </mask>
                        <g id="Clip-29"></g>
                        <path d="M50.3804208,71.42904 C50.3804208,74.28424 48.0696597,76.59864 45.2189491,76.59864 C42.3682384,76.59864 40.0574774,74.28424 40.0574774,71.42904 C40.0574774,68.57464 42.3682384,66.25944 45.2189491,66.25944 C48.0696597,66.25944 50.3804208,68.57464 50.3804208,71.42904" id="Fill-28" fill="#010202" mask="url(#mask-20)"></path>
                    </g>
                    <g id="Group-33">
                        <mask id="mask-22" fill="white">
                            <use xlink:href="#path-21"></use>
                        </mask>
                        <g id="Clip-32"></g>
                        <path d="M87.1978006,71.42904 C87.1978006,74.28424 84.8862409,76.59864 82.0363289,76.59864 C79.1856182,76.59864 76.8748572,74.28424 76.8748572,71.42904 C76.8748572,68.57464 79.1856182,66.25944 82.0363289,66.25944 C84.8862409,66.25944 87.1978006,68.57464 87.1978006,71.42904" id="Fill-31" fill="#010202" mask="url(#mask-22)"></path>
                    </g>
                    <g id="Group-36">
                        <mask id="mask-24" fill="white">
                            <use xlink:href="#path-23"></use>
                        </mask>
                        <g id="Clip-35"></g>
                        <path d="M63.6150189,79.25008 C60.9839623,79.25008 58.850522,77.11328 58.850522,74.47808 L68.3795157,74.47808 C68.3795157,77.11328 66.2460755,79.25008 63.6150189,79.25008" id="Fill-34" fill="#F7AC82" mask="url(#mask-24)"></path>
                    </g>
                    <g id="Group-39">
                        <mask id="mask-26" fill="white">
                            <use xlink:href="#path-25"></use>
                        </mask>
                        <g id="Clip-38"></g>
                        <path d="M55.436139,84.94624 L71.7935792,84.94624 C71.7935792,84.94624 69.7000761,93.46544 63.6152585,93.46544 C57.5304409,93.46544 55.436139,84.94624 55.436139,84.94624" id="Fill-37" fill="#CA583C" mask="url(#mask-26)"></path>
                    </g>
                    <g id="Group-42">
                        <mask id="mask-28" fill="white">
                            <use xlink:href="#path-27"></use>
                        </mask>
                        <g id="Clip-41"></g>
                        <path d="M25.5978507,59.7449225 C25.2632431,49.6096791 34.8623788,24.71528 62.7889597,24.71528 C94.9337429,24.71528 101.858522,51.3344693 101.858522,59.7449225 C98.3531652,62.2934308 87.9027325,64.0034505 76.1765599,64.8 C75.9475562,64.815556 76.4686112,59.7449225 75.6261764,54.9781685 C75.2908682,53.0808918 74.3236607,50.8532853 74.0759974,50.386762 C73.7974707,49.8621013 74.3268414,51.2367257 74.6005357,55.2353836 C74.9360086,60.136622 74.5682762,64.8880138 74.3921065,64.8982199 C52.3792592,66.1735027 25.7533748,64.4557369 25.5978507,59.7449225 Z" id="Fill-40" fill="#162846" mask="url(#mask-28)"></path>
                    </g>
                </g>
            </g>
        </g>
        <g id="house-copy-2" transform="translate(215.000000, 150.000000)">
            <path d="M14.2927231,12.1157212 C14.2927231,12.6478726 13.8548385,13.0833534 13.3195615,13.0833534 L6.36163846,13.0833534 C5.82644615,13.0833534 5.38847692,12.6479567 5.38847692,12.1157212 L5.38847692,2.1172476 C5.38847692,1.58509615 5.82636154,1.14961538 6.36163846,1.14961538 L13.3195615,1.14961538 C13.8547538,1.14961538 14.2927231,1.58501202 14.2927231,2.1172476 L14.2927231,12.1157212 L14.2927231,12.1157212 Z" id="Shape" fill="#D68231"></path>
            <rect id="Rectangle-path" fill="#000000" opacity="0.1" x="5.38830769" y="2.81194712" width="5.13539231" height="2.45723558"></rect>
            <rect id="Rectangle-path" fill="#000000" opacity="0.1" x="9.15724615" y="6.60305288" width="5.13539231" height="2.45723558"></rect>
            <polygon id="Shape" fill="#D1D3D3" points="3.60266923 12.7754207 3.60266923 32.82125 39.7210846 32.82125 39.7210846 12.7754207 21.6617077 1.56894231"></polygon>
            <polygon id="Shape" fill="#000000" opacity="0.1" points="21.6617077 1.56894231 3.60266923 12.7754207 3.60266923 16.839375 21.6617077 5.63289663 39.7210846 16.839375 39.7210846 12.7754207"></polygon>
            <rect id="Rectangle-path" fill="#000000" opacity="0.1" x="34.5853538" y="16.6613462" width="5.13547692" height="2.45723558"></rect>
            <rect id="Rectangle-path" fill="#000000" opacity="0.1" x="27.5593154" y="27.8130529" width="5.13547692" height="2.45723558"></rect>
            <rect id="Rectangle-path" fill="#000000" opacity="0.1" x="21.2222154" y="16.6217188" width="5.13547692" height="2.45723558"></rect>
            <rect id="Rectangle-path" fill="#000000" opacity="0.1" x="3.60258462" y="22.6179928" width="5.13539231" height="2.45723558"></rect>
            <rect id="Rectangle-path" fill="#000000" opacity="0.1" x="7.6362" y="13.8185216" width="5.13547692" height="2.45723558"></rect>
            <rect id="Rectangle-path" fill="#D68231" x="17.2508769" y="20.756262" width="8.82056154" height="12.0651563"></rect>
            <ellipse id="Oval" fill="#FFFFFF" cx="21.6611154" cy="25.0814543" rx="1.72767692" ry="1.71786058"></ellipse>
            <ellipse id="Oval" fill="#FFFFFF" cx="21.6611154" cy="10.5498918" rx="3.674" ry="3.653125"></ellipse>
            <path d="M21.6612846,6.89685096 C19.6321231,6.89685096 17.9872,8.53234375 17.9872,10.549976 C17.9872,10.7703245 18.0079308,10.985625 18.0455,11.1949519 C18.3520615,9.48516827 19.8537308,8.18705529 21.6612846,8.18705529 C23.4690077,8.18705529 24.9705077,9.48516827 25.2769846,11.1949519 C25.3145538,10.9855409 25.3352846,10.7702404 25.3352846,10.549976 C25.3352846,8.53234375 23.6904462,6.89685096 21.6612846,6.89685096 L21.6612846,6.89685096 Z" id="Shape" fill="#000000" opacity="0.2"></path>
            <polygon id="Shape" fill="#D68231" points="25.3352 9.82423077 22.3910923 9.82423077 22.3910923 6.89685096 20.9313077 6.89685096 20.9313077 9.82423077 17.9872 9.82423077 17.9872 11.275637 20.9313077 11.275637 20.9313077 14.2030168 22.3910923 14.2030168 22.3910923 11.275637 25.3352 11.275637"></polygon>
            <path d="M21.6612846,14.928762 C19.2329077,14.928762 17.2573077,12.964387 17.2573077,10.549976 C17.2573077,8.1355649 19.2329077,6.1711899 21.6612846,6.1711899 C24.0895769,6.1711899 26.0650923,8.1355649 26.0650923,10.549976 C26.0650923,12.964387 24.0895769,14.928762 21.6612846,14.928762 L21.6612846,14.928762 Z M21.6612846,7.62251202 C20.0377692,7.62251202 18.7170923,8.93576923 18.7170923,10.5498918 C18.7170923,12.1640144 20.0378538,13.4772716 21.6612846,13.4772716 C23.2847154,13.4772716 24.6053923,12.1640144 24.6053923,10.5498918 C24.6053923,8.93576923 23.2847154,7.62251202 21.6612846,7.62251202 L21.6612846,7.62251202 Z" id="Shape" fill="#FF5959"></path>
            <rect id="Rectangle-path" fill="#000000" opacity="0.1" x="17.2508769" y="20.756262" width="8.82056154" height="1.5249399"></rect>
            <rect id="Rectangle-path" fill="#FFFFFF" x="6.78471538" y="17.8757452" width="6.31154615" height="7.09254808"></rect>
            <rect id="Rectangle-path" fill="#000000" opacity="0.2" x="6.78471538" y="17.8757452" width="6.31154615" height="1.56364183"></rect>
            <rect id="Rectangle-path" fill="#D68231" x="6.78471538" y="20.696274" width="6.31154615" height="1.45140625"></rect>
            <path d="M7.41933077,24.3372837 L12.4616462,24.3372837 L12.4616462,18.5067548 L7.41933077,18.5067548 L7.41933077,24.3372837 Z M13.7308769,17.2447356 L13.7308769,25.5993029 L6.1501,25.5993029 L6.1501,17.2447356 L13.7308769,17.2447356 Z" id="Rectangle-path" fill="#FF5959" fill-rule="nonzero"></path>
            <rect id="Rectangle-path" fill="#FFFFFF" x="30.2276615" y="17.8757452" width="6.31154615" height="7.09254808"></rect>
            <rect id="Rectangle-path" fill="#000000" opacity="0.2" x="30.2276615" y="17.8757452" width="6.31154615" height="1.56364183"></rect>
            <rect id="Rectangle-path" fill="#D68231" x="30.2276615" y="20.696274" width="6.31154615" height="1.45140625"></rect>
            <path d="M36.5392077,25.6941226 L30.2276615,25.6941226 C29.8245538,25.6941226 29.4977692,25.3692788 29.4977692,24.9683774 L29.4977692,17.8756611 C29.4977692,17.4747596 29.8245538,17.1499159 30.2276615,17.1499159 L36.5392077,17.1499159 C36.9423154,17.1499159 37.2691,17.4747596 37.2691,17.8756611 L37.2691,24.9683774 C37.2691,25.3691947 36.9423154,25.6941226 36.5392077,25.6941226 L36.5392077,25.6941226 Z M30.9573846,24.2426322 L35.8092308,24.2426322 L35.8092308,18.6014062 L30.9573846,18.6014062 L30.9573846,24.2426322 L30.9573846,24.2426322 Z" id="Shape" fill="#FF5959"></path>
            <path d="M41.8273308,32.82125 C41.8273308,29.6460096 39.2386077,27.0720793 36.0453077,27.0720793 C32.8520077,27.0720793 30.2632,29.6460938 30.2632,32.82125 L41.8273308,32.82125 L41.8273308,32.82125 Z" id="Shape" fill="#218649"></path>
            <path d="M1.49515385,32.82125 C1.49515385,29.6460096 4.08387692,27.0720793 7.27726154,27.0720793 C10.4706462,27.0720793 13.0592846,29.6460938 13.0592846,32.82125 L1.49515385,32.82125 L1.49515385,32.82125 Z" id="Shape" fill="#218649"></path>
            <path d="M43.3229923,34.5172954 C43.3229923,34.7828935 43.1069697,35 42.8429702,35 L0.480022139,35 C0.216022655,35 0,34.7828935 0,34.5172954 L0,32.7902268 C0,32.5247988 0.216022655,32.3076923 0.480022139,32.3076923 L42.8430548,32.3076923 C43.1070543,32.3076923 43.3230769,32.5247988 43.3230769,32.7902268 L43.3230769,34.5172954 L43.3229923,34.5172954 L43.3229923,34.5172954 Z" id="Shape" fill="#00AD68"></path>
            <rect id="Rectangle-path" fill="#333E48" x="14.4725308" y="32.3076923" width="14.3761538" height="2.69230769"></rect>
            <path d="M41.4366615,15.3667668 C41.1554846,15.3667668 40.8710923,15.2912139 40.6148769,15.1324519 L21.6617077,3.39289663 L2.70845385,15.1324519 C1.97856154,15.5848438 1.01834615,15.3627284 0.563623077,14.6370673 C0.1089,13.9114063 0.332115385,12.9565625 1.06200769,12.5043389 L20.8384,0.254927885 C21.3423692,-0.0572115385 21.9809615,-0.0572115385 22.4849308,0.254927885 L42.2614923,12.5044231 C42.9913846,12.9565625 43.2145154,13.9114063 42.7598769,14.6371514 C42.4646538,15.1080529 41.9563692,15.3667668 41.4366615,15.3667668 L41.4366615,15.3667668 Z" id="Shape" fill="#FF5959"></path>
        </g>
        <g id="bag" opacity="0.900000036" transform="translate(50.000000, 51.000000)" fill-rule="nonzero">
            <path d="M93.8607437,117.888533 C92.8276583,109.804406 84.3955779,43.830041 83.4104925,36.1201992 C83.2363417,34.758791 82.0734874,33.7382754 80.6957186,33.7382754 L15.3042814,33.7382754 C13.9265126,33.7382754 12.7634171,34.758791 12.5892663,36.1201992 L2.13925628,117.888533 C1.93085427,119.516121 3.20659296,120.958488 4.85403015,120.958488 L91.1457286,120.958488 C92.793407,120.958488 94.0686633,119.516121 93.8607437,117.888533 Z" id="Shape" fill="#ECF1F8"></path>
            <path d="M36.7308543,33.7382754 L15.3042814,33.7382754 C13.9265126,33.7382754 12.7634171,34.758791 12.5892663,36.1201992 L2.13925628,117.888533 C1.93085427,119.516121 3.20659296,120.958488 4.85403015,120.958488 L73.2451055,120.958488 C35.2923015,110.896512 17.2491256,67.5606328 36.7308543,33.7382754 Z" id="Shape" fill="#AFCBD8"></path>
            <polyline id="Shape" fill="#FFCA54" points="29.6982513 92.1486211 90.5709347 92.1486211 88.679397 77.3487422 7.32036181 77.3487422 5.42882412 92.1486211 23.0052663 92.1486211"></polyline>
            <path d="M7.32036181,77.3487422 L5.42906533,92.1486211 L36.2670151,92.1486211 C33.7157789,87.5526973 31.7564623,82.5853711 30.4913367,77.3487422 L7.32036181,77.3487422 Z" id="Shape" fill="#F9B24B"></path>
            <polygon id="Shape" fill="#FF4B4E" points="7.32036181 77.3487422 88.679397 77.3487422 86.7881005 62.5483828 9.2118995 62.5483828"></polygon>
            <path d="M28.8373869,62.5483828 L9.2118995,62.5483828 C9.17451256,62.8405078 7.35654271,77.0655059 7.32036181,77.3487422 L30.4913367,77.3487422 C29.3482613,72.6178066 28.7710553,67.6891582 28.8373869,62.5483828 Z" id="Shape" fill="#EF3F48"></path>
            <path d="M95.9481407,117.693943 C95.6941508,115.706965 87.712402,53.2539551 87.4586533,51.2669766 C87.3197186,50.1832793 86.326191,49.4186133 85.2371457,49.5541055 C84.1485829,49.6922402 83.3788945,50.6827266 83.5173467,51.7666641 L84.6314774,60.4842891 L11.3685226,60.4842891 L14.4699497,36.2170137 C14.5179497,35.8415273 14.8409246,35.5580508 15.2213065,35.5580508 L25.302995,35.5580508 L25.302995,42.2846133 C25.302995,43.3774395 26.1923216,44.2627031 27.2893266,44.2627031 C28.3863317,44.2627031 29.2756583,43.3771992 29.2756583,42.2846133 L29.2756583,35.5580508 L66.7241005,35.5580508 L66.7241005,42.2846133 C66.7241005,43.3774395 67.6131859,44.2627031 68.710191,44.2627031 C69.8074372,44.2627031 70.6967638,43.3771992 70.6967638,42.2846133 L70.6967638,35.5580508 L80.7789347,35.5580508 C81.1590754,35.5580508 81.4820503,35.8415273 81.529809,36.2170137 L82.6748141,45.1765547 C82.8132663,46.260252 83.808,47.0241973 84.8963216,46.8894258 C85.984402,46.7515312 86.7543317,45.7608047 86.6161206,44.6768672 L85.4708744,35.7170859 C85.1708141,33.3702363 83.1538492,31.6011504 80.7789347,31.6011504 L70.6967638,31.6011504 L70.6967638,20.1643125 C70.697005,9.04530469 61.614392,0 50.4513769,0 L45.5486231,0 C34.3851256,0 25.302995,9.04530469 25.302995,20.1643125 L25.302995,31.6013906 L15.2213065,31.6013906 C12.8461508,31.6013906 10.8291859,33.370957 10.5288844,35.7175664 C10.3918794,36.7899727 0.103477387,117.290109 0.0518592965,117.693943 C-0.307778894,120.507809 1.89708543,123 4.74428141,123 L91.2554774,123 C94.1038794,123 96.3070553,120.506848 95.9481407,117.693943 Z M29.2756583,20.1643125 C29.2756583,11.227834 36.5755176,3.95690039 45.5486231,3.95690039 L50.4513769,3.95690039 C59.4237588,3.95690039 66.7241005,11.227834 66.7241005,20.1643125 L66.7241005,31.6013906 L29.2756583,31.6013906 L29.2756583,20.1643125 Z M85.1372864,64.4411895 C85.2641608,65.4340781 86.4021709,74.3390859 86.5278392,75.3223652 L9.4721608,75.3223652 L10.8627136,64.4411895 L85.1372864,64.4411895 Z M91.8237588,118.78725 C91.4836583,119.172586 96.2325226,119.0431 4.74428141,119.0431 C4.29177889,119.0431 3.93527638,118.646713 3.99292462,118.193631 L7.06998995,94.1168613 L22.9415879,94.1168613 C24.038593,94.1168613 24.9279196,93.2311172 24.9279196,92.1385313 C24.9279196,91.0459453 24.038593,90.1602012 22.9415879,90.1602012 L7.57579899,90.1602012 C7.89419095,87.6692109 8.66146734,81.6667148 8.96659296,79.2792656 L87.033407,79.2792656 L88.424201,90.1602012 L29.6516985,90.1602012 C28.5546935,90.1602012 27.6653668,91.0459453 27.6653668,92.1385313 C27.6653668,93.2311172 28.5546935,94.1168613 29.6516985,94.1168613 L88.9300101,94.1168613 C92.2550352,120.134004 92.1474573,118.421373 91.8237588,118.78725 Z" id="Shape" fill="#231F20"></path>
        </g>
    </g>
</svg>